<svg xmlns="http://www.w3.org/2000/svg" fill="none" viewBox="0 0 1920 1280" height="1280" width="1920">
<g clip-path="url(#clip0_4023_815)">
<path fill="#3C5B2E" d="M1201.18 1103.96C1207 1089.24 1216.76 1076.1 1229.17 1066.28C1230.44 1065.28 1231.85 1064.26 1233.47 1064.23C1235.22 1064.19 1236.76 1065.3 1238.16 1066.36C1242.41 1069.6 1246.67 1072.83 1250.92 1076.07C1248.34 1071.81 1245.91 1067.46 1243.64 1063.02C1242.82 1061.41 1241.99 1059.65 1242.28 1057.87C1242.54 1056.21 1243.71 1054.86 1244.87 1053.64C1256.04 1041.93 1271.66 1030.56 1287.64 1028C1277.88 1031.93 1266.74 1029.89 1256.8 1026.46C1246.85 1023.03 1237.26 1018.24 1226.86 1016.65C1240.88 996.849 1268.83 986.109 1292 993.319C1283.79 986.829 1275.39 980.569 1266.84 974.549C1262.72 971.649 1258.45 968.749 1253.56 967.529C1241.96 964.629 1230.31 971.769 1221.31 979.639C1209.91 989.589 1200.03 1001.28 1192.11 1014.18C1203.02 977.549 1225.2 944.359 1254.87 920.259C1257.84 917.849 1260.95 915.489 1264.57 914.279C1271.92 911.809 1279.93 914.449 1287.15 917.279C1301.94 923.099 1317.98 926.049 1331.9 933.719C1319.25 923.599 1313.95 905.219 1319.26 889.909C1321.59 883.189 1325.7 877.179 1327.88 870.419C1330.06 863.649 1333.39 854.489 1328.13 849.699C1341.25 846.139 1356.41 852.759 1362.72 864.799C1369.74 878.219 1365.83 894.479 1367.15 909.569C1369.88 892.659 1385.13 879.949 1401.54 875.029C1417.95 870.109 1436.35 867.599 1453.42 868.999C1442.99 866.819 1434.5 859.239 1427.92 850.859C1421.34 842.479 1416.15 833.049 1409.2 824.979C1397.17 811.019 1379.93 801.669 1361.67 799.189C1390.04 789.279 1421.46 785.239 1450.13 794.229C1478.8 803.219 1503.87 827.129 1508.4 856.839C1505.3 842.489 1509.09 829.459 1517.5 817.429C1525.91 805.399 1537.41 795.929 1548.77 786.629C1551.33 797.089 1557.67 806.229 1561 816.469C1565.39 829.979 1564.19 845.209 1557.74 857.859C1572.28 838.889 1594.06 830.259 1617.95 830.709C1616.26 838.919 1618.49 847.349 1619.41 855.679C1620.34 864.009 1619.53 873.439 1613.36 879.109C1624.98 860.039 1648.33 853.869 1670.38 850.329C1676.64 867.589 1674.89 887.589 1665.71 903.489C1685.3 889.069 1709.86 883.859 1733.82 888.019C1732.59 894.179 1734.97 900.399 1736.21 906.559C1738.38 917.389 1736.93 928.909 1732.13 938.849C1741.3 929.009 1752.82 925.619 1765.77 921.959C1778.72 918.299 1792.2 917.019 1805.59 915.749C1803.38 923.629 1808.09 931.539 1811.29 939.069C1818.15 955.219 1818.28 974.099 1811.63 990.339C1817.47 983.679 1826.14 983.119 1834.99 982.739C1850.17 982.099 1865.45 984.019 1879.99 988.409C1877.22 995.569 1879.01 1003.59 1878.66 1011.26C1878.06 1024.39 1870.63 1037.02 1859.44 1043.92C1872.37 1038.35 1885.24 1034.78 1899.05 1032.06C1921.37 1027.66 1946.66 1027.81 1964.27 1042.21C1952.07 1041.47 1939.73 1042.89 1928.02 1046.4C1922.22 1048.13 1916.46 1050.44 1911.83 1054.34C1907.2 1058.24 1903.81 1063.97 1903.89 1070.02C1903.93 1073.57 1905.14 1077.04 1905.13 1080.59C1905.12 1090.04 1896.97 1097.19 1889.51 1103C1906.81 1094.21 1925.1 1093 1944.25 1096.13C1937.2 1100.88 1938.26 1111.27 1936.28 1119.54C1933.08 1132.95 1918.83 1142.72 1905.17 1140.87C1903.1 1141.28 1897.31 1144.8 1895.2 1144.8H1201.35C1196.01 1133.31 1196.54 1115.75 1201.2 1103.97L1201.18 1103.96Z"></path>
<mask height="359" width="773" y="786" x="1192" maskUnits="userSpaceOnUse" style="mask-type:luminance" id="mask0_4023_815">
<path fill="white" d="M1201.18 1103.96C1207 1089.24 1216.76 1076.1 1229.17 1066.28C1230.44 1065.28 1231.85 1064.26 1233.47 1064.23C1235.22 1064.19 1236.76 1065.3 1238.16 1066.36C1242.41 1069.6 1246.67 1072.83 1250.92 1076.07C1248.34 1071.81 1245.91 1067.46 1243.64 1063.02C1242.82 1061.41 1241.99 1059.65 1242.28 1057.87C1242.54 1056.21 1243.71 1054.86 1244.87 1053.64C1256.04 1041.93 1271.66 1030.56 1287.64 1028C1277.88 1031.93 1266.74 1029.89 1256.8 1026.46C1246.85 1023.03 1237.26 1018.24 1226.86 1016.65C1240.88 996.849 1268.83 986.109 1292 993.319C1283.79 986.829 1275.39 980.569 1266.84 974.549C1262.72 971.649 1258.45 968.749 1253.56 967.529C1241.96 964.629 1230.31 971.769 1221.31 979.639C1209.91 989.589 1200.03 1001.28 1192.11 1014.18C1203.02 977.549 1225.2 944.359 1254.87 920.259C1257.84 917.849 1260.95 915.489 1264.57 914.279C1271.92 911.809 1279.93 914.449 1287.15 917.279C1301.94 923.099 1317.98 926.049 1331.9 933.719C1319.25 923.599 1313.95 905.219 1319.26 889.909C1321.59 883.189 1325.7 877.179 1327.88 870.419C1330.06 863.649 1333.39 854.489 1328.13 849.699C1341.25 846.139 1356.41 852.759 1362.72 864.799C1369.74 878.219 1365.83 894.479 1367.15 909.569C1369.88 892.659 1385.13 879.949 1401.54 875.029C1417.95 870.109 1436.35 867.599 1453.42 868.999C1442.99 866.819 1434.5 859.239 1427.92 850.859C1421.34 842.479 1416.15 833.049 1409.2 824.979C1397.17 811.019 1379.93 801.669 1361.67 799.189C1390.04 789.279 1421.46 785.239 1450.13 794.229C1478.8 803.219 1503.87 827.129 1508.4 856.839C1505.3 842.489 1509.09 829.459 1517.5 817.429C1525.91 805.399 1537.41 795.929 1548.77 786.629C1551.33 797.089 1557.67 806.229 1561 816.469C1565.39 829.979 1564.19 845.209 1557.74 857.859C1572.28 838.889 1594.06 830.259 1617.95 830.709C1616.26 838.919 1618.49 847.349 1619.41 855.679C1620.34 864.009 1619.53 873.439 1613.36 879.109C1624.98 860.039 1648.33 853.869 1670.38 850.329C1676.64 867.589 1674.89 887.589 1665.71 903.489C1685.3 889.069 1709.86 883.859 1733.82 888.019C1732.59 894.179 1734.97 900.399 1736.21 906.559C1738.38 917.389 1736.93 928.909 1732.13 938.849C1741.3 929.009 1752.82 925.619 1765.77 921.959C1778.72 918.299 1792.2 917.019 1805.59 915.749C1803.38 923.629 1808.09 931.539 1811.29 939.069C1818.15 955.219 1818.28 974.099 1811.63 990.339C1817.47 983.679 1826.14 983.119 1834.99 982.739C1850.17 982.099 1865.45 984.019 1879.99 988.409C1877.22 995.569 1879.01 1003.59 1878.66 1011.26C1878.06 1024.39 1870.63 1037.02 1859.44 1043.92C1872.37 1038.35 1885.24 1034.78 1899.05 1032.06C1921.37 1027.66 1946.66 1027.81 1964.27 1042.21C1952.07 1041.47 1939.73 1042.89 1928.02 1046.4C1922.22 1048.13 1916.46 1050.44 1911.83 1054.34C1907.2 1058.24 1903.81 1063.97 1903.89 1070.02C1903.93 1073.57 1905.14 1077.04 1905.13 1080.59C1905.12 1090.04 1896.97 1097.19 1889.51 1103C1906.81 1094.21 1925.1 1093 1944.25 1096.13C1937.2 1100.88 1938.26 1111.27 1936.28 1119.54C1933.08 1132.95 1918.83 1142.72 1905.17 1140.87C1903.1 1141.28 1897.31 1144.8 1895.2 1144.8H1201.35C1196.01 1133.31 1196.54 1115.75 1201.2 1103.97L1201.18 1103.96Z"></path>
</mask>
<g mask="url(#mask0_4023_815)">
<path fill="#314C23" d="M1301.42 1168.23C1290.52 1168.1 1281.03 1159.88 1276.16 1150.13C1271.29 1140.38 1270.14 1129.26 1269.07 1118.41C1281.83 1116.83 1294.84 1117.35 1307.43 1119.95C1295.47 1109.57 1289.7 1091.61 1295.92 1077.04C1302.14 1062.48 1321.47 1054.27 1335.27 1062.04C1333.63 1048.14 1338.93 1033.59 1349.13 1024C1337.24 1025.31 1324.83 1019.78 1317.85 1010.07C1330.43 1007.31 1343.4 1006.31 1356.26 1007.1C1345.69 999.957 1335.61 990.157 1327.55 980.267C1319.49 970.377 1314.35 957.317 1316.84 944.807C1339.27 941.567 1363.1 950.907 1377.36 968.517C1373.13 953.657 1378.5 939.237 1388.25 927.257C1388.8 935.487 1393.71 943.287 1400.88 947.357C1400.56 921.487 1423.61 902.177 1444.52 886.937C1449.68 897.487 1455.92 907.717 1465.24 914.867C1468.7 891.357 1486.96 872.377 1510.16 867.207C1528.63 884.547 1536.67 912.247 1530.34 936.787C1534.44 910.447 1558.15 890.947 1584.67 888.317C1580.48 892.757 1586.36 899.217 1590.68 903.527C1599.99 912.807 1603.2 927.687 1598.54 939.977C1606.62 920.937 1624.56 909.517 1645.23 908.747C1653.73 922.217 1659.52 937.397 1662.13 953.107C1670.8 935.897 1684.46 924.487 1702.73 918.347C1722.17 932.537 1729.07 961.447 1718.12 982.877C1733.63 971.937 1750.64 970.767 1769.24 974.557C1774.49 993.787 1769.8 1015.46 1757.08 1030.81C1774.3 1017.76 1799.93 1025.49 1815.59 1040.38C1810.44 1049.92 1808.92 1061.35 1811.38 1071.9C1825.63 1047.61 1855.59 1036.02 1882.9 1042.9C1883.29 1053.91 1888.44 1064.13 1891.06 1074.84C1893.68 1085.55 1893 1098.54 1884.36 1105.37C1899.05 1091.24 1921.75 1095.68 1937.09 1109.11C1935.86 1090.78 1945.07 1072.1 1960.37 1061.92C1959.44 1071.41 1966.81 1079.36 1971.97 1087.38C1979.85 1099.64 1983.16 1114.77 1981.13 1129.2C1990.17 1106.1 2009.45 1086.78 2033.63 1081.26C2035.95 1080.73 2038.49 1080.33 2040.63 1081.38C2043.09 1082.59 2044.31 1085.35 2045.25 1087.92C2059.27 1126.25 2052.76 1171.44 2028.5 1204.26C2016.95 1205.11 2002.96 1209.07 1991.41 1209.99C1804.39 1224.9 1617.3 1259.41 1430.41 1242.96C1386.58 1239.1 1341.06 1231.68 1305.53 1205.73"></path>
<g opacity="0.18" style="mix-blend-mode:multiply">
<path fill="#132B14" d="M1697.6 794.818C1680.9 790.428 1662.18 797.578 1651.42 811.078C1640.66 824.578 1637.7 843.488 1642.28 860.138C1645.9 873.328 1653.73 884.898 1659.31 897.378C1664.89 909.858 1668.11 924.648 1662.24 936.998C1656.88 948.268 1644.9 955.128 1632.74 957.908C1620.58 960.688 1607.94 960.058 1595.46 960.328C1555.95 961.188 1515.41 972.088 1485.51 997.928C1455.61 1023.77 1438.54 1066.29 1449.57 1104.24C1434.6 1111.45 1425.55 1130.49 1427.78 1146.96C1430.02 1163.42 1443.67 1177.69 1460.02 1180.64C1474.94 1183.34 1488.52 1180.83 1503.65 1179.77C1522.43 1178.46 1541.23 1181.04 1560.05 1181.73C1585.31 1182.65 1610.55 1180.14 1635.67 1177.34C1703.04 1169.82 1771.35 1160.18 1838.23 1171.2C1873.69 1177.04 1909.78 1188.65 1944.79 1180.56C1951.27 1179.06 1957.58 1176.9 1963.86 1174.68C1976.59 1170.17 1989.85 1164.95 1998.36 1154.46C2004.35 1147.09 2007.4 1137.79 2009.65 1128.56C2012.74 1115.91 2014.56 1102.98 2015.99 1090.04C2018.69 1065.78 2020.02 1040.89 2013.83 1017.28C2006.94 990.978 1991.17 967.978 1974.77 946.298C1953.03 917.558 1929.26 889.688 1899.55 869.298C1856.85 839.998 1804.95 828.088 1754.42 816.768"></path>
</g>
</g>
<path stroke-miterlimit="10" stroke-width="2.21" stroke="black" d="M1201.18 1103.96C1207 1089.24 1216.76 1076.1 1229.17 1066.28C1230.44 1065.28 1231.85 1064.26 1233.47 1064.23C1235.22 1064.19 1236.76 1065.3 1238.16 1066.36C1242.41 1069.6 1246.67 1072.83 1250.92 1076.07C1248.34 1071.81 1245.91 1067.46 1243.64 1063.02C1242.82 1061.41 1241.99 1059.65 1242.28 1057.87C1242.54 1056.21 1243.71 1054.86 1244.87 1053.64C1256.04 1041.93 1271.66 1030.56 1287.64 1028C1277.88 1031.93 1266.74 1029.89 1256.8 1026.46C1246.85 1023.03 1237.26 1018.24 1226.86 1016.65C1240.88 996.849 1268.83 986.109 1292 993.319C1283.79 986.829 1275.39 980.569 1266.84 974.549C1262.72 971.649 1258.45 968.749 1253.56 967.529C1241.96 964.629 1230.31 971.769 1221.31 979.639C1209.91 989.589 1200.03 1001.28 1192.11 1014.18C1203.02 977.549 1225.2 944.359 1254.87 920.259C1257.84 917.849 1260.95 915.489 1264.57 914.279C1271.92 911.809 1279.93 914.449 1287.15 917.279C1301.94 923.099 1317.98 926.049 1331.9 933.719C1319.25 923.599 1313.95 905.219 1319.26 889.909C1321.59 883.189 1325.7 877.179 1327.88 870.419C1330.06 863.649 1333.39 854.489 1328.13 849.699C1341.25 846.139 1356.41 852.759 1362.72 864.799C1369.74 878.219 1365.83 894.479 1367.15 909.569C1369.88 892.659 1385.13 879.949 1401.54 875.029C1417.95 870.109 1436.35 867.599 1453.42 868.999C1442.99 866.819 1434.5 859.239 1427.92 850.859C1421.34 842.479 1416.15 833.049 1409.2 824.979C1397.17 811.019 1379.93 801.669 1361.67 799.189C1390.04 789.279 1421.46 785.239 1450.13 794.229C1478.8 803.219 1503.87 827.129 1508.4 856.839C1505.3 842.489 1509.09 829.459 1517.5 817.429C1525.91 805.399 1537.41 795.929 1548.77 786.629C1551.33 797.089 1557.67 806.229 1561 816.469C1565.39 829.979 1564.19 845.209 1557.74 857.859C1572.28 838.889 1594.06 830.259 1617.95 830.709C1616.26 838.919 1618.49 847.349 1619.41 855.679C1620.34 864.009 1619.53 873.439 1613.36 879.109C1624.98 860.039 1648.33 853.869 1670.38 850.329C1676.64 867.589 1674.89 887.589 1665.71 903.489C1685.3 889.069 1709.86 883.859 1733.82 888.019C1732.59 894.179 1734.97 900.399 1736.21 906.559C1738.38 917.389 1736.93 928.909 1732.13 938.849C1741.3 929.009 1752.82 925.619 1765.77 921.959C1778.72 918.299 1792.2 917.019 1805.59 915.749C1803.38 923.629 1808.09 931.539 1811.29 939.069C1818.15 955.219 1818.28 974.099 1811.63 990.339C1817.47 983.679 1826.14 983.119 1834.99 982.739C1850.17 982.099 1865.45 984.019 1879.99 988.409C1877.22 995.569 1879.01 1003.59 1878.66 1011.26C1878.06 1024.39 1870.63 1037.02 1859.44 1043.92C1872.37 1038.35 1885.24 1034.78 1899.05 1032.06C1921.37 1027.66 1946.66 1027.81 1964.27 1042.21C1952.07 1041.47 1939.73 1042.89 1928.02 1046.4C1922.22 1048.13 1916.46 1050.44 1911.83 1054.34C1907.2 1058.24 1903.81 1063.97 1903.89 1070.02C1903.93 1073.57 1905.14 1077.04 1905.13 1080.59C1905.12 1090.04 1896.97 1097.19 1889.51 1103C1906.81 1094.21 1925.1 1093 1944.25 1096.13C1937.2 1100.88 1938.26 1111.27 1936.28 1119.54C1933.08 1132.95 1918.83 1142.72 1905.17 1140.87C1903.1 1141.28 1897.31 1144.8 1895.2 1144.8H1201.35C1196.01 1133.31 1196.54 1115.75 1201.2 1103.97L1201.18 1103.96Z"></path>
<path fill="#46772D" d="M1317.15 1159.69C1329.84 1109.25 1350 1060.7 1376.75 1016.1C1385.39 1001.7 1395.32 987.137 1410.13 979.207C1426.53 970.427 1446.32 971.197 1464.71 974.037C1518.07 982.277 1568 1005.82 1613.85 1034.35C1659.69 1062.87 1702.12 1096.5 1746.44 1127.34C1758.31 1135.6 1770.41 1143.71 1783.74 1149.3C1733.38 1145.2 1690.12 1128.7 1643.18 1109.98C1588.53 1088.18 1531.87 1069.49 1473.21 1065.01C1463 1064.23 1451.82 1064.16 1443.67 1070.37C1416.63 1090.96 1406.49 1129.39 1377.27 1146.76C1359.87 1157.1 1337.39 1158.99 1317.16 1159.7L1317.15 1159.69Z"></path>
<mask height="188" width="467" y="972" x="1317" maskUnits="userSpaceOnUse" style="mask-type:luminance" id="mask1_4023_815">
<path fill="white" d="M1317.15 1159.69C1329.84 1109.25 1350 1060.7 1376.75 1016.1C1385.39 1001.7 1395.32 987.137 1410.13 979.207C1426.53 970.427 1446.32 971.197 1464.71 974.037C1518.07 982.277 1568 1005.82 1613.85 1034.35C1659.69 1062.87 1702.12 1096.5 1746.44 1127.34C1758.31 1135.6 1770.41 1143.71 1783.74 1149.3C1733.38 1145.2 1690.12 1128.7 1643.18 1109.98C1588.53 1088.18 1531.87 1069.49 1473.21 1065.01C1463 1064.23 1451.82 1064.16 1443.67 1070.37C1416.63 1090.96 1406.49 1129.39 1377.27 1146.76C1359.87 1157.1 1337.39 1158.99 1317.16 1159.7L1317.15 1159.69Z"></path>
</mask>
<g mask="url(#mask1_4023_815)">
<path fill="#395E24" d="M1293.28 1147.28C1291.61 1151.86 1295.17 1157.08 1299.76 1158.74C1304.34 1160.41 1309.46 1159.38 1314.07 1157.79C1340.1 1148.82 1357.05 1124.05 1370.08 1099.8C1383.11 1075.55 1394.91 1049.28 1416.66 1032.41C1445.72 1009.87 1486.91 1009.24 1522.05 1020.09C1557.19 1030.94 1588.26 1051.68 1620.44 1069.49C1690.7 1108.39 1768.25 1134.07 1847.84 1144.8C1820.78 1163.91 1788.11 1173.22 1755.77 1180.4C1655.01 1202.77 1550.83 1207.68 1450.77 1233.01C1423.93 1239.8 1395.26 1248.01 1369.24 1238.56C1342.84 1228.98 1325.98 1203.68 1310.99 1179.93"></path>
<path fill="black" d="M1316.24 1162.42C1370.68 1119.66 1354.12 1031.02 1445.2 1012.95C1490.95 1003.83 1536.24 1021.2 1577.81 1038.66L1598.81 1047.36C1570.31 1037.36 1542.34 1025.2 1512.82 1018.59C1483.81 1011.92 1452.37 1011.36 1424.47 1022.74C1360.42 1048.18 1366.88 1126.54 1316.25 1162.42H1316.24Z"></path>
</g>
<path stroke-miterlimit="10" stroke-width="3.58" stroke="black" d="M1317.15 1159.69C1329.84 1109.25 1350 1060.7 1376.75 1016.1C1385.39 1001.7 1395.32 987.137 1410.13 979.207C1426.53 970.427 1446.32 971.197 1464.71 974.037C1518.07 982.277 1568 1005.82 1613.85 1034.35C1659.69 1062.87 1702.12 1096.5 1746.44 1127.34C1758.31 1135.6 1770.41 1143.71 1783.74 1149.3C1733.38 1145.2 1690.12 1128.7 1643.18 1109.98C1588.53 1088.18 1531.87 1069.49 1473.21 1065.01C1463 1064.23 1451.82 1064.16 1443.67 1070.37C1416.63 1090.96 1406.49 1129.39 1377.27 1146.76C1359.87 1157.1 1337.39 1158.99 1317.16 1159.7L1317.15 1159.69Z"></path>
<path fill="#395E24" d="M1317.15 1161.86C1345.22 1132.66 1383.3 1108.15 1423.55 1112.65C1449.38 1115.54 1472.31 1129.93 1493.87 1144.43C1567.49 1193.95 1637.22 1249.25 1702.2 1309.67C1616.45 1266.19 1532.17 1225.18 1444.39 1185.97C1417.49 1173.96 1389.05 1162.1 1359.68 1164.41C1346.48 1165.45 1330.37 1162.55 1317.15 1161.86Z"></path>
<mask height="198" width="386" y="1112" x="1317" maskUnits="userSpaceOnUse" style="mask-type:luminance" id="mask2_4023_815">
<path fill="white" d="M1317.15 1161.86C1345.22 1132.66 1383.3 1108.15 1423.55 1112.65C1449.38 1115.54 1472.31 1129.93 1493.87 1144.43C1567.49 1193.95 1637.22 1249.25 1702.2 1309.67C1616.45 1266.19 1532.17 1225.18 1444.39 1185.97C1417.49 1173.96 1389.05 1162.1 1359.68 1164.41C1346.48 1165.45 1330.37 1162.55 1317.15 1161.86Z"></path>
</mask>
<g mask="url(#mask2_4023_815)">
<path fill="black" d="M1312 1172.08C1328.97 1166.02 1343.43 1154.33 1360.19 1147.72C1385.96 1137.56 1415.39 1140.27 1441.51 1149.52C1467.62 1158.77 1491.08 1174.11 1514.18 1189.4C1561.63 1220.79 1608.83 1252.57 1656.03 1284.35C1684.18 1303.3 1708.91 1327.13 1737.86 1344.84C1743.74 1348.43 1750.15 1351.87 1757.04 1351.7C1730.22 1284.05 1691 1219.76 1634.41 1174C1596.86 1143.63 1554.96 1118.64 1510.38 1100.03C1477.01 1086.1 1440.62 1075.62 1404.96 1081.62C1390.93 1083.98 1377.44 1088.84 1364.31 1094.31C1340.11 1104.39 1315.87 1117.45 1300.86 1138.95" opacity="0.22"></path>
<path fill="black" d="M1319.78 1162.16C1357.06 1135.62 1407.46 1136.38 1448.84 1152.52C1462.88 1157.78 1476.3 1164.47 1489.37 1171.65C1528.38 1193.56 1565.39 1218.59 1601.58 1244.78C1613.25 1253.32 1625.81 1262.7 1637.3 1271.53C1626.25 1263.88 1611.47 1253.6 1600.57 1246.21C1563.82 1221.05 1526.47 1196.59 1487.64 1174.77C1436.11 1145.08 1373.7 1128.45 1319.78 1162.15V1162.16Z"></path>
</g>
<path stroke-miterlimit="10" stroke-width="3.58" stroke="black" d="M1317.15 1161.86C1345.22 1132.66 1383.3 1108.15 1423.55 1112.65C1449.38 1115.54 1472.31 1129.93 1493.87 1144.43C1567.49 1193.95 1637.22 1249.25 1702.2 1309.67C1616.45 1266.19 1532.17 1225.18 1444.39 1185.97C1417.49 1173.96 1389.05 1162.1 1359.68 1164.41C1346.48 1165.45 1330.37 1162.55 1317.15 1161.86Z"></path>
<path fill="#46772D" d="M1240.34 1113.04C1233.72 1080.69 1218.44 1050.16 1196.52 1025.47C1185.85 1013.46 1173.12 1002.52 1157.71 997.999C1139.47 992.649 1119.72 996.919 1102.09 1004C1051.93 1024.14 1011.81 1067.82 996 1119.51C1007.46 1099.14 1022.85 1085.55 1043.05 1073.79C1063.24 1062.03 1087.68 1056.94 1110.52 1061.87C1155.27 1071.53 1184.39 1115.34 1226.27 1133.83C1231.94 1136.33 1239.58 1137.93 1243.51 1133.15"></path>
<mask height="142" width="248" y="995" x="996" maskUnits="userSpaceOnUse" style="mask-type:luminance" id="mask3_4023_815">
<path fill="white" d="M1240.34 1113.04C1233.72 1080.69 1218.44 1050.16 1196.52 1025.47C1185.85 1013.46 1173.12 1002.52 1157.71 997.999C1139.47 992.649 1119.72 996.919 1102.09 1004C1051.93 1024.14 1011.81 1067.82 996 1119.51C1007.46 1099.14 1022.85 1085.55 1043.05 1073.79C1063.24 1062.03 1087.68 1056.94 1110.52 1061.87C1155.27 1071.53 1184.39 1115.34 1226.27 1133.83C1231.94 1136.33 1239.58 1137.93 1243.51 1133.15"></path>
</mask>
<g mask="url(#mask3_4023_815)">
<path fill="#578C36" d="M1262.96 1132.58C1262.2 1134.11 1261.45 1135.63 1260.69 1137.16C1242.54 1135.16 1231.68 1116.79 1221.52 1101.62C1205.93 1078.34 1185.64 1058.31 1162.6 1042.36C1146.56 1031.25 1125.49 1027.74 1106.72 1033.04C1094.8 1036.4 1084.08 1043.01 1073.74 1049.83C1045.38 1068.52 1018.51 1089.37 992.121 1110.75C985.631 1116.01 979.031 1121.38 971.231 1124.37C963.431 1127.36 954.091 1127.59 947.201 1122.88C939.811 1117.82 936.801 1108.25 936.621 1099.3C936.091 1073.56 954.111 1051.55 971.701 1032.74C992.781 1010.19 1014.98 988.25 1041.21 971.98C1067.44 955.71 1098.25 945.37 1129.01 947.97C1166.78 951.16 1201.38 974.07 1223.15 1005.1C1244.92 1036.13 1254.64 1074.53 1255.33 1112.43"></path>
<path fill="black" d="M1242 1126.79C1219.79 1098.85 1199.68 1068.43 1172.56 1044.9C1165.86 1039.06 1158.78 1033.56 1150.62 1030.63C1125.78 1022.8 1096.18 1028.79 1073.12 1040.34C1095.14 1026.74 1126.44 1019.64 1151.75 1027.44C1160.53 1030.48 1167.98 1036.25 1174.9 1042.2C1202.2 1066.1 1221.95 1096.92 1242.01 1126.79H1242Z"></path>
</g>
<path stroke-miterlimit="10" stroke-width="3.58" stroke="black" d="M1240.34 1113.04C1233.72 1080.69 1218.44 1050.16 1196.52 1025.47C1185.85 1013.46 1173.12 1002.52 1157.71 997.999C1139.47 992.649 1119.72 996.919 1102.09 1004C1051.93 1024.14 1011.81 1067.82 996 1119.51C1007.46 1099.14 1022.85 1085.55 1043.05 1073.79C1063.24 1062.03 1087.68 1056.94 1110.52 1061.87C1155.27 1071.53 1184.39 1115.34 1226.27 1133.83C1231.94 1136.33 1239.58 1137.93 1243.51 1133.15"></path>
<path fill="#46772D" d="M1247.37 1136.22C1264.12 1086.98 1273.58 1035.27 1275.35 983.287C1275.92 966.507 1275.5 948.877 1267.37 934.187C1258.37 917.907 1241.34 907.797 1224.36 900.197C1175.09 878.117 1120.37 870.757 1066.39 869.797C1012.41 868.837 958.521 874.007 904.551 875.827C890.101 876.317 875.531 876.547 861.301 873.997C905.811 897.917 951.091 907.577 1000.66 917.357C1058.39 928.747 1116.1 943.838 1167.79 971.958C1176.79 976.848 1186.21 982.867 1189.68 992.507C1201.19 1024.49 1188.82 1062.26 1203.92 1092.71C1212.91 1110.85 1230.75 1124.64 1247.36 1136.23L1247.37 1136.22Z"></path>
<mask height="268" width="415" y="869" x="861" maskUnits="userSpaceOnUse" style="mask-type:luminance" id="mask4_4023_815">
<path fill="white" d="M1247.37 1136.22C1264.12 1086.98 1273.58 1035.27 1275.35 983.287C1275.92 966.507 1275.5 948.877 1267.37 934.187C1258.37 917.907 1241.34 907.797 1224.36 900.197C1175.09 878.117 1120.37 870.757 1066.39 869.797C1012.41 868.837 958.521 874.007 904.551 875.827C890.101 876.317 875.531 876.547 861.301 873.997C905.811 897.917 951.091 907.577 1000.66 917.357C1058.39 928.747 1116.1 943.838 1167.79 971.958C1176.79 976.848 1186.21 982.867 1189.68 992.507C1201.19 1024.49 1188.82 1062.26 1203.92 1092.71C1212.91 1110.85 1230.75 1124.64 1247.36 1136.23L1247.37 1136.22Z"></path>
</mask>
<g mask="url(#mask4_4023_815)">
<path fill="#395E24" d="M1274.15 1138.77C1273.06 1143.52 1267.24 1145.97 1262.49 1144.87C1257.74 1143.78 1254 1140.13 1250.99 1136.29C1234.01 1114.61 1233.24 1084.61 1235.48 1057.17C1237.72 1029.73 1242.08 1001.27 1232.99 975.279C1220.84 940.569 1186.6 917.659 1151.21 907.669C1115.81 897.679 1078.46 898.209 1041.77 895.689C961.651 890.169 882.591 869.599 809.951 835.359C822.281 866.109 844.651 891.669 867.901 915.269C940.341 988.789 1025.13 1049.53 1095.37 1125.15C1114.21 1145.44 1133.82 1167.9 1160.8 1174.11C1188.17 1180.41 1216.06 1168.33 1241.56 1156.54"></path>
<path fill="black" d="M1246.66 1139C1223.65 1081.42 1271.64 1019.07 1231.7 962.931C1214.46 938.221 1187.76 921.601 1159.78 911.441C1131.4 900.951 1101.32 895.961 1071.96 888.871L1094.31 892.981C1138.69 900.901 1186.15 910.931 1219.61 943.441C1286.26 1008.11 1224.19 1073.5 1246.66 1138.99V1139Z"></path>
</g>
<path stroke-miterlimit="10" stroke-width="3.58" stroke="black" d="M1247.37 1136.22C1264.12 1086.98 1273.58 1035.27 1275.35 983.287C1275.92 966.507 1275.5 948.877 1267.37 934.187C1258.37 917.907 1241.34 907.797 1224.36 900.197C1175.09 878.117 1120.37 870.757 1066.39 869.797C1012.41 868.837 958.521 874.007 904.551 875.827C890.101 876.317 875.531 876.547 861.301 873.997C905.811 897.917 951.091 907.577 1000.66 917.357C1058.39 928.747 1116.1 943.838 1167.79 971.958C1176.79 976.848 1186.21 982.867 1189.68 992.507C1201.19 1024.49 1188.82 1062.26 1203.92 1092.71C1212.91 1110.85 1230.75 1124.64 1247.36 1136.23L1247.37 1136.22Z"></path>
<path fill="#46772D" d="M1253.97 1120.99C1236.66 1092.88 1211.83 1069.44 1182.76 1053.77C1168.62 1046.15 1152.91 1040.24 1136.87 1041.28C1117.9 1042.51 1100.82 1053.3 1086.68 1066C1046.47 1102.13 1023.78 1156.92 1026.66 1210.89C1030.43 1187.83 1040.23 1169.78 1055.16 1151.8C1070.09 1133.83 1091.29 1120.66 1114.44 1117.45C1159.78 1111.17 1202.17 1142.33 1247.85 1145.33C1254.03 1145.74 1261.76 1144.62 1263.81 1138.77"></path>
<mask height="170" width="238" y="1041" x="1026" maskUnits="userSpaceOnUse" style="mask-type:luminance" id="mask5_4023_815">
<path fill="white" d="M1253.97 1120.99C1236.66 1092.88 1211.83 1069.44 1182.76 1053.77C1168.62 1046.15 1152.91 1040.24 1136.87 1041.28C1117.9 1042.51 1100.82 1053.3 1086.68 1066C1046.47 1102.13 1023.78 1156.92 1026.66 1210.89C1030.43 1187.83 1040.23 1169.78 1055.16 1151.8C1070.09 1133.83 1091.29 1120.66 1114.44 1117.45C1159.78 1111.17 1202.17 1142.33 1247.85 1145.33C1254.03 1145.74 1261.76 1144.62 1263.81 1138.77"></path>
</mask>
<g mask="url(#mask5_4023_815)">
<path fill="#578C36" d="M1281.92 1131.58C1281.73 1133.27 1281.55 1134.97 1281.36 1136.66C1263.62 1141.01 1247.13 1127.48 1232.37 1116.71C1209.74 1100.19 1183.81 1088.34 1156.7 1081.26C1137.82 1076.33 1116.83 1080.26 1101.01 1091.68C1090.97 1098.93 1083.17 1108.81 1075.79 1118.76C1055.57 1146.05 1037.48 1174.85 1020.03 1203.99C1015.74 1211.15 1011.38 1218.47 1005.09 1223.95C998.791 1229.43 990.101 1232.86 982.011 1230.79C973.341 1228.58 967.221 1220.62 963.981 1212.27C954.651 1188.27 964.031 1161.42 974.091 1137.72C986.161 1109.31 999.481 1081.08 1018.53 1056.8C1037.59 1032.52 1062.98 1012.24 1092.76 1004.12C1129.33 994.158 1169.69 1003.8 1200.79 1025.48C1231.88 1047.16 1254.19 1079.89 1267.84 1115.25"></path>
<path fill="black" d="M1260.24 1133.33C1229.79 1114.7 1200.46 1093.03 1166.92 1080.24C1158.62 1077.05 1150.09 1074.32 1141.41 1074.36C1115.39 1075.53 1089.64 1091.31 1071.95 1110.07C1087.97 1089.74 1114.93 1072.34 1141.38 1070.97C1150.67 1070.81 1159.65 1073.67 1168.19 1076.89C1202.04 1089.97 1231.16 1112.14 1260.24 1133.32V1133.33Z"></path>
</g>
<path stroke-miterlimit="10" stroke-width="3.58" stroke="black" d="M1253.97 1120.99C1236.66 1092.88 1211.83 1069.44 1182.76 1053.77C1168.62 1046.15 1152.91 1040.24 1136.87 1041.28C1117.9 1042.51 1100.82 1053.3 1086.68 1066C1046.47 1102.13 1023.78 1156.92 1026.66 1210.89C1030.43 1187.83 1040.23 1169.78 1055.16 1151.8C1070.09 1133.83 1091.29 1120.66 1114.44 1117.45C1159.78 1111.17 1202.17 1142.33 1247.85 1145.33C1254.03 1145.74 1261.76 1144.62 1263.81 1138.77"></path>
<path fill="#46772D" d="M1230.2 1145.24C1200.1 1132.83 1177.02 1104.66 1170.76 1072.71C1180.86 1070.2 1191.69 1073.03 1200.72 1078.19C1209.75 1083.36 1217.3 1090.71 1224.74 1097.99C1217.57 1084.87 1217.17 1070.18 1220.59 1055.63C1224.01 1041.08 1230.95 1027.63 1237.96 1014.43C1248.54 1019.89 1255.26 1031.03 1258.16 1042.57C1261.06 1054.12 1260.64 1066.2 1260.2 1078.1C1257.52 1051.82 1274.81 1026.96 1291.63 1006.58C1309.67 984.727 1330.61 965.277 1353.73 948.887C1347.37 963.727 1346.1 980.147 1342.84 995.967C1336.97 1024.49 1324.39 1051.61 1306.39 1074.49C1341.81 1051.77 1379.59 1036.09 1419.43 1022.56C1404.93 1041.74 1389.06 1060.12 1370.07 1074.86C1351.08 1089.6 1328.71 1100.61 1304.86 1103.61C1335.07 1099.59 1362.4 1117.82 1389.78 1131.22C1370.1 1127.2 1349.65 1143.38 1330.62 1136.96C1336.9 1139.26 1341.79 1148.5 1342.25 1155.16C1342.71 1161.83 1336.45 1168.68 1329.91 1167.3"></path>
<path fill="black" d="M1230.2 1145.24C1199.89 1133.04 1176.6 1104.9 1170.12 1072.83L1170 1072.23L1170.6 1072.08C1192.51 1066.91 1211.03 1082.92 1225.41 1097.3L1223.88 1098.46C1208.53 1070.34 1223.61 1038.23 1237.4 1012.71C1249.12 1018.22 1256.44 1030.06 1259.53 1042.25C1262.52 1054 1262.15 1066.21 1261.71 1078.16L1258.68 1078.26C1256.09 1049.58 1274.7 1024.64 1291.93 1003.71C1310.95 980.887 1333.24 960.857 1357.69 943.977L1355.3 949.577C1346.72 970.397 1347.09 993.977 1339.6 1015.33C1332.7 1037.11 1321.81 1057.59 1307.71 1075.55L1305.46 1073.08C1340.63 1050.51 1379.47 1034.42 1418.92 1021.11L1423.69 1019.49L1420.65 1023.5C1392.21 1061.6 1354.23 1098.56 1304.98 1104.7L1304.7 1102.53C1337.83 1098.47 1366.46 1119.56 1394.9 1133.01L1389.63 1131.89C1379.79 1129.84 1369.83 1132.88 1360.31 1135.41C1350.72 1137.99 1340.26 1140.65 1330.5 1137.27L1330.71 1136.66C1337.33 1139.51 1341.05 1146.99 1342.24 1153.74C1343.21 1159.05 1340 1164.7 1335.09 1166.79C1333.46 1167.47 1331.63 1167.7 1329.9 1167.32C1337.14 1168.65 1343.36 1160.61 1341.91 1153.8C1341.35 1150.34 1339.95 1147.05 1338.09 1144.1C1336.21 1141.2 1333.73 1138.48 1330.5 1137.27L1330.71 1136.66C1335.43 1138.24 1340.52 1138.39 1345.44 1137.75C1360.31 1135.88 1374.58 1127.66 1389.9 1130.55L1389.46 1131.83C1362.83 1119.2 1335.73 1100.7 1304.98 1104.69L1304.7 1102.52C1353.25 1096.11 1390.16 1059.24 1418.18 1021.62L1419.91 1024.02C1377.52 1038.3 1336.11 1056.24 1298.94 1081.29C1304.19 1074.57 1310.24 1066.9 1314.8 1059.75C1323.91 1045.62 1331.17 1030.28 1336.21 1014.24C1343.66 992.727 1343.31 969.467 1352.13 948.207L1354.7 950.287C1322.24 973.167 1273.95 1019.18 1263.39 1058C1261.71 1064.51 1261.03 1071.28 1261.7 1077.94L1258.67 1078.04C1258.9 1072.1 1259.11 1066.18 1258.94 1060.3C1258.69 1043.36 1253.26 1024.04 1237.36 1015.57L1239.09 1015.03C1235.61 1021.52 1232.19 1028.01 1229.17 1034.68C1220.22 1054.06 1214.75 1077.82 1225.58 1097.52L1228.71 1103.27L1224.05 1098.68C1210.16 1084.65 1192.18 1068.54 1170.9 1073.34L1171.38 1072.59C1177.43 1104.46 1200.27 1132.6 1230.18 1145.25L1230.2 1145.24Z"></path>
<path fill="#203912" d="M1976.66 955.568C2005.86 923.388 2034.54 869.618 2034.54 869.618L2011.82 858.678C2011.82 858.678 2021.53 863.358 2043.01 845.758C2068.21 825.118 2083.97 692.968 2084.5 688.488C2084.3 689.528 2081.1 696.818 2029.68 692.048C1974.41 686.918 1927.2 707.178 1927.2 707.178L1923.01 722.358C1917.51 711.108 1904 706.748 1904 706.748C1813.35 732.958 1763.45 809.258 1763.45 809.258L1773.02 868.488L1746.89 848.228C1684.13 938.948 1744.78 1039.6 1761.31 1063.86C1763.62 1067.26 1765.75 1070.68 1767.83 1074.12C1773.81 1084.01 1789.8 1105.16 1813.95 1097.71C1894.57 1072.85 1925.3 989.668 1925.3 989.668L1908.84 981.738C1911.83 981.998 1916.04 981.778 1920.65 981.308C1944.27 978.868 1963.83 969.708 1976.65 955.578L1976.66 955.568ZM1970.6 839.188C1968.26 839.608 1965.85 840.028 1963.22 839.718C1960.59 839.408 1957.65 838.218 1955.98 836.258C1952.78 832.488 1955.91 828.778 1959.01 826.378C1966.08 820.908 1973.3 815.358 1982.76 812.288C1990.79 809.688 2021.71 807.648 2023.34 822.318C2023.69 825.478 2021.63 828.018 2018.76 829.538C2015.89 831.058 2012.27 831.718 2008.71 832.358C1996.01 834.638 1983.31 836.908 1970.6 839.188Z"></path>
<mask height="412" width="366" y="688" x="1719" maskUnits="userSpaceOnUse" style="mask-type:luminance" id="mask6_4023_815">
<path fill="white" d="M1976.66 955.568C2005.86 923.388 2034.54 869.618 2034.54 869.618L2011.82 858.678C2011.82 858.678 2021.53 863.358 2043.01 845.758C2068.21 825.118 2083.97 692.968 2084.5 688.488C2084.3 689.528 2081.1 696.818 2029.68 692.048C1974.41 686.918 1927.2 707.178 1927.2 707.178L1923.01 722.358C1917.51 711.108 1904 706.748 1904 706.748C1813.35 732.958 1763.45 809.258 1763.45 809.258L1773.02 868.488L1746.89 848.228C1684.13 938.948 1744.78 1039.6 1761.31 1063.86C1763.62 1067.26 1765.75 1070.68 1767.83 1074.12C1773.81 1084.01 1789.8 1105.16 1813.95 1097.71C1894.57 1072.85 1925.3 989.668 1925.3 989.668L1908.84 981.738C1911.83 981.998 1916.04 981.778 1920.65 981.308C1944.27 978.868 1963.83 969.708 1976.65 955.578L1976.66 955.568ZM1970.6 839.188C1968.26 839.608 1965.85 840.028 1963.22 839.718C1960.59 839.408 1957.65 838.218 1955.98 836.258C1952.78 832.488 1955.91 828.778 1959.01 826.378C1966.08 820.908 1973.3 815.358 1982.76 812.288C1990.79 809.688 2021.71 807.648 2023.34 822.318C2023.69 825.478 2021.63 828.018 2018.76 829.538C2015.89 831.058 2012.27 831.718 2008.71 832.358C1996.01 834.638 1983.31 836.908 1970.6 839.188Z"></path>
</mask>
<g mask="url(#mask6_4023_815)">
<path fill="#2A4715" d="M1731.57 1029.93C1725.11 974.979 1730.13 921.839 1746.37 873.289C1758.14 877.949 1769.92 882.609 1781.69 887.269C1777.79 813.349 1824.69 750.539 1902.38 725.649C1909.11 733.469 1914.53 741.409 1921.25 749.229C1943.78 708.629 2005.44 689.939 2069.36 704.339C2080.13 767.189 2049.98 827.019 1998.19 861.569C2004.34 864.449 2010.49 867.339 2016.64 870.219C1991.03 910.589 1965.43 950.959 1939.82 991.329C1961.91 989.989 1982.47 985.249 2000.23 977.389C2050.66 955.089 2075.02 910.109 2097.47 866.909C2111.5 839.909 2125.59 812.769 2133.2 782.989C2138.08 763.899 2140.24 743.489 2134.93 722.129C2129.62 700.779 2116.21 678.289 2094.56 661.189C2073.61 644.639 2046.51 634.319 2020.57 629.739C1994.63 625.159 1969.58 625.879 1945.62 628.139C1851.32 637.029 1768.98 669.969 1711.66 721.729C1675.06 754.769 1648.22 796.369 1645.32 845.619C1642.42 894.869 1665.88 952.349 1715.75 995.999"></path>
</g>
<path stroke-miterlimit="10" stroke-width="4.11" stroke="black" d="M1976.66 955.568C2005.86 923.388 2034.54 869.618 2034.54 869.618L2011.82 858.678C2011.82 858.678 2021.53 863.358 2043.01 845.758C2068.21 825.118 2083.97 692.968 2084.5 688.488C2084.3 689.528 2081.1 696.818 2029.68 692.048C1974.41 686.918 1927.2 707.178 1927.2 707.178L1923.01 722.358C1917.51 711.108 1904 706.748 1904 706.748C1813.35 732.958 1763.45 809.258 1763.45 809.258L1773.02 868.488L1746.89 848.228C1684.13 938.948 1744.78 1039.6 1761.31 1063.86C1763.62 1067.26 1765.75 1070.68 1767.83 1074.12C1773.81 1084.01 1789.8 1105.16 1813.95 1097.71C1894.57 1072.85 1925.3 989.668 1925.3 989.668L1908.84 981.738C1911.83 981.998 1916.04 981.778 1920.65 981.308C1944.27 978.868 1963.83 969.708 1976.65 955.578L1976.66 955.568ZM1970.6 839.188C1968.26 839.608 1965.85 840.028 1963.22 839.718C1960.59 839.408 1957.65 838.218 1955.98 836.258C1952.78 832.488 1955.91 828.778 1959.01 826.378C1966.08 820.908 1973.3 815.358 1982.76 812.288C1990.79 809.688 2021.71 807.648 2023.34 822.318C2023.69 825.478 2021.63 828.018 2018.76 829.538C2015.89 831.058 2012.27 831.718 2008.71 832.358C1996.01 834.638 1983.31 836.908 1970.6 839.188Z"></path>
<path fill="#071807" d="M1786.94 1094.3C1803.31 1038.7 1826.98 982.807 1856.07 932.697C1863.08 920.997 1871.7 906.567 1879.37 895.287C1885.35 885.787 1893.8 874.297 1900.36 865.147C1906.13 857.147 1914.51 846.757 1920.48 838.917C1926.86 831.367 1935.21 820.967 1941.73 813.607C1946.14 808.667 1954.49 799.327 1958.9 794.477C1964.67 788.507 1973.54 779.287 1979.29 773.337C1984.04 768.707 1992.97 760.027 1997.7 755.427C2013.65 740.257 2030.32 725.857 2047.17 711.727C2024.41 731.887 2002 753.007 1980.73 774.757C1975.11 780.747 1966.37 790.097 1960.71 796.137C1955.29 802.327 1946.85 811.907 1941.35 818.107C1936.09 824.457 1928.01 834.287 1922.72 840.697C1916.81 848.537 1908.52 858.927 1902.8 866.927C1900.07 870.767 1892.9 880.867 1890.08 884.827C1885.24 891.677 1878.57 902.137 1873.83 909.167C1869.27 916.277 1863.01 926.877 1858.53 934.117C1844.84 957.557 1829.61 987.357 1818.41 1012.22C1812.57 1025.5 1801.51 1052.92 1796.51 1066.57C1793.36 1075.82 1790.16 1085.06 1786.95 1094.29L1786.94 1094.3Z"></path>
<path fill="#071807" d="M1905.31 862.729C1894.06 845.309 1886.75 824.839 1885.72 804.009C1884.54 783.259 1890.21 761.469 1903.4 745.219C1893.86 760.559 1888.89 778.269 1888.69 796.209L1888.63 800.029C1888.74 801.929 1888.93 805.759 1889.01 807.669C1890.71 826.909 1896.84 845.369 1905.31 862.719V862.729Z"></path>
<path fill="#071807" d="M1865.09 918.187C1849.66 900.277 1837.57 879.017 1831.06 856.217C1824.51 833.517 1823.65 808.277 1832.21 786.027C1825.73 810.267 1827.84 835.867 1835.27 859.567C1841.93 880.587 1852.53 900.067 1865.09 918.187Z"></path>
<path stroke-miterlimit="10" stroke-width="3.43" stroke="black" d="M1295.98 749.271C1295.93 749.191 1295.9 749.141 1295.9 749.141"></path>
<path fill="#284917" d="M1607.98 1006.28C1612.81 1005.34 1617.1 1004.25 1619.94 1003.04L1607.62 1016.54C1607.62 1016.54 1680.54 1094.49 1773.31 1095.45C1801.1 1095.74 1806.22 1068.48 1807.12 1056.2C1807.43 1051.92 1807.8 1047.65 1808.38 1043.36C1812.45 1012.66 1821.45 887.739 1712.86 811.869L1697.21 841.369L1676.55 776.029C1676.55 776.029 1588.09 711.309 1484.65 712.069C1484.65 712.069 1473.45 720.879 1473.71 734.439L1461.81 719.769C1461.81 719.769 1404.57 713.209 1352.26 735.879C1303.59 756.979 1296.7 750.299 1295.97 749.269C1298.78 753.819 1381.76 887.999 1417.32 901.859C1447.64 913.669 1454.9 905.709 1454.9 905.709L1437.9 924.329C1437.9 924.329 1493.79 971.969 1539.2 996.709C1559.15 1007.58 1583.25 1011.11 1607.96 1006.29L1607.98 1006.28ZM1444.6 877.029C1440.73 877.469 1436.8 877.909 1433.17 877.209C1429.54 876.509 1426.21 874.479 1424.95 871.039C1419.09 855.089 1450.86 847.569 1460.16 847.799C1471.12 848.069 1481.12 851.649 1490.93 855.199C1495.23 856.759 1500.23 859.679 1498.97 864.649C1498.32 867.239 1496 869.409 1493.54 870.559C1491.08 871.709 1488.48 872.009 1485.94 872.309C1472.16 873.889 1458.38 875.459 1444.59 877.039L1444.6 877.029Z"></path>
<mask height="384" width="516" y="712" x="1295" maskUnits="userSpaceOnUse" style="mask-type:luminance" id="mask7_4023_815">
<path fill="white" d="M1607.98 1006.28C1612.81 1005.34 1617.1 1004.25 1619.94 1003.04L1607.62 1016.54C1607.62 1016.54 1680.54 1094.49 1773.31 1095.45C1801.1 1095.74 1806.22 1068.48 1807.12 1056.2C1807.43 1051.92 1807.8 1047.65 1808.38 1043.36C1812.45 1012.66 1821.45 887.739 1712.86 811.869L1697.21 841.369L1676.55 776.029C1676.55 776.029 1588.09 711.309 1484.65 712.069C1484.65 712.069 1473.45 720.879 1473.71 734.439L1461.81 719.769C1461.81 719.769 1404.57 713.209 1352.26 735.879C1303.59 756.979 1296.7 750.299 1295.97 749.269C1298.78 753.819 1381.76 887.999 1417.32 901.859C1447.64 913.669 1454.9 905.709 1454.9 905.709L1437.9 924.329C1437.9 924.329 1493.79 971.969 1539.2 996.709C1559.15 1007.58 1583.25 1011.11 1607.96 1006.29L1607.98 1006.28ZM1444.6 877.029C1440.73 877.469 1436.8 877.909 1433.17 877.209C1429.54 876.509 1426.21 874.479 1424.95 871.039C1419.09 855.089 1450.86 847.569 1460.16 847.799C1471.12 848.069 1481.12 851.649 1490.93 855.199C1495.23 856.759 1500.23 859.679 1498.97 864.649C1498.32 867.239 1496 869.409 1493.54 870.559C1491.08 871.709 1488.48 872.009 1485.94 872.309C1472.16 873.889 1458.38 875.459 1444.59 877.039L1444.6 877.029Z"></path>
</mask>
<g mask="url(#mask7_4023_815)">
<path fill="url(#paint0_linear_4023_815)" d="M1820.66 998.35C1799.08 938.48 1767.02 884.12 1726.16 838.08C1716.83 846.67 1707.5 855.25 1698.18 863.84C1664.4 784.81 1585.79 733.35 1495.91 731.44C1493.21 741.78 1491.87 751.83 1489.17 762.17C1446.1 726.48 1375.3 726.09 1319.12 761.23C1340.44 830.76 1400.88 884.32 1469.94 904.49C1465.3 909.45 1460.66 914.41 1456.02 919.36C1502.03 953.85 1548.04 988.34 1594.06 1022.84C1571.43 1028.34 1548.57 1029.77 1526.93 1027.06C1465.45 1019.35 1418.33 979.62 1374.01 941.17C1346.31 917.14 1318.48 892.97 1295.75 864C1281.17 845.43 1268.63 824.62 1263.03 800.48C1257.43 776.34 1259.31 748.48 1272.11 723.7C1284.5 699.72 1306.17 680.39 1329.62 667.46C1353.07 654.53 1378.33 647.46 1403.29 642.34C1501.53 622.22 1600.14 631.15 1683.47 667.7C1736.67 691.04 1784.54 726.44 1812.51 777.37C1840.48 828.3 1846.45 896.15 1819.12 957.69" opacity="0.34" style="mix-blend-mode:multiply"></path>
</g>
<path stroke-miterlimit="10" stroke-width="4.11" stroke="black" d="M1607.98 1006.28C1612.81 1005.34 1617.1 1004.25 1619.94 1003.04L1607.62 1016.54C1607.62 1016.54 1680.54 1094.49 1773.31 1095.45C1801.1 1095.74 1806.22 1068.48 1807.12 1056.2C1807.43 1051.92 1807.8 1047.65 1808.38 1043.36C1812.45 1012.66 1821.45 887.739 1712.86 811.869L1697.21 841.369L1676.55 776.029C1676.55 776.029 1588.09 711.309 1484.65 712.069C1484.65 712.069 1473.45 720.879 1473.71 734.439L1461.81 719.769C1461.81 719.769 1404.57 713.209 1352.26 735.879C1303.59 756.979 1296.7 750.299 1295.97 749.269C1298.78 753.819 1381.76 887.999 1417.32 901.859C1447.64 913.669 1454.9 905.709 1454.9 905.709L1437.9 924.329C1437.9 924.329 1493.79 971.969 1539.2 996.709C1559.15 1007.58 1583.25 1011.11 1607.96 1006.29L1607.98 1006.28ZM1444.6 877.029C1440.73 877.469 1436.8 877.909 1433.17 877.209C1429.54 876.509 1426.21 874.479 1424.95 871.039C1419.09 855.089 1450.86 847.569 1460.16 847.799C1471.12 848.069 1481.12 851.649 1490.93 855.199C1495.23 856.759 1500.23 859.679 1498.97 864.649C1498.32 867.239 1496 869.409 1493.54 870.559C1491.08 871.709 1488.48 872.009 1485.94 872.309C1472.16 873.889 1458.38 875.459 1444.59 877.039L1444.6 877.029Z"></path>
<path fill="#071807" d="M1798.42 1083.43C1761 1041.03 1716.89 997.138 1673.72 960.448C1639.01 931.028 1599.39 901.528 1561.59 876.538C1553.02 871.138 1540.56 862.938 1532.04 857.718C1523.37 852.618 1510.57 844.718 1501.93 839.798C1493.18 834.978 1480.05 827.398 1471.35 822.688C1451.08 811.788 1429.56 800.848 1408.86 790.918C1390.55 782.208 1363.38 770.038 1344.91 762.078C1366.93 770.828 1395.87 782.948 1417.52 793.108C1422.31 795.408 1436.26 802.038 1441.29 804.438C1450.11 808.748 1463.67 815.848 1472.59 820.358C1498.15 833.968 1524.11 848.798 1548.54 864.398C1642.71 923.178 1727.39 998.168 1798.4 1083.44L1798.42 1083.43Z"></path>
<path fill="#071807" d="M1562.82 876.669C1562.55 855.099 1558.8 833.749 1550.92 813.709C1541.25 789.659 1525.54 768.209 1504.87 752.379C1521.59 762.369 1535.44 777.299 1545.19 794.149C1559.54 818.829 1565.71 848.319 1562.83 876.669H1562.82Z"></path>
<path fill="#071807" d="M1631.04 922.47C1637.97 876.73 1632.13 829.24 1607.69 789.33C1606.22 786.81 1603.87 783.5 1602.3 781.04L1596.38 773.07C1599.62 776.54 1603.22 780.56 1606.08 784.42C1607.88 786.58 1610.31 790.17 1611.85 792.57C1636.47 830.47 1642.04 879.04 1631.03 922.48L1631.04 922.47Z"></path>
<path fill="#283E19" d="M1662.73 1139.55C1646.89 1140.24 1630.87 1136.17 1617.28 1128C1608.3 1122.6 1598.99 1115.13 1588.67 1116.95C1605.73 1098.28 1631.82 1088.26 1656.99 1090.73C1672.69 1092.27 1688.72 1096.49 1704.11 1093C1687.23 1092.58 1670.56 1086.18 1657.73 1075.19C1633.92 1054.81 1622.66 1019.38 1593.37 1008.23C1625.63 1006.74 1658.25 1013.7 1687.09 1028.25C1696.86 1033.18 1706.3 1039.04 1713.94 1046.87C1726.18 1059.42 1739.08 1076.46 1745.61 1092.74C1753.45 1063.97 1763.42 1035.78 1775.41 1008.48C1788.55 1021.44 1792.52 1041.44 1790.59 1059.8C1788.67 1078.16 1781.64 1095.52 1775.56 1112.95C1785.48 1089.94 1803.17 1073.46 1826.87 1065.34C1833.24 1078.83 1822.16 1112.75 1810.88 1122.51"></path>
<path fill="black" d="M1662.73 1139.55C1649.56 1140.25 1636.2 1137.73 1624.22 1132.18C1615.2 1128.29 1607.62 1121.35 1598.21 1118.39C1594.41 1117.15 1590.4 1117.22 1586.59 1118.13L1588.1 1116.45C1605.48 1097.07 1632.44 1086.79 1658.33 1089.61C1673.41 1091.1 1688.75 1094.94 1703.77 1091.54L1704.07 1094.54C1691.76 1094.28 1679.55 1090.92 1668.77 1084.96C1646.89 1073.23 1635.11 1049.94 1620.03 1031.52C1614.44 1024.71 1608.12 1018.36 1600.52 1013.84C1595.92 1011.01 1589.24 1008.76 1584.26 1006.77C1626.13 1003.55 1669.77 1012.62 1704.76 1036.48C1711.21 1041 1716.8 1046.77 1721.93 1052.69C1727.07 1058.59 1731.87 1064.78 1736.19 1071.32C1740.52 1077.85 1744.36 1084.74 1747.34 1092.08L1743.8 1092.29C1751.73 1063.46 1761.71 1035.17 1773.89 1007.85L1774.88 1005.65C1789.77 1019.27 1794.12 1040.69 1791.95 1060.01C1789.89 1078.58 1782.75 1095.94 1776.58 1113.34L1774.58 1112.56C1777.01 1106.99 1779.99 1101.65 1783.49 1096.68C1793.99 1081.59 1809.71 1070.4 1827.13 1064.8C1831.23 1074.21 1828.39 1086.28 1825.66 1095.74C1822.45 1105.4 1818.44 1115.46 1810.89 1122.55C1812.81 1120.83 1814.4 1118.79 1815.83 1116.65C1820.05 1110.2 1822.97 1102.96 1825.16 1095.59C1827.66 1086.27 1830.28 1074.79 1826.45 1065.58L1827.03 1065.82C1810.08 1071.7 1795.05 1082.85 1785.04 1097.75C1781.7 1102.67 1778.88 1107.93 1776.54 1113.4L1774.54 1112.62C1777.54 1103.88 1780.74 1095.23 1783.44 1086.46C1791.61 1061.48 1794.25 1029.73 1774.23 1009.69L1776.92 1009.18C1764.35 1038.14 1753.96 1068.05 1745.96 1098.58C1738.63 1078.98 1725.83 1061.68 1711.14 1046.92C1692.46 1029.64 1663.79 1019.15 1639.14 1013.83C1624.13 1010.76 1608.75 1009.51 1593.44 1010.18L1594.03 1006.47C1602.76 1009.82 1610.4 1015.55 1616.79 1022.29C1631.45 1037.63 1640.89 1057.03 1656.24 1071.54C1669.09 1083.69 1686.42 1090.96 1704.12 1091.51L1716.67 1091.91L1704.41 1094.52C1688.96 1097.88 1673.36 1093.87 1658.03 1092.16C1632.82 1089.17 1606.56 1098.91 1589.2 1117.5L1588.5 1116.23C1602.5 1114.27 1612.69 1126.26 1624.55 1131.44C1636.37 1137.14 1649.56 1139.97 1662.7 1139.58L1662.73 1139.55Z"></path>
<path stroke-miterlimit="10" stroke-width="2.62" stroke="black" fill="#264A27" d="M1262.34 971.12C1255.51 970.86 1243.86 970.53 1235.05 970.91L1244.51 984C1244.51 984 1195.92 992.07 1172.58 1003.65C1172.58 1003.65 1151.37 967.69 1193.63 931.43C1226.12 903.55 1257.38 932.18 1272.66 949.26C1277.32 954.46 1277.04 962.41 1272.08 967.32C1269.5 969.88 1265.97 971.26 1262.34 971.12Z"></path>
<path fill="url(#paint1_linear_4023_815)" d="M1193.62 931.43C1193.62 931.43 1234.19 932.37 1293.18 1015.97C1352.17 1099.57 1361.58 1078.77 1382.74 1074.42L1381.05 1088.41L1394.35 1086.11C1394.35 1086.11 1453.09 1164.28 1532.58 1192.29C1612.07 1220.3 1666.71 1193.71 1666.71 1193.71C1666.71 1193.71 1627.68 1106.65 1578.53 1063.12L1570.72 1048.72C1570.72 1048.72 1527.19 1006.95 1509.33 1006.62L1489.58 1023.05C1489.58 1023.05 1498.16 1005.34 1487.57 991.66C1476.98 977.98 1413.54 928.02 1389.12 925.4C1364.7 922.78 1352.14 937.28 1305.93 927.48C1259.72 917.68 1217.81 909 1193.62 931.43Z"></path>
<mask height="289" width="474" y="917" x="1193" maskUnits="userSpaceOnUse" style="mask-type:luminance" id="mask8_4023_815">
<path fill="white" d="M1193.62 931.43C1193.62 931.43 1234.19 932.37 1293.18 1015.97C1352.17 1099.57 1361.58 1078.77 1382.74 1074.42L1381.05 1088.41L1394.35 1086.11C1394.35 1086.11 1453.09 1164.28 1532.58 1192.29C1612.07 1220.3 1666.71 1193.71 1666.71 1193.71C1666.71 1193.71 1627.68 1106.65 1578.53 1063.12L1570.72 1048.72C1570.72 1048.72 1527.19 1006.95 1509.33 1006.62L1489.58 1023.05C1489.58 1023.05 1498.16 1005.34 1487.57 991.66C1476.98 977.98 1413.54 928.02 1389.12 925.4C1364.7 922.78 1352.14 937.28 1305.93 927.48C1259.72 917.68 1217.81 909 1193.62 931.43Z"></path>
</mask>
<g mask="url(#mask8_4023_815)">
<path fill="#629B42" d="M1170.19 922.931C1170.92 903.781 1182.06 886.051 1197.03 874.081C1212 862.111 1230.48 855.311 1249.13 850.901C1315.51 835.211 1386.64 848.151 1447.84 878.281C1509.04 908.411 1561.03 954.781 1605.63 1006.39C1645.1 1052.06 1679.6 1102.65 1701.97 1158.71C1706.85 1170.94 1711.09 1185.02 1705.38 1196.89C1700.92 1206.16 1691.08 1211.92 1681.01 1214.04C1670.94 1216.16 1660.95 1213.18 1650.71 1212.18C1646.56 1186.54 1631.74 1163.92 1615.34 1143.78C1598.95 1123.64 1580.53 1104.95 1567.07 1082.73C1560.42 1071.75 1555.02 1059.98 1547.32 1049.71C1539.62 1039.44 1529.02 1030.54 1516.37 1028.41C1500.38 1025.72 1484.84 1034.11 1470.79 1042.2C1476.58 1021.59 1468.6 999.071 1455.2 982.371C1441.8 965.671 1422.22 952.071 1404.29 940.381C1387.95 958.151 1361.08 962.441 1337.23 958.721C1313.37 955.001 1291.17 944.581 1268.24 937.041C1245.31 929.501 1220.03 924.871 1197.25 932.871C1186.09 936.791 1175.94 933.241 1170.18 922.911L1170.19 922.931Z"></path>
</g>
<path stroke-miterlimit="10" stroke-width="1.97" stroke="black" d="M1193.62 931.43C1193.62 931.43 1234.19 932.37 1293.18 1015.97C1352.17 1099.57 1361.58 1078.77 1382.74 1074.42L1381.05 1088.41L1394.35 1086.11C1394.35 1086.11 1453.09 1164.28 1532.58 1192.29C1612.07 1220.3 1666.71 1193.71 1666.71 1193.71C1666.71 1193.71 1627.68 1106.65 1578.53 1063.12L1570.72 1048.72C1570.72 1048.72 1527.19 1006.95 1509.33 1006.62L1489.58 1023.05C1489.58 1023.05 1498.16 1005.34 1487.57 991.66C1476.98 977.98 1413.54 928.02 1389.12 925.4C1364.7 922.78 1352.14 937.28 1305.93 927.48C1259.72 917.68 1217.81 909 1193.62 931.43Z"></path>
<path fill="#2F4C18" d="M1314.56 930.371C1341.03 936.061 1363.37 952.971 1382.58 971.331C1401.89 989.721 1419.28 1010.27 1440.62 1026.38C1465.54 1044.98 1494.85 1057.51 1519.09 1077.27C1550.82 1101.98 1577.21 1132.65 1607.84 1158.55C1621.36 1170.1 1635.82 1180.63 1651.5 1189.15C1635.53 1181.17 1620.85 1170.81 1606.99 1159.57C1565.86 1125.66 1531.43 1083.3 1484.4 1057.01C1469.15 1047.87 1453.43 1039.23 1439.13 1028.34C1424.83 1017.45 1412.27 1004.61 1400.02 991.691C1387.75 978.811 1375.47 965.871 1361.48 954.851C1347.63 943.781 1331.87 934.661 1314.55 930.371H1314.56Z"></path>
<path fill="#2F4C18" d="M1423.49 1012.94C1385.64 1017.52 1345.86 1008.89 1313.28 989.07C1347.57 1005.46 1385.48 1013.71 1423.49 1012.94Z"></path>
<path fill="#2F4C18" d="M1547.84 1104.7C1539.74 1081.56 1527.13 1061.22 1510.08 1043.62C1529.48 1058.01 1543.65 1080.92 1547.84 1104.7Z"></path>
<path fill="#2F4C18" d="M1558.03 1114.53C1505.2 1114.63 1452.06 1097.62 1409.06 1066.94C1454.03 1094.36 1505.49 1110.84 1558.03 1114.53Z"></path>
<path stroke-miterlimit="10" stroke-width="2.62" stroke="black" fill="#264A27" d="M1338.43 904.378C1331.6 904.118 1319.95 903.788 1311.14 904.168L1320.6 917.258C1320.6 917.258 1272.01 925.328 1248.67 936.908C1248.67 936.908 1227.46 900.948 1269.72 864.688C1302.21 836.808 1333.47 865.438 1348.75 882.518C1353.41 887.718 1353.13 895.668 1348.17 900.578C1345.59 903.138 1342.06 904.518 1338.43 904.378Z"></path>
<path fill="url(#paint2_linear_4023_815)" d="M1269.72 864.687C1269.72 864.687 1310.29 865.627 1369.28 949.227C1428.27 1032.83 1437.68 1012.03 1458.84 1007.68L1457.15 1021.67L1470.45 1019.37C1470.45 1019.37 1529.19 1097.54 1608.68 1125.55C1688.18 1153.56 1742.81 1126.97 1742.81 1126.97C1742.81 1126.97 1703.78 1039.91 1654.63 996.377L1646.82 981.977C1646.82 981.977 1603.29 940.207 1585.43 939.877L1565.68 956.307C1565.68 956.307 1574.26 938.597 1563.67 924.917C1553.08 911.237 1489.64 861.277 1465.22 858.657C1440.8 856.037 1428.24 870.537 1382.03 860.737C1335.82 850.937 1293.91 842.257 1269.72 864.687Z"></path>
<mask height="289" width="474" y="850" x="1269" maskUnits="userSpaceOnUse" style="mask-type:luminance" id="mask9_4023_815">
<path fill="white" d="M1269.72 864.687C1269.72 864.687 1310.29 865.627 1369.28 949.227C1428.27 1032.83 1437.68 1012.03 1458.84 1007.68L1457.15 1021.67L1470.45 1019.37C1470.45 1019.37 1529.19 1097.54 1608.68 1125.55C1688.18 1153.56 1742.81 1126.97 1742.81 1126.97C1742.81 1126.97 1703.78 1039.91 1654.63 996.377L1646.82 981.977C1646.82 981.977 1603.29 940.207 1585.43 939.877L1565.68 956.307C1565.68 956.307 1574.26 938.597 1563.67 924.917C1553.08 911.237 1489.64 861.277 1465.22 858.657C1440.8 856.037 1428.24 870.537 1382.03 860.737C1335.82 850.937 1293.91 842.257 1269.72 864.687Z"></path>
</mask>
<g mask="url(#mask9_4023_815)">
<path fill="#629B42" d="M1246.28 856.189C1247.01 837.039 1258.15 819.309 1273.12 807.339C1288.09 795.369 1306.57 788.569 1325.22 784.159C1391.6 768.469 1462.73 781.409 1523.93 811.539C1585.13 841.669 1637.12 888.039 1681.72 939.649C1721.19 985.319 1755.69 1035.91 1778.06 1091.97C1782.94 1104.2 1787.18 1118.28 1781.47 1130.15C1777.01 1139.42 1767.17 1145.18 1757.1 1147.3C1747.03 1149.42 1737.04 1146.44 1726.8 1145.44C1722.65 1119.8 1707.83 1097.18 1691.43 1077.04C1675.04 1056.9 1656.62 1038.21 1643.16 1015.99C1636.51 1005.01 1631.11 993.239 1623.41 982.969C1615.71 972.699 1605.11 963.799 1592.46 961.669C1576.47 958.979 1560.93 967.369 1546.88 975.459C1552.67 954.849 1544.69 932.329 1531.29 915.629C1517.89 898.929 1498.31 885.329 1480.38 873.639C1464.04 891.409 1437.17 895.699 1413.32 891.979C1389.46 888.259 1367.26 877.839 1344.33 870.299C1321.4 862.759 1296.12 858.129 1273.34 866.129C1262.18 870.049 1252.03 866.499 1246.27 856.169L1246.28 856.189Z"></path>
</g>
<path stroke-miterlimit="10" stroke-width="1.97" stroke="black" d="M1269.72 864.687C1269.72 864.687 1310.29 865.627 1369.28 949.227C1428.27 1032.83 1437.68 1012.03 1458.84 1007.68L1457.15 1021.67L1470.45 1019.37C1470.45 1019.37 1529.19 1097.54 1608.68 1125.55C1688.18 1153.56 1742.81 1126.97 1742.81 1126.97C1742.81 1126.97 1703.78 1039.91 1654.63 996.377L1646.82 981.977C1646.82 981.977 1603.29 940.207 1585.43 939.877L1565.68 956.307C1565.68 956.307 1574.26 938.597 1563.67 924.917C1553.08 911.237 1489.64 861.277 1465.22 858.657C1440.8 856.037 1428.24 870.537 1382.03 860.737C1335.82 850.937 1293.91 842.257 1269.72 864.687Z"></path>
<path fill="#2F4C18" d="M1390.66 863.629C1417.13 869.319 1439.47 886.229 1458.68 904.589C1477.99 922.979 1495.38 943.529 1516.72 959.639C1541.64 978.239 1570.95 990.769 1595.19 1010.53C1626.92 1035.24 1653.31 1065.91 1683.94 1091.81C1697.46 1103.36 1711.92 1113.89 1727.6 1122.41C1711.63 1114.43 1696.95 1104.07 1683.09 1092.83C1641.96 1058.92 1607.53 1016.56 1560.5 990.269C1545.25 981.129 1529.53 972.489 1515.23 961.599C1500.93 950.709 1488.37 937.869 1476.12 924.949C1463.85 912.069 1451.57 899.119 1437.58 888.109C1423.73 877.039 1407.97 867.919 1390.65 863.629H1390.66Z"></path>
<path fill="#2F4C18" d="M1499.58 946.198C1461.73 950.778 1421.95 942.148 1389.37 922.328C1423.66 938.718 1461.57 946.968 1499.58 946.198Z"></path>
<path fill="#2F4C18" d="M1623.94 1037.96C1615.84 1014.82 1603.23 994.479 1586.18 976.879C1605.58 991.269 1619.75 1014.18 1623.94 1037.96Z"></path>
<path fill="#2F4C18" d="M1634.12 1047.79C1581.29 1047.89 1528.15 1030.88 1485.15 1000.2C1530.12 1027.62 1581.58 1044.1 1634.12 1047.79Z"></path>
<path stroke-miterlimit="10" stroke-width="2.29" stroke="black" fill="#244928" d="M1229.59 1106.79C1229.53 1106.75 1229.49 1106.72 1229.49 1106.72C1229.49 1106.72 1229.53 1106.74 1229.59 1106.79Z"></path>
<path fill="url(#paint3_linear_4023_815)" d="M1530.57 1207.98C1533.65 1206.4 1536.3 1204.83 1537.9 1203.48L1533.63 1214.61C1533.63 1214.61 1609.73 1249.7 1674.94 1231.5C1694.47 1226.05 1689.28 1207.57 1685.96 1199.53C1684.8 1196.73 1683.69 1193.92 1682.7 1191.06C1675.67 1170.59 1641.75 1088.84 1541.37 1062.31L1539.92 1084.36L1504.43 1046.74C1504.43 1046.74 1421.72 1023.27 1349.61 1044.73C1349.61 1044.73 1344.61 1052.64 1349.16 1061.26L1336.11 1054.29C1336.11 1054.29 1293.96 1061.7 1264.66 1086.81C1237.41 1110.18 1230.43 1107.31 1229.59 1106.79C1233.02 1109.13 1334.26 1178.16 1363.59 1179.81C1388.6 1181.22 1391.12 1174.65 1391.12 1174.65L1385.22 1190.01C1385.22 1190.01 1439.65 1209.16 1479.38 1215.78C1496.83 1218.69 1514.83 1216.06 1530.56 1207.96L1530.57 1207.98ZM1374.68 1158.41C1372.12 1159.48 1369.51 1160.56 1366.74 1160.84C1363.98 1161.12 1360.99 1160.5 1359 1158.56C1349.77 1149.54 1369.57 1138.29 1376.15 1136.55C1383.9 1134.5 1392.05 1134.77 1400.06 1135.05C1403.57 1135.17 1408.01 1136.03 1408.73 1139.47C1409.1 1141.26 1408.18 1143.12 1406.83 1144.35C1405.48 1145.58 1403.76 1146.31 1402.07 1147.01C1392.94 1150.81 1383.8 1154.61 1374.67 1158.42L1374.68 1158.41Z"></path>
<mask height="202" width="461" y="1035" x="1229" maskUnits="userSpaceOnUse" style="mask-type:luminance" id="mask10_4023_815">
<path fill="white" d="M1530.57 1207.98C1533.65 1206.4 1536.3 1204.83 1537.9 1203.48L1533.63 1214.61C1533.63 1214.61 1609.73 1249.7 1674.94 1231.5C1694.47 1226.05 1689.28 1207.57 1685.96 1199.53C1684.8 1196.73 1683.69 1193.92 1682.7 1191.06C1675.67 1170.59 1641.75 1088.84 1541.37 1062.31L1539.92 1084.36L1504.43 1046.74C1504.43 1046.74 1421.72 1023.27 1349.61 1044.73C1349.61 1044.73 1344.61 1052.64 1349.16 1061.26L1336.11 1054.29C1336.11 1054.29 1293.96 1061.7 1264.66 1086.81C1237.41 1110.18 1230.43 1107.31 1229.59 1106.79C1233.02 1109.13 1334.26 1178.16 1363.59 1179.81C1388.6 1181.22 1391.12 1174.65 1391.12 1174.65L1385.22 1190.01C1385.22 1190.01 1439.65 1209.16 1479.38 1215.78C1496.83 1218.69 1514.83 1216.06 1530.56 1207.96L1530.57 1207.98ZM1374.68 1158.41C1372.12 1159.48 1369.51 1160.56 1366.74 1160.84C1363.98 1161.12 1360.99 1160.5 1359 1158.56C1349.77 1149.54 1369.57 1138.29 1376.15 1136.55C1383.9 1134.5 1392.05 1134.77 1400.06 1135.05C1403.57 1135.17 1408.01 1136.03 1408.73 1139.47C1409.1 1141.26 1408.18 1143.12 1406.83 1144.35C1405.48 1145.58 1403.76 1146.31 1402.07 1147.01C1392.94 1150.81 1383.8 1154.61 1374.67 1158.42L1374.68 1158.41Z"></path>
</mask>
<g mask="url(#mask10_4023_815)">
<path fill="#3A663E" d="M1676.79 1159.78C1642.43 1125.85 1602.5 1097.57 1559.1 1076.4C1555.34 1083.78 1551.58 1091.17 1547.82 1098.55C1498.75 1054.83 1427.2 1037.85 1363.71 1054.85C1365.15 1062.01 1367.45 1068.72 1368.89 1075.88C1327.27 1061.78 1277.62 1075.88 1249.63 1109.76C1286.92 1149.93 1346.44 1171.94 1401.24 1170.84C1399.59 1174.95 1397.94 1179.07 1396.29 1183.18C1439.58 1195.92 1482.87 1208.66 1526.16 1221.4C1512.1 1229.5 1496.57 1235.06 1480.56 1237.71C1435.07 1245.24 1389.33 1229.38 1345.94 1213.76C1318.83 1204 1291.58 1194.18 1266.36 1180.25C1250.18 1171.32 1234.71 1160.55 1223.03 1146.24C1211.34 1131.93 1203.69 1113.72 1204.67 1095.27C1205.62 1077.42 1214.55 1060.65 1226.8 1047.62C1239.04 1034.59 1254.43 1024.94 1270.25 1016.61C1332.5 983.815 1404.35 969.525 1474.41 976.025C1519.14 980.175 1564.02 993.115 1599.98 1020.04C1635.94 1046.96 1661.96 1089.16 1662.65 1134.07"></path>
</g>
<path stroke-miterlimit="10" stroke-width="2.29" stroke="black" d="M1530.57 1207.98C1533.65 1206.4 1536.3 1204.83 1537.9 1203.48L1533.63 1214.61C1533.63 1214.61 1609.73 1249.7 1674.94 1231.5C1694.47 1226.05 1689.28 1207.57 1685.96 1199.53C1684.8 1196.73 1683.69 1193.92 1682.7 1191.06C1675.67 1170.59 1641.75 1088.84 1541.37 1062.31L1539.92 1084.36L1504.43 1046.74C1504.43 1046.74 1421.72 1023.27 1349.61 1044.73C1349.61 1044.73 1344.61 1052.64 1349.16 1061.26L1336.11 1054.29C1336.11 1054.29 1293.96 1061.7 1264.66 1086.81C1237.41 1110.18 1230.43 1107.31 1229.59 1106.79C1233.02 1109.13 1334.26 1178.16 1363.59 1179.81C1388.6 1181.22 1391.12 1174.65 1391.12 1174.65L1385.22 1190.01C1385.22 1190.01 1439.65 1209.16 1479.38 1215.78C1496.83 1218.69 1514.83 1216.06 1530.56 1207.96L1530.57 1207.98ZM1374.68 1158.41C1372.12 1159.48 1369.51 1160.56 1366.74 1160.84C1363.98 1161.12 1360.99 1160.5 1359 1158.56C1349.77 1149.54 1369.57 1138.29 1376.15 1136.55C1383.9 1134.5 1392.05 1134.77 1400.06 1135.05C1403.57 1135.17 1408.01 1136.03 1408.73 1139.47C1409.1 1141.26 1408.18 1143.12 1406.83 1144.35C1405.48 1145.58 1403.76 1146.31 1402.07 1147.01C1392.94 1150.81 1383.8 1154.61 1374.67 1158.42L1374.68 1158.41Z"></path>
<path fill="#132813" d="M1688.62 1218.72C1632.12 1191 1570.61 1166.59 1510.23 1148.81C1450.03 1131.16 1384.77 1118.14 1322.5 1110.65C1309.03 1109.01 1281.5 1106.19 1267.95 1105.06C1281.68 1105.85 1308.98 1108.05 1322.64 1109.45C1449.8 1122.52 1575.38 1159.2 1688.63 1218.72H1688.62Z"></path>
<path fill="#132813" d="M1457.26 1134.21C1440.9 1101.92 1411.31 1077.05 1376.71 1066.43C1412.48 1073.65 1444.02 1100.21 1457.26 1134.21Z"></path>
<path fill="#132813" d="M1519.72 1149.68C1508.1 1112.24 1481.75 1079.99 1447.39 1061.11C1483.56 1076.92 1511.45 1111.08 1519.72 1149.68Z"></path>
<path stroke-miterlimit="10" stroke-width="3.43" stroke="black" d="M1514.6 900.838C1514.61 900.778 1514.61 900.738 1514.61 900.738"></path>
<path fill="#395E24" d="M1424.64 1123.63C1449 1096.79 1472.92 1051.94 1472.92 1051.94L1453.97 1042.81C1453.97 1042.81 1462.07 1046.71 1479.99 1032.03C1501.01 1014.81 1514.16 904.58 1514.6 900.84C1514.44 901.71 1511.76 907.79 1468.87 903.81C1422.77 899.53 1383.39 916.43 1383.39 916.43L1379.89 929.09C1375.3 919.7 1364.03 916.07 1364.03 916.07C1288.41 937.93 1246.79 1001.58 1246.79 1001.58L1254.78 1050.99L1232.98 1034.09C1180.63 1109.76 1231.22 1193.72 1245.01 1213.95C1246.94 1216.78 1248.72 1219.64 1250.45 1222.51C1255.44 1230.76 1268.78 1248.4 1288.92 1242.19C1356.16 1221.46 1381.8 1152.07 1381.8 1152.07L1368.07 1145.45C1370.57 1145.67 1374.07 1145.49 1377.93 1145.09C1397.63 1143.06 1413.94 1135.42 1424.65 1123.63H1424.64ZM1419.59 1026.55C1417.63 1026.9 1415.63 1027.25 1413.44 1027C1411.25 1026.74 1408.79 1025.75 1407.4 1024.11C1404.73 1020.96 1407.34 1017.87 1409.93 1015.87C1415.83 1011.3 1421.85 1006.67 1429.74 1004.12C1436.44 1001.95 1462.23 1000.25 1463.59 1012.49C1463.88 1015.12 1462.17 1017.24 1459.77 1018.51C1457.38 1019.78 1454.36 1020.33 1451.38 1020.86C1440.78 1022.76 1430.19 1024.66 1419.59 1026.56V1026.55Z"></path>
<mask height="344" width="306" y="900" x="1209" maskUnits="userSpaceOnUse" style="mask-type:luminance" id="mask11_4023_815">
<path fill="white" d="M1424.64 1123.63C1449 1096.79 1472.92 1051.94 1472.92 1051.94L1453.97 1042.81C1453.97 1042.81 1462.07 1046.71 1479.99 1032.03C1501.01 1014.81 1514.16 904.58 1514.6 900.84C1514.44 901.71 1511.76 907.79 1468.87 903.81C1422.77 899.53 1383.39 916.43 1383.39 916.43L1379.89 929.09C1375.3 919.7 1364.03 916.07 1364.03 916.07C1288.41 937.93 1246.79 1001.58 1246.79 1001.58L1254.78 1050.99L1232.98 1034.09C1180.63 1109.76 1231.22 1193.72 1245.01 1213.95C1246.94 1216.78 1248.72 1219.64 1250.45 1222.51C1255.44 1230.76 1268.78 1248.4 1288.92 1242.19C1356.16 1221.46 1381.8 1152.07 1381.8 1152.07L1368.07 1145.45C1370.57 1145.67 1374.07 1145.49 1377.93 1145.09C1397.63 1143.06 1413.94 1135.42 1424.65 1123.63H1424.64ZM1419.59 1026.55C1417.63 1026.9 1415.63 1027.25 1413.44 1027C1411.25 1026.74 1408.79 1025.75 1407.4 1024.11C1404.73 1020.96 1407.34 1017.87 1409.93 1015.87C1415.83 1011.3 1421.85 1006.67 1429.74 1004.12C1436.44 1001.95 1462.23 1000.25 1463.59 1012.49C1463.88 1015.12 1462.17 1017.24 1459.77 1018.51C1457.38 1019.78 1454.36 1020.33 1451.38 1020.86C1440.78 1022.76 1430.19 1024.66 1419.59 1026.56V1026.55Z"></path>
</mask>
<g mask="url(#mask11_4023_815)">
<path fill="#49752B" d="M1220.21 1185.66C1214.83 1139.82 1219.01 1095.5 1232.55 1055C1242.37 1058.89 1252.19 1062.77 1262.01 1066.66C1258.76 1005 1297.88 952.598 1362.68 931.838C1368.29 938.358 1372.81 944.988 1378.42 951.508C1397.22 917.638 1448.65 902.058 1501.96 914.068C1510.94 966.498 1485.79 1016.41 1442.6 1045.22C1447.73 1047.63 1452.86 1050.03 1457.99 1052.44C1436.63 1086.12 1415.27 1119.79 1393.91 1153.47C1412.33 1152.35 1429.49 1148.39 1444.3 1141.85C1486.36 1123.24 1506.69 1085.73 1525.41 1049.7C1537.12 1027.18 1548.87 1004.54 1555.22 979.698C1559.29 963.768 1561.09 946.748 1556.66 928.938C1552.23 911.128 1541.04 892.368 1522.98 878.098C1505.51 864.288 1482.9 855.678 1461.26 851.858C1439.62 848.038 1418.73 848.638 1398.74 850.528C1320.08 857.948 1251.4 885.418 1203.58 928.588C1173.05 956.148 1150.66 990.848 1148.24 1031.93C1145.82 1073.01 1165.39 1120.96 1206.99 1157.37"></path>
</g>
<path stroke-miterlimit="10" stroke-width="3.43" stroke="black" d="M1424.64 1123.63C1449 1096.79 1472.92 1051.94 1472.92 1051.94L1453.97 1042.81C1453.97 1042.81 1462.07 1046.71 1479.99 1032.03C1501.01 1014.81 1514.16 904.58 1514.6 900.84C1514.44 901.71 1511.76 907.79 1468.87 903.81C1422.77 899.53 1383.39 916.43 1383.39 916.43L1379.89 929.09C1375.3 919.7 1364.03 916.07 1364.03 916.07C1288.41 937.93 1246.79 1001.58 1246.79 1001.58L1254.78 1050.99L1232.98 1034.09C1180.63 1109.76 1231.22 1193.72 1245.01 1213.95C1246.94 1216.78 1248.72 1219.64 1250.45 1222.51C1255.44 1230.76 1268.78 1248.4 1288.92 1242.19C1356.16 1221.46 1381.8 1152.07 1381.8 1152.07L1368.07 1145.45C1370.57 1145.67 1374.07 1145.49 1377.93 1145.09C1397.63 1143.06 1413.94 1135.42 1424.65 1123.63H1424.64ZM1419.59 1026.55C1417.63 1026.9 1415.63 1027.25 1413.44 1027C1411.25 1026.74 1408.79 1025.75 1407.4 1024.11C1404.73 1020.96 1407.34 1017.87 1409.93 1015.87C1415.83 1011.3 1421.85 1006.67 1429.74 1004.12C1436.44 1001.95 1462.23 1000.25 1463.59 1012.49C1463.88 1015.12 1462.17 1017.24 1459.77 1018.51C1457.38 1019.78 1454.36 1020.33 1451.38 1020.86C1440.78 1022.76 1430.19 1024.66 1419.59 1026.56V1026.55Z"></path>
<path fill="#0E280E" d="M1266.4 1239.35C1285.93 1173.13 1316.71 1108.95 1357.43 1053.18C1363.45 1044.54 1371.37 1034.68 1377.78 1026.32C1382.25 1020.97 1389.02 1012.81 1393.47 1007.49C1397.17 1003.35 1404.07 995.607 1407.78 991.517C1413.31 985.457 1421.19 977.557 1426.84 971.617C1430.8 967.757 1438.25 960.517 1442.2 956.677C1454.34 945.007 1470.48 931.157 1483.47 920.227C1464.13 937.357 1443.76 956.477 1425.96 975.037C1421.26 980.137 1413.9 987.737 1409.33 992.937C1403.19 1000.01 1395.2 1008.74 1389.36 1016.04C1387.88 1017.83 1380.96 1026.23 1379.65 1027.82C1376.29 1032.19 1370.07 1040.33 1366.65 1044.78C1362.44 1050.32 1356.56 1058.93 1352.43 1064.63C1348.39 1070.36 1342.84 1079.07 1338.87 1084.94C1336.84 1087.97 1334.41 1092.22 1332.46 1095.33C1326.18 1105.3 1319.86 1116.81 1314.16 1127.05L1302.99 1148.77L1292.64 1170.9C1287.77 1181.97 1278.54 1204.85 1274.37 1216.24L1266.39 1239.36L1266.4 1239.35Z"></path>
<path fill="#0E280E" d="M1365.13 1046.19C1352.24 1026.22 1345.51 1001.25 1350.14 977.618C1352.17 966.948 1356.74 956.578 1363.54 948.168C1358.99 955.518 1355.65 963.488 1353.65 971.768C1347.5 996.978 1353.88 1023.3 1365.14 1046.19H1365.13Z"></path>
<path fill="#0E280E" d="M1331.58 1092.45C1312.38 1070.05 1298.96 1041.2 1298.96 1011.32C1298.98 1001.39 1300.59 991.417 1304.15 982.207C1301.29 992.937 1300.49 1003.98 1301.14 1014.94C1303.21 1043.15 1315.58 1069.45 1331.57 1092.46L1331.58 1092.45Z"></path>
<path stroke-miterlimit="10" stroke-width="2.86" stroke="black" fill="#1A491F" d="M856.871 951.54C856.821 951.48 856.801 951.43 856.801 951.43C856.801 951.43 856.821 951.47 856.871 951.54Z"></path>
<path fill="#46772D" d="M1117.12 1165.93C1121.15 1165.14 1124.73 1164.24 1127.1 1163.23L1116.82 1174.49C1116.82 1174.49 1177.64 1239.51 1255.03 1240.31C1278.21 1240.55 1282.48 1217.81 1283.24 1207.57C1283.5 1204 1283.81 1200.44 1284.29 1196.86C1287.69 1171.25 1295.19 1067.05 1204.62 1003.76L1191.57 1028.37L1174.34 973.859C1174.34 973.859 1100.55 919.879 1014.27 920.509C1014.27 920.509 1004.93 927.859 1005.15 939.169L995.221 926.929C995.221 926.929 947.481 921.449 903.841 940.369C863.241 957.969 857.491 952.399 856.891 951.539C859.231 955.339 928.451 1067.26 958.111 1078.82C983.401 1088.67 989.461 1082.03 989.461 1082.03L975.281 1097.56C975.281 1097.56 1021.9 1137.3 1059.78 1157.94C1076.42 1167.01 1096.53 1169.95 1117.14 1165.93H1117.12ZM980.831 1058.12C977.601 1058.49 974.321 1058.86 971.301 1058.27C968.281 1057.68 965.491 1055.99 964.441 1053.13C959.551 1039.82 986.051 1033.55 993.811 1033.74C1002.95 1033.96 1011.29 1036.95 1019.48 1039.92C1023.07 1041.22 1027.24 1043.66 1026.19 1047.8C1025.64 1049.96 1023.71 1051.77 1021.66 1052.73C1019.61 1053.69 1017.44 1053.94 1015.32 1054.19C1003.82 1055.5 992.331 1056.82 980.831 1058.13V1058.12Z"></path>
<mask height="321" width="431" y="920" x="856" maskUnits="userSpaceOnUse" style="mask-type:luminance" id="mask12_4023_815">
<path fill="white" d="M1117.12 1165.93C1121.15 1165.14 1124.73 1164.24 1127.1 1163.23L1116.82 1174.49C1116.82 1174.49 1177.64 1239.51 1255.03 1240.31C1278.21 1240.55 1282.48 1217.81 1283.24 1207.57C1283.5 1204 1283.81 1200.44 1284.29 1196.86C1287.69 1171.25 1295.19 1067.05 1204.62 1003.76L1191.57 1028.37L1174.34 973.859C1174.34 973.859 1100.55 919.879 1014.27 920.509C1014.27 920.509 1004.93 927.859 1005.15 939.169L995.221 926.929C995.221 926.929 947.481 921.449 903.841 940.369C863.241 957.969 857.491 952.399 856.891 951.539C859.231 955.339 928.451 1067.26 958.111 1078.82C983.401 1088.67 989.461 1082.03 989.461 1082.03L975.281 1097.56C975.281 1097.56 1021.9 1137.3 1059.78 1157.94C1076.42 1167.01 1096.53 1169.95 1117.14 1165.93H1117.12ZM980.831 1058.12C977.601 1058.49 974.321 1058.86 971.301 1058.27C968.281 1057.68 965.491 1055.99 964.441 1053.13C959.551 1039.82 986.051 1033.55 993.811 1033.74C1002.95 1033.96 1011.29 1036.95 1019.48 1039.92C1023.07 1041.22 1027.24 1043.66 1026.19 1047.8C1025.64 1049.96 1023.71 1051.77 1021.66 1052.73C1019.61 1053.69 1017.44 1053.94 1015.32 1054.19C1003.82 1055.5 992.331 1056.82 980.831 1058.13V1058.12Z"></path>
</mask>
<g mask="url(#mask12_4023_815)">
<path fill="url(#paint4_linear_4023_815)" d="M1294.52 1159.32C1276.52 1109.38 1249.78 1064.04 1215.69 1025.64C1207.91 1032.8 1200.13 1039.96 1192.35 1047.13C1164.17 981.198 1098.6 938.278 1023.63 936.688C1021.38 945.308 1020.26 953.698 1018.01 962.318C982.081 932.548 923.031 932.218 876.161 961.528C893.941 1019.53 944.361 1064.2 1001.96 1081.03C998.091 1085.17 994.221 1089.3 990.351 1093.44C1028.73 1122.21 1067.11 1150.98 1105.49 1179.75C1086.61 1184.33 1067.55 1185.53 1049.5 1183.27C998.221 1176.84 958.921 1143.7 921.951 1111.62C898.851 1091.57 875.631 1071.41 856.671 1047.25C844.511 1031.76 834.051 1014.4 829.381 994.258C824.711 974.118 826.271 950.888 836.951 930.218C847.281 910.218 865.361 894.088 884.921 883.308C904.481 872.528 925.551 866.618 946.371 862.358C1028.32 845.578 1110.57 853.018 1180.08 883.518C1224.46 902.988 1264.38 932.518 1287.72 974.998C1311.05 1017.49 1316.03 1074.08 1293.24 1125.41" opacity="0.34" style="mix-blend-mode:multiply"></path>
</g>
<path stroke-miterlimit="10" stroke-width="3.43" stroke="black" d="M1117.12 1165.93C1121.15 1165.14 1124.73 1164.24 1127.1 1163.23L1116.82 1174.49C1116.82 1174.49 1177.64 1239.51 1255.03 1240.31C1278.21 1240.55 1282.48 1217.81 1283.24 1207.57C1283.5 1204 1283.81 1200.44 1284.29 1196.86C1287.69 1171.25 1295.19 1067.05 1204.62 1003.76L1191.57 1028.37L1174.34 973.859C1174.34 973.859 1100.55 919.879 1014.27 920.509C1014.27 920.509 1004.93 927.859 1005.15 939.169L995.221 926.929C995.221 926.929 947.481 921.449 903.841 940.369C863.241 957.969 857.491 952.399 856.891 951.539C859.231 955.339 928.451 1067.26 958.111 1078.82C983.401 1088.67 989.461 1082.03 989.461 1082.03L975.281 1097.56C975.281 1097.56 1021.9 1137.3 1059.78 1157.94C1076.42 1167.01 1096.53 1169.95 1117.14 1165.93H1117.12ZM980.831 1058.12C977.601 1058.49 974.321 1058.86 971.301 1058.27C968.281 1057.68 965.491 1055.99 964.441 1053.13C959.551 1039.82 986.051 1033.55 993.811 1033.74C1002.95 1033.96 1011.29 1036.95 1019.48 1039.92C1023.07 1041.22 1027.24 1043.66 1026.19 1047.8C1025.64 1049.96 1023.71 1051.77 1021.66 1052.73C1019.61 1053.69 1017.44 1053.94 1015.32 1054.19C1003.82 1055.5 992.331 1056.82 980.831 1058.13V1058.12Z"></path>
<path fill="#0E280E" d="M1275.97 1230.28C1225.11 1172.49 1165.72 1118.2 1102.58 1074.15C1054.76 1040.62 1003.71 1011.46 951.031 986.281C937.951 980.031 911.051 967.9 897.691 962.23L924.801 973.26C1061 1030.55 1181.56 1116.19 1275.97 1230.29V1230.28Z"></path>
<path fill="#0E280E" d="M1079.45 1057.82C1079.18 1028.21 1070.56 998.411 1052.14 975.001C1046.06 967.241 1038.99 960.241 1031.1 954.141C1047.82 964.101 1060.82 979.831 1069.15 997.331C1077.84 1016.08 1081.57 1037.28 1079.44 1057.82H1079.45Z"></path>
<path fill="#0E280E" d="M1136.35 1096.02C1141.31 1063.53 1138.47 1029.47 1124.61 999.461C1120.03 989.511 1114.28 980.091 1107.45 971.391C1138.58 1003.7 1147.29 1053.36 1136.35 1096.01V1096.02Z"></path>
<path fill="#456630" d="M1162.78 1277.09C1149.57 1277.66 1136.2 1274.27 1124.87 1267.46C1117.38 1262.96 1109.61 1256.73 1101.01 1258.24C1115.24 1242.66 1137 1234.31 1158 1236.37C1171.1 1237.65 1184.47 1241.18 1197.3 1238.27C1183.22 1237.92 1169.31 1232.58 1158.61 1223.42C1138.75 1206.42 1129.35 1176.87 1104.93 1167.56C1131.84 1166.31 1159.05 1172.13 1183.1 1184.26C1191.25 1188.37 1199.12 1193.26 1205.49 1199.79C1215.7 1210.26 1226.46 1224.47 1231.91 1238.05C1238.45 1214.05 1246.76 1190.53 1256.77 1167.76C1267.73 1178.57 1271.04 1195.26 1269.43 1210.57C1267.82 1225.88 1261.97 1240.37 1256.9 1254.9C1265.17 1235.7 1279.93 1221.96 1299.7 1215.19C1305.01 1226.45 1295.77 1254.73 1286.36 1262.88"></path>
<path fill="black" d="M1162.78 1277.09C1151.79 1277.67 1140.66 1275.58 1130.66 1270.94C1120.91 1266.96 1112.4 1257.18 1101.11 1258.87L1099.26 1259.21C1113.76 1242.18 1136.85 1232.98 1159.11 1235.42C1171.64 1236.67 1184.64 1239.86 1197.01 1237.03L1197.26 1239.54C1186.99 1239.32 1176.81 1236.52 1167.81 1231.55C1140.39 1217.15 1132.56 1180.27 1104.35 1169.06L1097.32 1166.32C1132.25 1163.63 1168.65 1171.2 1197.83 1191.1C1208.42 1198.86 1216.65 1209.41 1224.05 1220.16C1227.66 1225.61 1230.87 1231.36 1233.35 1237.48L1230.4 1237.65C1237.02 1213.6 1245.34 1190 1255.5 1167.21L1256.32 1165.37C1262.7 1171.24 1267.01 1179.1 1269.08 1187.37C1275.16 1210.59 1265.47 1233.67 1257.74 1255.2L1256.07 1254.55C1264.03 1235.7 1280.42 1220.83 1299.91 1214.71C1304.5 1225.46 1298.81 1242.48 1293.85 1252.48C1291.87 1256.28 1289.58 1260.02 1286.36 1262.89C1294.74 1254.67 1299.5 1239.31 1300.74 1227.84C1301.09 1223.67 1301.07 1219.23 1299.34 1215.37L1299.82 1215.57C1285.68 1220.48 1273.14 1229.77 1264.8 1242.21C1262.01 1246.32 1259.66 1250.7 1257.71 1255.27L1256.04 1254.62C1258.54 1247.33 1261.21 1240.12 1263.46 1232.8C1270.28 1211.96 1272.48 1185.48 1255.78 1168.76L1258.02 1168.33C1247.54 1192.49 1238.87 1217.43 1232.19 1242.91C1226.08 1226.56 1215.4 1212.13 1203.14 1199.82C1187.47 1185.36 1163.73 1176.69 1143.08 1172.22C1130.56 1169.66 1117.73 1168.61 1104.96 1169.17L1105.46 1166.08C1110.31 1167.96 1114.82 1170.69 1118.81 1174.01C1130.58 1183.81 1138.25 1197.51 1147.48 1209.29C1159.44 1225.57 1176.8 1236.41 1197.29 1237.02L1207.76 1237.35L1197.54 1239.52C1184.65 1242.32 1171.64 1238.98 1158.86 1237.55C1137.83 1235.06 1115.93 1243.18 1101.44 1258.68L1100.86 1257.62C1112.54 1255.98 1121.04 1265.99 1130.93 1270.31C1140.79 1275.06 1151.79 1277.42 1162.75 1277.1L1162.78 1277.09Z"></path>
</g>
<defs>
<linearGradient gradientUnits="userSpaceOnUse" y2="779.702" x2="1822.28" y1="884.695" x1="1279.11" id="paint0_linear_4023_815">
<stop stop-color="#2A4E12" offset="0.3"></stop>
<stop stop-color="#152D09" offset="0.9"></stop>
</linearGradient>
<linearGradient gradientUnits="userSpaceOnUse" y2="928.077" x2="1345.48" y1="1279.33" x1="1578.28" id="paint1_linear_4023_815">
<stop stop-color="#1D481C"></stop>
<stop stop-color="#4C8231" offset="0.99"></stop>
</linearGradient>
<linearGradient gradientUnits="userSpaceOnUse" y2="861.336" x2="1421.56" y1="1212.59" x1="1654.37" id="paint2_linear_4023_815">
<stop stop-color="#1D481C"></stop>
<stop stop-color="#4C8231" offset="0.99"></stop>
</linearGradient>
<linearGradient gradientUnits="userSpaceOnUse" y2="1220.72" x2="1700.07" y1="1123.9" x1="1458.76" id="paint3_linear_4023_815">
<stop stop-color="#2B5634"></stop>
<stop stop-color="#244928" offset="0.27"></stop>
<stop stop-color="#143018" offset="0.99"></stop>
</linearGradient>
<linearGradient gradientUnits="userSpaceOnUse" y2="976.913" x2="1295.84" y1="1064.49" x1="842.761" id="paint4_linear_4023_815">
<stop stop-color="#487C25" offset="0.3"></stop>
<stop stop-color="#3D6C1F" offset="0.48"></stop>
<stop stop-color="#264A13" offset="0.9"></stop>
</linearGradient>
<clipPath id="clip0_4023_815">
<rect fill="white" height="1280" width="1920"></rect>
</clipPath>
</defs>
</svg>
