<svg viewBox="0 0 566.27 694.71" version="1.1" xmlns:xlink="http://www.w3.org/1999/xlink" xmlns="http://www.w3.org/2000/svg" data-name="Capa 2" id="Capa_2">
  <defs>
    <style>
      .cls-1 {
        fill: url(#Degradado_sin_nombre_7-3);
      }

      .cls-1, .cls-2, .cls-3, .cls-4, .cls-5, .cls-6, .cls-7, .cls-8, .cls-9, .cls-10, .cls-11, .cls-12, .cls-13 {
        stroke: #000;
        stroke-miterlimit: 10;
      }

      .cls-1, .cls-2, .cls-3, .cls-4, .cls-5, .cls-6, .cls-8, .cls-9, .cls-10 {
        stroke-width: 1.5px;
      }

      .cls-2 {
        fill: url(#Degradado_sin_nombre_7-2);
      }

      .cls-3 {
        fill: url(#Degradado_sin_nombre_8-4);
      }

      .cls-4 {
        fill: url(#Degradado_sin_nombre_8-2);
      }

      .cls-5 {
        fill: url(#Degradado_sin_nombre_8-5);
      }

      .cls-6 {
        fill: url(#Degradado_sin_nombre_8-3);
      }

      .cls-14 {
        clip-path: url(#clippath);
      }

      .cls-7, .cls-15 {
        fill: url(#Degradado_sin_nombre_21);
      }

      .cls-7, .cls-11 {
        stroke-width: 1.9px;
      }

      .cls-16 {
        fill: url(#Degradado_sin_nombre_24-2);
      }

      .cls-16, .cls-17, .cls-18, .cls-19, .cls-20, .cls-21, .cls-22, .cls-23, .cls-24, .cls-25, .cls-26, .cls-27, .cls-28, .cls-29 {
        stroke-width: 0px;
      }

      .cls-16, .cls-29 {
        opacity: .34;
      }

      .cls-8 {
        fill: url(#Degradado_sin_nombre_7);
      }

      .cls-9 {
        fill: url(#Degradado_sin_nombre_8);
      }

      .cls-17, .cls-10 {
        fill: #4c8231;
      }

      .cls-30 {
        clip-path: url(#clippath-1);
      }

      .cls-31 {
        clip-path: url(#clippath-4);
      }

      .cls-32 {
        clip-path: url(#clippath-3);
      }

      .cls-33 {
        clip-path: url(#clippath-2);
      }

      .cls-34 {
        clip-path: url(#clippath-7);
      }

      .cls-35 {
        clip-path: url(#clippath-8);
      }

      .cls-36 {
        clip-path: url(#clippath-6);
      }

      .cls-37 {
        clip-path: url(#clippath-5);
      }

      .cls-38 {
        clip-path: url(#clippath-9);
      }

      .cls-18 {
        fill: #5d1d6d;
      }

      .cls-19 {
        fill: #000;
      }

      .cls-39, .cls-13 {
        fill: #274e2a;
      }

      .cls-20 {
        fill: url(#Degradado_sin_nombre_211-9);
      }

      .cls-21 {
        fill: url(#Degradado_sin_nombre_211-8);
      }

      .cls-22 {
        fill: url(#Degradado_sin_nombre_211-3);
      }

      .cls-23 {
        fill: url(#Degradado_sin_nombre_211-2);
      }

      .cls-24 {
        fill: url(#Degradado_sin_nombre_211-7);
      }

      .cls-25 {
        fill: url(#Degradado_sin_nombre_211-4);
      }

      .cls-26 {
        fill: url(#Degradado_sin_nombre_211-6);
      }

      .cls-27 {
        fill: url(#Degradado_sin_nombre_211-5);
      }

      .cls-11, .cls-12 {
        fill: none;
      }

      .cls-40 {
        opacity: .56;
      }

      .cls-12, .cls-13 {
        stroke-width: 1.94px;
      }

      .cls-28 {
        fill: url(#Degradado_sin_nombre_211);
      }

      .cls-29 {
        fill: url(#Degradado_sin_nombre_24);
      }
    </style>
    <clipPath id="clippath">
      <path d="M456.18,272.41c-11,9.63-23.62,17.46-37.43,23.23-20.25,8.47-53.15,21.26-92.71,33.06-66.76,19.92-197.33,55.49-197.33,55.49,0,0,50.33-67.65,231.97-112.37,22.52-5.54,45.79-8.66,69.37-9.48l20.9-.72c6.06-.21,9.56,7,5.23,10.78h0Z" class="cls-13"></path>
    </clipPath>
    <linearGradient gradientUnits="userSpaceOnUse" gradientTransform="translate(-1077.98 -1802.18) rotate(-62.36) scale(.78 .83)" y2="2555.17" x2="-1553.42" y1="2555.17" x1="-1800.63" data-name="Degradado sin nombre 211" id="Degradado_sin_nombre_211">
      <stop stop-color="#1d481c" offset="0"></stop>
      <stop stop-color="#4c8231" offset=".99"></stop>
    </linearGradient>
    <clipPath id="clippath-1">
      <path d="M453.99,258.42c-11.43-13.75-24.99-25.62-40.18-35.23-22.29-14.1-58.63-35.86-102.8-57.68C236.46,128.66,90.2,60.71,90.2,60.71c0,0,49.16,91.4,253.24,180.17,25.3,11,51.8,19.22,78.97,24.71l24.08,4.87c6.98,1.41,11.99-6.63,7.5-12.04h0Z" class="cls-13"></path>
    </clipPath>
    <linearGradient xlink:href="#Degradado_sin_nombre_211" gradientTransform="translate(-1375.37 3000.98) rotate(70.18) scale(1 -1)" y2="2422.9" x2="-2063.7" y1="2422.9" x1="-2301.11" data-name="Degradado sin nombre 211" id="Degradado_sin_nombre_211-2"></linearGradient>
    <clipPath id="clippath-2">
      <path d="M452.16,257.31c-16.46-6.98-33.95-11.32-51.86-12.9-26.27-2.32-68.55-4.99-117.81-4.14-83.14,1.43-244.27,8.09-244.27,8.09,0,0,85.58,58.7,307.66,44.04,27.53-1.82,54.85-6.67,81.51-14.24l23.63-6.71c6.85-1.95,7.62-11.39,1.15-14.14h0Z" class="cls-13"></path>
    </clipPath>
    <linearGradient xlink:href="#Degradado_sin_nombre_211" gradientTransform="translate(-178.51 2809.22) rotate(42.9) scale(1 -1)" y2="2070.84" x2="-1378.85" y1="2070.84" x1="-1616.26" data-name="Degradado sin nombre 211" id="Degradado_sin_nombre_211-3"></linearGradient>
    <clipPath id="clippath-3">
      <path d="M458.27,262.73c-5.23-13.03-12.64-25.22-21.96-36.16-13.66-16.05-36.28-41.31-65.03-68.61C322.78,111.88,226.42,24.66,226.42,24.66c0,0,13.7,79.81,149.81,197.06,16.87,14.53,35.45,27.32,55.29,38.27l17.58,9.7c5.1,2.81,11.23-1.84,9.17-6.96h0Z" class="cls-13"></path>
    </clipPath>
    <linearGradient xlink:href="#Degradado_sin_nombre_211" gradientTransform="translate(-2129.8 2287.73) rotate(89.27) scale(.78 -.83)" y2="2916.03" x2="-2660.3" y1="2916.03" x1="-2897.71" data-name="Degradado sin nombre 211" id="Degradado_sin_nombre_211-4"></linearGradient>
    <clipPath id="clippath-4">
      <path d="M458.45,268.39c-.36-11.27-2.59-22.5-6.6-33.32-5.88-15.87-15.98-41.14-30.14-69.65-23.9-48.11-72.55-140.41-72.55-140.41,0,0-11.64,63.96,58.71,189.86,8.72,15.61,19.21,30.37,31.16,44.08l10.59,12.16c3.07,3.53,8.97,1.7,8.83-2.72h0Z" class="cls-13"></path>
    </clipPath>
    <linearGradient xlink:href="#Degradado_sin_nombre_211" gradientTransform="translate(-2744.64 1840.17) rotate(109.33) scale(.78 -.83)" y2="2826.83" x2="-3347.84" y1="2826.83" x1="-3538.44" data-name="Degradado sin nombre 211" id="Degradado_sin_nombre_211-5"></linearGradient>
    <clipPath id="clippath-5">
      <path d="M459.88,274.76c-.04,17.88-2.9,35.67-8.47,52.77-8.17,25.08-22.28,65.01-42.38,110-33.91,75.92-103.21,221.55-103.21,221.55,0,0-20.45-101.74,80.11-300.29,12.46-24.61,27.64-47.84,45.05-69.4l15.44-19.11c4.48-5.54,13.47-2.54,13.45,4.49h0Z" class="cls-13"></path>
    </clipPath>
    <linearGradient xlink:href="#Degradado_sin_nombre_211" gradientTransform="translate(-3055.38 -1661.1) rotate(-109.82)" y2="2422.9" x2="-3116.69" y1="2422.9" x1="-3354.1" data-name="Degradado sin nombre 211" id="Degradado_sin_nombre_211-6"></linearGradient>
    <clipPath id="clippath-6">
      <path d="M459.18,276.78c-8.23,15.88-18.93,30.37-31.71,43.01-18.75,18.54-49.61,47.57-88.09,78.34-64.94,51.93-193.28,149.59-193.28,149.59,0,0,28.47-99.8,208.85-230.17,22.36-16.16,46.5-29.85,71.85-41.03l22.48-9.9c6.52-2.87,13.13,3.92,9.9,10.15h0Z" class="cls-13"></path>
    </clipPath>
    <linearGradient xlink:href="#Degradado_sin_nombre_211" gradientTransform="translate(-2011.32 -2276.87) rotate(-82.53)" y2="2553.54" x2="-2314.69" y1="2553.54" x1="-2552.1" data-name="Degradado sin nombre 211" id="Degradado_sin_nombre_211-7"></linearGradient>
    <clipPath id="clippath-7">
      <path d="M460.42,268.71c4.28,13.38,6.35,27.49,6.16,41.86-.28,21.07-1.59,54.96-6.31,94.32-7.97,66.43-26.54,195.06-26.54,195.06,0,0-40.35-70.2-10.32-247.32,3.72-21.96,9.88-43.65,18.17-64.74l7.35-18.69c2.13-5.42,9.82-5.74,11.5-.49h0Z" class="cls-13"></path>
    </clipPath>
    <linearGradient xlink:href="#Degradado_sin_nombre_211" gradientTransform="translate(-3181.43 -630.56) rotate(-128.9) scale(.78 .83)" y2="2501.85" x2="-3937.51" y1="2501.85" x1="-4174.92" data-name="Degradado sin nombre 211" id="Degradado_sin_nombre_211-8"></linearGradient>
    <clipPath id="clippath-8">
      <path d="M456.95,264.24c6.91,8.91,12.36,18.98,16.17,29.87,5.59,15.97,13.94,41.88,21.21,72.87,12.28,52.29,33.7,154.41,33.7,154.41,0,0-49.77-41.83-75.89-183.67-3.24-17.58-4.57-35.64-4.12-53.82l.4-16.12c.12-4.67,5.82-7.04,8.54-3.54h0Z" class="cls-13"></path>
    </clipPath>
    <linearGradient xlink:href="#Degradado_sin_nombre_211" gradientTransform="translate(-3369.45 106.32) rotate(-148.97) scale(.78 .83)" y2="2027.19" x2="-4395.97" y1="2027.19" x1="-4586.57" data-name="Degradado sin nombre 211" id="Degradado_sin_nombre_211-9"></linearGradient>
    <linearGradient gradientUnits="userSpaceOnUse" gradientTransform="translate(-2577.18 -1604.35) rotate(-136.85)" y2="361.43" x2="-3312.92" y1="361.43" x1="-3337.32" data-name="Degradado sin nombre 8" id="Degradado_sin_nombre_8">
      <stop stop-color="#8a2e94" offset=".17"></stop>
      <stop stop-color="#663572" offset=".74"></stop>
    </linearGradient>
    <linearGradient xlink:href="#Degradado_sin_nombre_8" y2="366.24" x2="-3340.51" y1="366.24" x1="-3368.01" data-name="Degradado sin nombre 8" id="Degradado_sin_nombre_8-2"></linearGradient>
    <linearGradient xlink:href="#Degradado_sin_nombre_8" y2="357.61" x2="-3330.34" y1="357.61" x1="-3347.42" data-name="Degradado sin nombre 8" id="Degradado_sin_nombre_8-3"></linearGradient>
    <linearGradient xlink:href="#Degradado_sin_nombre_8" y2="384.88" x2="-3344.13" y1="384.88" x1="-3386.27" data-name="Degradado sin nombre 8" id="Degradado_sin_nombre_8-4"></linearGradient>
    <linearGradient xlink:href="#Degradado_sin_nombre_8" y2="365.44" x2="-3299.21" y1="365.44" x1="-3329.52" data-name="Degradado sin nombre 8" id="Degradado_sin_nombre_8-5"></linearGradient>
    <linearGradient gradientUnits="userSpaceOnUse" gradientTransform="translate(-2942.45 -1067.23) rotate(-148.11)" y2="353.83" x2="-3370.34" y1="353.83" x1="-3388.79" data-name="Degradado sin nombre 7" id="Degradado_sin_nombre_7">
      <stop stop-color="#9236a0" offset=".17"></stop>
      <stop stop-color="#7f368c" offset="1"></stop>
    </linearGradient>
    <linearGradient xlink:href="#Degradado_sin_nombre_7" gradientTransform="translate(-3316.84 83.11) rotate(-169.11)" y2="321.86" x2="-3438.08" y1="321.86" x1="-3463.72" data-name="Degradado sin nombre 7" id="Degradado_sin_nombre_7-2"></linearGradient>
    <linearGradient xlink:href="#Degradado_sin_nombre_7" gradientTransform="translate(-2105.65 -2066.41) rotate(-125.34)" y2="364.13" x2="-3289.21" y1="364.13" x1="-3303.24" data-name="Degradado sin nombre 7" id="Degradado_sin_nombre_7-3"></linearGradient>
    <linearGradient gradientUnits="userSpaceOnUse" gradientTransform="translate(-3816.93 -3293.9) rotate(-123.93)" y2="1497.56" x2="-5169.2" y1="1376.4" x1="-5507.89" data-name="Degradado sin nombre 21" id="Degradado_sin_nombre_21">
      <stop stop-color="#162f33" offset="0"></stop>
      <stop stop-color="#0f2629" offset=".3"></stop>
      <stop stop-color="#031718" offset=".99"></stop>
    </linearGradient>
    <clipPath id="clippath-9">
      <path d="M352.82,239.52c-6.74-2.07-78.37-6.06-95.57,15.87-.02.1-12.61,9.47-11.84,22.47.21.08-10.63,25.75-7.21,27.5,3.83,2.74,56.09-24.99,102.74-23.12,0,.03,11.39.35,11.98,5.03.38,2.81-3.4,7.58-8.46,8.54-53.82,10.43-95.05,16.78-111.01,27.29.01.53-27.31,29.02-24.92,61.31.07.73,50.67-17.04,88.06-9.2,24.69,5.63,13.01,26.58-10.61,29.33-.28.37-44.48-5.42-54.57,17.91-11.74,25.8-5.93,22.61-4.01,37.33,2.59,13.99,3.61,80.18-30.16,113.8,37.55-24.61,104.73-32.29,121.38-35.44,15.9-2.33,39.09,4.76,69.82-27.41,30.84-33.4-.76-83.76-.93-83.13-13.21-14.64-3.97-43.92,15.4-27.25,18.98,16.15,21.95,46.76,18.29,73.08-3.34,26.35-13.27,48.42-13.13,48.28,66.18-47.22,72.1-83.23,72.33-82.22,4.99-28.5-41.5-96.81-60.28-105.21-7.09-3.79-4.93-12.94.43-17.04,3.35-2.54,10.21-1.12,10.21-1.12,16.8,6.66,30.88,32.89,39.29,58.85,8.72,25.79,11.76,51.29,13.6,52.08,3.94,2.02,23.1-37.34,22.77-37.5,12.7-14.76,15.46-27.48,15.47-27.43,7.18-43.97-24.6-65.96-57.16-78.75-15.99-6.39-17.68-16.08-15.49-26.17,2.96-13.83,20.54-6.35,20.57-6.32,33.54,5.36,61.49,70.64,60.65,71.36,7.81-4.87,17.47-88.53,16.13-88.53-7.53-81.86-73.53-95.75-106.15-80.02-11.12,5.33-20.99,27.8-21.1,27.73-2.66,4.56-.11-26.91-15.53-39.92-29.13-25.74-46.02-22.99-113.16,24.66.87.87-28.92,55.11-26.77,59.68.02-.02,18.95-3.53,40.85-6.44,21.89-2.63,46.76-4.68,58.32,4.37,0-.02,8.09,5.3,5.75,13.64-2.51,8.76-9.48,4.56-15.96,2.1ZM438.95,284.15c9.36-2.14,47,27.69,23.78,35.64.02-.03-12.7-10.94-24.05-16.32-11.28-5.46-8.93-17.55.27-19.31ZM363.09,434.21c11.99,6.66-7.36,63.54-8.17,63.45,2.95-11.11-15.74-28.83-15.16-38.85.75-10.03,12.32-31.25,23.33-24.6ZM363.52,197.74c-25.26-4.79,31.89-41.6,35.73-24.92,6.21,30.68-35.9,25.05-35.73,24.92ZM378.89,262.01c-1.53,17.15-41.77.92-41.75.98.45-23.55,42.9-18.02,41.75-.98Z" class="cls-7"></path>
    </clipPath>
    <linearGradient gradientUnits="userSpaceOnUse" gradientTransform="translate(-3840.91 -3256.12) rotate(-124.84)" y2="1321.96" x2="-5209.01" y1="1321.96" x1="-5381.1" data-name="Degradado sin nombre 24" id="Degradado_sin_nombre_24">
      <stop stop-color="#1c3a3d" offset="0"></stop>
      <stop stop-color="#19636c" offset=".82"></stop>
    </linearGradient>
    <linearGradient xlink:href="#Degradado_sin_nombre_24" y2="1346.71" x2="-5383.11" y1="1346.71" x1="-5588.53" data-name="Degradado sin nombre 24" id="Degradado_sin_nombre_24-2"></linearGradient>
  </defs>
  <g>
    <g>
      <g>
        <path d="M456.18,272.41c-11,9.63-23.62,17.46-37.43,23.23-20.25,8.47-53.15,21.26-92.71,33.06-66.76,19.92-197.33,55.49-197.33,55.49,0,0,50.33-67.65,231.97-112.37,22.52-5.54,45.79-8.66,69.37-9.48l20.9-.72c6.06-.21,9.56,7,5.23,10.78h0Z" class="cls-39"></path>
        <g class="cls-14">
          <path d="M274.73,345.36c-33.26,3.37-65.5,11.64-98.46,16.6-2.55.38-5.18.75-7.74.19.91-4.7,5.96-7.19,10.47-9.06,13.47-5.58,26.93-11.15,40.4-16.73,5.39-2.23,10.79-4.47,15.97-7.09,6.33-3.2,12.31-6.96,18.28-10.72,16.54-10.41,33.08-20.82,49.62-31.23-12.22,3.51-24.45,7.02-36.67,10.53-28.6,8.21-57.28,16.45-84.47,27.97-25.87,10.95-50.27,24.84-72.49,41.4-4.88,3.64-9.84,7.64-12.09,13.23-1.02,2.54-1.43,5.36-1.01,8.13,1.2,7.96,9.09,14.08,17.24,15.99,8.15,1.9,16.52.47,24.54-1.15,40.05-8.13,78.8-21.04,115.1-38.37" class="cls-28"></path>
        </g>
        <path d="M456.18,272.41c-11,9.63-23.62,17.46-37.43,23.23-20.25,8.47-53.15,21.26-92.71,33.06-66.76,19.92-197.33,55.49-197.33,55.49,0,0,50.33-67.65,231.97-112.37,22.52-5.54,45.79-8.66,69.37-9.48l20.9-.72c6.06-.21,9.56,7,5.23,10.78h0Z" class="cls-12"></path>
      </g>
      <path d="M442.14,264.06c-16.88,4.01-33.85,7.93-50,14.35-16.2,6.41-30.62,16.14-46.13,24.07-10.35,5.32-21.35,9.74-32.89,11.63-11.47,1.85-23.05,2.2-34.35,4.86-22.47,5.29-44.17,13.8-65.62,22.29-10.75,4.31-21.36,8.96-31.9,13.77,10.35-5.21,20.89-10.03,31.53-14.65,21.42-8.89,42.96-17.76,65.61-23.13,11.29-2.72,23.02-3.17,34.41-5.04,23.09-3.58,42.52-17.4,62.98-27.81,20.67-10.79,43.67-15.8,66.36-20.33h0Z" class="cls-19"></path>
    </g>
    <g>
      <g>
        <path d="M453.99,258.42c-11.43-13.75-24.99-25.62-40.18-35.23-22.29-14.1-58.63-35.86-102.8-57.68C236.46,128.66,90.2,60.71,90.2,60.71c0,0,49.16,91.4,253.24,180.17,25.3,11,51.8,19.22,78.97,24.71l24.08,4.87c6.98,1.41,11.99-6.63,7.5-12.04h0Z" class="cls-39"></path>
        <g class="cls-30">
          <path d="M253.89,135.55c-38.02-10.43-74.2-26.58-111.65-38.88-2.9-.95-5.89-1.89-8.93-1.7.42,5.85,5.93,9.83,10.9,12.95,14.83,9.32,29.66,18.63,44.48,27.95,5.94,3.73,11.88,7.46,17.52,11.62,6.89,5.08,13.3,10.77,19.7,16.45,17.74,15.74,35.48,31.49,53.21,47.23-13.67-6.58-27.33-13.16-41-19.74-31.98-15.39-64.04-30.84-93.95-49.95-28.45-18.18-54.82-39.63-78.3-63.9-5.16-5.33-10.36-11.12-12.21-18.31-.84-3.27-.94-6.75-.08-10.02,2.45-9.39,12.4-15.29,22.08-16.04,9.68-.74,19.17,2.58,28.23,6.08,45.23,17.47,88.32,40.49,127.99,68.37" class="cls-23"></path>
        </g>
        <path d="M453.99,258.42c-11.43-13.75-24.99-25.62-40.18-35.23-22.29-14.1-58.63-35.86-102.8-57.68C236.46,128.66,90.2,60.71,90.2,60.71c0,0,49.16,91.4,253.24,180.17,25.3,11,51.8,19.22,78.97,24.71l24.08,4.87c6.98,1.41,11.99-6.63,7.5-12.04h0Z" class="cls-12"></path>
      </g>
      <path d="M436.63,265.82c-25.84-9.95-51.9-20.59-74.11-37.48-22.09-16.35-42.3-36.55-68.78-45.54-13.07-4.52-26.82-7.34-39.59-12.83-25.61-10.92-49.25-25.69-72.76-40.45-11.64-7.55-23.12-15.34-34.33-23.51,11.46,7.81,23.04,15.44,34.84,22.71,23.6,14.37,47.47,28.81,72.92,39.62,12.8,5.43,26.41,8.14,39.57,12.63,13.23,4.56,25.25,12.05,36.39,20.38,16.71,12.44,31.88,26.74,49.7,37.56,17.76,10.83,37.02,18.84,56.15,26.92h0Z" class="cls-19"></path>
      <g>
        <g>
          <path d="M452.16,257.31c-16.46-6.98-33.95-11.32-51.86-12.9-26.27-2.32-68.55-4.99-117.81-4.14-83.14,1.43-244.27,8.09-244.27,8.09,0,0,85.58,58.7,307.66,44.04,27.53-1.82,54.85-6.67,81.51-14.24l23.63-6.71c6.85-1.95,7.62-11.39,1.15-14.14h0Z" class="cls-39"></path>
          <g class="cls-33">
            <path d="M218,239.83c-38.57,8.16-78.13,10.39-117.06,16.63-3.01.48-6.1,1.02-8.72,2.58,3.06,5.01,9.78,6.02,15.63,6.51,17.45,1.48,34.9,2.96,52.35,4.44,6.99.59,13.98,1.19,20.9,2.3,8.45,1.36,16.76,3.47,25.05,5.59,22.98,5.86,45.96,11.72,68.95,17.59-15.16.42-30.33.84-45.49,1.25-35.48.98-71.05,1.95-106.39-1.32-33.62-3.12-66.89-10.09-98.88-20.9-7.03-2.38-14.3-5.13-19.24-10.67-2.25-2.52-3.93-5.57-4.67-8.87-2.12-9.47,4.01-19.27,12.27-24.37,8.26-5.1,18.22-6.49,27.87-7.53,48.21-5.2,97.06-4.5,145.1,2.1" class="cls-22"></path>
          </g>
          <path d="M452.16,257.31c-16.46-6.98-33.95-11.32-51.86-12.9-26.27-2.32-68.55-4.99-117.81-4.14-83.14,1.43-244.27,8.09-244.27,8.09,0,0,85.58,58.7,307.66,44.04,27.53-1.82,54.85-6.67,81.51-14.24l23.63-6.71c6.85-1.95,7.62-11.39,1.15-14.14h0Z" class="cls-12"></path>
        </g>
        <path d="M440.13,271.84c-27.53,3-55.57,5.5-83.05.66-27.13-4.41-54.35-13.1-82-8.95-13.68,1.98-27.2,5.77-41.07,6.75-27.77,2.03-55.55-.26-83.2-2.59-13.81-1.38-27.58-3.03-41.29-5.16,13.76,1.69,27.55,3.16,41.37,4.22,27.56,1.95,55.4,3.84,82.97,1.78,13.86-1.04,27.2-4.88,40.96-6.91,13.85-2.01,27.96-.86,41.69,1.43,20.56,3.4,40.59,9.15,61.39,10.6,20.75,1.49,41.54-.22,62.24-1.82h0Z" class="cls-19"></path>
      </g>
      <g>
        <g>
          <path d="M458.27,262.73c-5.23-13.03-12.64-25.22-21.96-36.16-13.66-16.05-36.28-41.31-65.03-68.61C322.78,111.88,226.42,24.66,226.42,24.66c0,0,13.7,79.81,149.81,197.06,16.87,14.53,35.45,27.32,55.29,38.27l17.58,9.7c5.1,2.81,11.23-1.84,9.17-6.96h0Z" class="cls-39"></path>
          <g class="cls-32">
            <path d="M334.59,121.38c-27.02-17.34-51.03-38.44-77.1-57.01-2.02-1.44-4.11-2.89-6.55-3.52-1.26,4.42,1.98,8.75,5.03,12.31,9.11,10.63,18.22,21.26,27.32,31.89,3.65,4.26,7.3,8.52,10.6,13.01,4.03,5.49,7.51,11.31,10.99,17.12,9.64,16.1,19.28,32.21,28.92,48.31-8.94-8.32-17.88-16.64-26.83-24.96-20.92-19.46-41.9-38.99-60.18-60.66-17.39-20.62-32.26-43.12-44.08-66.96-2.6-5.24-5.11-10.82-4.6-16.59.23-2.62,1.1-5.21,2.66-7.4,4.49-6.29,13.91-8.11,21.71-6.2,7.81,1.91,14.35,6.78,20.51,11.65,30.76,24.37,58.33,52.27,81.9,82.89" class="cls-25"></path>
          </g>
          <path d="M458.27,262.73c-5.23-13.03-12.64-25.22-21.96-36.16-13.66-16.05-36.28-41.31-65.03-68.61C322.78,111.88,226.42,24.66,226.42,24.66c0,0,13.7,79.81,149.81,197.06,16.87,14.53,35.45,27.32,55.29,38.27l17.58,9.7c5.1,2.81,11.23-1.84,9.17-6.96h0Z" class="cls-12"></path>
        </g>
        <path d="M442.62,263.77c-17.47-13.72-35-28.01-48.02-46.24-13-17.8-23.63-38.09-41.85-51.18-8.94-6.56-18.79-12.05-27.28-19.28-17.06-14.45-31.64-31.41-46.12-48.34-7.1-8.58-14.03-17.3-20.62-26.26,6.94,8.7,14.01,17.29,21.34,25.64,14.68,16.59,29.58,33.3,46.52,47.6,8.53,7.19,18.28,12.52,27.31,19.09,9.07,6.64,16.57,15.21,23.12,24.27,9.84,13.54,17.95,28.13,29.04,40.67,11.04,12.52,23.86,23.25,36.56,34.03h0Z" class="cls-19"></path>
      </g>
      <g>
        <g>
          <path d="M458.45,268.39c-.36-11.27-2.59-22.5-6.6-33.32-5.88-15.87-15.98-41.14-30.14-69.65-23.9-48.11-72.55-140.41-72.55-140.41,0,0-11.64,63.96,58.71,189.86,8.72,15.61,19.21,30.37,31.16,44.08l10.59,12.16c3.07,3.53,8.97,1.7,8.83-2.72h0Z" class="cls-39"></path>
          <g class="cls-31">
            <path d="M404.1,127.73c-15.6-20.52-27.9-43.04-42.44-64.23-1.12-1.64-2.3-3.31-3.97-4.46-2.17,2.98-.92,7.14.41,10.67,3.94,10.52,7.88,21.05,11.83,31.57,1.58,4.21,3.16,8.43,4.41,12.73,1.52,5.25,2.55,10.6,3.57,15.94,2.84,14.8,5.67,29.6,8.51,44.4-4.45-8.74-8.9-17.47-13.36-26.21-10.42-20.44-20.86-40.94-28.68-62.32-7.44-20.34-12.45-41.4-14.81-62.64-.52-4.67-.87-9.57,1.1-13.78.9-1.91,2.27-3.63,4.05-4.85,5.12-3.51,12.72-2.29,18.08,1.3,5.36,3.59,8.96,9.06,12.26,14.44,16.49,26.85,29.6,55.48,38.94,85.06" class="cls-27"></path>
          </g>
          <path d="M458.45,268.39c-.36-11.27-2.59-22.5-6.6-33.32-5.88-15.87-15.98-41.14-30.14-69.65-23.9-48.11-72.55-140.41-72.55-140.41,0,0-11.64,63.96,58.71,189.86,8.72,15.61,19.21,30.37,31.16,44.08l10.59,12.16c3.07,3.53,8.97,1.7,8.83-2.72h0Z" class="cls-12"></path>
        </g>
        <path d="M446.36,264.86c-7.08-11.37-14.12-22.89-19.22-35.33-5.18-12.41-7.51-25.83-11.2-38.63-2.47-8.52-5.74-16.83-10.68-24.15-4.93-7.4-10.85-14.27-15.25-22.07-8.9-15.61-15.18-32.43-21.41-49.21-2.96-8.44-5.77-16.93-8.23-25.51,2.88,8.46,5.86,16.87,9.12,25.18,6.53,16.53,13.2,33.22,22.04,48.65,4.46,7.76,10.34,14.46,15.35,21.9,5.03,7.56,8.33,16.11,10.76,24.73,3.69,12.93,5.77,26.15,10.64,38.67,4.85,12.48,11.53,24.12,18.09,35.78h0Z" class="cls-19"></path>
      </g>
    </g>
    <g>
      <g>
        <path d="M459.88,274.76c-.04,17.88-2.9,35.67-8.47,52.77-8.17,25.08-22.28,65.01-42.38,110-33.91,75.92-103.21,221.55-103.21,221.55,0,0-20.45-101.74,80.11-300.29,12.46-24.61,27.64-47.84,45.05-69.4l15.44-19.11c4.48-5.54,13.47-2.54,13.45,4.49h0Z" class="cls-39"></path>
        <g class="cls-37">
          <path d="M384.15,497.03c-22.63,32.28-40.19,67.8-61.19,101.17-1.62,2.58-3.33,5.21-5.79,7.01-3.41-4.78-1.7-11.35.13-16.93,5.48-16.63,10.96-33.27,16.43-49.9,2.19-6.66,4.39-13.32,6.08-20.13,2.07-8.31,3.37-16.78,4.68-25.24,3.62-23.44,7.23-46.88,10.85-70.32-6.33,13.78-12.66,27.57-18.99,41.35-14.81,32.25-29.65,64.6-40.49,98.39-10.31,32.15-16.94,65.49-19.54,99.15-.57,7.4-.88,15.17,2.28,21.89,1.44,3.06,3.59,5.8,6.33,7.77,7.88,5.67,19.3,3.87,27.23-1.74,7.93-5.6,13.11-14.22,17.86-22.69,23.69-42.31,42.19-87.52,54.96-134.3" class="cls-26"></path>
        </g>
        <path d="M459.88,274.76c-.04,17.88-2.9,35.67-8.47,52.77-8.17,25.08-22.28,65.01-42.38,110-33.91,75.92-103.21,221.55-103.21,221.55,0,0-20.45-101.74,80.11-300.29,12.46-24.61,27.64-47.84,45.05-69.4l15.44-19.11c4.48-5.54,13.47-2.54,13.45,4.49h0Z" class="cls-12"></path>
      </g>
      <path d="M441.79,280.14c-9.59,18.42-19.31,36.87-26.08,56.55-6.82,19.7-9.39,40.38-14.32,60.63-3.28,13.52-7.75,26.96-15.03,38.91-7.26,11.85-16.02,22.62-22.41,34.97-12.7,24.56-21.88,50.91-30.89,77.02-4.45,13.13-8.5,26.39-12.34,39.71,3.42-13.44,7.29-26.77,11.44-40.01,8.69-26.35,17.47-52.81,30.23-77.56,6.34-12.38,15.13-23.33,22.31-35.14,14.66-23.81,17.33-52.26,23.91-78.95,6.33-27.18,19.62-51.99,33.17-76.14h0Z" class="cls-19"></path>
      <g>
        <g>
          <path d="M459.18,276.78c-8.23,15.88-18.93,30.37-31.71,43.01-18.75,18.54-49.61,47.57-88.09,78.34-64.94,51.93-193.28,149.59-193.28,149.59,0,0,28.47-99.8,208.85-230.17,22.36-16.16,46.5-29.85,71.85-41.03l22.48-9.9c6.52-2.87,13.13,3.92,9.9,10.15h0Z" class="cls-39"></path>
          <g class="cls-36">
            <path d="M289.99,439.61c-34.91,18.32-66.8,41.84-100.76,61.86-2.63,1.55-5.35,3.11-8.36,3.58-.84-5.81,3.69-10.87,7.88-14.98,12.49-12.27,24.99-24.54,37.48-36.81,5-4.91,10.01-9.83,14.63-15.1,5.64-6.43,10.69-13.36,15.73-20.28,13.96-19.17,27.92-38.35,41.88-57.52-11.94,9.35-23.89,18.7-35.83,28.05-27.95,21.88-55.97,43.82-81.09,68.88-23.9,23.85-45.08,50.44-62.82,79.17-3.9,6.31-7.74,13.08-8.01,20.5-.12,3.37.53,6.8,2.06,9.81,4.41,8.65,15.38,12.28,25,10.94,9.62-1.34,18.17-6.63,26.27-11.98,40.45-26.74,77.62-58.45,110.41-94.17" class="cls-24"></path>
          </g>
          <path d="M459.18,276.78c-8.23,15.88-18.93,30.37-31.71,43.01-18.75,18.54-49.61,47.57-88.09,78.34-64.94,51.93-193.28,149.59-193.28,149.59,0,0,28.47-99.8,208.85-230.17,22.36-16.16,46.5-29.85,71.85-41.03l22.48-9.9c6.52-2.87,13.13,3.92,9.9,10.15h0Z" class="cls-12"></path>
        </g>
        <path d="M440.64,273.26c-16.97,11.98-34.06,23.92-49.1,38.3-15.1,14.38-26.86,31.59-40.52,47.32-9.11,10.52-19.25,20.4-31.19,27.69-11.89,7.21-24.61,12.76-35.95,20.81-22.55,16-42.78,35.22-62.76,54.3-9.97,9.63-19.65,19.55-29.17,29.64,9.2-10.38,18.75-20.45,28.51-30.31,19.8-19.44,39.74-38.93,62.42-55.07,11.3-8.1,24.14-13.8,35.93-21,23.94-14.45,39.36-38.5,57.44-59.2,18.08-21.25,41.27-37.22,64.38-52.46h0Z" class="cls-19"></path>
      </g>
      <g>
        <g>
          <path d="M460.42,268.71c4.28,13.38,6.35,27.49,6.16,41.86-.28,21.07-1.59,54.96-6.31,94.32-7.97,66.43-26.54,195.06-26.54,195.06,0,0-40.35-70.2-10.32-247.32,3.72-21.96,9.88-43.65,18.17-64.74l7.35-18.69c2.13-5.42,9.82-5.74,11.5-.49h0Z" class="cls-39"></path>
          <g class="cls-34">
            <path d="M455.33,456.46c-9.75,30.59-14.79,62.16-23.01,93.09-.64,2.39-1.32,4.84-2.8,6.89-3.79-2.6-4.06-8-3.98-12.69.23-14,.47-27.99.7-41.99.09-5.6.19-11.21-.14-16.78-.4-6.8-1.43-13.5-2.46-20.2-2.85-18.55-5.69-37.1-8.54-55.66-1.58,12.11-3.16,24.22-4.74,36.33-3.7,28.33-7.4,56.75-7.65,85.11-.24,26.97,2.66,53.79,8.76,79.69,1.34,5.69,2.97,11.59,7.04,15.71,1.85,1.87,4.18,3.31,6.77,4,7.47,1.99,15.88-2.62,20.67-9.08,4.79-6.45,6.73-14.37,8.36-22.06,8.15-38.39,11.58-77.46,10.2-116.07" class="cls-21"></path>
          </g>
          <path d="M460.42,268.71c4.28,13.38,6.35,27.49,6.16,41.86-.28,21.07-1.59,54.96-6.31,94.32-7.97,66.43-26.54,195.06-26.54,195.06,0,0-40.35-70.2-10.32-247.32,3.72-21.96,9.88-43.65,18.17-64.74l7.35-18.69c2.13-5.42,9.82-5.74,11.5-.49h0Z" class="cls-12"></path>
        </g>
        <path d="M447.71,277.89c-2.91,16.41-5.93,32.85-6.45,49.53-.54,16.72,2.52,33.14,3.58,49.84.73,11.15.43,22.54-2.32,33.44-2.76,10.81-6.87,21.14-8.85,32.12-3.93,21.81-4.74,44.19-5.47,66.33-.32,11.11-.28,22.24-.08,33.36-.64-11.11-.86-22.24-.87-33.38.35-22.27.76-44.64,4.68-66.65,1.92-10.99,6.01-21.5,8.71-32.25,2.75-10.68,3.11-21.82,2.44-32.87-1.01-16.58-3.9-33.27-3.04-49.99.76-16.72,4.18-33.18,7.67-49.49h0Z" class="cls-19"></path>
      </g>
      <g>
        <g>
          <path d="M456.95,264.24c6.91,8.91,12.36,18.98,16.17,29.87,5.59,15.97,13.94,41.88,21.21,72.87,12.28,52.29,33.7,154.41,33.7,154.41,0,0-49.77-41.83-75.89-183.67-3.24-17.58-4.57-35.64-4.12-53.82l.4-16.12c.12-4.67,5.82-7.04,8.54-3.54h0Z" class="cls-39"></path>
          <g class="cls-35">
            <path d="M504.82,407.23c1.07,25.75,5.97,50.95,8.28,76.54.18,1.98.34,4.02-.21,5.97-3.58-.91-5.26-4.92-6.49-8.48-3.68-10.62-7.35-21.24-11.03-31.86-1.47-4.25-2.95-8.51-4.73-12.62-2.17-5.02-4.8-9.79-7.42-14.56-7.26-13.21-14.51-26.41-21.77-39.62,2.14,9.57,4.29,19.14,6.43,28.7,5.02,22.39,10.05,44.84,17.67,66.29,7.25,20.41,16.82,39.83,28.55,57.68,2.58,3.92,5.43,7.92,9.63,9.91,1.91.9,4.06,1.35,6.21,1.15,6.18-.56,11.26-6.35,13.09-12.54,1.84-6.19,1.12-12.69.23-18.94-4.42-31.19-12.6-61.61-24.27-90.34" class="cls-20"></path>
          </g>
          <path d="M456.95,264.24c6.91,8.91,12.36,18.98,16.17,29.87,5.59,15.97,13.94,41.88,21.21,72.87,12.28,52.29,33.7,154.41,33.7,154.41,0,0-49.77-41.83-75.89-183.67-3.24-17.58-4.57-35.64-4.12-53.82l.4-16.12c.12-4.67,5.82-7.04,8.54-3.54h0Z" class="cls-12"></path>
        </g>
        <path d="M449.89,274.67c2.38,13.16,4.67,26.39,8.89,39.09,4.23,12.75,11.06,24.26,16.47,36.57,3.63,8.19,6.54,16.88,7.49,25.91.89,8.92.63,17.83,2.15,26.65,3.04,17.51,8.55,34.62,14.06,51.52,2.79,8.48,5.86,16.86,9.04,25.21-3.58-8.19-6.83-16.51-9.94-24.9-5.91-16.89-11.8-33.86-14.91-51.56-1.58-8.82-1.4-17.88-2.33-26.73-.86-8.79-3.64-17.27-7.18-25.41-5.32-12.22-12.09-24.03-16.02-36.9-4.01-12.83-5.93-26.2-7.73-39.47h0Z" class="cls-19"></path>
      </g>
    </g>
  </g>
  <g>
    <g>
      <path d="M239.66,160.7l1.93,2.69c-36.75,26.48-63.73,58.43-78.04,92.41-7.75,18.39-12.33,38.43-16.76,57.8-6.07,26.56-12.35,54.02-26.87,77.59l-2.82-1.74c14.24-23.1,20.45-50.29,26.46-76.59,4.46-19.51,9.07-39.69,16.93-58.35,14.55-34.53,41.92-66.97,79.16-93.81Z" class="cls-10"></path>
      <g>
        <path d="M74.28,411.23s8.14-4.48,16.49-8.09c7.34-3.17,22.8-6.53,24.54-4.92,1.74,1.62,1.54,4.01-1.56,6.34-3.09,2.33-11.58,3.86-15.8,6.28-8.89,5.09-23.67.39-23.67.39Z" class="cls-9"></path>
        <path d="M123.65,404.21s3.71,20.35,4.12,25.32c.49,5.9-8.16,13.79-8.16,13.79,0,0-4.2-12.71-4.69-16.97-.5-4.26,4.14-21.62,5.61-24.03,1.47-2.41,3.12,1.88,3.12,1.88Z" class="cls-4"></path>
        <path d="M113.33,395.05s-1.84,20.87-5.27,29.33c-4.14,10.23-20.24,11.34-20.24,11.34,0,0,4.34-9.85,7.43-16.67,3.08-6.82,18.08-24,18.08-24Z" class="cls-6"></path>
        <path d="M132.26,405.09s7.08,6.53,15.11,8.56c9.6,2.43,15.48,10.34,15.48,10.34,0,0-23.97,5.2-28.28-1.49-4.32-6.68-9.41-12.24-9.41-12.24,0,0-.75-6.35.41-8.09s6.7,2.92,6.7,2.92Z" class="cls-3"></path>
        <path d="M129.74,405.85c1.4,3.11,3.29,5.96,6.01,7.95,2.79,1.92,5.96,3.16,9.02,4.64,2.08.96,4.17,1.91,6.25,2.94-5.11-1.07-10.08-2.83-14.63-5.42-3.58-2.12-6.03-6.06-6.64-10.11h0Z" class="cls-18"></path>
        <path d="M129.47,403.57c1.21,3.26,3.58,5.85,6.56,7.51,2.65,1.47,6.53,3.48,9.25,4.91-6.67-1.03-15.22-4.79-15.81-12.42h0Z" class="cls-18"></path>
        <path d="M130.46,407.87c3.05,6.75,8.66,11.44,15.04,14.93-7.13-1.58-14.26-7.34-15.04-14.93h0Z" class="cls-18"></path>
        <g class="cls-40">
          <path d="M124.93,407.05c-1.06,4.15-2.12,8.29-2.7,12.51-.48,3.77-1.03,9.04-1.74,12.74-.97-8.59.28-17.6,4.44-25.25h0Z" class="cls-18"></path>
        </g>
        <g class="cls-40">
          <path d="M114.62,399.96c-2.12,4.93-4.44,9.7-6.47,14.67-2.17,4.99-5.89,9.38-10.57,12.14,3.79-3.71,7.06-7.91,9.22-12.73,2.1-4.93,4.75-9.67,7.82-14.08h0Z" class="cls-18"></path>
        </g>
        <g class="cls-40">
          <path d="M112.78,401.14c-4.84,2.34-9.72,4.41-14.52,6.84-4.92,2.35-10.61,3.21-15.96,2.24,5.29-.33,10.53-1.35,15.33-3.57,4.83-2.35,9.94-4.19,15.15-5.51h0Z" class="cls-18"></path>
        </g>
        <g class="cls-40">
          <path d="M111.12,399.23c-4.37.98-8.99,2.06-12.45,5.01-.91.76-1.38,1.77-2.26,2.58-.93.86-2.06,1.51-3.26,1.85-2.39.68-4.9.44-7.06-.48,3.37.17,6.83-.14,9.29-2.45.82-.76,1.45-1.87,2.35-2.57,3.82-3.02,8.71-3.85,13.39-3.93h0Z" class="cls-18"></path>
        </g>
        <g class="cls-40">
          <path d="M115.41,396.04c-2.12,4.93-4.44,9.7-6.47,14.67-2.17,4.99-5.89,9.38-10.57,12.14,3.79-3.71,7.06-7.91,9.22-12.73,2.1-4.93,4.75-9.67,7.82-14.08h0Z" class="cls-18"></path>
        </g>
        <path d="M110.89,396.46s-16.66,10.37-23.22,9.86c-10.1-.79-15.04-13.35-15.04-13.35,0,0,6.88,4.33,18.37,2.55,4.52-.7,19.9.94,19.9.94Z" class="cls-5"></path>
        <path d="M118.29,393.31s5.36,10.9.56,29.85c-2.24,8.86-9.4,19.15-9.4,19.15,0,0-5.88-14.58-4.19-21.88,1.69-7.3,13.02-27.12,13.02-27.12Z" class="cls-8"></path>
        <path d="M124.41,394.51s10.08,18.67,11.21,27.77c1.12,9.1,5.37,21.73,5.37,21.73,0,0-18.29-6.75-18.98-19.41-.41-7.5,2.4-30.08,2.4-30.08Z" class="cls-2"></path>
        <path d="M115.94,394.24s-8.02,15.3-13.49,22.58c-5.47,7.29-27.55,5.17-27.55,5.17,0,0,11.64-6.89,16.03-12.94,4.39-6.05,25.01-14.81,25.01-14.81Z" class="cls-1"></path>
        <path d="M117.81,399.25c-.9,9.15-2.82,18.2-5.74,26.92.89-9.15,2.83-18.2,5.74-26.92h0Z" class="cls-18"></path>
        <path d="M117.81,399.25c.91,6.68.8,13.48-.35,20.12-.92-6.68-.79-13.48.35-20.12h0Z" class="cls-18"></path>
        <path d="M117.81,399.25c-1.49,5.84-3.98,11.41-7.36,16.4,1.49-5.84,3.99-11.4,7.36-16.4h0Z" class="cls-18"></path>
        <path d="M113.51,396.62c-2.59,3.45-6.14,6.12-9.48,8.83-3.45,2.6-7.02,5.11-10.97,6.92,6.53-5.64,13.48-10.71,20.44-15.76h0Z" class="cls-18"></path>
        <path d="M113.63,397.32c-2.93,6.26-8.36,10.92-13.89,14.85,4.04-5.36,9.38-9.9,13.89-14.85h0Z" class="cls-18"></path>
        <path d="M113.22,396.93c-4.68,3.78-10,6.76-15.68,8.74,4.67-3.79,10-6.75,15.68-8.74h0Z" class="cls-18"></path>
        <path d="M122.6,398.4c.26-.17.57.1.78.25,1.44,1.36,2.37,3.17,3.27,4.91,2.86,6.01,4.93,12.72,4.46,19.43-1.23-6.51-3.23-12.77-5.53-18.96-.71-1.77-1.33-3.61-2.37-5.22-.16-.19-.34-.49-.62-.41h0Z" class="cls-18"></path>
        <path d="M123.29,398.52c5.01,4.84,7.72,11.52,9.71,18.08-3.76-5.49-6.5-12.25-9.71-18.08h0Z" class="cls-18"></path>
        <path d="M122.8,398.78c4.2,5.23,5.37,11.34,3.37,17.76-.3-3.05-.25-6.08-.78-9.07-.42-3.02-1.87-5.71-2.59-8.69h0Z" class="cls-18"></path>
        <path d="M112.8,394.76c.73.63-1.62,1.61-2.08,1.82-6.6,2.39-14.06,1.99-20.66-.18,7.55.13,15.25,1.1,22.51-1.15.19-.1.46-.29.23-.5h0Z" class="cls-18"></path>
        <path d="M112.49,395.28c-5.8,3.79-13.16,5.22-19.97,4.08,6.66-.94,13.49-2.23,19.97-4.08h0Z" class="cls-18"></path>
        <path d="M117.02,383.56c-6.97,13.41-15.82,12.4-17.04,13.05,0,0,6.67-2.09,8.21,1.68.63,1.54-3.44,12.62-3.44,12.62,0,0,10.06-11.76,11.72-10.21s-.28,10.94-.28,10.94c0,0,6.5-9.3,8.54-8.58,2.04.72,6.84,8.82,6.84,8.82,0,0-.42-15.57-1.95-21.76-1.04-4.18-2.1-9.37-6.48-10.13-2.39-.41-4.99,1.41-6.11,3.56Z" class="cls-10"></path>
      </g>
    </g>
    <g>
      <path d="M174.99,347.5c-1.83-10.4-5.53-20.47-10.87-29.57-1.29-2.2-2.69-4.36-4.56-6.09-1.87-1.73-4.26-3-6.81-3.09-1.59-.06-3.44.26-4.57-.86-3.06,7.38-3.08,15.38.95,22.39,5.36,9.3,15.21,15.86,25.85,17.23Z" class="cls-10"></path>
      <g>
        <path d="M148.54,307.85c-.56,2.67-.04,5.45.8,8.05,3.14,9.66,10.5,17.27,17.64,24.5" class="cls-17"></path>
        <path d="M148.54,307.85c-.47,12.16,11.25,23.66,18.44,32.55-8.53-7.1-21.17-20.45-18.44-32.55h0Z" class="cls-19"></path>
      </g>
    </g>
  </g>
  <g>
    <g>
      <path d="M352.82,239.52c-6.74-2.07-78.37-6.06-95.57,15.87-.02.1-12.61,9.47-11.84,22.47.21.08-10.63,25.75-7.21,27.5,3.83,2.74,56.09-24.99,102.74-23.12,0,.03,11.39.35,11.98,5.03.38,2.81-3.4,7.58-8.46,8.54-53.82,10.43-95.05,16.78-111.01,27.29.01.53-27.31,29.02-24.92,61.31.07.73,50.67-17.04,88.06-9.2,24.69,5.63,13.01,26.58-10.61,29.33-.28.37-44.48-5.42-54.57,17.91-11.74,25.8-5.93,22.61-4.01,37.33,2.59,13.99,3.61,80.18-30.16,113.8,37.55-24.61,104.73-32.29,121.38-35.44,15.9-2.33,39.09,4.76,69.82-27.41,30.84-33.4-.76-83.76-.93-83.13-13.21-14.64-3.97-43.92,15.4-27.25,18.98,16.15,21.95,46.76,18.29,73.08-3.34,26.35-13.27,48.42-13.13,48.28,66.18-47.22,72.1-83.23,72.33-82.22,4.99-28.5-41.5-96.81-60.28-105.21-7.09-3.79-4.93-12.94.43-17.04,3.35-2.54,10.21-1.12,10.21-1.12,16.8,6.66,30.88,32.89,39.29,58.85,8.72,25.79,11.76,51.29,13.6,52.08,3.94,2.02,23.1-37.34,22.77-37.5,12.7-14.76,15.46-27.48,15.47-27.43,7.18-43.97-24.6-65.96-57.16-78.75-15.99-6.39-17.68-16.08-15.49-26.17,2.96-13.83,20.54-6.35,20.57-6.32,33.54,5.36,61.49,70.64,60.65,71.36,7.81-4.87,17.47-88.53,16.13-88.53-7.53-81.86-73.53-95.75-106.15-80.02-11.12,5.33-20.99,27.8-21.1,27.73-2.66,4.56-.11-26.91-15.53-39.92-29.13-25.74-46.02-22.99-113.16,24.66.87.87-28.92,55.11-26.77,59.68.02-.02,18.95-3.53,40.85-6.44,21.89-2.63,46.76-4.68,58.32,4.37,0-.02,8.09,5.3,5.75,13.64-2.51,8.76-9.48,4.56-15.96,2.1ZM438.95,284.15c9.36-2.14,47,27.69,23.78,35.64.02-.03-12.7-10.94-24.05-16.32-11.28-5.46-8.93-17.55.27-19.31ZM363.09,434.21c11.99,6.66-7.36,63.54-8.17,63.45,2.95-11.11-15.74-28.83-15.16-38.85.75-10.03,12.32-31.25,23.33-24.6ZM363.52,197.74c-25.26-4.79,31.89-41.6,35.73-24.92,6.21,30.68-35.9,25.05-35.73,24.92ZM378.89,262.01c-1.53,17.15-41.77.92-41.75.98.45-23.55,42.9-18.02,41.75-.98Z" class="cls-15"></path>
      <g class="cls-38">
        <path d="M226.19,452.43c-1.48-9.85,6.45-19.02,15.6-22.96,9.15-3.94,19.4-4.09,29.28-5.41,15.43-2.06,30.62-7.22,43.3-16.25,12.68-9.03,22.73-22.1,26.82-37.12-4.88,5.81-13.64,6.62-20.1,2.65,3.38-.63,5.29-4.77,4.32-8.07s-4.08-5.61-7.38-6.58c-3.3-.97-6.81-.83-10.24-.69-13.1.51-26.21.72-39.32.93-11.4.19-22.83-2.18-33.22-6.86,1.67-2.7,5.17-3.48,8.3-4.02,9.23-1.59,18.47-3.18,27.7-4.77-1.08.48-2.16.96-3.25,1.44-3.34-3.58-2.99-8.07-7.86-8.55,5.48-6,13.97-8.39,22.09-8.7,8.12-.31,16.2,1.17,24.32,1.59,12.24.64,24.61-1.16,36.17-5.25,7.7-2.73,14.7-7.39,20.2-13.44-2.94-.83-5.88-1.65-8.82-2.48,3.35-.75,6.86-1.58,9.41-3.88,2.55-2.3,3.65-6.59,1.41-9.19,2.62-2.19,5.82-5.84,7.19-8.97.91-2.09,1.27-4.98-.63-6.23-.35-.23-.75-.38-1.14-.52-13.95-5.1-28.6-8.28-43.41-9.42-8.58-.66-18.26-1.11-23.97-7.56,1.13-1.66,3.3-2.17,5.15-2.97s3.76-2.51,3.28-4.47c-.59-2.4-2.93-4.25-5.39-4.28,2.43-.69,2.56-4.47.71-6.18-1.85-1.72-4.62-1.88-7.14-1.83-2.52.05-5.22.18-7.36-1.15-15.35-9.57-35.32-4.07-49.64,7-14.32,11.06-23.79,27.05-34.04,41.96-11.13,16.21-23.55,31.58-33.37,48.61-6.09,10.55-11.27,22.31-10.36,34.45,1.11,14.77,10.87,27.19,19.04,39.54,4.89,7.39,9.35,15.11,15.06,21.88,5.71,6.77,18.77,15.33,27.29,17.77Z" class="cls-29"></path>
        <path d="M216,563.84c21.55-5.42,41.56-16.86,57.16-32.68,6.66-6.76,12.69-14.62,14.8-23.87,1.45-6.33,1.08-13.3,4.52-18.8,4.99-8,16.51-10.44,20.58-18.94,2.72,8.3,2.88,17.75-1.91,25.06,4.98-3.37,11.91-.38,16.13,3.91,4.22,4.29,7.22,9.85,12.25,13.15,6.7,4.39,15.73,3.73,23.02.4,12.99-5.93,21.72-20.13,21.15-34.4-.28-6.95-5.52-13.59-5.28-20.54.13-3.71,1.2-7.45.39-11.07-.54-2.42-1.89-4.57-3.07-6.75-4.42-8.15-6.82-17.56-5.8-26.77,1.01-9.22,5.64-18.18,13.18-23.58,3.69-2.65,8.09-4.43,12.63-4.61.79-4.04.6-8.55,1.02-12.64s4.38-8.47,8.12-6.73c.2,6.28,3.83,11.97,8.2,16.48,4.37,4.51,9.55,8.17,13.96,12.63,10.5,10.62,16.2,25.83,15.27,40.74-.68,10.9-4.62,22.34-.29,32.37,5.88-3.75,9.95-11.21,8.51-18.03-.66-3.13-2.05-6.84.14-9.17.8-.86,1.94-1.3,2.88-2,2.57-1.91,3.35-5.53,2.81-8.69-.54-3.16-2.16-6.01-3.59-8.88-3.06-6.12-5.44-12.99-4.23-19.73,1.21-6.74,7.08-13.02,13.91-12.6,5.52,7.07,12.83,13.97,15.38,22.57,6.94-6.51,8.42-18.07,3.34-26.12-1.11-1.76-2.56-3.72-1.94-5.71,1.2-3.87,7.09-1.94,10.96-3.15,5.41-1.68,5.71-9.12,4.94-14.73-.56-4.03-1.18-8.22-3.5-11.56-2.32-3.34-6.9-5.49-10.57-3.73,2.75-6.3,9.12-11.23,15.82-12.78-4.43-3.83-8.92-9.11-7.51-14.8.59-2.39,2.26-4.43,2.7-6.85.73-4.05-2.09-7.75-4.02-11.39-1.93-3.63-2.6-9.02.95-11.1,3.25-1.91,7.29.56,10.06,3.11,4.69,4.32,8.85,9.22,12.36,14.54,6.62,10.06,11.64,22.36,22.49,27.59,5.85,2.82,11.91,5.8,15.91,10.91,3.86,4.93,5.35,11.26,7.85,17,2.64,6.06,6.5,11.66,7.91,18.12.79,3.62.76,7.37.55,11.07-.73,12.42-3.62,24.71-8.51,36.15-5.53,12.94-13.51,24.66-21.49,36.24-13.11,19.01-26.39,37.94-40.85,55.94-9.59,11.94-19.7,23.47-30.72,34.1-9.94,9.58-20.89,18.57-33.83,23.39-12.94,4.82-28.25,4.93-39.87-2.52-7.16-4.59-14.27-2.54-22.77-2.2-22.7.9-45.39,2.17-68,4.43-12.48,1.25-25.01,2.8-37.52,1.89s-25.17-4.49-34.87-12.45" class="cls-16"></path>
      </g>
      <path d="M352.82,239.52c-6.74-2.07-78.37-6.06-95.57,15.87-.02.1-12.61,9.47-11.84,22.47.21.08-10.63,25.75-7.21,27.5,3.83,2.74,56.09-24.99,102.74-23.12,0,.03,11.39.35,11.98,5.03.38,2.81-3.4,7.58-8.46,8.54-53.82,10.43-95.05,16.78-111.01,27.29.01.53-27.31,29.02-24.92,61.31.07.73,50.67-17.04,88.06-9.2,24.69,5.63,13.01,26.58-10.61,29.33-.28.37-44.48-5.42-54.57,17.91-11.74,25.8-5.93,22.61-4.01,37.33,2.59,13.99,3.61,80.18-30.16,113.8,37.55-24.61,104.73-32.29,121.38-35.44,15.9-2.33,39.09,4.76,69.82-27.41,30.84-33.4-.76-83.76-.93-83.13-13.21-14.64-3.97-43.92,15.4-27.25,18.98,16.15,21.95,46.76,18.29,73.08-3.34,26.35-13.27,48.42-13.13,48.28,66.18-47.22,72.1-83.23,72.33-82.22,4.99-28.5-41.5-96.81-60.28-105.21-7.09-3.79-4.93-12.94.43-17.04,3.35-2.54,10.21-1.12,10.21-1.12,16.8,6.66,30.88,32.89,39.29,58.85,8.72,25.79,11.76,51.29,13.6,52.08,3.94,2.02,23.1-37.34,22.77-37.5,12.7-14.76,15.46-27.48,15.47-27.43,7.18-43.97-24.6-65.96-57.16-78.75-15.99-6.39-17.68-16.08-15.49-26.17,2.96-13.83,20.54-6.35,20.57-6.32,33.54,5.36,61.49,70.64,60.65,71.36,7.81-4.87,17.47-88.53,16.13-88.53-7.53-81.86-73.53-95.75-106.15-80.02-11.12,5.33-20.99,27.8-21.1,27.73-2.66,4.56-.11-26.91-15.53-39.92-29.13-25.74-46.02-22.99-113.16,24.66.87.87-28.92,55.11-26.77,59.68.02-.02,18.95-3.53,40.85-6.44,21.89-2.63,46.76-4.68,58.32,4.37,0-.02,8.09,5.3,5.75,13.64-2.51,8.76-9.48,4.56-15.96,2.1ZM438.95,284.15c9.36-2.14,47,27.69,23.78,35.64.02-.03-12.7-10.94-24.05-16.32-11.28-5.46-8.93-17.55.27-19.31ZM363.09,434.21c11.99,6.66-7.36,63.54-8.17,63.45,2.95-11.11-15.74-28.83-15.16-38.85.75-10.03,12.32-31.25,23.33-24.6ZM363.52,197.74c-25.26-4.79,31.89-41.6,35.73-24.92,6.21,30.68-35.9,25.05-35.73,24.92ZM378.89,262.01c-1.53,17.15-41.77.92-41.75.98.45-23.55,42.9-18.02,41.75-.98Z" class="cls-11"></path>
    </g>
    <path d="M273.49,489.41c93.97-93.24,149.09-223.9,151.86-356.12.45-18.89-.19-37.82-1.96-56.65,2.08,18.8,3.03,37.73,2.89,56.66-1.36,132.53-56.88,264.32-152.79,356.11h0Z" class="cls-19"></path>
  </g>
</svg>