<svg viewBox="0 0 792.97 837.56" version="1.1" xmlns:xlink="http://www.w3.org/1999/xlink" xmlns="http://www.w3.org/2000/svg" data-name="Capa 11" id="Capa_11">
  <defs>
    <style>
      .cls-1 {
        fill: url(#Degradado_sin_nombre_7-4);
      }

      .cls-1, .cls-2, .cls-3, .cls-4, .cls-5, .cls-6, .cls-7, .cls-8, .cls-9, .cls-10, .cls-11, .cls-12, .cls-13, .cls-14, .cls-15, .cls-16, .cls-17, .cls-18, .cls-19, .cls-20, .cls-21, .cls-22, .cls-23, .cls-24, .cls-25, .cls-26, .cls-27, .cls-28, .cls-29, .cls-30 {
        stroke: #000;
        stroke-miterlimit: 10;
      }

      .cls-1, .cls-2, .cls-3, .cls-4, .cls-5, .cls-6, .cls-7, .cls-12, .cls-13, .cls-14, .cls-15, .cls-16, .cls-25 {
        stroke-width: 1.5px;
      }

      .cls-2 {
        fill: url(#Degradado_sin_nombre_7-5);
      }

      .cls-3 {
        fill: url(#Degradado_sin_nombre_7-6);
      }

      .cls-4 {
        fill: url(#Degradado_sin_nombre_8-9);
      }

      .cls-5 {
        fill: url(#Degradado_sin_nombre_8-7);
      }

      .cls-6 {
        fill: url(#Degradado_sin_nombre_8-8);
      }

      .cls-7 {
        fill: url(#Degradado_sin_nombre_8-6);
      }

      .cls-8, .cls-18, .cls-25, .cls-30 {
        fill: none;
      }

      .cls-8, .cls-26 {
        stroke-width: 3.2px;
      }

      .cls-31 {
        fill: #08241a;
      }

      .cls-31, .cls-32, .cls-33, .cls-34, .cls-35, .cls-36, .cls-37, .cls-38, .cls-39, .cls-40, .cls-41, .cls-42, .cls-43 {
        stroke-width: 0px;
      }

      .cls-44 {
        clip-path: url(#clippath);
      }

      .cls-9, .cls-18, .cls-27 {
        stroke-width: 2.38px;
      }

      .cls-9, .cls-26, .cls-45 {
        fill: #123322;
      }

      .cls-10, .cls-11, .cls-36, .cls-16, .cls-46 {
        fill: #4c8231;
      }

      .cls-10, .cls-19, .cls-20, .cls-21, .cls-22, .cls-23, .cls-24, .cls-28, .cls-29 {
        stroke-width: .93px;
      }

      .cls-32 {
        fill: url(#Degradado_sin_nombre_15-2);
      }

      .cls-32, .cls-33, .cls-34, .cls-35, .cls-42, .cls-43 {
        opacity: .34;
      }

      .cls-33 {
        fill: url(#Degradado_sin_nombre_24-2);
      }

      .cls-34 {
        fill: url(#Degradado_sin_nombre_24-3);
      }

      .cls-35 {
        fill: url(#Degradado_sin_nombre_24-4);
      }

      .cls-12 {
        fill: url(#Degradado_sin_nombre_8-10);
      }

      .cls-13 {
        fill: url(#Degradado_sin_nombre_21-3);
      }

      .cls-14, .cls-47 {
        fill: #4d8231;
      }

      .cls-48 {
        clip-path: url(#clippath-1);
      }

      .cls-49 {
        clip-path: url(#clippath-4);
      }

      .cls-50 {
        clip-path: url(#clippath-3);
      }

      .cls-51 {
        clip-path: url(#clippath-2);
      }

      .cls-52 {
        clip-path: url(#clippath-7);
      }

      .cls-53 {
        clip-path: url(#clippath-8);
      }

      .cls-54 {
        clip-path: url(#clippath-6);
      }

      .cls-55 {
        clip-path: url(#clippath-5);
      }

      .cls-56 {
        clip-path: url(#clippath-9);
      }

      .cls-37 {
        fill: #5d1d6d;
      }

      .cls-38 {
        fill: #000;
      }

      .cls-39 {
        fill: #183d27;
      }

      .cls-57 {
        clip-path: url(#clippath-14);
      }

      .cls-58 {
        clip-path: url(#clippath-13);
      }

      .cls-59 {
        clip-path: url(#clippath-12);
      }

      .cls-60 {
        clip-path: url(#clippath-10);
      }

      .cls-61 {
        clip-path: url(#clippath-15);
      }

      .cls-62 {
        clip-path: url(#clippath-17);
      }

      .cls-63 {
        clip-path: url(#clippath-16);
      }

      .cls-64 {
        clip-path: url(#clippath-11);
      }

      .cls-40 {
        fill: #0d2115;
      }

      .cls-15, .cls-65 {
        fill: url(#Degradado_sin_nombre_21);
      }

      .cls-17, .cls-66 {
        fill: url(#Degradado_sin_nombre_12);
      }

      .cls-17, .cls-30 {
        stroke-width: 1.53px;
      }

      .cls-19 {
        fill: url(#Degradado_sin_nombre_8-2);
      }

      .cls-20 {
        fill: url(#Degradado_sin_nombre_8-5);
      }

      .cls-21 {
        fill: url(#Degradado_sin_nombre_8-3);
      }

      .cls-22 {
        fill: url(#Degradado_sin_nombre_8-4);
      }

      .cls-23 {
        fill: url(#Degradado_sin_nombre_7-2);
      }

      .cls-24 {
        fill: url(#Degradado_sin_nombre_7-3);
      }

      .cls-67 {
        opacity: .56;
      }

      .cls-41 {
        fill: #629b42;
      }

      .cls-42 {
        fill: url(#Degradado_sin_nombre_24);
      }

      .cls-43 {
        fill: url(#Degradado_sin_nombre_15);
      }

      .cls-68 {
        fill: url(#Degradado_sin_nombre_12-2);
      }

      .cls-69 {
        fill: url(#Degradado_sin_nombre_21-2);
      }

      .cls-27 {
        fill: url(#Degradado_sin_nombre_12-3);
      }

      .cls-28 {
        fill: url(#Degradado_sin_nombre_7);
      }

      .cls-29 {
        fill: url(#Degradado_sin_nombre_8);
      }
    </style>
    <linearGradient gradientUnits="userSpaceOnUse" gradientTransform="translate(-550.37 1522.93) rotate(24.9)" y2="-1420.12" x2="302.37" y1="-1420.12" x1="272.88" data-name="Degradado sin nombre 8" id="Degradado_sin_nombre_8">
      <stop stop-color="#8a2e94" offset=".17"></stop>
      <stop stop-color="#663572" offset=".74"></stop>
    </linearGradient>
    <linearGradient xlink:href="#Degradado_sin_nombre_8" y2="-1414.32" x2="269.03" y1="-1414.32" x1="235.79" data-name="Degradado sin nombre 8" id="Degradado_sin_nombre_8-2"></linearGradient>
    <linearGradient xlink:href="#Degradado_sin_nombre_8" y2="-1424.75" x2="281.31" y1="-1424.75" x1="260.67" data-name="Degradado sin nombre 8" id="Degradado_sin_nombre_8-3"></linearGradient>
    <linearGradient xlink:href="#Degradado_sin_nombre_8" y2="-1391.79" x2="264.65" y1="-1391.79" x1="213.73" data-name="Degradado sin nombre 8" id="Degradado_sin_nombre_8-4"></linearGradient>
    <linearGradient xlink:href="#Degradado_sin_nombre_8" y2="-1415.28" x2="318.93" y1="-1415.28" x1="282.3" data-name="Degradado sin nombre 8" id="Degradado_sin_nombre_8-5"></linearGradient>
    <linearGradient gradientUnits="userSpaceOnUse" gradientTransform="translate(-335.44 1248.07) rotate(13.65)" y2="-1019.71" x2="400.44" y1="-1019.71" x1="378.14" data-name="Degradado sin nombre 7" id="Degradado_sin_nombre_7">
      <stop stop-color="#9236a0" offset=".17"></stop>
      <stop stop-color="#7f368c" offset="1"></stop>
    </linearGradient>
    <linearGradient xlink:href="#Degradado_sin_nombre_7" gradientTransform="translate(-94.98 643.77) rotate(-7.35)" y2="-241.32" x2="405.91" y1="-241.32" x1="374.93" data-name="Degradado sin nombre 7" id="Degradado_sin_nombre_7-2"></linearGradient>
    <linearGradient xlink:href="#Degradado_sin_nombre_7" gradientTransform="translate(-819.23 1751.51) rotate(36.42)" y2="-1794.67" x2="80.3" y1="-1794.67" x1="63.34" data-name="Degradado sin nombre 7" id="Degradado_sin_nombre_7-3"></linearGradient>
    <clipPath id="clippath">
      <path d="M109.79,441.81s-.53-12.66,5.38-31.79c5.91-19.14,9.04-96.41,9.04-96.41,0,0,28.77,86.71,21.02,118.31-7.75,31.6-17.68,34.62-17.68,34.62" class="cls-16"></path>
    </clipPath>
    <clipPath id="clippath-1">
      <path d="M92.22,413.13c-10.87-15.16-12.78-33.34-15.76-51.19-2.71-16.26-7.84-31.89-13.43-47.37-7.34-20.33-15.48-40.43-24.31-60.16,0,0,53.07,53.34,64.58,91.98,11.13,37.35-6.08,73.73-6.08,73.73,0,0-5-6.98-5.01-6.98Z" class="cls-16"></path>
    </clipPath>
    <clipPath id="clippath-2">
      <path d="M168.77,518.6l-9.46-10.71s1.34-15.35,6.23-33.65c4.88-18.3,11.12-68.23,7.42-89.08-3.16-17.81,16.93,40.4,12.52,83.13-.95,9.23-3.82,18.15-7.99,26.43-3.44,6.83-8.34,17.56-8.72,23.88Z" class="cls-16"></path>
    </clipPath>
    <clipPath id="clippath-3">
      <path d="M176.84,528.02s-3.69-10.97,7.75-31.6c11.45-20.63,20.88-82.03,17.36-101.82,0,0,25.8,69.95,6.19,107.96-17.6,34.14-16.01,42.85-16.01,42.85l-15.3-17.39Z" class="cls-14"></path>
    </clipPath>
    <clipPath id="clippath-4">
      <path d="M229.85,594.15c-2.99-3.36-3.23-10.58-4.37-14.75-3.68-13.44-7.1-27.25-6.19-41.31.65-10.06,2.54-20.12,3.77-30.12,2.49-20.38,6.47-44.3-.17-64.28,0,0,22.42,11.71,29.53,51.71s-16.75,105.26-16.75,105.26c0,0-5.79-6.51-5.81-6.52Z" class="cls-16"></path>
    </clipPath>
    <clipPath id="clippath-5">
      <path d="M87.25,404.84c-1.98-6.2-9.41-13.21-15.6-15.19-6.19-1.99-12.86-3.01-18.26-6.64-5.54-3.73-9.02-9.72-13.01-15.07-4-5.35-10.41-12.08-17.05-12.71,12.76,9.81,14.05,29.63,26.56,39.75,4.52,3.66,10.09,5.68,15.44,7.95,10.98,4.66,21.42,10.6,31.05,17.66l-9.13-15.76Z" class="cls-16"></path>
    </clipPath>
    <clipPath id="clippath-6">
      <path d="M128.21,466.25c-18.27-1.24-36.27-6.42-52.4-15.09-8.19-4.4-15.96-9.74-22.3-16.54-3.35-3.6-6.27-7.57-9.16-11.55-8.48-11.7-16.72-23.58-24.72-35.62-4.17-6.28-8.37-12.72-14.24-17.46,22.32,10.64,39.05,30.67,57.07,47.6,8.3,7.8,17.85,15.36,29.18,16.57,6.13.66,13.76,3.3,18.14,7.64" class="cls-16"></path>
    </clipPath>
    <clipPath id="clippath-7">
      <path d="M197.62,551.7c-8.14-7.08-18.79-10.65-29.42-12.49-10.63-1.84-21.47-2.1-32.17-3.51-14.62-1.92-29.11-6.05-41.79-13.59-6.95-4.13-13.27-9.23-19.35-14.56-13.41-11.75-25.84-24.76-40.6-34.77,16.44,4.9,30.66,16.41,46.16,23.74,9.96,4.71,20.71,7.75,31.66,8.93,15.95,1.73,32.27-.43,47.97,2.88,13.36,14.1,25.58,28.06,37.54,43.37Z" class="cls-16"></path>
    </clipPath>
    <linearGradient gradientUnits="userSpaceOnUse" gradientTransform="translate(-49.53 933.69) rotate(20.73)" y2="-436.77" x2="196.45" y1="-532.19" x1="-70.3" data-name="Degradado sin nombre 21" id="Degradado_sin_nombre_21">
      <stop stop-color="#162f33" offset="0"></stop>
      <stop stop-color="#0f2629" offset=".3"></stop>
      <stop stop-color="#031718" offset=".99"></stop>
    </linearGradient>
    <clipPath id="clippath-8">
      <path d="M225.31,562.41c5.27-1.74,53.11-31.8,54.17-53.73-.03-.07,3.79-11.83-2.63-19.83-.17.05-4.9-21.39-7.9-20.96-3.71-.02-24.65,41.61-55.48,61.66-.01-.02-7.48,4.97-9.99,2.22-1.53-1.63-1.27-6.42,1.54-9.34,29.83-31.22,53.42-54.08,58.89-68.1-.25-.33,4.33-31.08-11.92-50.75-.38-.43-24.79,34.03-52.38,46.02-18.43,7.63-20.46-11.15-6.54-23.68.01-.36,31.05-16.78,26.9-36.37-4.21-21.92-6.49-17.23-14.43-25.81-8.04-7.81-38.85-49.87-32.47-86.85-12.91,32.92-52.58,68.45-61.83,78.06-9.15,8.74-27.28,14.75-32.37,49.42-4.6,35.51,38.65,53.47,38.46,52.98,15.16,3.39,22.56,26.41,2.52,24.53-19.56-1.73-35.4-20.04-45.04-38.61-9.86-18.45-13.53-37.16-13.56-37-21,60.49-8.4,86.31-9.01,85.77,9.77,20.58,70.76,43.29,86.66,40.13,6.28-.8,9.06,6.07,7.49,11.14-.99,3.16-6.05,5.37-6.05,5.37-13.82,3.38-34.83-7.06-52.05-19.91-17.35-12.6-30.92-27.6-32.47-27.26-3.45.5,2.17,34.51,2.45,34.46-1.43,15.27,2.59,24.7,2.56,24.67,15.42,31.52,45.85,31.17,72.6,24.56,13.18-3.18,18.68,2.28,21.87,9.76,4.4,10.24-10.3,13.44-10.34,13.43-23.99,11.84-71.68-17.37-71.48-18.22-2.8,6.69,29.11,64.84,29.97,64.22,42.13,49.16,90.86,28.02,104.65,3.05,4.71-8.49.82-27.42.92-27.42-.37-4.14,12.33,17.23,28.17,18.57,30.44,3.27,40.04-6.2,61.47-67.39-.96-.16-6.53-48.58-9.99-50.54,0,.02-10.56,10.9-23.31,22.75-12.87,11.67-27.91,24.31-39.46,23.76.02.01-7.61.28-9.91-6.14-2.38-6.77,4.01-7.24,9.3-8.62ZM149.64,572.98c-5.04,5.64-42.81,3.63-31.51-12.06,0,.03,13.14,1.25,22.89-.47,9.73-1.63,13.73,7.2,8.63,12.53ZM130.02,442.01c-10.74,1.18-24.22-44.18-23.66-44.49,3.17,8.48,23.25,11.35,27.44,18.06,4.09,6.79,6.33,25.69-3.78,26.43ZM237.47,594.13c18.41-8.43-1.54,41.25-11.6,32.29-17.96-16.88,11.65-32.45,11.6-32.29ZM198.31,559.84c-6.83-11.72,26.42-19.62,26.38-19.64,10.44,15.34-19.35,31.12-26.38,19.64Z" class="cls-15"></path>
    </clipPath>
    <linearGradient gradientUnits="userSpaceOnUse" gradientTransform="translate(-49.38 917.54) rotate(19.82)" y2="-523.92" x2="182.07" y1="-523.92" x1="46.54" data-name="Degradado sin nombre 24" id="Degradado_sin_nombre_24">
      <stop stop-color="#1c3a3d" offset="0"></stop>
      <stop stop-color="#19636c" offset=".82"></stop>
    </linearGradient>
    <linearGradient xlink:href="#Degradado_sin_nombre_24" y2="-504.42" x2="44.95" y1="-504.42" x1="-116.83" data-name="Degradado sin nombre 24" id="Degradado_sin_nombre_24-2"></linearGradient>
    <linearGradient xlink:href="#Degradado_sin_nombre_21" gradientTransform="translate(-2515.21 2791.76) rotate(88.8)" y2="-2721.25" x2="-2324.12" y1="-2816.67" x1="-2590.86" data-name="Degradado sin nombre 21" id="Degradado_sin_nombre_21-2"></linearGradient>
    <linearGradient xlink:href="#Degradado_sin_nombre_21" gradientTransform="translate(-2515.21 2791.76) rotate(88.8)" y2="-2721.25" x2="-2324.12" y1="-2816.67" x1="-2590.86" data-name="Degradado sin nombre 21" id="Degradado_sin_nombre_21-3"></linearGradient>
    <clipPath id="clippath-9">
      <path d="M162.95,340.06c3.58,4.24,49.34,37.38,70.08,30.18.05-.06,12.39-.91,17.41-9.85-.11-.14,18.01-12.53,16.49-15.15-1.37-3.45-47.81-7.32-77.92-28.43.01-.02-7.4-5.08-5.8-8.44.95-2.03,5.48-3.57,9.24-2.06,40.1,16.01,70.12,29.35,85.17,29.19.22-.35,30.45-7.6,42.62-30.01.26-.51-40.83-10.29-62.26-31.4-13.97-14.24,2.7-23.15,19.52-14.91.34-.12,27.17,22.53,43.79,11.37,18.76-12.1,13.56-12.46,18.55-23.03,4.24-10.37,31.75-54.67,68.43-62.56-35.36.32-83.14-23.2-95.51-28.2-11.52-5.23-23.88-19.8-57.93-11.56-34.65,9-35.16,55.82-34.78,55.47,2.52,15.33-16.07,30.79-21.81,11.5-5.7-18.79,5.37-40.33,18.99-56.21,13.43-16.04,29.41-26.43,29.26-26.4-63.95,3.11-83.21,24.45-82.93,23.68-15.44,16.76-13.72,81.81-4.86,95.38,3.09,5.53-2.25,10.67-7.54,11.11-3.3.26-7.24-3.6-7.24-3.6-8.3-11.56-6.46-34.94-.98-55.72,5.2-20.8,14.05-38.99,13.16-40.3-1.75-3.01-31.21,14.9-31.05,15.15-14.7,4.37-21.94,11.62-21.93,11.59-23.48,26.08-11.78,54.18,4.34,76.52,7.87,11.04,4.87,18.18-.88,23.93-7.85,7.9-16.32-4.54-16.32-4.57-19.94-17.83-10.66-72.98-9.8-73.11-7.25-.1-49.27,51.22-48.38,51.79-29.86,57.45,7.95,94.75,36.27,98.21,9.64,1.2,25.74-9.48,25.78-9.39,3.7-1.89-11.38,17.88-6.7,33.06,8.34,29.46,20.71,34.83,85.48,31.84-.21-.95,42.63-24.2,43.15-28.15-.02,0-14.06-5.73-29.81-13.13-15.63-7.58-32.98-16.81-36.78-27.73,0,.02-3.1-6.96,1.99-11.48,5.39-4.74,8.22,1.02,11.47,5.41ZM124.88,273.83c-7.12-2.57-19.36-38.36-.58-33.74-.02.01,3.75,12.66,8.98,21.05,5.15,8.42-1.55,15.43-8.4,12.68ZM239.04,206.7c-5.11-9.52,31.93-38.97,32.43-38.56-6.69,6.11-1.84,25.8-6.5,32.2-4.77,6.33-21.47,15.46-25.93,6.36ZM138.07,363.19c14.7,13.93-38.84,13.98-34.28,1.3,8.95-22.97,34.46-1.31,34.28-1.3ZM155.25,314.07c8.32-10.71,28.07,17.17,28.08,17.13-10.33,15.42-36.1-6.32-28.08-17.13Z" class="cls-13"></path>
    </clipPath>
    <linearGradient xlink:href="#Degradado_sin_nombre_24" gradientTransform="translate(-2500.16 2785.87) rotate(87.88)" y2="-2848.38" x2="-2301.67" y1="-2848.38" x1="-2437.2" data-name="Degradado sin nombre 24" id="Degradado_sin_nombre_24-3"></linearGradient>
    <linearGradient xlink:href="#Degradado_sin_nombre_24" gradientTransform="translate(-2500.16 2785.87) rotate(87.88)" y2="-2828.88" x2="-2438.78" y1="-2828.88" x1="-2600.57" data-name="Degradado sin nombre 24" id="Degradado_sin_nombre_24-4"></linearGradient>
    <clipPath id="clippath-10">
      <path d="M118.18,361.18c9.75-10.42,17.81-22.34,23.92-35.33,8.96-19.05,22.58-50,35.48-87.16,21.77-62.71,74.28-221.24,74.28-221.24,0,0-80.73,83.95-130.77,254.43-6.2,21.13-10.08,42.94-11.73,65l-1.46,19.55c-.42,5.67,6.45,8.84,10.28,4.74h0Z" class="cls-9"></path>
    </clipPath>
    <clipPath id="clippath-11">
      <path d="M123.38,361.9c12.86-9.21,24.2-20.41,33.65-33.2,13.86-18.76,35.37-49.44,57.45-87.02,37.25-63.42,128.67-224.31,128.67-224.31,0,0-105.92,73.73-197.25,248.13-11.32,21.62-20.26,44.48-26.83,68.09l-5.83,20.93c-1.69,6.07,5.09,11,10.14,7.38h0Z" class="cls-9"></path>
    </clipPath>
    <clipPath id="clippath-12">
      <path d="M121.75,362.72c14.87-5.39,28.81-13.11,41.37-22.87,18.42-14.32,47.42-38.04,78.83-68.25,53.01-50.99,153.42-152.33,153.42-152.33,0,0-90.8,13.5-225.88,156.72-16.74,17.75-31.53,37.35-44.24,58.3l-11.27,18.58c-3.27,5.39,1.93,11.97,7.77,9.85h0Z" class="cls-9"></path>
    </clipPath>
    <clipPath id="clippath-13">
      <path d="M127.74,657.04c13.11-14.01,23.94-30.03,32.15-47.49,12.04-25.61,30.35-67.22,47.7-117.17,29.27-84.3,99.86-297.42,99.86-297.42,0,0-108.52,112.86-175.8,342.03-8.34,28.41-13.55,57.73-15.77,87.39l-1.97,26.29c-.57,7.62,8.67,11.88,13.82,6.38h0Z" class="cls-26"></path>
    </clipPath>
    <clipPath id="clippath-14">
      <path d="M134.72,658.01c17.29-12.38,32.53-27.44,45.23-44.64,18.64-25.22,47.55-66.47,77.23-116.99,50.08-85.26,172.98-301.55,172.98-301.55,0,0-142.39,99.11-265.17,333.57-15.22,29.06-27.23,59.8-36.07,91.54l-7.84,28.14c-2.27,8.16,6.84,14.79,13.63,9.93h0Z" class="cls-26"></path>
    </clipPath>
    <clipPath id="clippath-15">
      <path d="M132.54,659.12c19.99-7.25,38.73-17.62,55.62-30.75,24.76-19.25,63.75-51.14,105.98-91.75,71.26-68.54,206.25-204.78,206.25-204.78,0,0-122.07,18.15-303.66,210.68-22.51,23.87-42.38,50.21-59.48,78.38l-15.15,24.97c-4.39,7.24,2.59,16.09,10.44,13.24h0Z" class="cls-26"></path>
    </clipPath>
    <linearGradient gradientUnits="userSpaceOnUse" gradientTransform="translate(-46.81 1235.64) rotate(26.03)" y2="-546.76" x2="-189.28" y1="-693.02" x1="258.98" data-name="Degradado sin nombre 12" id="Degradado_sin_nombre_12">
      <stop stop-color="#123322" offset="0"></stop>
      <stop stop-color="#0d2b1b" offset=".41"></stop>
      <stop stop-color="#02180a" offset=".99"></stop>
    </linearGradient>
    <clipPath id="clippath-16">
      <path d="M461.05,836.75s14.28-157.56-147.91-199.43c-10.12-2.61-19.14-8.52-25.16-17.06-1.11-1.58-2.23-3.31-3.33-5.22-9.89-17.15-79.11-60.74-139.59-45.66-60.48,15.07-124.12,94.04-124.12,94.04l72.04,35.19s45.54-42.77,85.69-58c0,0-56.47,42.53-71.24,69.3,0,0,35.76,25.96,84.38,39.52,48.62,13.55,49.54,21.23,49.54,21.23,0,0,25.13-52.31,37.72-93.75,0,0-20.3,93.76-1.89,109.13,18.41,15.37,74.44,35.51,102.5,41.57,28.06,6.06,81.36,9.15,81.36,9.15Z" class="cls-17"></path>
    </clipPath>
    <linearGradient gradientUnits="userSpaceOnUse" gradientTransform="translate(-46.81 1235.64) rotate(26.03)" y2="-699.77" x2="259.94" y1="-564.66" x1="-188.52" data-name="Degradado sin nombre 15" id="Degradado_sin_nombre_15">
      <stop stop-color="#183d27" offset="0"></stop>
      <stop stop-color="#146c39" offset=".82"></stop>
    </linearGradient>
    <linearGradient xlink:href="#Degradado_sin_nombre_12" gradientTransform="matrix(1,0,0,1,0,0)" y2="639.58" x2="61.09" y1="412.56" x1="756.87" data-name="Degradado sin nombre 12" id="Degradado_sin_nombre_12-2"></linearGradient>
    <linearGradient xlink:href="#Degradado_sin_nombre_12" gradientTransform="matrix(1,0,0,1,0,0)" y2="639.58" x2="61.09" y1="412.56" x1="756.87" data-name="Degradado sin nombre 12" id="Degradado_sin_nombre_12-3"></linearGradient>
    <clipPath id="clippath-17">
      <path d="M791.44,585.96s-87.42-229.48-342.15-177.38c-15.89,3.25-32.5,1.15-46.71-6.66-2.63-1.44-5.36-3.1-8.2-5.01-25.48-17.19-151.71-30.82-225.79,31.41-74.08,62.23-109.04,215.71-109.04,215.71h124.45s34.37-90.67,80-139.27c0,0-49.78,97.78-52.15,145.19,0,0,67.56,11.85,144.6-2.37,77.04-14.22,83.56-4.15,83.56-4.15,0,0-.59-90.08-11.26-156.45,0,0,35.56,144.6,71.71,153.49,36.15,8.89,128.01-1.19,171.27-11.85,43.26-10.67,119.71-42.67,119.71-42.67Z" class="cls-27"></path>
    </clipPath>
    <linearGradient xlink:href="#Degradado_sin_nombre_15" gradientTransform="matrix(1,0,0,1,0,0)" y2="402.09" x2="758.37" y1="611.81" x1="62.27" data-name="Degradado sin nombre 15" id="Degradado_sin_nombre_15-2"></linearGradient>
    <linearGradient xlink:href="#Degradado_sin_nombre_8" gradientTransform="translate(-2414.8 1265.31) rotate(-131.59) scale(1 -1)" y2="-2720.71" x2="-1436.26" y1="-2720.71" x1="-1460.66" data-name="Degradado sin nombre 8" id="Degradado_sin_nombre_8-6"></linearGradient>
    <linearGradient xlink:href="#Degradado_sin_nombre_8" gradientTransform="translate(-2414.8 1265.31) rotate(-131.59) scale(1 -1)" y2="-2715.91" x2="-1463.85" y1="-2715.91" x1="-1491.35" data-name="Degradado sin nombre 8" id="Degradado_sin_nombre_8-7"></linearGradient>
    <linearGradient xlink:href="#Degradado_sin_nombre_8" gradientTransform="translate(-2414.8 1265.31) rotate(-131.59) scale(1 -1)" y2="-2724.54" x2="-1453.68" y1="-2724.54" x1="-1470.76" data-name="Degradado sin nombre 8" id="Degradado_sin_nombre_8-8"></linearGradient>
    <linearGradient xlink:href="#Degradado_sin_nombre_8" gradientTransform="translate(-2414.8 1265.31) rotate(-131.59) scale(1 -1)" y2="-2697.27" x2="-1467.47" y1="-2697.27" x1="-1509.61" data-name="Degradado sin nombre 8" id="Degradado_sin_nombre_8-9"></linearGradient>
    <linearGradient xlink:href="#Degradado_sin_nombre_8" gradientTransform="translate(-2414.8 1265.31) rotate(-131.59) scale(1 -1)" y2="-2716.7" x2="-1422.56" y1="-2716.7" x1="-1452.86" data-name="Degradado sin nombre 8" id="Degradado_sin_nombre_8-10"></linearGradient>
    <linearGradient xlink:href="#Degradado_sin_nombre_7" gradientTransform="translate(-2213.23 980.5) rotate(-120.34) scale(1 -1)" y2="-2633.97" x2="-1045.86" y1="-2633.97" x1="-1064.31" data-name="Degradado sin nombre 7" id="Degradado_sin_nombre_7-4"></linearGradient>
    <linearGradient xlink:href="#Degradado_sin_nombre_7" gradientTransform="translate(-1703.41 576.66) rotate(-99.34) scale(1 -1)" y2="-2266.4" x2="-362.89" y1="-2266.4" x1="-388.53" data-name="Degradado sin nombre 7" id="Degradado_sin_nombre_7-5"></linearGradient>
    <linearGradient xlink:href="#Degradado_sin_nombre_7" gradientTransform="translate(-2556.55 1588.48) rotate(-143.1) scale(1 -1)" y2="-2722.2" x2="-1880.66" y1="-2722.2" x1="-1894.69" data-name="Degradado sin nombre 7" id="Degradado_sin_nombre_7-6"></linearGradient>
  </defs>
  <g>
    <g>
      <path d="M236.42,691.69l-3.24-2.35c32.16-44.29,51.04-91.17,54.61-135.57,1.93-24.04-.39-48.76-2.64-72.68-3.08-32.78-6.26-66.67,1.49-99.21l3.89.93c-7.6,31.9-4.45,65.46-1.4,97.91,2.26,24.08,4.6,48.99,2.64,73.37-3.63,45.14-22.77,92.72-55.36,137.6Z" class="cls-11"></path>
      <g>
        <path d="M331.45,341.61s-7.65,8.22-15.87,15.52c-7.22,6.41-23.69,16.12-26.3,14.93-2.61-1.2-3.28-4.02-.61-7.86,2.67-3.84,11.83-8.81,15.76-13.18,8.28-9.2,27.02-9.41,27.02-9.41Z" class="cls-29"></path>
        <path d="M277.45,368.34s-11.96-21.95-14.31-27.5c-2.79-6.59,4.15-18.92,4.15-18.92,0,0,9.62,12.99,11.81,17.7,2.18,4.7,3.42,26.38,2.65,29.71-.77,3.33-4.3-.98-4.3-.98Z" class="cls-19"></path>
        <path d="M292.76,374.95s-5.78-24.65-5.05-35.65c.88-13.31,18.94-20.68,18.94-20.68,0,0-1.26,12.95-2.22,21.94-.96,8.99-11.67,34.39-11.67,34.39Z" class="cls-21"></path>
        <path d="M267.23,370.58s-10.6-4.81-20.58-4.11c-11.94.84-21.68-6.01-21.68-6.01,0,0,25.54-15.03,33.02-8.99,7.48,6.04,15.43,10.49,15.43,10.49,0,0,3.26,7,2.6,9.44-.66,2.44-8.79-.81-8.79-.81Z" class="cls-22"></path>
        <path d="M269.84,368.76c-3.38-4.33-8.2-7.55-13.75-8.13-4.09-.64-8.25-1-12.38-1.32,0,0-4.16-.33-4.16-.33,5.57-.3,11.16-.12,16.69.71,5.62.59,10.79,4.21,13.6,9.06h0Z" class="cls-37"></path>
        <path d="M271,371.27c-4.29-6.57-12.6-7.12-19.67-7.98-1.05-.12-2.11-.21-3.17-.29,8.07-.6,18.79.07,22.85,8.28h0Z" class="cls-37"></path>
        <path d="M268.25,366.71c-2.61-3.49-6.46-6.02-10.23-8.05-3.98-1.84-8.32-2.81-12.68-3.4,8.78-.26,18.55,3.44,22.91,11.45h0Z" class="cls-37"></path>
        <g class="cls-67">
          <path d="M274.9,365.56c-.04-5.2-.31-10.38-1.22-15.45-.82-4.42-2.28-10.75-3.24-15.21,3.71,9.72,5.82,20.25,4.46,30.66h0Z" class="cls-37"></path>
        </g>
        <g class="cls-67">
          <path d="M289.42,369.8c.77-5.69,1.95-13.59,2.31-19.24.62-6.49,3.12-12.84,7.11-17.97-3.28,5.5-5.56,11.67-6.2,18.06-.54,6.45-1.67,12.87-3.22,19.16h0Z" class="cls-37"></path>
        </g>
        <g class="cls-67">
          <path d="M291.08,367.75c4.32-3.8,10.39-8.99,14.37-13.03,4.73-4.5,10.79-7.64,17.17-8.92-6.08,2.02-11.86,5.18-16.54,9.58-4.64,4.52-9.71,8.63-15.01,12.36h0Z" class="cls-37"></path>
        </g>
        <g class="cls-67">
          <path d="M293.71,369.3c4.81-2.55,9.83-5.53,12.75-10.25.76-1.2.95-2.58,1.64-3.83,2.08-3.89,6.78-5.69,10.94-5.67-4.01.72-8.12,2.45-10.11,6.12-.66,1.2-.93,2.67-1.7,3.84-3.13,4.83-8.36,7.69-13.53,9.79h0Z" class="cls-37"></path>
        </g>
        <g class="cls-67">
          <path d="M289.99,374.59c.77-5.69,1.95-13.59,2.31-19.24.62-6.49,3.12-12.84,7.11-17.97-3.28,5.5-5.56,11.67-6.2,18.06-.54,6.45-1.67,12.87-3.22,19.16h0Z" class="cls-37"></path>
        </g>
        <path d="M295.03,372.4s15.19-18.2,22.92-20.1c11.89-2.92,22.31,9.63,22.31,9.63,0,0-9.53-2.37-22.04,4.03-4.92,2.52-23.2,6.45-23.2,6.45Z" class="cls-20"></path>
        <path d="M287.73,378.82s-10.27-10.48-11.94-34.04c-.78-11.01,3.54-25.54,3.54-25.54,0,0,12.26,14.51,13.08,23.53.82,9.02-4.68,36.05-4.68,36.05Z" class="cls-28"></path>
        <path d="M280.24,379.76s-18.64-17.61-23.37-27.63c-4.73-10.02-14.38-22.91-14.38-22.91,0,0,23.54.82,29.13,15.1,3.31,8.46,8.62,35.43,8.62,35.43Z" class="cls-23"></path>
        <path d="M290.07,376.86s3.42-20.59,6.94-31.02c3.52-10.43,29.66-16.36,29.66-16.36,0,0-10.75,12.31-13.5,20.92-2.75,8.61-23.1,26.46-23.1,26.46Z" class="cls-24"></path>
        <path d="M286.03,371.82c-2.16-10.89-3.37-21.97-3.59-33.07,2.17,10.89,3.37,21.97,3.59,33.07h0Z" class="cls-37"></path>
        <path d="M286.03,371.82c-3.02-7.55-5.43-15.29-7.21-23.23,3.03,7.55,5.43,15.29,7.21,23.23h0Z" class="cls-37"></path>
        <path d="M286.03,371.82c.1-7.27.84-14.47,2.24-21.61-.1,7.27-.85,14.47-2.24,21.61h0Z" class="cls-37"></path>
        <path d="M291.95,373.21c2.02-4.79,5.06-9.12,7.89-13.48,2.95-4.29,6.04-8.53,9.61-12.34-2.59,3.69-6.26,9.09-8.83,12.87,0,0-4.4,6.44-4.4,6.44-1.22,1.9-3.25,4.53-4.28,6.51h0Z" class="cls-37"></path>
        <path d="M291.56,372.46c1.58-8.14,5.97-15.38,10.33-22.3-3.22,7.58-7.5,14.54-10.33,22.3h0Z" class="cls-37"></path>
        <path d="M292.17,372.74c4.42-5.76,9.31-11.09,14.69-15.97-4.41,5.76-9.32,11.09-14.69,15.97h0Z" class="cls-37"></path>
        <path d="M280.85,374.6c-.25.28-.68.06-.96-.05-2.09-1.13-3.74-2.9-5.39-4.56-5.43-5.9-10.25-12.7-12.73-20.38.57,1.21,1.16,2.41,1.82,3.57,3.92,6.94,8.68,13.47,14.13,19.28.69.71,1.4,1.43,2.23,1.97.26.15.61.4.89.18h0Z" class="cls-37"></path>
        <path d="M280.02,374.73c-7.25-4.16-12.76-10.68-17.98-17.08,6.21,5.53,11.49,11.86,17.98,17.08h0Z" class="cls-37"></path>
        <path d="M280.48,374.24c-2.8-2.47-5.74-4.95-7.47-8.35-1.76-3.37-2.67-7.06-3.11-10.76,1.17,3.5,2.22,7.06,3.95,10.31,1.66,3.32,4.41,5.84,6.64,8.79h0Z" class="cls-37"></path>
        <path d="M293.47,375.08c-1.01-.45,1.39-2.33,1.83-2.7,6.83-4.94,15.34-7.21,23.66-7.79-8.08,1.77-16.26,3.87-23.39,8.16-.47.32-2.93,1.81-2.09,2.33h0Z" class="cls-37"></path>
        <path d="M293.63,374.36c5.63-6.1,13.3-10.38,21.38-12.23-7.69,3.14-14.84,7.1-21.38,12.23h0Z" class="cls-37"></path>
        <path d="M292.87,389.52c2.92-18.02,13.47-20.21,14.62-21.43,0,0-6.87,4.92-10.06,1.18-1.3-1.53-.82-15.79-.82-15.79,0,0-7.09,17.31-9.58,16.15-2.49-1.16-3.82-12.66-3.82-12.66,0,0-3.94,13.13-6.55,13.07-2.62-.05-11.19-7.53-11.19-7.53,0,0,6.37,17.71,10.48,24.24,2.77,4.41,5.96,9.96,11.27,9.17,2.89-.43,5.2-3.51,5.67-6.39Z" class="cls-10"></path>
      </g>
    </g>
    <g>
      <path d="M239.98,452.85c6.03,11.24,14.09,21.4,23.66,29.83,2.31,2.03,4.74,3.99,7.54,5.26s6.03,1.83,8.98.97c1.85-.54,3.85-1.6,5.57-.74.72-9.62-2.28-18.82-9.56-25.33-9.67-8.64-23.46-12.45-36.19-9.99Z" class="cls-11"></path>
      <g>
        <path d="M285.34,488.34c-.37-3.27-2.02-6.27-3.96-8.93-7.26-9.9-18.59-15.85-29.51-21.45" class="cls-36"></path>
        <path d="M285.34,488.34c-2.77-12.37-18.07-21.57-28.41-27.47,0,0-5.07-2.91-5.07-2.91,10.58,4.82,21.42,10.44,28.71,19.79,2.37,3.07,4.52,6.63,4.77,10.59h0Z" class="cls-38"></path>
      </g>
    </g>
  </g>
  <g>
    <g>
      <path d="M109.79,441.81s-.53-12.66,5.38-31.79c5.91-19.14,9.04-96.41,9.04-96.41,0,0,28.77,86.71,21.02,118.31-7.75,31.6-17.68,34.62-17.68,34.62" class="cls-46"></path>
      <g class="cls-44">
        <path d="M109.18,429.94c9.59-13.16,14.23-29.37,16.28-45.53,2.05-16.16,1.69-32.51,2.28-48.79,9.15,30.3,18.33,60.73,22.97,92.03.78,5.25,1.43,10.56.99,15.84,5.08-16.21,5.4-33.48,5.57-50.47.16-16.41.2-32.91-2.58-49.08s-8.54-32.13-18.89-44.86c-2.76-3.39-6.43-6.78-10.79-6.5-3.02.2-5.67,2.19-7.56,4.56-6.32,7.89-5.65,19.08-4.94,29.17,1.38,19.65,1.69,39.38.93,59.07-.43,11.17-1.22,22.42-4.27,33.18" class="cls-41"></path>
      </g>
      <path d="M109.79,441.81s-.53-12.66,5.38-31.79c5.91-19.14,9.04-96.41,9.04-96.41,0,0,28.77,86.71,21.02,118.31-7.75,31.6-17.68,34.62-17.68,34.62" class="cls-25"></path>
    </g>
    <g>
      <path d="M92.22,413.13c-10.87-15.16-12.78-33.34-15.76-51.19-2.71-16.26-7.84-31.89-13.43-47.37-7.34-20.33-15.48-40.43-24.31-60.16,0,0,53.07,53.34,64.58,91.98,11.13,37.35-6.08,73.73-6.08,73.73,0,0-5-6.98-5.01-6.98Z" class="cls-46"></path>
      <g class="cls-48">
        <path d="M76.18,374.6c2.24-17.44,1.55-35.38-3.28-52.29-2.35-8.25-5.66-16.2-8.97-24.12-3.16-7.58-6.32-15.16-9.48-22.74,19.18,29.3,38.72,59.45,46.21,93.65,1.97,9,3.08,18.2,5.77,27,1.59-.02,2.73-1.52,3.44-2.94,2.73-5.46,2.93-11.82,2.67-17.92-1.66-39.6-19.79-76.93-43.13-108.96-6.72-9.23-14-18.21-23.07-25.14-2.79-2.13-5.82-4.1-9.23-4.94s-7.29-.42-10,1.82c-4.11,3.41-4.28,9.62-3.46,14.9,1.06,6.8,3.18,13.39,5.41,19.9,10.43,30.57,23.17,60.28,36.1,89.88" class="cls-41"></path>
      </g>
      <path d="M92.22,413.13c-10.87-15.16-12.78-33.34-15.76-51.19-2.71-16.26-7.84-31.89-13.43-47.37-7.34-20.33-15.48-40.43-24.31-60.16,0,0,53.07,53.34,64.58,91.98,11.13,37.35-6.08,73.73-6.08,73.73,0,0-5-6.98-5.01-6.98Z" class="cls-25"></path>
    </g>
    <g>
      <path d="M168.77,518.6l-9.46-10.71s1.34-15.35,6.23-33.65c4.88-18.3,11.12-68.23,7.42-89.08-3.16-17.81,16.93,40.4,12.52,83.13-.95,9.23-3.82,18.15-7.99,26.43-3.44,6.83-8.34,17.56-8.72,23.88Z" class="cls-46"></path>
      <g class="cls-51">
        <path d="M162.69,479.18c8.87-7.02,11.56-19.16,13.14-30.36,3.39-23.99,4.33-48.32,2.81-72.5-3.7-.97-6.9-1.3-10.72-1.19-1.08.03-2.2.12-3.13.66-1.55.9-2.16,2.8-2.54,4.55-1.38,6.25-1.46,12.7-1.49,19.1-.13,25.48.7,54.27,1.94,79.73Z" class="cls-41"></path>
      </g>
      <path d="M168.77,518.6l-9.46-10.71s1.34-15.35,6.23-33.65c4.88-18.3,11.12-68.23,7.42-89.08-3.16-17.81,16.93,40.4,12.52,83.13-.95,9.23-3.82,18.15-7.99,26.43-3.44,6.83-8.34,17.56-8.72,23.88Z" class="cls-25"></path>
    </g>
    <g>
      <path d="M176.84,528.02s-3.69-10.97,7.75-31.6c11.45-20.63,20.88-82.03,17.36-101.82,0,0,25.8,69.95,6.19,107.96-17.6,34.14-16.01,42.85-16.01,42.85l-15.3-17.39Z" class="cls-47"></path>
      <g class="cls-50">
        <path d="M173.93,520.99c-.04,1.59,2.06,2.49,3.55,1.92s2.42-2.01,3.25-3.36c5.84-9.49,11.68-18.97,17.52-28.46,1.25-2.03,2.51-4.07,3.51-6.24,6.78-14.63,1.1-32.01,4.2-47.84,1.61-8.23,5.56-15.82,7.87-23.88,2.31-8.07,2.73-17.41-2.18-24.21-1.16-1.61-2.71-3.09-4.65-3.51-2.65-.57-5.39,1.04-6.93,3.27-1.54,2.23-2.12,4.97-2.58,7.63-5.47,31.18-.58,64.43-12.52,93.75-1.9,4.67-4.22,9.2-5.38,14.1" class="cls-41"></path>
      </g>
      <path d="M176.84,528.02s-3.69-10.97,7.75-31.6c11.45-20.63,20.88-82.03,17.36-101.82,0,0,25.8,69.95,6.19,107.96-17.6,34.14-16.01,42.85-16.01,42.85l-15.3-17.39Z" class="cls-25"></path>
    </g>
    <g>
      <path d="M229.85,594.15c-2.99-3.36-3.23-10.58-4.37-14.75-3.68-13.44-7.1-27.25-6.19-41.31.65-10.06,2.54-20.12,3.77-30.12,2.49-20.38,6.47-44.3-.17-64.28,0,0,22.42,11.71,29.53,51.71s-16.75,105.26-16.75,105.26c0,0-5.79-6.51-5.81-6.52Z" class="cls-46"></path>
      <g class="cls-49">
        <path d="M225.69,580.95c-1.94-13.62-1.92-27.52.05-41.13,2.42-16.72,7.73-32.85,12.19-49.14.59-2.16,1.17-4.35,1.2-6.59.19-14.31-4.71-28.64-13.62-39.85-1.43-1.8-3.31-3.68-5.61-3.55,2.74,22.55,2.06,45.42-.66,67.97-.97,8.02-1.93,16.04-2.9,24.05-.46,3.84-.92,7.68-.99,11.54-.18,10,2.28,19.84,4.18,29.66" class="cls-41"></path>
      </g>
      <path d="M229.85,594.15c-2.99-3.36-3.23-10.58-4.37-14.75-3.68-13.44-7.1-27.25-6.19-41.31.65-10.06,2.54-20.12,3.77-30.12,2.49-20.38,6.47-44.3-.17-64.28,0,0,22.42,11.71,29.53,51.71s-16.75,105.26-16.75,105.26c0,0-5.79-6.51-5.81-6.52Z" class="cls-25"></path>
    </g>
    <path d="M253.39,631.89c9.84-19.86,19.72-39.8,26.71-60.83,9.84-29.6,13.82-61.13,11.62-92.25,6.68,35.11,13.39,70.36,14.95,106.06.51,11.64.43,23.56-3.43,34.55-3.86,10.99-12.14,21.01-23.35,24.18-9.19,2.6-20.29-.39-26.52-11.71Z" class="cls-16"></path>
    <g>
      <path d="M87.25,404.84c-1.98-6.2-9.41-13.21-15.6-15.19-6.19-1.99-12.86-3.01-18.26-6.64-5.54-3.73-9.02-9.72-13.01-15.07-4-5.35-10.41-12.08-17.05-12.71,12.76,9.81,14.05,29.63,26.56,39.75,4.52,3.66,10.09,5.68,15.44,7.95,10.98,4.66,21.42,10.6,31.05,17.66l-9.13-15.76Z" class="cls-46"></path>
      <g class="cls-55">
        <path d="M60.62,390.12c-3.71-1.45-7.48-2.92-10.61-5.37-8.28-6.49-10.88-18.86-20.08-23.96-3.37-1.87-6.73-3.74-10.1-5.61-1.28-.71-2.62-1.47-3.41-2.7s-.85-3.08.28-4.01c.34-.28.75-.45,1.16-.59,6.55-2.31,13.64,1.17,19.47,4.94,13.3,8.59,25.25,19.25,35.35,31.44,1.24,1.5,12.87,14.86,8.91,16.38-1.04.4-8.23-4.97-9.62-5.65-3.69-1.83-7.53-3.37-11.36-4.86Z" class="cls-41"></path>
      </g>
      <path d="M87.25,404.84c-1.98-6.2-9.41-13.21-15.6-15.19-6.19-1.99-12.86-3.01-18.26-6.64-5.54-3.73-9.02-9.72-13.01-15.07-4-5.35-10.41-12.08-17.05-12.71,12.76,9.81,14.05,29.63,26.56,39.75,4.52,3.66,10.09,5.68,15.44,7.95,10.98,4.66,21.42,10.6,31.05,17.66l-9.13-15.76Z" class="cls-25"></path>
    </g>
    <g>
      <path d="M128.21,466.25c-18.27-1.24-36.27-6.42-52.4-15.09-8.19-4.4-15.96-9.74-22.3-16.54-3.35-3.6-6.27-7.57-9.16-11.55-8.48-11.7-16.72-23.58-24.72-35.62-4.17-6.28-8.37-12.72-14.24-17.46,22.32,10.64,39.05,30.67,57.07,47.6,8.3,7.8,17.85,15.36,29.18,16.57,6.13.66,13.76,3.3,18.14,7.64" class="cls-46"></path>
      <g class="cls-54">
        <path d="M118.68,455.82c-3.13-4.7-8.27-7.59-13.22-10.31-7.59-4.16-15.21-8.34-23.29-11.47-3.94-1.53-7.99-2.81-11.82-4.59-10.71-4.98-19.04-13.91-26.36-23.17-7.33-9.26-14.01-19.15-22.74-27.1-3.63-3.31-7.62-6.29-10.67-10.14-1.07-1.36-1.74-3.84-.1-4.42.8-.28,1.66.18,2.37.63,19.47,12.37,31.96,33.38,50.67,46.88,8.21,5.92,17.42,10.26,26.22,15.27s17.38,10.86,23.38,19.01" class="cls-41"></path>
      </g>
      <path d="M128.21,466.25c-18.27-1.24-36.27-6.42-52.4-15.09-8.19-4.4-15.96-9.74-22.3-16.54-3.35-3.6-6.27-7.57-9.16-11.55-8.48-11.7-16.72-23.58-24.72-35.62-4.17-6.28-8.37-12.72-14.24-17.46,22.32,10.64,39.05,30.67,57.07,47.6,8.3,7.8,17.85,15.36,29.18,16.57,6.13.66,13.76,3.3,18.14,7.64" class="cls-25"></path>
    </g>
    <path d="M130.94,470.73c-15.31,1.88-30.9-1.4-45.25-7.07-14.34-5.68-28.61-13.58-41.82-21.55,9.95,7.34,18.19,16.71,27.05,25.34,8.86,8.62,18.72,16.73,30.45,20.62,11.23,3.72,23.44,3.76,35.15,2.12,2.02-.28,2.87-.4,7.61-2.52l-13.2-16.93Z" class="cls-16"></path>
    <g>
      <path d="M197.62,551.7c-8.14-7.08-18.79-10.65-29.42-12.49-10.63-1.84-21.47-2.1-32.17-3.51-14.62-1.92-29.11-6.05-41.79-13.59-6.95-4.13-13.27-9.23-19.35-14.56-13.41-11.75-25.84-24.76-40.6-34.77,16.44,4.9,30.66,16.41,46.16,23.74,9.96,4.71,20.71,7.75,31.66,8.93,15.95,1.73,32.27-.43,47.97,2.88,13.36,14.1,25.58,28.06,37.54,43.37Z" class="cls-46"></path>
      <g class="cls-52">
        <path d="M185.26,536.62c-10.24-8.38-20.88-16.97-33.62-20.56-6.45-1.82-13.19-2.27-19.87-2.72-7.55-.5-15.09-1.01-22.64-1.51-13.94-.93-26.81-7.72-38.36-15.59-11.54-7.87-22.3-16.98-34.62-23.55-3.22-1.71-6.7-3.4-8.61-6.51,2.71-1.11,5.74.32,8.32,1.7,15.68,8.35,31.78,15.93,48.21,22.68,13.06,5.37,26.55,10.27,40.63,11.31,6.19.45,12.41.16,18.6.65,6.18.49,12.47,1.84,17.64,5.26,7.9,5.22,12.1,14.41,18.7,21.21" class="cls-41"></path>
      </g>
      <path d="M197.62,551.7c-8.14-7.08-18.79-10.65-29.42-12.49-10.63-1.84-21.47-2.1-32.17-3.51-14.62-1.92-29.11-6.05-41.79-13.59-6.95-4.13-13.27-9.23-19.35-14.56-13.41-11.75-25.84-24.76-40.6-34.77,16.44,4.9,30.66,16.41,46.16,23.74,9.96,4.71,20.71,7.75,31.66,8.93,15.95,1.73,32.27-.43,47.97,2.88,13.36,14.1,25.58,28.06,37.54,43.37Z" class="cls-25"></path>
    </g>
    <path d="M184.07,535.07c-3.87-4.4-9.76-6-15.17-7.62-7.12-1.97-14.39-3.35-21.72-4.28-13.02-1.73-26.19-2.61-39.23-4.88-9.85-1.75-19.56-4.37-27.87-10.16-5.73-3.82-17.61-14.25-23.1-18.64-5.04-4.24-10.1-8.45-15.11-12.73,5.22,4.02,10.38,8.11,15.57,12.16,5.58,4.32,17.7,14.37,23.35,18.13,5.43,3.58,11.48,6.23,17.8,7.78,3.19.7,6.41,1.37,9.62,1.98,12.91,2.37,26.08,3.23,39.13,5.22,7.33,1.1,14.65,2.59,21.74,4.8,5.37,1.82,11.33,3.63,14.98,8.24h0Z" class="cls-38"></path>
    <path d="M233.82,598.66c-5.47-3.89-11.51-6.89-17.52-9.87-12.4-6.16-24.97-12.37-38.51-15.28-15.33-3.3-31.73-2.32-46.08-8.66-13.03-5.76-23.13-17.07-36.47-22.04,14.89,2.48,29.41,8.77,43.9,13,14.52,4.24,29.54,6.79,44.64,7.6,8.03.43,16.49.47,23.48,4.46,4.63,2.64,8.18,6.79,11.63,10.85,5.23,6.16,11.08,12.85,14.93,19.95Z" class="cls-16"></path>
    <path d="M230.63,594.15c2.68-15.84,6.56-33.48,8.95-49.37,2.78-22.14.41-44.52-2.69-66.51,0,0-2.36-16.57-2.36-16.57,1.1,5.47,2.1,10.96,3.09,16.46,3.75,21.99,6.37,44.55,3.32,66.8-2.49,15.91-6.78,33.48-10.3,49.19h0Z" class="cls-38"></path>
    <path d="M252.95,632.82c-8.88-9.7-21.76-14.8-34.64-17.46-12.87-2.66-26.1-3.2-39.05-5.45-27.67-4.82-53.31-17.32-78.53-29.68,9.13,8.25,13.32,21.86,22.2,30.38,7.98,7.66,18.87,11.45,29.63,14.01,21.78,5.19,44.4,6.24,66.14,11.62,6.03,1.49,12.06,3.32,18.27,3.48,6.21.15,11.88-2.24,15.99-6.89Z" class="cls-16"></path>
    <path d="M62.15,356.6c7.35,13.64,23.04,43.81,30.28,56.8,11.67,20.07,25.16,39.07,39.42,57.36,13.98,16.88,37.06,44.92,51.15,62.12,4.58,5.59,15.91,19.47,20.58,24.76,11.49,13.73,22.32,28.02,32.24,42.93,7.81,11.99,15.03,24.44,20.44,37.7-5.64-13.16-13.06-25.46-21.06-37.3-15.6-23.49-35.35-45.39-53.25-67.21-15.72-19.16-39.29-47.23-54.49-66.38-12.97-17.12-25.31-34.78-35.86-53.51-7.22-13.07-22.45-43.71-29.46-57.27h0Z" class="cls-38"></path>
    <path d="M85.53,398.42c18.45-35.68-3.86-74.46-21.13-105.98-6.15-10.99-12.72-21.74-19.54-32.33,3.68,5.12,7.19,10.36,10.64,15.64,6.81,10.62,13.22,21.5,19.08,32.67,14.63,26.76,27.86,61.29,10.94,90.01h0Z" class="cls-38"></path>
    <path d="M121.74,456.82c4.23-4.28,6.29-10.08,7.77-15.79,9.29-34.76,1.17-71.29-1.81-106.42-.57-5.94-1.19-11.87-1.72-17.81,1.49,10.14,3.4,25.13,4.74,35.46,3.58,29.38,8.27,60.05-.5,88.97-1.7,5.66-3.99,11.54-8.47,15.59h0Z" class="cls-38"></path>
    <path d="M183.25,530.88c4.82-3.24,5.88-9.32,6.77-14.65.85-5.52,2.16-11.01,3.97-16.32,3.18-10.7,10.86-19.6,12.8-30.67,1.99-10.97-.47-22.12-1.29-33.13-.45-5.57-.72-11.16-.79-16.75-.02-5.59.1-11.18.49-16.74-.06,5.58-.02,11.16.24,16.72.22,5.57.62,11.12,1.21,16.66,1.1,11.1,3.53,22.31,1.62,33.51-.95,5.6-3.49,10.79-6.18,15.71-2.7,4.88-5.08,9.86-7.01,15.08-1.93,5.21-3.34,10.58-4.34,16.07-1.11,5.3-2.45,11.55-7.49,14.51h0Z" class="cls-38"></path>
    <path d="M253.31,633.03c-11.92-4.17-24.19-7.3-36.66-9.25-12.45-2.02-25.03-3.33-37.52-5.52-24.98-4.31-49.01-14.57-68.9-30.36,20.49,14.72,44.27,24.74,69.16,28.89,12.39,2.3,24.99,3.59,37.45,5.86,12.46,2.22,24.74,5.61,36.47,10.38h0Z" class="cls-38"></path>
    <path d="M227.79,592.26c-8.12-5.87-14.57-14.08-23.34-19.01-8.82-4.94-19.13-5.6-28.99-6.95-9.99-1.43-20-3.01-29.81-5.51-9.78-2.51-19.43-5.84-28.32-10.67,9.15,4.25,18.78,7.31,28.59,9.55,9.8,2.25,19.75,3.84,29.74,5.14,9.93,1.49,20.49,2.16,29.36,7.44,8.82,5.27,14.95,13.57,22.77,20h0Z" class="cls-38"></path>
    <path d="M137.23,480.66c-18.31,2.85-37.89-1.2-53.56-11.09,16.73,8.01,35.02,11.81,53.56,11.09h0Z" class="cls-38"></path>
    <path d="M164.38,509.41c8.36-16.69,14.4-34.88,15.28-53.62.59-13.48-.75-28.59-.99-42.2-.11-4.7-.26-9.4-.32-14.1.4,4.69.7,9.38,1.06,14.06.75,13.69,2.26,28.66,1.75,42.31-1.05,18.9-7.27,37.26-16.78,53.54h0Z" class="cls-38"></path>
    <path d="M119.59,455.38c-8.66-6.41-19.1-9.3-29.26-12.42-27.98-7.55-45.31-26.27-61.23-49.39-3-4.43-5.95-8.87-8.81-13.39,3.14,4.32,6.21,8.69,9.41,12.96,16.64,22.57,33.25,40.63,60.98,48.72,10.06,3.36,20.64,6.59,28.91,13.51h0Z" class="cls-38"></path>
  </g>
  <g>
    <g>
      <path d="M225.31,562.41c5.27-1.74,53.11-31.8,54.17-53.73-.03-.07,3.79-11.83-2.63-19.83-.17.05-4.9-21.39-7.9-20.96-3.71-.02-24.65,41.61-55.48,61.66-.01-.02-7.48,4.97-9.99,2.22-1.53-1.63-1.27-6.42,1.54-9.34,29.83-31.22,53.42-54.08,58.89-68.1-.25-.33,4.33-31.08-11.92-50.75-.38-.43-24.79,34.03-52.38,46.02-18.43,7.63-20.46-11.15-6.54-23.68.01-.36,31.05-16.78,26.9-36.37-4.21-21.92-6.49-17.23-14.43-25.81-8.04-7.81-38.85-49.87-32.47-86.85-12.91,32.92-52.58,68.45-61.83,78.06-9.15,8.74-27.28,14.75-32.37,49.42-4.6,35.51,38.65,53.47,38.46,52.98,15.16,3.39,22.56,26.41,2.52,24.53-19.56-1.73-35.4-20.04-45.04-38.61-9.86-18.45-13.53-37.16-13.56-37-21,60.49-8.4,86.31-9.01,85.77,9.77,20.58,70.76,43.29,86.66,40.13,6.28-.8,9.06,6.07,7.49,11.14-.99,3.16-6.05,5.37-6.05,5.37-13.82,3.38-34.83-7.06-52.05-19.91-17.35-12.6-30.92-27.6-32.47-27.26-3.45.5,2.17,34.51,2.45,34.46-1.43,15.27,2.59,24.7,2.56,24.67,15.42,31.52,45.85,31.17,72.6,24.56,13.18-3.18,18.68,2.28,21.87,9.76,4.4,10.24-10.3,13.44-10.34,13.43-23.99,11.84-71.68-17.37-71.48-18.22-2.8,6.69,29.11,64.84,29.97,64.22,42.13,49.16,90.86,28.02,104.65,3.05,4.71-8.49.82-27.42.92-27.42-.37-4.14,12.33,17.23,28.17,18.57,30.44,3.27,40.04-6.2,61.47-67.39-.96-.16-6.53-48.58-9.99-50.54,0,.02-10.56,10.9-23.31,22.75-12.87,11.67-27.91,24.31-39.46,23.76.02.01-7.61.28-9.91-6.14-2.38-6.77,4.01-7.24,9.3-8.62ZM149.64,572.98c-5.04,5.64-42.81,3.63-31.51-12.06,0,.03,13.14,1.25,22.89-.47,9.73-1.63,13.73,7.2,8.63,12.53ZM130.02,442.01c-10.74,1.18-24.22-44.18-23.66-44.49,3.17,8.48,23.25,11.35,27.44,18.06,4.09,6.79,6.33,25.69-3.78,26.43ZM237.47,594.13c18.41-8.43-1.54,41.25-11.6,32.29-17.96-16.88,11.65-32.45,11.6-32.29ZM198.31,559.84c-6.83-11.72,26.42-19.62,26.38-19.64,10.44,15.34-19.35,31.12-26.38,19.64Z" class="cls-65"></path>
      <g class="cls-53">
        <path d="M209.67,367.94c5.44,5.65,4.52,15.16.44,21.86-4.09,6.7-10.6,11.46-16.35,16.81-8.98,8.35-16.38,18.59-20.42,30.17-4.03,11.58-4.54,24.56-.32,36.07.49-5.95,5.75-10.47,11.71-10.86-1.88,1.94-1.23,5.47.9,7.15,2.12,1.68,5.18,1.75,7.74.87,2.56-.88,4.75-2.57,6.9-4.22,8.19-6.29,16.51-12.4,24.84-18.51,7.24-5.31,15.66-9,24.47-10.73.15,2.5-1.74,4.59-3.5,6.36-5.21,5.23-10.42,10.46-15.62,15.69.48-.8.95-1.6,1.43-2.4,3.78.77,5.6,3.82,8.95,1.91-.79,6.35-5.15,11.76-10.23,15.66-5.08,3.9-10.94,6.63-16.35,10.06-8.16,5.17-15.28,11.96-20.84,19.85-3.7,5.26-6.08,11.45-6.86,17.83,2.26-.81,4.53-1.62,6.79-2.42-1.81,2.01-3.69,4.14-4.28,6.78-.59,2.64.66,5.89,3.28,6.55-.68,2.6-1.08,6.41-.53,9.04.37,1.75,1.45,3.78,3.24,3.72.33-.01.65-.1.97-.18,11.29-3.08,22.15-7.71,32.18-13.72,5.82-3.48,12.24-7.61,18.84-6.06.03,1.59-1.13,2.9-1.96,4.25-.83,1.35-1.27,3.33-.07,4.36,1.47,1.27,3.82,1.4,5.41.29-1.25,1.55.39,4.04,2.36,4.3,1.97.26,3.82-.9,5.42-2.08s3.27-2.5,5.25-2.61c14.22-.84,24.55-13.48,28.7-27.11,4.16-13.63,2.96-28.22,2.75-42.46-.23-15.48.74-31.01-.7-46.43-.89-9.55-2.92-19.47-9.04-26.85-7.44-8.98-19.37-12.51-30.24-16.73-6.51-2.52-12.89-5.45-19.64-7.2-6.76-1.75-19.04-1.3-25.63,1.02Z" class="cls-42"></path>
        <path d="M165.46,291.72c-11.38,13.3-19.02,29.76-21.83,47.04-1.2,7.37-1.49,15.18,1.36,22.08,1.95,4.73,5.36,9.04,5.66,14.14.44,7.41-5.85,14.23-4.6,21.54-5.53-4.09-9.94-10.09-10.19-16.97-1.66,4.43-7.48,5.67-12.14,4.84-4.66-.83-9.13-3.04-13.86-2.87-6.31.23-11.81,4.77-14.98,10.23-5.64,9.73-4.78,22.83,2.08,31.74,3.34,4.34,9.74,6.22,12.75,10.79,1.61,2.44,2.62,5.34,4.79,7.29,1.45,1.31,3.29,2.08,5.05,2.94,6.56,3.22,12.38,8.17,15.92,14.56,3.55,6.38,4.66,14.25,2.28,21.15-1.17,3.38-3.18,6.53-6.01,8.72,1.34,2.96,3.51,5.76,5.1,8.59s1.04,7.44-2.15,8.02c-2.99-3.94-7.91-5.94-12.77-6.85-4.86-.91-9.85-.9-14.72-1.76-11.59-2.04-22.17-9.21-28.37-19.21-4.53-7.32-7.21-16.46-14.56-20.93-2.07,5.09-1.28,11.73,2.75,15.46,1.85,1.71,4.43,3.46,4.09,5.96-.13.92-.66,1.72-.94,2.6-.78,2.4.37,5.08,2.16,6.86s4.13,2.88,6.35,4.07c4.76,2.54,9.41,5.87,11.71,10.75,2.29,4.88,1.38,11.59-3.2,14.43-6.77-2.03-14.61-3.13-20.16-7.49-1.49,7.34,2.82,15.45,9.75,18.3,1.52.62,3.34,1.22,3.85,2.78.99,3.03-3.67,4.48-5.61,7.01-2.71,3.54.49,8.47,3.54,11.72,2.19,2.33,4.5,4.75,7.52,5.84s6.93.38,8.49-2.42c1.1,5.3-.75,11.37-4.34,15.42,4.59.45,9.88,1.79,11.57,6.08.71,1.8.56,3.87,1.39,5.63,1.38,2.93,4.88,4.03,7.77,5.48s5.78,4.61,4.45,7.56c-1.22,2.71-4.93,2.96-7.88,2.58-4.98-.64-9.89-1.89-14.57-3.71-8.84-3.45-17.67-9.06-27.02-7.48-5.04.85-10.29,1.7-15.19.24-4.73-1.41-8.56-4.8-12.79-7.35-4.46-2.69-9.49-4.53-13.34-8.04-2.16-1.97-3.85-4.39-5.4-6.87-5.19-8.31-8.93-17.52-11-27.1-2.34-10.83-2.56-21.99-2.7-33.07-.24-18.19-.33-36.39.76-54.55.72-12.04,1.96-24.06,4.2-35.9,2.02-10.69,4.96-21.45,11.08-30.44,6.12-8.99,15.9-16.04,26.77-16.54,6.69-.31,10.33-4.87,15.63-8.96,14.17-10.92,28.18-22.07,41.67-33.82,7.45-6.49,14.79-13.19,23.24-18.31,8.45-5.11,18.22-8.58,28.07-7.89" class="cls-33"></path>
      </g>
      <path d="M225.31,562.41c5.27-1.74,53.11-31.8,54.17-53.73-.03-.07,3.79-11.83-2.63-19.83-.17.05-4.9-21.39-7.9-20.96-3.71-.02-24.65,41.61-55.48,61.66-.01-.02-7.48,4.97-9.99,2.22-1.53-1.63-1.27-6.42,1.54-9.34,29.83-31.22,53.42-54.08,58.89-68.1-.25-.33,4.33-31.08-11.92-50.75-.38-.43-24.79,34.03-52.38,46.02-18.43,7.63-20.46-11.15-6.54-23.68.01-.36,31.05-16.78,26.9-36.37-4.21-21.92-6.49-17.23-14.43-25.81-8.04-7.81-38.85-49.87-32.47-86.85-12.91,32.92-52.58,68.45-61.83,78.06-9.15,8.74-27.28,14.75-32.37,49.42-4.6,35.51,38.65,53.47,38.46,52.98,15.16,3.39,22.56,26.41,2.52,24.53-19.56-1.73-35.4-20.04-45.04-38.61-9.86-18.45-13.53-37.16-13.56-37-21,60.49-8.4,86.31-9.01,85.77,9.77,20.58,70.76,43.29,86.66,40.13,6.28-.8,9.06,6.07,7.49,11.14-.99,3.16-6.05,5.37-6.05,5.37-13.82,3.38-34.83-7.06-52.05-19.91-17.35-12.6-30.92-27.6-32.47-27.26-3.45.5,2.17,34.51,2.45,34.46-1.43,15.27,2.59,24.7,2.56,24.67,15.42,31.52,45.85,31.17,72.6,24.56,13.18-3.18,18.68,2.28,21.87,9.76,4.4,10.24-10.3,13.44-10.34,13.43-23.99,11.84-71.68-17.37-71.48-18.22-2.8,6.69,29.11,64.84,29.97,64.22,42.13,49.16,90.86,28.02,104.65,3.05,4.71-8.49.82-27.42.92-27.42-.37-4.14,12.33,17.23,28.17,18.57,30.44,3.27,40.04-6.2,61.47-67.39-.96-.16-6.53-48.58-9.99-50.54,0,.02-10.56,10.9-23.31,22.75-12.87,11.67-27.91,24.31-39.46,23.76.02.01-7.61.28-9.91-6.14-2.38-6.77,4.01-7.24,9.3-8.62ZM149.64,572.98c-5.04,5.64-42.81,3.63-31.51-12.06,0,.03,13.14,1.25,22.89-.47,9.73-1.63,13.73,7.2,8.63,12.53ZM130.02,442.01c-10.74,1.18-24.22-44.18-23.66-44.49,3.17,8.48,23.25,11.35,27.44,18.06,4.09,6.79,6.33,25.69-3.78,26.43ZM237.47,594.13c18.41-8.43-1.54,41.25-11.6,32.29-17.96-16.88,11.65-32.45,11.6-32.29ZM198.31,559.84c-6.83-11.72,26.42-19.62,26.38-19.64,10.44,15.34-19.35,31.12-26.38,19.64Z" class="cls-25"></path>
    </g>
    <path d="M162.43,365.73c-17.9,102.72,6.22,211.77,64.67,297.98,8.32,12.34,17.35,24.21,27.07,35.5-9.9-11.13-19.14-22.86-27.67-35.09-59.5-85.76-83.87-195.73-64.07-298.39h0Z" class="cls-38"></path>
  </g>
  <g>
    <g>
      <path d="M162.95,340.06c3.58,4.24,49.34,37.38,70.08,30.18.05-.06,12.39-.91,17.41-9.85-.11-.14,18.01-12.53,16.49-15.15-1.37-3.45-47.81-7.32-77.92-28.43.01-.02-7.4-5.08-5.8-8.44.95-2.03,5.48-3.57,9.24-2.06,40.1,16.01,70.12,29.35,85.17,29.19.22-.35,30.45-7.6,42.62-30.01.26-.51-40.83-10.29-62.26-31.4-13.97-14.24,2.7-23.15,19.52-14.91.34-.12,27.17,22.53,43.79,11.37,18.76-12.1,13.56-12.46,18.55-23.03,4.24-10.37,31.75-54.67,68.43-62.56-35.36.32-83.14-23.2-95.51-28.2-11.52-5.23-23.88-19.8-57.93-11.56-34.65,9-35.16,55.82-34.78,55.47,2.52,15.33-16.07,30.79-21.81,11.5-5.7-18.79,5.37-40.33,18.99-56.21,13.43-16.04,29.41-26.43,29.26-26.4-63.95,3.11-83.21,24.45-82.93,23.68-15.44,16.76-13.72,81.81-4.86,95.38,3.09,5.53-2.25,10.67-7.54,11.11-3.3.26-7.24-3.6-7.24-3.6-8.3-11.56-6.46-34.94-.98-55.72,5.2-20.8,14.05-38.99,13.16-40.3-1.75-3.01-31.21,14.9-31.05,15.15-14.7,4.37-21.94,11.62-21.93,11.59-23.48,26.08-11.78,54.18,4.34,76.52,7.87,11.04,4.87,18.18-.88,23.93-7.85,7.9-16.32-4.54-16.32-4.57-19.94-17.83-10.66-72.98-9.8-73.11-7.25-.1-49.27,51.22-48.38,51.79-29.86,57.45,7.95,94.75,36.27,98.21,9.64,1.2,25.74-9.48,25.78-9.39,3.7-1.89-11.38,17.88-6.7,33.06,8.34,29.46,20.71,34.83,85.48,31.84-.21-.95,42.63-24.2,43.15-28.15-.02,0-14.06-5.73-29.81-13.13-15.63-7.58-32.98-16.81-36.78-27.73,0,.02-3.1-6.96,1.99-11.48,5.39-4.74,8.22,1.02,11.47,5.41ZM124.88,273.83c-7.12-2.57-19.36-38.36-.58-33.74-.02.01,3.75,12.66,8.98,21.05,5.15,8.42-1.55,15.43-8.4,12.68ZM239.04,206.7c-5.11-9.52,31.93-38.97,32.43-38.56-6.69,6.11-1.84,25.8-6.5,32.2-4.77,6.33-21.47,15.46-25.93,6.36ZM138.07,363.19c14.7,13.93-38.84,13.98-34.28,1.3,8.95-22.97,34.46-1.31,34.28-1.3ZM155.25,314.07c8.32-10.71,28.07,17.17,28.08,17.13-10.33,15.42-36.1-6.32-28.08-17.13Z" class="cls-69"></path>
      <g class="cls-56">
        <path d="M337.5,252.91c-3.21,7.16-12.38,9.86-20.12,8.57-7.74-1.29-14.6-5.55-21.7-8.88-11.1-5.21-23.36-8.26-35.61-7.67-12.25.58-24.47,4.96-33.58,13.18,5.7-1.77,11.86,1.42,14.45,6.8-2.51-1.02-5.53.91-6.3,3.51-.76,2.6.31,5.46,2.08,7.5,1.77,2.05,4.16,3.45,6.49,4.82,8.9,5.24,17.67,10.68,26.45,16.12,7.63,4.73,14.2,11.16,19.09,18.69-2.26,1.08-4.91.1-7.21-.87-6.8-2.88-13.59-5.75-20.39-8.63.92.14,1.84.29,2.76.43.69,3.79-1.46,6.62,1.57,9.01-6.19,1.64-12.83-.39-18.34-3.64-5.51-3.25-10.24-7.67-15.43-11.41-7.84-5.64-16.8-9.71-26.2-11.92-6.26-1.47-12.89-1.36-19.1.3,1.6,1.8,3.19,3.6,4.79,5.4-2.54-.93-5.22-1.88-7.89-1.44-2.67.44-5.22,2.81-4.85,5.49-2.67.34-6.35,1.39-8.58,2.88-1.49.99-2.96,2.76-2.24,4.4.13.3.33.57.53.83,7.07,9.32,15.43,17.66,24.75,24.73,5.4,4.09,11.63,8.51,12.66,15.21-1.46.62-3.11.04-4.68-.23-1.56-.27-3.56.06-4.08,1.56-.63,1.84.13,4.06,1.75,5.13-1.9-.58-3.6,1.87-3.1,3.79.49,1.92,2.26,3.21,3.95,4.25s3.54,2.1,4.39,3.9c6.1,12.88,21.67,17.73,35.87,16.5,14.2-1.24,27.28-7.79,40.42-13.31,14.28-6,29.05-10.9,42.81-18,8.52-4.4,16.97-9.98,21.53-18.42,5.55-10.26,4.37-22.64,4.22-34.3-.09-6.98.24-13.99-.66-20.91-.9-6.92-5.91-18.15-10.52-23.39Z" class="cls-34"></path>
        <path d="M391.69,183.43c-16.59-5.59-34.71-6.53-51.79-2.68-7.29,1.64-14.63,4.29-19.97,9.51-3.65,3.58-6.38,8.35-11,10.53-6.71,3.17-15.38-.11-21.7,3.79,1.73-6.66,5.65-12.99,11.94-15.79-4.73.11-8.06-4.82-9.02-9.46-.97-4.64-.59-9.6-2.52-13.93-2.57-5.76-8.84-9.17-15.08-10.07-11.13-1.6-22.97,4.09-28.66,13.79-2.77,4.72-2.13,11.36-5.25,15.86-1.66,2.4-3.97,4.43-4.97,7.17-.67,1.84-.69,3.83-.84,5.78-.54,7.28-2.96,14.53-7.56,20.21s-11.48,9.64-18.77,10.01c-3.57.18-7.24-.51-10.33-2.32-2.24,2.34-4.03,5.41-6.06,7.94-2.03,2.53-6.51,3.75-8.25,1.01,2.54-4.24,2.56-9.56,1.58-14.41-.97-4.85-2.85-9.48-3.87-14.31-2.44-11.51.26-24.01,7.23-33.49,5.09-6.94,12.57-12.83,13.97-21.32-5.49-.02-11.36,3.19-13.31,8.32-.89,2.36-1.56,5.4-4,6.02-.9.23-1.84.03-2.76.1-2.52.17-4.58,2.24-5.56,4.56-.99,2.32-1.13,4.9-1.4,7.41-.58,5.36-1.93,10.93-5.6,14.87-3.67,3.95-10.23,5.61-14.58,2.43-.65-7.03-2.55-14.72-.58-21.5-7.37,1.36-13.27,8.39-13.33,15.88-.01,1.64.11,3.55-1.14,4.61-2.44,2.05-5.53-1.73-8.6-2.58-4.3-1.19-7.67,3.61-9.55,7.66-1.35,2.91-2.72,5.95-2.61,9.15s2.24,6.57,5.42,6.97c-4.51,3-10.83,3.56-15.92,1.73,1.3,4.43,2.03,9.84-1.32,13-1.41,1.33-3.38,1.97-4.7,3.39-2.21,2.37-1.92,6.03-2.18,9.26-.27,3.23-2.12,7.08-5.35,6.95-2.97-.12-4.59-3.47-5.34-6.35-1.27-4.86-1.94-9.88-2-14.9-.1-9.49,1.81-19.77-3.16-27.86-2.67-4.36-5.42-8.91-5.9-14-.46-4.91,1.25-9.74,2.04-14.61.83-5.14.66-10.5,2.47-15.37,1.02-2.74,2.63-5.21,4.35-7.57,5.77-7.92,12.92-14.83,21.03-20.33,9.17-6.22,19.45-10.59,29.67-14.86,16.78-7.02,33.64-13.9,50.88-19.68,11.43-3.83,23.05-7.17,34.87-9.51,10.67-2.12,21.75-3.41,32.37-1.09,10.63,2.32,20.82,8.76,25.34,18.65,2.79,6.09,8.38,7.76,14.15,11.15,15.42,9.07,31,17.89,46.94,26.02,8.8,4.48,17.76,8.79,25.66,14.72,7.9,5.93,14.77,13.69,17.8,23.09" class="cls-35"></path>
      </g>
      <path d="M162.95,340.06c3.58,4.24,49.34,37.38,70.08,30.18.05-.06,12.39-.91,17.41-9.85-.11-.14,18.01-12.53,16.49-15.15-1.37-3.45-47.81-7.32-77.92-28.43.01-.02-7.4-5.08-5.8-8.44.95-2.03,5.48-3.57,9.24-2.06,40.1,16.01,70.12,29.35,85.17,29.19.22-.35,30.45-7.6,42.62-30.01.26-.51-40.83-10.29-62.26-31.4-13.97-14.24,2.7-23.15,19.52-14.91.34-.12,27.17,22.53,43.79,11.37,18.76-12.1,13.56-12.46,18.55-23.03,4.24-10.37,31.75-54.67,68.43-62.56-35.36.32-83.14-23.2-95.51-28.2-11.52-5.23-23.88-19.8-57.93-11.56-34.65,9-35.16,55.82-34.78,55.47,2.52,15.33-16.07,30.79-21.81,11.5-5.7-18.79,5.37-40.33,18.99-56.21,13.43-16.04,29.41-26.43,29.26-26.4-63.95,3.11-83.21,24.45-82.93,23.68-15.44,16.76-13.72,81.81-4.86,95.38,3.09,5.53-2.25,10.67-7.54,11.11-3.3.26-7.24-3.6-7.24-3.6-8.3-11.56-6.46-34.94-.98-55.72,5.2-20.8,14.05-38.99,13.16-40.3-1.75-3.01-31.21,14.9-31.05,15.15-14.7,4.37-21.94,11.62-21.93,11.59-23.48,26.08-11.78,54.18,4.34,76.52,7.87,11.04,4.87,18.18-.88,23.93-7.85,7.9-16.32-4.54-16.32-4.57-19.94-17.83-10.66-72.98-9.8-73.11-7.25-.1-49.27,51.22-48.38,51.79-29.86,57.45,7.95,94.75,36.27,98.21,9.64,1.2,25.74-9.48,25.78-9.39,3.7-1.89-11.38,17.88-6.7,33.06,8.34,29.46,20.71,34.83,85.48,31.84-.21-.95,42.63-24.2,43.15-28.15-.02,0-14.06-5.73-29.81-13.13-15.63-7.58-32.98-16.81-36.78-27.73,0,.02-3.1-6.96,1.99-11.48,5.39-4.74,8.22,1.02,11.47,5.41ZM124.88,273.83c-7.12-2.57-19.36-38.36-.58-33.74-.02.01,3.75,12.66,8.98,21.05,5.15,8.42-1.55,15.43-8.4,12.68ZM239.04,206.7c-5.11-9.52,31.93-38.97,32.43-38.56-6.69,6.11-1.84,25.8-6.5,32.2-4.77,6.33-21.47,15.46-25.93,6.36ZM138.07,363.19c14.7,13.93-38.84,13.98-34.28,1.3,8.95-22.97,34.46-1.31,34.28-1.3ZM155.25,314.07c8.32-10.71,28.07,17.17,28.08,17.13-10.33,15.42-36.1-6.32-28.08-17.13Z" class="cls-25"></path>
    </g>
    <path d="M321.9,208.27c-101.97,21.77-194.11,84.87-252.25,171.3-8.34,12.33-15.97,25.14-22.82,38.37,6.63-13.34,14.06-26.29,22.21-38.78,57.33-87.23,150.23-150.91,252.86-170.9h0Z" class="cls-38"></path>
  </g>
  <g>
    <g>
      <g>
        <path d="M118.18,361.18c9.75-10.42,17.81-22.34,23.92-35.33,8.96-19.05,22.58-50,35.48-87.16,21.77-62.71,74.28-221.24,74.28-221.24,0,0-80.73,83.95-130.77,254.43-6.2,21.13-10.08,42.94-11.73,65l-1.46,19.55c-.42,5.67,6.45,8.84,10.28,4.74h0Z" class="cls-45"></path>
        <g class="cls-60">
          <path d="M181.56,155.52c8.48-21.78,13.89-44.81,24.45-65.66,12.96-25.58,33.13-46.86,46.98-71.98,2.16-3.93,3.77-9.71.03-12.18-2.9-1.91-6.78-.1-9.51,2.05-4.47,3.51-8.17,7.9-11.74,12.32-27.74,34.44-49.38,73.37-68.8,113.1-14.79,30.26-28.6,61.7-33.76,95.23-.94,6.12-.91,13.01,6.12,6.47,5.69-5.29,10.15-13.65,14.49-20.07,9.26-13.67,17.65-27.96,24.68-42.91,2.53-5.38,4.89-10.84,7.04-16.37Z" class="cls-39"></path>
        </g>
        <path d="M118.18,361.18c9.75-10.42,17.81-22.34,23.92-35.33,8.96-19.05,22.58-50,35.48-87.16,21.77-62.71,74.28-221.24,74.28-221.24,0,0-80.73,83.95-130.77,254.43-6.2,21.13-10.08,42.94-11.73,65l-1.46,19.55c-.42,5.67,6.45,8.84,10.28,4.74h0Z" class="cls-18"></path>
      </g>
      <path d="M114.74,365.85c11.28.32,22.53-1.13,33.37-4.25,15.78-4.54,26.05-6.64,54.47-18.17,48.08-19.5,177.67-63.45,177.67-63.45,0,0-94.8-7.21-220.65,51.14-15.6,7.23-21.63,6.79-35.36,17.15l-12.17,9.18c-3.53,2.66-1.74,8.28,2.68,8.41h0Z" class="cls-9"></path>
      <path d="M106.71,428.41c8.92.11,17.81-1.19,26.34-3.8,12.42-3.8,20.52-5.59,42.85-15.08,37.77-16.06,139.7-52.51,139.7-52.51,0,0-75.08-4.46-173.87,43.33-12.25,5.92-17.02,5.66-27.75,14.03l-9.51,7.42c-2.76,2.15-1.27,6.57,2.23,6.61h0Z" class="cls-9"></path>
      <g>
        <path d="M123.38,361.9c12.86-9.21,24.2-20.41,33.65-33.2,13.86-18.76,35.37-49.44,57.45-87.02,37.25-63.42,128.67-224.31,128.67-224.31,0,0-105.92,73.73-197.25,248.13-11.32,21.62-20.26,44.48-26.83,68.09l-5.83,20.93c-1.69,6.07,5.09,11,10.14,7.38h0Z" class="cls-45"></path>
        <g class="cls-64">
          <path d="M145.08,264.23c27.93-21.32,56.46-43.3,75.18-73.04,8.53-13.56,14.8-28.4,22.3-42.56,17.27-32.56,40.95-61.22,65-89.15,4.26-4.95,8.54-9.88,12.83-14.8.64,5.1.34,10.32-.88,15.32.46,1.11,2.14.3,2.92-.62,12.66-14.93,23.06-31.77,30.73-49.78,1.17-2.75,2.14-6.32,0-8.42-2.25-2.21-6.01-.93-8.78.58-18.47,10.07-33.94,24.77-48.73,39.73-11.94,12.07-23.6,24.45-34.15,37.75-19.34,24.38-34.75,51.59-52.55,77.12-22.68,32.51-49.69,63.1-62.52,100.61" class="cls-39"></path>
        </g>
        <path d="M123.38,361.9c12.86-9.21,24.2-20.41,33.65-33.2,13.86-18.76,35.37-49.44,57.45-87.02,37.25-63.42,128.67-224.31,128.67-224.31,0,0-105.92,73.73-197.25,248.13-11.32,21.62-20.26,44.48-26.83,68.09l-5.83,20.93c-1.69,6.07,5.09,11,10.14,7.38h0Z" class="cls-18"></path>
      </g>
      <g>
        <path d="M121.75,362.72c14.87-5.39,28.81-13.11,41.37-22.87,18.42-14.32,47.42-38.04,78.83-68.25,53.01-50.99,153.42-152.33,153.42-152.33,0,0-90.8,13.5-225.88,156.72-16.74,17.75-31.53,37.35-44.24,58.3l-11.27,18.58c-3.27,5.39,1.93,11.97,7.77,9.85h0Z" class="cls-45"></path>
        <g class="cls-59">
          <path d="M284.01,233.05c20.08-28.51,44.37-53.78,65.84-81.26,1.66-2.13,3.34-4.33,4.1-6.92-5-1.4-9.96,1.99-14.05,5.19-12.2,9.55-24.4,19.09-36.6,28.64-4.88,3.82-9.77,7.65-14.93,11.1-6.29,4.21-12.95,7.84-19.6,11.46-18.42,10.04-36.84,20.08-55.27,30.12,9.57-9.4,19.15-18.8,28.72-28.2,22.4-21.99,44.87-44.05,69.74-63.2,23.66-18.22,49.42-33.74,76.65-45.99,5.99-2.69,12.36-5.29,18.9-4.67,2.97.28,5.9,1.25,8.37,2.94,7.08,4.86,9.01,14.91,6.72,23.18-2.28,8.28-7.9,15.18-13.53,21.66-28.11,32.4-60.18,61.36-95.28,86.01" class="cls-39"></path>
        </g>
        <path d="M121.75,362.72c14.87-5.39,28.81-13.11,41.37-22.87,18.42-14.32,47.42-38.04,78.83-68.25,53.01-50.99,153.42-152.33,153.42-152.33,0,0-90.8,13.5-225.88,156.72-16.74,17.75-31.53,37.35-44.24,58.3l-11.27,18.58c-3.27,5.39,1.93,11.97,7.77,9.85h0Z" class="cls-18"></path>
      </g>
      <path d="M115.32,364.63c11.2-1.06,22.15-3.85,32.49-8.26,15.17-6.47,39.26-17.46,66.12-32.42,45.33-25.24,131.99-76.27,131.99-76.27,0,0-65.05-6.69-182.82,66.62-14.6,9.09-28.16,19.76-40.51,31.72l-10.96,10.6c-3.18,3.07-.71,8.43,3.69,8.01h0Z" class="cls-9"></path>
      <path d="M121.48,340.71c9.46-28.84,23.56-56.13,41.3-80.77,8.86-12.35,18.63-23.96,27.65-36.09,27.25-36.44,47.87-77.11,70.95-116.2,11.78-19.45,24.87-38.38,41.5-54.03,5.57-5.16,11.49-9.92,17.74-14.21-6.1,4.5-11.87,9.41-17.31,14.66-16.13,16.01-28.91,34.97-40.36,54.51-22.66,39.37-43.24,80.23-70.79,116.56-9.16,12.12-18.87,23.75-27.91,35.87-18.01,24.31-32.4,51.26-42.77,79.69h0Z" class="cls-38"></path>
      <path d="M114.39,352.5c-1.78-14.91,1.48-29.86,4.94-44.3,5.35-21.75,12.21-43.16,20.76-63.88,5.7-13.82,12.05-27.37,19.07-40.56,10.47-18.93,21.59-40.03,28.87-60.33,7.81-20.93,12.68-43.18,24.13-62.61,11.19-19.4,22.83-38.48,34.36-57.67-7.28,13.02-14.68,25.96-22.02,38.95-7.33,12.98-15.27,25.67-20.29,39.65-5.16,13.91-8.91,28.4-14.14,42.43-5.15,14.04-11.23,27.75-18.17,41.01-22.14,38.63-40.36,80.12-51.44,123.29-3.82,14.34-7.32,29.07-6.07,44.01h0Z" class="cls-38"></path>
      <path d="M120.8,346.05c15.93-18.62,32.58-37.18,53.28-50.65,20.18-13.52,43.04-24.25,58.41-43.57,7.67-9.5,14.18-20.12,22.58-29.1,16.8-18.06,36.22-33.25,55.6-48.34,9.81-7.38,19.76-14.58,29.96-21.39-9.9,7.25-19.69,14.63-29.25,22.31-18.98,15.37-38.11,30.96-54.71,48.88-8.35,9.03-14.65,19.53-22.35,29.14-7.79,9.66-17.67,17.43-27.96,24.22-15.39,10.18-31.81,18.47-46.2,30.01-14.36,11.49-26.84,25.06-39.37,38.5h0Z" class="cls-38"></path>
      <path d="M114.02,362.99c30.5-9.54,53.88-32.28,81.41-47.55,18.59-10.02,38.14-17.56,56.44-28.11,27.55-15.07,55.2-31.71,86.3-38.15-41.13,10.55-75.21,36.89-113.32,54.6-11.96,5.46-24.01,10.6-35.18,17.45-24.67,14.74-47.36,34.26-75.66,41.75h0Z" class="cls-38"></path>
      <path d="M137.62,362.27c76.05-18.44,141.03-72.59,220.75-77.38-79.31,6.92-144.01,60.98-220.75,77.38h0Z" class="cls-38"></path>
    </g>
    <g>
      <g>
        <path d="M127.74,657.04c13.11-14.01,23.94-30.03,32.15-47.49,12.04-25.61,30.35-67.22,47.7-117.17,29.27-84.3,99.86-297.42,99.86-297.42,0,0-108.52,112.86-175.8,342.03-8.34,28.41-13.55,57.73-15.77,87.39l-1.97,26.29c-.57,7.62,8.67,11.88,13.82,6.38h0Z" class="cls-45"></path>
        <g class="cls-58">
          <path d="M212.94,380.56c11.4-29.28,18.68-60.23,32.88-88.26,17.42-34.39,44.54-63,63.16-96.76,2.91-5.28,5.07-13.05.04-16.37-3.9-2.57-9.11-.13-12.78,2.75-6.01,4.72-10.99,10.61-15.78,16.57-37.29,46.29-66.38,98.63-92.49,152.04-19.88,40.67-38.45,82.94-45.38,128.02-1.26,8.22-1.23,17.49,8.23,8.69,7.65-7.12,13.64-18.35,19.48-26.98,12.45-18.38,23.72-37.59,33.18-57.68,3.4-7.23,6.57-14.57,9.47-22.01Z" class="cls-39"></path>
        </g>
        <path d="M127.74,657.04c13.11-14.01,23.94-30.03,32.15-47.49,12.04-25.61,30.35-67.22,47.7-117.17,29.27-84.3,99.86-297.42,99.86-297.42,0,0-108.52,112.86-175.8,342.03-8.34,28.41-13.55,57.73-15.77,87.39l-1.97,26.29c-.57,7.62,8.67,11.88,13.82,6.38h0Z" class="cls-8"></path>
      </g>
      <path d="M123.12,663.32c15.16.44,30.29-1.52,44.86-5.72,21.22-6.11,35.02-8.92,73.23-24.42,64.63-26.22,238.84-85.3,238.84-85.3,0,0-127.45-9.69-296.64,68.75-20.97,9.72-29.08,9.13-47.54,23.05l-16.36,12.34c-4.74,3.58-2.33,11.13,3.6,11.3h0Z" class="cls-26"></path>
      <path d="M112.32,747.43c12,.15,23.94-1.6,35.41-5.11,16.7-5.11,27.58-7.52,57.6-20.27,50.78-21.58,187.81-70.59,187.81-70.59,0,0-100.93-6-233.74,58.25-16.46,7.96-22.88,7.61-37.3,18.86l-12.78,9.97c-3.71,2.89-1.7,8.83,3,8.89h0Z" class="cls-26"></path>
      <g>
        <path d="M134.72,658.01c17.29-12.38,32.53-27.44,45.23-44.64,18.64-25.22,47.55-66.47,77.23-116.99,50.08-85.26,172.98-301.55,172.98-301.55,0,0-142.39,99.11-265.17,333.57-15.22,29.06-27.23,59.8-36.07,91.54l-7.84,28.14c-2.27,8.16,6.84,14.79,13.63,9.93h0Z" class="cls-45"></path>
        <g class="cls-57">
          <path d="M163.9,526.71c37.54-28.67,75.9-58.21,101.06-98.19,11.47-18.23,19.89-38.18,29.98-57.21,23.21-43.78,55.05-82.3,87.39-119.85,5.73-6.65,11.48-13.28,17.25-19.89.86,6.86.46,13.88-1.18,20.6.62,1.5,2.88.4,3.93-.83,17.02-20.07,31-42.71,41.31-66.92,1.58-3.7,2.88-8.5.01-11.32-3.02-2.97-8.08-1.24-11.8.78-24.83,13.54-45.63,33.3-65.51,53.41-16.05,16.23-31.73,32.87-45.91,50.75-26,32.77-46.71,69.36-70.64,103.67-30.49,43.71-66.8,84.83-84.05,135.25" class="cls-39"></path>
        </g>
        <path d="M134.72,658.01c17.29-12.38,32.53-27.44,45.23-44.64,18.64-25.22,47.55-66.47,77.23-116.99,50.08-85.26,172.98-301.55,172.98-301.55,0,0-142.39,99.11-265.17,333.57-15.22,29.06-27.23,59.8-36.07,91.54l-7.84,28.14c-2.27,8.16,6.84,14.79,13.63,9.93h0Z" class="cls-8"></path>
      </g>
      <g>
        <path d="M132.54,659.12c19.99-7.25,38.73-17.62,55.62-30.75,24.76-19.25,63.75-51.14,105.98-91.75,71.26-68.54,206.25-204.78,206.25-204.78,0,0-122.07,18.15-303.66,210.68-22.51,23.87-42.38,50.21-59.48,78.38l-15.15,24.97c-4.39,7.24,2.59,16.09,10.44,13.24h0Z" class="cls-45"></path>
        <g class="cls-61">
          <path d="M350.67,484.79c26.99-38.33,59.65-72.29,88.51-109.24,2.23-2.86,4.49-5.82,5.51-9.3-6.72-1.89-13.39,2.67-18.89,6.97-16.4,12.83-32.8,25.67-49.2,38.5-6.57,5.14-13.14,10.28-20.07,14.92-8.46,5.66-17.41,10.54-26.35,15.41-24.77,13.5-49.53,26.99-74.3,40.49,12.87-12.64,25.74-25.28,38.61-37.91,30.11-29.57,60.32-59.22,93.75-84.97,31.81-24.5,66.44-45.35,103.05-61.83,8.05-3.62,16.62-7.11,25.4-6.28,4,.38,7.93,1.67,11.25,3.95,9.52,6.53,12.11,20.04,9.04,31.17-3.07,11.13-10.62,20.4-18.18,29.12-37.78,43.56-80.91,82.48-128.09,115.63" class="cls-39"></path>
        </g>
        <path d="M132.54,659.12c19.99-7.25,38.73-17.62,55.62-30.75,24.76-19.25,63.75-51.14,105.98-91.75,71.26-68.54,206.25-204.78,206.25-204.78,0,0-122.07,18.15-303.66,210.68-22.51,23.87-42.38,50.21-59.48,78.38l-15.15,24.97c-4.39,7.24,2.59,16.09,10.44,13.24h0Z" class="cls-8"></path>
      </g>
      <path d="M123.89,661.68c15.05-1.42,29.77-5.17,43.68-11.1,20.39-8.7,52.77-23.47,88.88-43.58,60.93-33.93,177.44-102.54,177.44-102.54,0,0-87.45-9-245.77,89.56-19.63,12.22-37.85,26.57-54.47,42.64l-14.73,14.25c-4.27,4.13-.95,11.33,4.96,10.77h0Z" class="cls-26"></path>
      <path d="M132.18,629.53c12.72-38.77,31.67-75.46,55.52-108.58,11.91-16.6,25.04-32.21,37.17-48.51,36.64-48.99,64.35-103.67,95.38-156.22,15.84-26.14,33.43-51.6,55.79-72.63,7.49-6.94,15.45-13.34,23.85-19.1-8.2,6.05-15.96,12.65-23.27,19.71-21.68,21.53-38.86,47.02-54.26,73.28-30.36,52.74-58.28,108.08-95.17,156.7-12.31,16.3-25.37,31.93-37.52,48.22-24.22,32.68-43.55,68.91-57.5,107.13h0Z" class="cls-38"></path>
      <path d="M122.64,645.37c-2.39-20.05,1.99-40.14,6.65-59.55,2.39-9.75,4.99-19.45,7.88-29.06,8.56-28.89,19.3-57.14,32.18-84.39,8.42-18.22,18.27-35.76,27.77-53.4,14.09-26.49,25.32-54.39,34.16-83.06,4.54-14.34,9.28-28.76,15.8-42.38,6.56-13.58,14.62-26.36,22.23-39.34,10.32-17.19,20.55-34.43,30.96-51.57-14.63,26.25-29.76,52.28-44.42,78.5-4.78,8.77-9,17.8-12.47,27.17-6.93,18.7-11.98,38.17-19.01,57.04-6.93,18.88-15.09,37.31-24.42,55.13-24.77,43.49-46.08,88.99-60.85,136.89-3.03,9.54-5.74,19.18-8.3,28.86-5.14,19.28-9.84,39.08-8.16,59.17h0Z" class="cls-38"></path>
      <path d="M131.26,636.71c16.15-18.75,32.53-37.49,51.66-53.31,19.03-15.93,41.26-27.57,61.73-41.25,13.58-9.08,26.52-19.3,36.75-32.1,10.31-12.79,19.01-27.09,30.32-39.15,22.64-24.23,48.73-44.65,74.79-64.95,13.19-9.92,26.56-19.6,40.28-28.75-13.3,9.75-26.47,19.66-39.32,29.99-25.51,20.65-51.25,41.61-73.51,65.74-11.22,12.14-19.74,26.23-30.08,39.14-10.46,12.99-23.71,23.49-37.56,32.6-20.72,13.65-42.8,24.77-62.13,40.3-19.31,15.45-36.08,33.69-52.93,51.75h0Z" class="cls-38"></path>
      <path d="M122.15,659.47c41-12.84,72.45-43.36,109.42-63.98,12.4-7,25.48-12.54,38.24-18.52,51-23.48,97.81-58.83,153.68-70.51-13.7,3.52-27.01,8.32-39.87,14.09-22.35,9.56-53.16,27.79-74.72,39.8-12.36,6.88-24.91,13.5-37.75,19.52-14.47,6.64-29.02,12.92-42.74,20.81-22.95,13.26-44.04,29.42-67.17,42.44-12.33,6.88-25.44,12.72-39.1,16.35h0Z" class="cls-38"></path>
      <path d="M153.87,658.52c102.24-24.79,189.59-97.59,296.76-104.03-106.62,9.3-193.6,81.97-296.76,104.03h0Z" class="cls-38"></path>
    </g>
    <g>
      <path d="M138.13,687.09l-12.35-6.03s23.68-42.4,49.72-52.2c26.03-9.8,48.29-4.03,48.29-4.03l-54.75,61.64-30.9.63Z" class="cls-31"></path>
      <polygon points="253.99 742.8 269.54 758.62 283.98 671.22 275.73 665.5 253.99 742.8" class="cls-31"></polygon>
      <g>
        <path d="M461.05,836.75s14.28-157.56-147.91-199.43c-10.12-2.61-19.14-8.52-25.16-17.06-1.11-1.58-2.23-3.31-3.33-5.22-9.89-17.15-79.11-60.74-139.59-45.66-60.48,15.07-124.12,94.04-124.12,94.04l72.04,35.19s45.54-42.77,85.69-58c0,0-56.47,42.53-71.24,69.3,0,0,35.76,25.96,84.38,39.52,48.62,13.55,49.54,21.23,49.54,21.23,0,0,25.13-52.31,37.72-93.75,0,0-20.3,93.76-1.89,109.13,18.41,15.37,74.44,35.51,102.5,41.57,28.06,6.06,81.36,9.15,81.36,9.15Z" class="cls-66"></path>
        <g class="cls-63">
          <path d="M22.93,666.11c24.13-13.81,48.36-27.67,74.18-37.97,25.82-10.3,53.48-16.99,81.26-15.83,7.36.31,14.94,1.24,21.32,4.92,6.38,3.69,11.3,10.72,10.53,18.05-.93,8.93-9.27,14.88-16.41,20.32-21.68,16.53-38.74,39.04-48.79,64.37,30.98,6.73,60.69,15.88,87.74,32.41,3.31-17.7,6.71-35.65,14.64-51.82,7.94-16.16,21.12-30.6,38.32-35.93,4.91,25.06,5.66,50.98,1.14,76.12-1.6,8.88-3.68,18.48.34,26.55,3.38,6.78,10.35,10.9,17.09,14.37,39.93,20.57,84.79,31.51,129.71,31.63,6.99.02,12.83-2.5,19.74-3.57-5.01-56.02-40.54-120.23-89.75-147.45-18.45-10.21-47.69-10.28-65.6-21.42-24.56-15.28-25.6-34.61-49.48-50.94-39.88-27.26-102.3-36.16-148.01-20.55-45.71,15.61-83.16,53.66-98.03,99.62,6.95,2.7,13.59.81,20.06-2.89Z" class="cls-43"></path>
        </g>
        <path d="M461.05,836.75s14.28-157.56-147.91-199.43c-10.12-2.61-19.14-8.52-25.16-17.06-1.11-1.58-2.23-3.31-3.33-5.22-9.89-17.15-79.11-60.74-139.59-45.66-60.48,15.07-124.12,94.04-124.12,94.04l72.04,35.19s45.54-42.77,85.69-58c0,0-56.47,42.53-71.24,69.3,0,0,35.76,25.96,84.38,39.52,48.62,13.55,49.54,21.23,49.54,21.23,0,0,25.13-52.31,37.72-93.75,0,0-20.3,93.76-1.89,109.13,18.41,15.37,74.44,35.51,102.5,41.57,28.06,6.06,81.36,9.15,81.36,9.15Z" class="cls-30"></path>
      </g>
      <path d="M184.85,585.44c27.88,7.73,57.81,16.94,76.84,40.16,5.03,6.01,9.54,12.21,15.24,17.32.62.53,2.42,2.06,3.07,2.61,1.25.94,3.04,2.37,4.33,3.21,14.99,10.44,32.43,15.9,48.92,23.98,39.64,19.46,72.24,52.53,91.62,92.15,6.37,13.2,11.41,27.06,14.59,41.33-3.86-14.09-9.15-27.77-15.93-40.65-20.07-38.61-52.41-71.04-91.62-90.07-15.38-7.63-32.25-13.29-46.85-22.92-2.93-1.98-6.21-4.39-8.84-6.76-6.39-5.41-11.25-12.38-16.32-18.7-18.41-23.26-47.79-32.76-75.03-41.66h0Z" class="cls-40"></path>
    </g>
    <g>
      <path d="M239.12,597.22h-21.33s4.15-75.26,33.78-106.67c29.63-31.41,64.6-38.52,64.6-38.52l-34.37,123.27-42.67,21.93Z" class="cls-31"></path>
      <polygon points="438.66 595.99 471.12 607.45 431.72 475.73 416.31 473.36 438.66 595.99" class="cls-31"></polygon>
      <g>
        <path d="M791.44,585.96s-87.42-229.48-342.15-177.38c-15.89,3.25-32.5,1.15-46.71-6.66-2.63-1.44-5.36-3.1-8.2-5.01-25.48-17.19-151.71-30.82-225.79,31.41-74.08,62.23-109.04,215.71-109.04,215.71h124.45s34.37-90.67,80-139.27c0,0-49.78,97.78-52.15,145.19,0,0,67.56,11.85,144.6-2.37,77.04-14.22,83.56-4.15,83.56-4.15,0,0-.59-90.08-11.26-156.45,0,0,35.56,144.6,71.71,153.49,36.15,8.89,128.01-1.19,171.27-11.85,43.26-10.67,119.71-42.67,119.71-42.67Z" class="cls-68"></path>
        <g class="cls-62">
          <path d="M64.15,646.44c24.25-35.7,48.6-71.53,77.6-103.49,29-31.96,63.02-60.13,102.54-77.44,10.48-4.59,21.68-8.46,33.09-7.66s23.06,7.26,26.99,18c4.78,13.09-2.79,27.07-9.04,39.52-18.97,37.81-27.43,80.84-24.19,123.02,47.79-11.72,95.47-19.2,144.45-14.57-7.44-26.94-14.94-54.29-14.88-82.24.05-27.95,8.61-57.07,28.97-76.22,23.92,31.61,42.62,67.25,53.44,105.38,3.82,13.47,7.45,28.28,18.56,36.79,9.33,7.15,21.87,8.15,33.62,8.4,69.71,1.49,139.72-13.81,202.45-44.25,9.76-4.74,16.19-12.22,25.09-18.43-45.16-74.71-138.44-140.07-225.63-144.51-32.69-1.66-73.52,18.15-106.08,14.82-44.66-4.58-59.28-30.83-103.71-37.34-74.19-10.86-167.31,19.27-220.43,72.18-53.12,52.91-79.42,131.49-68.85,205.72,11.53-.96,19.51-8.13,26.01-17.7Z" class="cls-32"></path>
        </g>
        <path d="M791.44,585.96s-87.42-229.48-342.15-177.38c-15.89,3.25-32.5,1.15-46.71-6.66-2.63-1.44-5.36-3.1-8.2-5.01-25.48-17.19-151.71-30.82-225.79,31.41-74.08,62.23-109.04,215.71-109.04,215.71h124.45s34.37-90.67,80-139.27c0,0-49.78,97.78-52.15,145.19,0,0,67.56,11.85,144.6-2.37,77.04-14.22,83.56-4.15,83.56-4.15,0,0-.59-90.08-11.26-156.45,0,0,35.56,144.6,71.71,153.49,36.15,8.89,128.01-1.19,171.27-11.85,43.26-10.67,119.71-42.67,119.71-42.67Z" class="cls-18"></path>
      </g>
      <path d="M235.03,423.61c44.15-8.16,92.2-15.85,134.54,3.64,11.75,5.25,22.81,11.24,35.07,14.28,0,0,4.04,1.03,4.04,1.03l4.1.81c1.03.23,3.08.58,4.12.71,5.27.86,11.36,1.36,16.68,1.66,16.2.77,34.43-.39,50.78-1.11,85.57-4.73,172.18,28.23,233.29,88.21,0,0,11.83,12.26,11.83,12.26,0,0,11.03,12.96,11.03,12.96,0,0-11.56-12.47-11.56-12.47,0,0-12.17-11.84-12.17-11.84l-12.8-11.13c-56.6-46.45-129.16-73.72-202.53-73.61-24.56-.13-49.61,3-74.54.74-1.44-.16-4.96-.56-6.43-.72-2.35-.38-6.2-.91-8.52-1.44,0,0-4.23-.88-4.23-.88,0,0-4.19-1.1-4.19-1.1-18.21-4.69-33.43-15.64-51.1-21.15-38.05-12.08-78.66-6.23-117.41-.83h0Z" class="cls-40"></path>
    </g>
  </g>
  <g>
    <g>
      <path d="M332.55,679.55l2.63,2.01c27.47-36.01,60.14-62.12,94.49-75.5,18.59-7.24,38.75-11.28,58.24-15.18,26.71-5.35,54.34-10.88,78.29-24.76l-1.66-2.86c-23.48,13.6-50.83,19.08-77.28,24.37-19.63,3.93-39.93,7.99-58.79,15.34-34.92,13.6-68.09,40.08-95.92,76.58Z" class="cls-16"></path>
      <g>
        <path d="M587.48,521.03s-4.7,8.02-8.53,16.27c-3.37,7.25-7.15,22.61-5.58,24.4,1.57,1.78,3.97,1.64,6.37-1.39,2.41-3.03,4.17-11.47,6.7-15.62,5.33-8.75,1.04-23.66,1.04-23.66Z" class="cls-7"></path>
        <path d="M579.12,570.19s20.24,4.26,25.2,4.81c5.88.65,14.01-7.78,14.01-7.78,0,0-12.59-4.54-16.83-5.15-4.25-.61-21.72,3.55-24.18,4.96-2.45,1.4,1.8,3.17,1.8,3.17Z" class="cls-5"></path>
        <path d="M570.24,559.63s20.91-1.27,29.46-4.47c10.34-3.86,11.89-19.93,11.89-19.93,0,0-9.97,4.07-16.87,6.97-6.9,2.9-24.48,17.42-24.48,17.42Z" class="cls-6"></path>
        <path d="M579.77,578.82s6.33,7.26,8.15,15.34c2.17,9.66,9.92,15.76,9.92,15.76,0,0,5.85-23.82-.72-28.31-6.56-4.5-11.98-9.74-11.98-9.74,0,0-6.33-.92-8.1.19-1.77,1.11,2.73,6.77,2.73,6.77Z" class="cls-4"></path>
        <path d="M580.6,576.32c4.03.73,7.9,3.27,9.93,6.91,2.46,4.62,4.09,9.64,5.02,14.78-.98-2.1-1.87-4.22-2.77-6.33-1.4-3.1-2.55-6.3-4.39-9.14-1.92-2.78-4.71-4.74-7.78-6.23h0Z" class="cls-37"></path>
        <path d="M578.33,575.99c7.62.8,11.14,9.44,11.99,16.14-1.36-2.77-3.26-6.68-4.66-9.38-1.59-3.02-4.1-5.47-7.33-6.76h0Z" class="cls-37"></path>
        <path d="M582.6,577.1c7.57.99,13.13,8.27,14.52,15.44-.88-1.63-1.79-3.2-2.76-4.73-2.87-4.56-6.92-8.29-11.76-10.71h0Z" class="cls-37"></path>
        <g class="cls-67">
          <path d="M581.93,571.55c7.76-3.95,16.8-4.95,25.36-3.75-3.7.6-9.02,1.01-12.79,1.39-4.23.47-8.4,1.41-12.57,2.36h0Z" class="cls-37"></path>
        </g>
        <g class="cls-67">
          <path d="M575.12,561.04c4.49-2.95,9.3-5.47,14.29-7.44,4.87-2.03,9.17-5.19,12.98-8.87-2.89,4.6-7.38,8.21-12.42,10.24-5.02,1.89-9.85,4.08-14.84,6.07h0Z" class="cls-37"></path>
        </g>
        <g class="cls-67">
          <path d="M576.35,559.24c1.46-5.17,3.44-10.24,5.92-15,2.35-4.73,3.51-9.94,3.99-15.22.82,5.37-.19,11.04-2.67,15.89-2.55,4.73-4.77,9.55-7.23,14.33h0Z" class="cls-37"></path>
        </g>
        <g class="cls-67">
          <path d="M574.49,557.53c.21-4.68,1.18-9.54,4.29-13.28.73-.88,1.86-1.48,2.64-2.28,2.38-2.4,2.78-5.84,2.7-9.22.86,2.18,1.03,4.7.29,7.07-.36,1.19-1.05,2.3-1.94,3.21-.84.86-1.86,1.3-2.64,2.19-3.04,3.38-4.25,7.97-5.34,12.31h0Z" class="cls-37"></path>
        </g>
        <g class="cls-67">
          <path d="M571.18,561.74c4.49-2.95,9.3-5.47,14.29-7.44,4.88-2.03,9.16-5.19,12.98-8.87-2.89,4.6-7.38,8.21-12.42,10.24-5.02,1.89-9.85,4.08-14.84,6.07h0Z" class="cls-37"></path>
        </g>
        <path d="M571.72,557.22s10.82-16.37,10.49-22.95c-.51-10.12-12.93-15.4-12.93-15.4,0,0,4.15,6.99,2.05,18.43-.83,4.5.4,19.92.4,19.92Z" class="cls-12"></path>
        <path d="M568.37,564.53s10.75,5.65,29.82,1.37c8.91-2,19.4-8.87,19.4-8.87,0,0-14.42-6.27-21.76-4.78s-27.46,12.28-27.46,12.28Z" class="cls-1"></path>
        <path d="M569.4,570.69s18.39,10.59,27.45,11.96c9.06,1.37,21.57,5.96,21.57,5.96,0,0-6.25-18.46-18.89-19.5-7.49-.61-30.14,1.59-30.14,1.59Z" class="cls-2"></path>
        <path d="M569.36,562.21s15.51-7.6,22.94-12.87c7.43-5.27,5.92-27.4,5.92-27.4,0,0-7.21,11.45-13.37,15.67-6.17,4.22-15.49,24.6-15.49,24.6Z" class="cls-3"></path>
        <path d="M574.32,564.22c8.8-2.67,17.89-4.36,27.07-5.01-8.8,2.68-17.89,4.36-27.07,5.01h0Z" class="cls-37"></path>
        <path d="M574.32,564.22c6.67-.96,13.48-.9,20.13.2-6.67.97-13.48.89-20.13-.2h0Z" class="cls-37"></path>
        <path d="M574.32,564.22c5.09-3.23,10.72-5.58,16.59-6.91-5.08,3.24-10.72,5.58-16.59,6.91h0Z" class="cls-37"></path>
        <path d="M571.81,559.85c5.23-6.82,10.49-13.63,16.31-20.01-1.92,3.9-4.52,7.39-7.22,10.77-2.8,3.26-5.57,6.74-9.09,9.23h0Z" class="cls-37"></path>
        <path d="M572.5,559.98c5.08-4.38,9.76-9.59,15.22-13.49-4.08,5.43-8.89,10.73-15.22,13.49h0Z" class="cls-37"></path>
        <path d="M572.13,559.57c2.14-5.62,5.25-10.87,9.17-15.44-2.14,5.63-5.26,10.86-9.17,15.44h0Z" class="cls-37"></path>
        <path d="M573.34,568.98c-.09.28.2.47.39.63,1.58,1.08,3.41,1.75,5.15,2.51,6.13,2.47,12.33,4.64,18.81,6.04-6.73.28-13.37-1.97-19.3-4.99-1.71-.95-3.49-1.93-4.81-3.4-.15-.21-.41-.53-.23-.79h0Z" class="cls-37"></path>
        <path d="M573.44,569.67c5.75,3.37,12.42,6.28,17.81,10.19-6.51-2.16-13.11-5.05-17.81-10.19h0Z" class="cls-37"></path>
        <path d="M573.72,569.19c2.96.8,5.61,2.32,8.62,2.82,2.97.61,6,.65,9.04,1.03-6.47,1.83-12.55.49-17.66-3.85h0Z" class="cls-37"></path>
        <path d="M569.97,559.09c.2.23.4-.03.5-.22,2.45-7.2,1.69-14.92,1.76-22.47,1.99,6.65,2.18,14.13-.38,20.66-.22.47-1.28,2.78-1.88,2.03h0Z" class="cls-37"></path>
        <path d="M570.5,558.79c2.02-6.44,3.49-13.21,4.62-19.86.95,6.84-.67,14.17-4.62,19.86h0Z" class="cls-37"></path>
        <path d="M558.66,563c13.59-6.6,12.82-15.48,13.51-16.68,0,0-2.27,6.61,1.46,8.26,1.52.67,12.71-3.1,12.71-3.1,0,0-12.03,9.74-10.52,11.43,1.51,1.7,10.94.02,10.94.02,0,0-9.47,6.24-8.81,8.3.66,2.06,8.63,7.08,8.63,7.08,0,0-15.56-.84-21.7-2.54-4.15-1.15-9.31-2.35-9.95-6.75-.35-2.4,1.54-4.95,3.72-6.01Z" class="cls-16"></path>
      </g>
    </g>
    <g>
      <path d="M521.04,619.97c-10.35-2.11-20.31-6.08-29.27-11.67-2.16-1.35-4.29-2.81-5.96-4.72-1.68-1.92-2.88-4.34-2.9-6.89-.01-1.59.36-3.43-.74-4.59,7.46-2.85,15.46-2.66,22.35,1.56,9.15,5.61,15.44,15.64,16.52,26.31Z" class="cls-16"></path>
      <g>
        <path d="M482.12,592.45c2.68-.48,5.45.11,8.02,1.02,9.57,3.4,16.98,10.97,24.02,18.3" class="cls-36"></path>
        <path d="M482.12,592.45c12.17-2.4,25.16,10.59,32.04,19.32-2.44-2.12-4.82-4.3-7.21-6.43-6.62-5.69-15.67-13.15-24.82-12.89h0Z" class="cls-38"></path>
      </g>
    </g>
  </g>
</svg>