<svg viewBox="0 0 843 535.61" version="1.1" xmlns:xlink="http://www.w3.org/1999/xlink" xmlns="http://www.w3.org/2000/svg">
  <defs>
    <style>
      .cls-1 {
        fill: #326034;
      }

      .cls-1, .cls-2, .cls-3, .cls-4, .cls-5, .cls-6, .cls-7, .cls-8, .cls-9, .cls-10, .cls-11, .cls-12, .cls-13, .cls-14 {
        stroke-width: 0px;
      }

      .cls-15 {
        fill: url(#Degradado_sin_nombre_7-3);
      }

      .cls-15, .cls-16, .cls-17, .cls-18, .cls-19, .cls-20, .cls-21, .cls-22, .cls-23, .cls-24, .cls-25, .cls-26, .cls-27, .cls-28, .cls-29, .cls-30, .cls-31, .cls-32, .cls-33, .cls-34, .cls-35, .cls-36 {
        stroke: #000;
        stroke-miterlimit: 10;
      }

      .cls-15, .cls-16, .cls-17, .cls-18, .cls-19, .cls-20, .cls-23, .cls-26, .cls-27, .cls-30, .cls-31, .cls-35 {
        stroke-width: 1.5px;
      }

      .cls-16 {
        fill: url(#Degradado_sin_nombre_7-2);
      }

      .cls-17 {
        fill: url(#Degradado_sin_nombre_8-4);
      }

      .cls-18 {
        fill: url(#Degradado_sin_nombre_8-2);
      }

      .cls-19 {
        fill: url(#Degradado_sin_nombre_8-5);
      }

      .cls-20 {
        fill: url(#Degradado_sin_nombre_8-3);
      }

      .cls-2 {
        opacity: .22;
      }

      .cls-2, .cls-9 {
        fill: #000;
      }

      .cls-21, .cls-22, .cls-24 {
        stroke-width: 3.43px;
      }

      .cls-21, .cls-37, .cls-7, .cls-32 {
        fill: #395e24;
      }

      .cls-3 {
        fill: #1b381d;
      }

      .cls-38 {
        clip-path: url(#clippath);
      }

      .cls-4 {
        fill: #49752b;
      }

      .cls-22, .cls-28, .cls-33, .cls-35 {
        fill: none;
      }

      .cls-39, .cls-24, .cls-29, .cls-11 {
        fill: #46772d;
      }

      .cls-23, .cls-40 {
        fill: #274e2a;
      }

      .cls-25, .cls-6, .cls-31, .cls-41 {
        fill: #4c8231;
      }

      .cls-25, .cls-33, .cls-36 {
        stroke-width: 1.87px;
      }

      .cls-26 {
        fill: url(#Degradado_sin_nombre_7);
      }

      .cls-27 {
        fill: url(#Degradado_sin_nombre_8);
      }

      .cls-5 {
        fill: #0e280e;
      }

      .cls-42 {
        clip-path: url(#clippath-1);
      }

      .cls-43 {
        clip-path: url(#clippath-4);
      }

      .cls-44 {
        clip-path: url(#clippath-3);
      }

      .cls-45 {
        clip-path: url(#clippath-2);
      }

      .cls-46 {
        clip-path: url(#clippath-7);
      }

      .cls-47 {
        clip-path: url(#clippath-8);
      }

      .cls-48 {
        clip-path: url(#clippath-6);
      }

      .cls-49 {
        clip-path: url(#clippath-5);
      }

      .cls-50 {
        clip-path: url(#clippath-9);
      }

      .cls-8 {
        fill: #5d1d6d;
      }

      .cls-51 {
        clip-path: url(#clippath-14);
      }

      .cls-52 {
        clip-path: url(#clippath-13);
      }

      .cls-53 {
        clip-path: url(#clippath-12);
      }

      .cls-54 {
        clip-path: url(#clippath-10);
      }

      .cls-55 {
        clip-path: url(#clippath-15);
      }

      .cls-56 {
        clip-path: url(#clippath-11);
      }

      .cls-28, .cls-29, .cls-32 {
        stroke-width: 2.19px;
      }

      .cls-30 {
        fill: #0f2814;
      }

      .cls-10 {
        fill: url(#Degradado_sin_nombre_13);
        mix-blend-mode: multiply;
        opacity: .34;
      }

      .cls-12 {
        fill: #456630;
      }

      .cls-57 {
        opacity: .56;
      }

      .cls-34 {
        fill: #1a491f;
        stroke-width: 2.86px;
      }

      .cls-13 {
        fill: #629b42;
      }

      .cls-58 {
        isolation: isolate;
      }

      .cls-36, .cls-59 {
        fill: #4d8231;
      }

      .cls-14 {
        fill: #578c36;
      }
    </style>
    <clipPath id="clippath">
      <path d="M550.05,101.27c8.4,30.77,21.34,60.29,38.29,87.31,5.47,8.72,11.74,17.53,20.91,22.21,10.16,5.18,22.29,4.47,33.53,2.51,32.62-5.7,62.95-20.74,90.71-38.79,27.76-18.05,53.37-39.18,80.16-58.63,7.17-5.21,14.5-10.33,22.6-13.92-30.83,3.13-57.15,13.77-85.7,25.82-33.24,14.03-67.75,26.18-103.67,29.64-6.25.6-13.11.78-18.18-2.92-16.83-12.3-23.51-35.74-41.64-46.03-10.8-6.13-24.6-7.01-37.01-7.2Z" class="cls-29"></path>
    </clipPath>
    <clipPath id="clippath-1">
      <path d="M550.03,99.94c17.57,17.56,41.21,32.13,65.84,28.88,15.8-2.09,29.68-11.19,42.73-20.34,44.54-31.26,86.62-66.01,125.72-103.84-52.05,27.7-103.22,53.87-156.57,78.98-16.35,7.69-33.64,15.31-51.67,14.25-8.1-.48-17.95,1.49-26.04,2.08Z" class="cls-32"></path>
    </clipPath>
    <clipPath id="clippath-2">
      <path d="M503.53,130.81c-3.66,19.91-12.66,38.82-25.81,54.22-6.39,7.49-14.07,14.36-23.46,17.32-11.12,3.5-23.28,1.12-34.18-3-31-11.74-56.13-38.03-66.45-69.53,7.27,12.35,16.88,20.5,29.4,27.46s27.57,9.79,41.51,6.49c27.32-6.46,44.64-33.68,70.09-45.53,3.45-1.6,8.11-2.68,10.58.21" class="cls-29"></path>
    </clipPath>
    <clipPath id="clippath-3">
      <path d="M507.55,116.51c10.87,29.99,17.3,61.58,19.02,93.42.56,10.28.51,21.09-4.29,30.2-5.32,10.09-15.64,16.5-25.96,21.37-29.94,14.14-63.4,19.31-96.49,20.56-33.09,1.25-66.19-1.27-99.3-1.73-8.86-.12-17.8-.09-26.49,1.65,27-15.21,54.65-21.68,84.92-28.28,35.25-7.69,70.46-17.64,101.81-35.51,5.46-3.11,11.16-6.91,13.17-12.86,6.67-19.75-1.37-42.76,7.51-61.61,5.29-11.23,16.06-19.91,26.1-27.21Z" class="cls-29"></path>
    </clipPath>
    <clipPath id="clippath-4">
      <path d="M511.78,125.77c-10.27,17.45-25.21,32.12-42.84,42.08-8.58,4.84-18.14,8.66-27.98,8.22-11.64-.52-22.25-6.93-31.07-14.55-25.09-21.66-39.67-54.98-38.56-88.11,2.59,14.09,8.82,25.04,18.19,35.88,9.37,10.84,22.53,18.65,36.76,20.34,27.88,3.3,53.49-16.32,81.46-18.72,3.79-.32,8.54.27,9.86,3.83" class="cls-29"></path>
    </clipPath>
    <clipPath id="clippath-5">
      <path d="M749.41,254.98s-24.22-102.12-81.04-144.75c-56.82-42.63-148.34-47.18-199.28-7.93,0,0,95.58-4.57,125.42,19.05l-26.43,13.85s100.29,58.46,147.26,107.45c7.23,7.54,15.53,14,24.74,18.93.26.14.51.27.77.41,4.68,2.45,10.02-1.92,8.57-7h0Z" class="cls-23"></path>
    </clipPath>
    <clipPath id="clippath-6">
      <path d="M606.85,259.01s1.03,15.74-5.77,39.73c-6.8,23.99-8.44,120.24-8.44,120.24,0,0-38.34-107.08-29.61-146.63,8.73-39.55,20.99-43.6,20.99-43.6" class="cls-25"></path>
    </clipPath>
    <clipPath id="clippath-7">
      <path d="M629.56,294.2c13.96,18.55,16.88,41.12,21.1,63.25,3.85,20.16,10.69,39.46,18.09,58.56,9.72,25.09,20.44,49.87,32,74.16,0,0-67.59-64.84-83.05-112.59-14.94-46.16,5.42-91.93,5.42-91.93,0,0,6.43,8.54,6.43,8.54Z" class="cls-25"></path>
    </clipPath>
    <clipPath id="clippath-8">
      <path d="M531.22,165.17l12.08,13.06s-1.22,19.14-6.77,42.06c-5.55,22.92-11.86,85.24-6.64,111.07,4.46,22.07-22.25-49.78-18-103.1.92-11.51,4.22-22.69,9.17-33.13,4.08-8.6,9.87-22.1,10.15-29.97Z" class="cls-25"></path>
    </clipPath>
    <clipPath id="clippath-9">
      <path d="M520.9,153.68s4.91,13.54-8.73,39.55c-13.64,26.01-23.59,102.7-18.64,127.22,0,0-34.14-86.3-10.85-134.18,20.91-43,18.67-53.79,18.67-53.79l19.55,21.2Z" class="cls-36"></path>
    </clipPath>
    <clipPath id="clippath-10">
      <path d="M453,72.92c3.82,4.09,4.33,13.08,5.87,18.22,4.97,16.62,9.63,33.71,8.91,51.23-.51,12.54-2.58,25.11-3.81,37.6-2.51,25.43-6.77,55.32,2.09,79.99,0,0-28.24-13.92-38.25-63.49-10.01-49.58,17.78-131.49,17.78-131.49,0,0,7.4,7.93,7.42,7.95Z" class="cls-25"></path>
    </clipPath>
    <clipPath id="clippath-11">
      <path d="M635.98,304.37c2.64,7.65,12.1,16.16,19.86,18.45,7.76,2.29,16.09,3.37,22.91,7.73,7,4.48,11.5,11.83,16.63,18.37,5.13,6.54,13.31,14.73,21.59,15.32-16.16-11.84-18.35-36.46-34.22-48.7-5.73-4.42-12.73-6.78-19.45-9.45-13.8-5.49-26.97-12.57-39.15-21.07l11.82,19.35Z" class="cls-25"></path>
    </clipPath>
    <clipPath id="clippath-12">
      <path d="M583.22,229.14c22.78,1,45.32,6.93,65.65,17.25,10.32,5.24,20.15,11.66,28.23,19.94,4.27,4.38,8.03,9.23,11.73,14.1,10.9,14.32,21.5,28.86,31.8,43.61,5.37,7.7,10.79,15.58,18.22,21.32-28.09-12.59-49.49-37.04-72.41-57.57-10.56-9.46-22.66-18.59-36.79-19.78-7.65-.64-17.22-3.71-22.8-8.99" class="cls-25"></path>
    </clipPath>
    <clipPath id="clippath-13">
      <path d="M494.34,124.82c10.33,8.58,23.7,12.71,36.98,14.68,13.29,1.97,26.78,1.99,40.14,3.43,18.25,1.97,36.41,6.69,52.4,15.7,8.77,4.94,16.79,11.1,24.51,17.56,17.03,14.24,32.88,30.07,51.54,42.09-20.6-5.61-38.64-19.53-58.14-28.2-12.53-5.58-26-9.04-39.66-10.19-19.9-1.68-40.15,1.47-59.78-2.18-17.03-17.16-32.65-34.18-47.98-52.88Z" class="cls-25"></path>
    </clipPath>
    <linearGradient gradientUnits="userSpaceOnUse" gradientTransform="translate(-440.54 -1758.37) rotate(-159.85)" y2="-1803.07" x2="-1353.49" y1="-1803.07" x1="-1377.89" data-name="Degradado sin nombre 8" id="Degradado_sin_nombre_8">
      <stop stop-color="#8a2e94" offset=".17"></stop>
      <stop stop-color="#663572" offset=".74"></stop>
    </linearGradient>
    <linearGradient xlink:href="#Degradado_sin_nombre_8" y2="-1798.26" x2="-1381.08" y1="-1798.26" x1="-1408.58" data-name="Degradado sin nombre 8" id="Degradado_sin_nombre_8-2"></linearGradient>
    <linearGradient xlink:href="#Degradado_sin_nombre_8" y2="-1806.89" x2="-1370.91" y1="-1806.89" x1="-1387.99" data-name="Degradado sin nombre 8" id="Degradado_sin_nombre_8-3"></linearGradient>
    <linearGradient xlink:href="#Degradado_sin_nombre_8" y2="-1779.62" x2="-1384.7" y1="-1779.62" x1="-1426.84" data-name="Degradado sin nombre 8" id="Degradado_sin_nombre_8-4"></linearGradient>
    <linearGradient xlink:href="#Degradado_sin_nombre_8" y2="-1799.06" x2="-1339.79" y1="-1799.06" x1="-1370.09" data-name="Degradado sin nombre 8" id="Degradado_sin_nombre_8-5"></linearGradient>
    <linearGradient gradientUnits="userSpaceOnUse" gradientTransform="translate(-511.67 -1417.16) rotate(-171.1)" y2="-1687.54" x2="-1017.29" y1="-1687.54" x1="-1035.75" data-name="Degradado sin nombre 7" id="Degradado_sin_nombre_7">
      <stop stop-color="#9236a0" offset=".17"></stop>
      <stop stop-color="#7f368c" offset="1"></stop>
    </linearGradient>
    <linearGradient xlink:href="#Degradado_sin_nombre_7" gradientTransform="translate(-460.97 -768.76) rotate(167.9)" y2="-1296.53" x2="-445.95" y1="-1296.53" x1="-471.58" data-name="Degradado sin nombre 7" id="Degradado_sin_nombre_7-2"></linearGradient>
    <linearGradient xlink:href="#Degradado_sin_nombre_7" gradientTransform="translate(-302.16 -2082.35) rotate(-148.34)" y2="-1844.38" x2="-1749.35" y1="-1844.38" x1="-1763.38" data-name="Degradado sin nombre 7" id="Degradado_sin_nombre_7-3"></linearGradient>
    <clipPath id="clippath-14">
      <path d="M20.48,294.6c-12.1,34.17-16.83,84.78-16.83,84.78l21,1.1s-8.98-.47-19.84,20c-12.73,24,17.73,130.75,18.77,134.37-.18-.86-.07-7.5,41.03-20.41,44.17-13.87,73.97-44.67,73.97-44.67l-1.67-13.03c7.86,6.88,19.65,5.88,19.65,5.88,61.3-49.38,75.1-124.16,75.1-124.16l-26.45-42.49,26.63,7.17c19.05-90.02-60.05-147.92-80.58-161.25-2.87-1.87-5.62-3.81-8.33-5.79-7.79-5.68-26.91-16.8-43.08-3.29-54.01,45.1-50.85,119.01-50.85,119.01l15.22.8c-2.39.76-5.55,2.29-8.95,4.14-17.38,9.49-29.48,22.84-34.8,37.85ZM62.65,382.19c1.67-1.08,3.38-2.18,5.5-2.79,2.12-.61,4.77-.64,6.68.33,3.68,1.87,2.46,5.73.85,8.58-3.68,6.49-7.44,13.09-13.73,18.49-5.34,4.59-28.47,16.12-34.45,5.36-1.29-2.32-.52-4.93,1.19-7.03,1.72-2.09,4.29-3.77,6.83-5.41,9.04-5.84,18.08-11.69,27.12-17.53Z" class="cls-21"></path>
    </clipPath>
    <clipPath id="clippath-15">
      <path d="M287.79,136.78c-3.41,2.28-6.36,4.5-8.16,6.35l5.13-14.36s-81.22-36.48-152.91-7.32c-21.47,8.73-16.63,31.36-13.37,41.1,1.14,3.39,2.23,6.8,3.17,10.29,6.76,24.93,40.1,123.94,148.09,147.32l2.53-27.74,36.95,43.62s88.92,21.28,168.25-12.63c0,0,5.78-10.39,1.21-20.74l13.88,7.45s46.15-13.4,79.09-47.7c30.65-31.92,38.1-29,38.99-28.44-3.63-2.6-110.71-79.09-142.53-78.29-27.13.68-30.16,9.15-30.16,9.15l7.08-19.81s-58.35-18.64-101.26-23.04c-18.85-1.93-38.53,3.12-55.99,14.79ZM455.14,183.57c2.83-1.59,5.72-3.19,8.73-3.82,3.02-.63,6.24-.14,8.31,2.09,9.65,10.38-12.37,26.41-19.6,29.23-8.52,3.32-17.36,3.79-26.06,4.22-3.81.19-8.6-.45-9.23-4.68-.33-2.2.75-4.62,2.27-6.29,1.52-1.67,3.42-2.75,5.29-3.79,10.1-5.65,20.19-11.31,30.29-16.96Z" class="cls-24"></path>
    </clipPath>
    <linearGradient gradientUnits="userSpaceOnUse" gradientTransform="translate(-4649.25 1611.91) rotate(146.33)" y2="-1661.17" x2="-4715.16" y1="-1661.17" x1="-5176.63" data-name="Degradado sin nombre 13" id="Degradado_sin_nombre_13">
      <stop stop-color="#487c25" offset=".3"></stop>
      <stop stop-color="#3d6c1f" offset=".48"></stop>
      <stop stop-color="#264a13" offset=".9"></stop>
    </linearGradient>
  </defs>
  <g class="cls-58">
    <g data-name="Capa 2" id="Capa_2">
      <g>
        <g>
          <g>
            <path d="M550.05,101.27c8.4,30.77,21.34,60.29,38.29,87.31,5.47,8.72,11.74,17.53,20.91,22.21,10.16,5.18,22.29,4.47,33.53,2.51,32.62-5.7,62.95-20.74,90.71-38.79,27.76-18.05,53.37-39.18,80.16-58.63,7.17-5.21,14.5-10.33,22.6-13.92-30.83,3.13-57.15,13.77-85.7,25.82-33.24,14.03-67.75,26.18-103.67,29.64-6.25.6-13.11.78-18.18-2.92-16.83-12.3-23.51-35.74-41.64-46.03-10.8-6.13-24.6-7.01-37.01-7.2Z" class="cls-39"></path>
            <g class="cls-38">
              <path d="M535.57,109.17c-1.08-2.79,1.04-6.03,3.83-7.11,2.79-1.08,5.94-.51,8.79.41,16.07,5.19,26.76,20.16,35.05,34.88,8.29,14.71,15.84,30.67,29.38,40.75,18.09,13.47,43.35,13.35,64.77,6.27,21.41-7.08,40.21-20.17,59.72-31.49,42.61-24.71,89.84-41.4,138.51-48.94-16.82-11.39-36.97-16.7-56.88-20.71-62.05-12.49-125.99-14.24-187.64-28.55-16.54-3.84-34.21-8.52-50.06-2.41-16.07,6.2-26.1,21.91-35,36.66" class="cls-7"></path>
              <path d="M549.46,99.61c31.42,21.35,28.76,69.93,68.05,84.33,17.21,6.68,36.53,5.93,54.22,1.47,18.02-4.41,35.02-12.21,52.37-18.69-17.08,7.37-33.9,15.5-51.95,20.32-26.54,7.45-59.6,5.18-78.34-17.32-18.2-21.18-21.17-52.91-44.35-70.11h0Z" class="cls-9"></path>
            </g>
            <path d="M550.05,101.27c8.4,30.77,21.34,60.29,38.29,87.31,5.47,8.72,11.74,17.53,20.91,22.21,10.16,5.18,22.29,4.47,33.53,2.51,32.62-5.7,62.95-20.74,90.71-38.79,27.76-18.05,53.37-39.18,80.16-58.63,7.17-5.21,14.5-10.33,22.6-13.92-30.83,3.13-57.15,13.77-85.7,25.82-33.24,14.03-67.75,26.18-103.67,29.64-6.25.6-13.11.78-18.18-2.92-16.83-12.3-23.51-35.74-41.64-46.03-10.8-6.13-24.6-7.01-37.01-7.2Z" class="cls-28"></path>
          </g>
          <g>
            <path d="M550.03,99.94c17.57,17.56,41.21,32.13,65.84,28.88,15.8-2.09,29.68-11.19,42.73-20.34,44.54-31.26,86.62-66.01,125.72-103.84-52.05,27.7-103.22,53.87-156.57,78.98-16.35,7.69-33.64,15.31-51.67,14.25-8.1-.48-17.95,1.49-26.04,2.08Z" class="cls-37"></path>
            <g class="cls-42">
              <path d="M546.75,93.73c10.48,3.51,19.48,10.5,29.84,14.35,15.93,5.92,33.94,3.9,49.84-2.09,15.9-5.99,30.09-15.68,44.07-25.34,28.71-19.83,57.26-39.88,85.82-59.94,17.03-11.96,31.9-26.87,49.44-38.08,3.56-2.27,7.45-4.46,11.68-4.44-15.62,41.8-38.89,81.7-73.02,110.45-22.66,19.08-48.04,34.91-75.14,46.86-20.29,8.95-42.48,15.81-64.41,12.57-8.63-1.28-16.96-4.09-25.08-7.28-14.96-5.89-29.98-13.6-39.45-26.6" class="cls-2"></path>
              <path d="M551.63,99.72c23.61,14.52,53.63,12.92,78.49,2.46,25.11-10.7,47.62-26.61,70.26-41.71,15.06-10.29,29.81-21,44.6-31.67-14.24,11.41-28.79,22.44-43.64,33.05-22.51,15.55-45.07,31.66-70.49,42.17-25.13,10.46-56.1,11.5-79.23-4.31h0Z" class="cls-9"></path>
            </g>
            <path d="M550.03,99.94c17.57,17.56,41.21,32.13,65.84,28.88,15.8-2.09,29.68-11.19,42.73-20.34,44.54-31.26,86.62-66.01,125.72-103.84-52.05,27.7-103.22,53.87-156.57,78.98-16.35,7.69-33.64,15.31-51.67,14.25-8.1-.48-17.95,1.49-26.04,2.08Z" class="cls-28"></path>
          </g>
          <g>
            <path d="M503.53,130.81c-3.66,19.91-12.66,38.82-25.81,54.22-6.39,7.49-14.07,14.36-23.46,17.32-11.12,3.5-23.28,1.12-34.18-3-31-11.74-56.13-38.03-66.45-69.53,7.27,12.35,16.88,20.5,29.4,27.46s27.57,9.79,41.51,6.49c27.32-6.46,44.64-33.68,70.09-45.53,3.45-1.6,8.11-2.68,10.58.21" class="cls-39"></path>
            <g class="cls-45">
              <path d="M517.16,118.55c-.48-.93-.96-1.85-1.45-2.78-11.11,1.45-17.54,12.84-23.58,22.27-9.27,14.46-21.47,26.99-35.4,37.05-9.7,7.01-22.57,9.42-34.15,6.4-7.35-1.92-14-5.84-20.42-9.89-17.61-11.11-34.35-23.57-50.78-36.36-4.04-3.14-8.16-6.36-12.97-8.1-4.82-1.74-10.55-1.77-14.71,1.21-4.47,3.19-6.2,9.1-6.2,14.59-.01,15.79,11.3,29.06,22.32,40.38,13.2,13.57,27.08,26.75,43.36,36.41,16.28,9.66,35.3,15.62,54.13,13.65,23.12-2.42,44.06-16.88,57.02-36.17,12.97-19.29,18.46-42.95,18.43-66.2" class="cls-14"></path>
              <path d="M504.37,122.35c-11.94,18.53-23.65,37.69-40.12,52.68-9.33,8.78-17.75,12.07-30.68,11.51-11.17-.31-22.19-3.53-31.7-9.13,9.92,4.84,20.84,7.39,31.73,7.42,12.39.15,20.2-2.88,29.19-11.42,16.3-14.72,28.34-33.66,41.58-51.05h0Z" class="cls-9"></path>
            </g>
            <path d="M503.53,130.81c-3.66,19.91-12.66,38.82-25.81,54.22-6.39,7.49-14.07,14.36-23.46,17.32-11.12,3.5-23.28,1.12-34.18-3-31-11.74-56.13-38.03-66.45-69.53,7.27,12.35,16.88,20.5,29.4,27.46s27.57,9.79,41.51,6.49c27.32-6.46,44.64-33.68,70.09-45.53,3.45-1.6,8.11-2.68,10.58.21" class="cls-28"></path>
          </g>
          <g>
            <path d="M507.55,116.51c10.87,29.99,17.3,61.58,19.02,93.42.56,10.28.51,21.09-4.29,30.2-5.32,10.09-15.64,16.5-25.96,21.37-29.94,14.14-63.4,19.31-96.49,20.56-33.09,1.25-66.19-1.27-99.3-1.73-8.86-.12-17.8-.09-26.49,1.65,27-15.21,54.65-21.68,84.92-28.28,35.25-7.69,70.46-17.64,101.81-35.51,5.46-3.11,11.16-6.91,13.17-12.86,6.67-19.75-1.37-42.76,7.51-61.61,5.29-11.23,16.06-19.91,26.1-27.21Z" class="cls-39"></path>
            <g class="cls-44">
              <path d="M523.94,114.62c-.73-2.9-4.32-4.33-7.23-3.6-2.9.73-5.15,3.01-6.94,5.4-10.15,13.5-10.26,31.9-8.55,48.7s4.73,34.19-.53,50.24c-7.03,21.43-27.74,35.89-49.32,42.45s-44.49,6.68-66.95,8.68c-49.06,4.36-97.28,17.93-141.4,39.81,7.19-19,20.59-34.95,34.56-49.7,43.52-45.96,94.77-84.23,136.91-131.45,11.3-12.67,23.05-26.68,39.52-30.81,16.71-4.2,33.95,2.87,49.73,9.79" class="cls-7"></path>
              <path d="M507.08,114.81c-9.03,27.42,6.82,55.06,4.15,82.86-2.36,29.18-28.06,50.08-54.05,59.29-17.54,6.46-35.97,9.51-54.17,13.33,17.91-4.7,36.3-8.13,53.57-14.91,25.13-9.43,50.07-29.55,52.67-57.9,2.74-27.48-12.46-55.74-2.17-82.67h0Z" class="cls-9"></path>
            </g>
            <path d="M507.55,116.51c10.87,29.99,17.3,61.58,19.02,93.42.56,10.28.51,21.09-4.29,30.2-5.32,10.09-15.64,16.5-25.96,21.37-29.94,14.14-63.4,19.31-96.49,20.56-33.09,1.25-66.19-1.27-99.3-1.73-8.86-.12-17.8-.09-26.49,1.65,27-15.21,54.65-21.68,84.92-28.28,35.25-7.69,70.46-17.64,101.81-35.51,5.46-3.11,11.16-6.91,13.17-12.86,6.67-19.75-1.37-42.76,7.51-61.61,5.29-11.23,16.06-19.91,26.1-27.21Z" class="cls-28"></path>
          </g>
          <g>
            <path d="M511.78,125.77c-10.27,17.45-25.21,32.12-42.84,42.08-8.58,4.84-18.14,8.66-27.98,8.22-11.64-.52-22.25-6.93-31.07-14.55-25.09-21.66-39.67-54.98-38.56-88.11,2.59,14.09,8.82,25.04,18.19,35.88,9.37,10.84,22.53,18.65,36.76,20.34,27.88,3.3,53.49-16.32,81.46-18.72,3.79-.32,8.54.27,9.86,3.83" class="cls-39"></path>
            <g class="cls-43">
              <path d="M528.79,118.93c-.14-1.04-.27-2.07-.41-3.11-10.93-2.45-20.88,6.04-29.79,12.83-13.67,10.4-29.43,17.99-45.97,22.66-11.51,3.25-24.43,1.1-34.27-5.71-6.25-4.32-11.15-10.29-15.79-16.3-12.73-16.48-24.17-33.92-35.23-51.58-2.72-4.34-5.48-8.77-9.41-12.05-3.93-3.28-9.3-5.28-14.24-3.91-5.29,1.46-8.94,6.42-10.83,11.57-5.43,14.83.65,31.18,7.11,45.59,7.74,17.27,16.25,34.42,28.23,49.08,11.98,14.66,27.8,26.78,46.16,31.39,22.54,5.66,47.17-.74,65.97-14.41,18.8-13.67,32.08-34.01,40.02-55.86" class="cls-14"></path>
              <path d="M515.48,118.12c-17.58,13.31-35.15,27.29-55.76,35.72-11.78,5.04-20.82,5.25-32.77.28-10.38-4.12-19.63-10.93-26.65-19.45,7.66,7.95,17.04,14.09,27.26,17.85,11.56,4.39,19.99,4.22,31.33-.72,20.36-8.24,38.16-21.89,56.57-33.68h0Z" class="cls-9"></path>
            </g>
            <path d="M511.78,125.77c-10.27,17.45-25.21,32.12-42.84,42.08-8.58,4.84-18.14,8.66-27.98,8.22-11.64-.52-22.25-6.93-31.07-14.55-25.09-21.66-39.67-54.98-38.56-88.11,2.59,14.09,8.82,25.04,18.19,35.88,9.37,10.84,22.53,18.65,36.76,20.34,27.88,3.3,53.49-16.32,81.46-18.72,3.79-.32,8.54.27,9.86,3.83" class="cls-28"></path>
          </g>
          <g>
            <path d="M496.92,111.19c-18.31,7.98-32.11,25.53-35.56,45.2,6.22,1.41,12.83-.45,18.3-3.73,5.47-3.28,10.01-7.88,14.49-12.43-4.23,8.13-4.3,17.14-2.03,26.02,2.27,8.88,6.69,17.04,11.15,25.05,6.42-3.47,10.41-10.39,12.04-17.5,1.64-7.11,1.23-14.52.82-21.81-1.32,16.15,9.58,31.18,20.14,43.47,11.33,13.18,24.4,24.85,38.77,34.61-4.08-9.02-5.06-19.08-7.25-28.73-3.94-17.42-11.99-33.89-23.3-47.7,21.99,13.5,45.35,22.65,69.94,30.47-9.13-11.58-19.08-22.66-30.9-31.47-11.82-8.81-25.67-15.29-40.33-16.83,18.57,2.1,35.11-9.41,51.73-17.96-12.02,2.7-24.75-6.97-36.34-2.8,3.82-1.48,6.71-7.21,6.91-11.3.2-4.09-3.72-8.22-7.71-7.3" class="cls-11"></path>
            <path d="M496.92,111.19c-18.27,8.11-31.88,25.69-35.18,45.26,0,0-.29-.44-.29-.44,14.68,2.89,25.82-9.51,35.08-19.07-11.29,18.26-2.15,37.22,7.43,53.98,0,0-1.07-.31-1.07-.31,9.65-5.39,12.74-17.3,12.69-27.69.03-3.61-.17-7.23-.38-10.87l1.86.02c-.33,4.09.17,8.23,1.28,12.2,7.07,23.83,36.96,51.13,57.29,64.93,0,0-1.55,1.31-1.55,1.31-2.93-6.49-4.29-13.45-5.6-20.26-3.8-23.18-13.29-43-28.66-60.7,12.42,7.89,25.51,14.85,39.08,20.56,11.69,4.98,23.69,9.23,35.82,13.1l-1.03,1.49c-17.63-22.72-40.72-44.88-70.56-48.22,0,0,.15-1.33.15-1.33,9.17,1.11,18.34-1.38,26.71-5.03,8.47-3.68,16.47-8.42,24.76-12.62l.28.76c-3.08.68-6.27.54-9.32.05-6.1-.97-11.89-3.26-18.02-3.93-3.03-.33-6.15-.18-9.03.84l-.12-.31c1.98-.78,3.47-2.48,4.59-4.29,1.11-1.83,1.92-3.87,2.22-6,.8-4.2-3.11-9.06-7.55-8.15,4.47-.97,8.47,3.9,7.71,8.17-.68,4.18-2.81,8.72-6.85,10.59,0,0-.12-.31-.12-.31,12.1-4.24,24.12,5.3,36.31,2.56,0,0,3.13-.73,3.13-.73,0,0-2.86,1.49-2.86,1.49-12.29,6.39-24.19,14.38-37.95,17.42-4.58,1-9.34,1.36-14.04.84l.15-1.33c7.42.75,14.67,2.77,21.5,5.69,20.66,8.79,36.75,25.32,50.4,42.69,0,0,1.92,2.42,1.92,2.42-13.17-4.12-26.24-8.62-38.96-14.01-11.78-4.98-23.26-10.72-34.18-17.41l1.35-1.54c4.43,5.42,8.39,11.23,11.78,17.36,6.86,12.19,11.25,25.77,13.53,39.51,1.42,8.07,3.3,15.95,6.93,23.2-15.19-10.05-29.1-22.06-41.04-35.82-10.82-12.62-22.53-27.69-21.29-45.31,0,0,1.86.02,1.86.02,1.12,14.47.55,32.8-14.11,40.42-8.77-15.48-18.41-34.99-9.33-52.41,0,0,.95.69.95.69-6.63,6.75-14,13.98-23.62,16.06-3.28.73-6.75.8-10.03-.03,3.51-19.94,17.53-37.57,36.01-45.49h0Z" class="cls-9"></path>
          </g>
        </g>
        <g>
          <path d="M583.59,127.06s-63.82-8.22-91.9,2.36l-22.03-26.44c-.28-.34-.15-.85.27-1.01,8.33-3.11,76.58-27.52,114.63-5.66,40.57,23.31-.96,30.75-.96,30.75Z" class="cls-30"></path>
          <g>
            <path d="M749.41,254.98s-24.22-102.12-81.04-144.75c-56.82-42.63-148.34-47.18-199.28-7.93,0,0,95.58-4.57,125.42,19.05l-26.43,13.85s100.29,58.46,147.26,107.45c7.23,7.54,15.53,14,24.74,18.93.26.14.51.27.77.41,4.68,2.45,10.02-1.92,8.57-7h0Z" class="cls-40"></path>
            <g class="cls-49">
              <path d="M747.49,256.34c-10.2-43.24-26.15-87.89-60.58-115.97-19.09-15.57-42.55-24.84-66.24-31.58-59.03-16.8-122.11-19.15-182.23-6.77,32.44-33.9,78.41-52.64,125.29-50.7,46.88,1.94,92.5,24.86,122.03,61.32,34.06,42.04,51.43,90.58,61.73,143.7Z" class="cls-1"></path>
            </g>
            <path d="M749.41,254.98s-24.22-102.12-81.04-144.75c-56.82-42.63-148.34-47.18-199.28-7.93,0,0,95.58-4.57,125.42,19.05l-26.43,13.85s100.29,58.46,147.26,107.45c7.23,7.54,15.53,14,24.74,18.93.26.14.51.27.77.41,4.68,2.45,10.02-1.92,8.57-7h0Z" class="cls-35"></path>
          </g>
          <path d="M743.33,261.51c-13.73-67.29-59.9-126.98-122.39-155.83-20.65-9.8-42.81-16.36-65.48-19.52,11.41,1.07,22.73,3.23,33.83,6.19,78.64,20.65,141.02,88.84,154.04,169.16h0Z" class="cls-3"></path>
        </g>
        <g>
          <g>
            <path d="M606.85,259.01s1.03,15.74-5.77,39.73c-6.8,23.99-8.44,120.24-8.44,120.24,0,0-38.34-107.08-29.61-146.63,8.73-39.55,20.99-43.6,20.99-43.6" class="cls-41"></path>
            <g class="cls-48">
              <path d="M607.96,273.77c-11.56,16.66-16.85,36.96-18.93,57.13-2.08,20.17-1.16,40.51-1.42,60.79-12.27-37.44-24.58-75.04-31.27-113.87-1.12-6.51-2.09-13.1-1.69-19.69-5.85,20.33-5.75,41.83-5.46,62.98.28,20.42.71,40.97,4.64,61.01,3.93,20.04,11.57,39.74,24.82,55.28,3.53,4.14,8.2,8.25,13.61,7.77,3.76-.33,6.99-2.89,9.28-5.89,7.63-10.01,6.47-23.92,5.3-36.45-2.29-24.42-3.25-48.96-2.88-73.49.21-13.91.86-27.94,4.35-41.41" class="cls-13"></path>
            </g>
            <path d="M606.85,259.01s1.03,15.74-5.77,39.73c-6.8,23.99-8.44,120.24-8.44,120.24,0,0-38.34-107.08-29.61-146.63,8.73-39.55,20.99-43.6,20.99-43.6" class="cls-33"></path>
          </g>
          <g>
            <path d="M629.56,294.2c13.96,18.55,16.88,41.12,21.1,63.25,3.85,20.16,10.69,39.46,18.09,58.56,9.72,25.09,20.44,49.87,32,74.16,0,0-67.59-64.84-83.05-112.59-14.94-46.16,5.42-91.93,5.42-91.93,0,0,6.43,8.54,6.43,8.54Z" class="cls-41"></path>
            <g class="cls-46">
              <path d="M650.64,341.68c-2.28,21.77-.89,44.08,5.6,64.99,3.17,10.2,7.52,19.99,11.86,29.76,4.15,9.34,8.31,18.69,12.46,28.03-24.72-35.9-49.92-72.86-60.23-115.21-2.71-11.14-4.36-22.55-7.96-33.44-1.98.07-3.35,1.97-4.2,3.76-3.24,6.87-3.3,14.79-2.8,22.37,3.22,49.24,26.87,95.16,56.85,134.35,8.64,11.28,17.95,22.26,29.44,30.62,3.54,2.57,7.36,4.93,11.63,5.88,4.27.95,9.09.31,12.39-2.56,5.02-4.36,5.05-12.1,3.87-18.64-1.52-8.43-4.35-16.57-7.31-24.61-13.86-37.74-30.59-74.35-47.54-110.81" class="cls-13"></path>
            </g>
            <path d="M629.56,294.2c13.96,18.55,16.88,41.12,21.1,63.25,3.85,20.16,10.69,39.46,18.09,58.56,9.72,25.09,20.44,49.87,32,74.16,0,0-67.59-64.84-83.05-112.59-14.94-46.16,5.42-91.93,5.42-91.93,0,0,6.43,8.54,6.43,8.54Z" class="cls-33"></path>
          </g>
          <g>
            <path d="M531.22,165.17l12.08,13.06s-1.22,19.14-6.77,42.06c-5.55,22.92-11.86,85.24-6.64,111.07,4.46,22.07-22.25-49.78-18-103.1.92-11.51,4.22-22.69,9.17-33.13,4.08-8.6,9.87-22.1,10.15-29.97Z" class="cls-41"></path>
            <g class="cls-47">
              <path d="M539.93,214.04c-10.83,9-13.83,24.18-15.47,38.16-3.52,29.95-3.98,60.26-1.39,90.31,4.63,1.1,8.63,1.41,13.38,1.17,1.34-.07,2.73-.21,3.87-.92,1.9-1.17,2.6-3.55,3.03-5.74,1.54-7.82,1.45-15.85,1.3-23.82-.58-31.72-2.45-67.52-4.74-99.17Z" class="cls-13"></path>
            </g>
            <path d="M531.22,165.17l12.08,13.06s-1.22,19.14-6.77,42.06c-5.55,22.92-11.86,85.24-6.64,111.07,4.46,22.07-22.25-49.78-18-103.1.92-11.51,4.22-22.69,9.17-33.13,4.08-8.6,9.87-22.1,10.15-29.97Z" class="cls-33"></path>
          </g>
          <g>
            <path d="M520.9,153.68s4.91,13.54-8.73,39.55c-13.64,26.01-23.59,102.7-18.64,127.22,0,0-34.14-86.3-10.85-134.18,20.91-43,18.67-53.79,18.67-53.79l19.55,21.2Z" class="cls-59"></path>
            <g class="cls-50">
              <path d="M524.73,162.34c0-1.98-2.64-3.04-4.47-2.29-1.83.75-2.95,2.57-3.95,4.28-6.99,11.98-13.98,23.95-20.97,35.93-1.5,2.57-3,5.14-4.19,7.87-8.01,18.41-.43,39.87-3.83,59.65-1.77,10.29-6.46,19.84-9.1,29.95-2.64,10.11-2.89,21.74,3.42,30.06,1.49,1.97,3.46,3.77,5.89,4.23,3.31.63,6.67-1.46,8.52-4.27s2.49-6.24,2.99-9.57c5.9-38.96-1.16-80.2,12.85-117.03,2.23-5.86,4.98-11.57,6.29-17.71" class="cls-13"></path>
            </g>
            <path d="M520.9,153.68s4.91,13.54-8.73,39.55c-13.64,26.01-23.59,102.7-18.64,127.22,0,0-34.14-86.3-10.85-134.18,20.91-43,18.67-53.79,18.67-53.79l19.55,21.2Z" class="cls-33"></path>
          </g>
          <g>
            <path d="M453,72.92c3.82,4.09,4.33,13.08,5.87,18.22,4.97,16.62,9.63,33.71,8.91,51.23-.51,12.54-2.58,25.11-3.81,37.6-2.51,25.43-6.77,55.32,2.09,79.99,0,0-28.24-13.92-38.25-63.49-10.01-49.58,17.78-131.49,17.78-131.49,0,0,7.4,7.93,7.42,7.95Z" class="cls-41"></path>
            <g class="cls-54">
              <path d="M458.56,89.23c2.81,16.89,3.19,34.19,1.13,51.19-2.52,20.87-8.67,41.11-13.74,61.51-.67,2.71-1.33,5.45-1.3,8.24.18,17.82,6.7,35.51,18.11,49.2,1.84,2.2,4.22,4.49,7.08,4.26-4.06-27.98-3.88-56.47-1.16-84.61.97-10.01,1.94-20.01,2.91-30.02.46-4.79.93-9.58.9-14.39-.07-12.46-3.41-24.62-6.07-36.79" class="cls-13"></path>
            </g>
            <path d="M453,72.92c3.82,4.09,4.33,13.08,5.87,18.22,4.97,16.62,9.63,33.71,8.91,51.23-.51,12.54-2.58,25.11-3.81,37.6-2.51,25.43-6.77,55.32,2.09,79.99,0,0-28.24-13.92-38.25-63.49-10.01-49.58,17.78-131.49,17.78-131.49,0,0,7.4,7.93,7.42,7.95Z" class="cls-33"></path>
          </g>
          <path d="M422.61,26.64c-11.67,25-23.38,50.1-31.48,76.48-11.39,37.12-15.41,76.48-11.78,115.14-9.34-43.5-18.71-87.17-21.7-131.56-.97-14.47-1.22-29.31,3.26-43.1,4.48-13.79,14.5-26.5,28.35-30.77,11.36-3.5,25.27-.11,33.34,13.81Z" class="cls-25"></path>
          <g>
            <path d="M635.98,304.37c2.64,7.65,12.1,16.16,19.86,18.45,7.76,2.29,16.09,3.37,22.91,7.73,7,4.48,11.5,11.83,16.63,18.37,5.13,6.54,13.31,14.73,21.59,15.32-16.16-11.84-18.35-36.46-34.22-48.7-5.73-4.42-12.73-6.78-19.45-9.45-13.8-5.49-26.97-12.57-39.15-21.07l11.82,19.35Z" class="cls-41"></path>
            <g class="cls-56">
              <path d="M669.55,321.91c4.66,1.69,9.39,3.41,13.36,6.38,10.49,7.84,14.09,23.15,25.68,29.24,4.24,2.23,8.49,4.46,12.73,6.68,1.62.85,3.3,1.75,4.33,3.26s1.15,3.81-.24,4.99c-.41.35-.92.58-1.43.77-8.09,3.07-17.01-1.06-24.38-5.58-16.8-10.3-31.99-23.22-44.91-38.1-1.59-1.83-16.45-18.12-11.57-20.12,1.28-.53,10.39,5.94,12.14,6.76,4.65,2.17,9.46,3.97,14.28,5.72Z" class="cls-13"></path>
            </g>
            <path d="M635.98,304.37c2.64,7.65,12.1,16.16,19.86,18.45,7.76,2.29,16.09,3.37,22.91,7.73,7,4.48,11.5,11.83,16.63,18.37,5.13,6.54,13.31,14.73,21.59,15.32-16.16-11.84-18.35-36.46-34.22-48.7-5.73-4.42-12.73-6.78-19.45-9.45-13.8-5.49-26.97-12.57-39.15-21.07l11.82,19.35Z" class="cls-33"></path>
          </g>
          <g>
            <path d="M583.22,229.14c22.78,1,45.32,6.93,65.65,17.25,10.32,5.24,20.15,11.66,28.23,19.94,4.27,4.38,8.03,9.23,11.73,14.1,10.9,14.32,21.5,28.86,31.8,43.61,5.37,7.7,10.79,15.58,18.22,21.32-28.09-12.59-49.49-37.04-72.41-57.57-10.56-9.46-22.66-18.59-36.79-19.78-7.65-.64-17.22-3.71-22.8-8.99" class="cls-41"></path>
            <g class="cls-53">
              <path d="M595.38,241.84c4.03,5.76,10.51,9.21,16.75,12.44,9.57,4.96,19.18,9.94,29.31,13.6,4.95,1.79,10.02,3.26,14.85,5.37,13.47,5.88,24.1,16.75,33.48,28.06s17.99,23.42,29.09,33.07c4.62,4.01,9.67,7.6,13.58,12.31,1.38,1.66,2.28,4.73.26,5.49-.99.37-2.07-.17-2.97-.72-24.59-14.83-40.75-40.61-64.42-56.87-10.38-7.13-21.98-12.27-33.07-18.24-11.09-5.97-21.95-13.01-29.65-22.98" class="cls-13"></path>
            </g>
            <path d="M583.22,229.14c22.78,1,45.32,6.93,65.65,17.25,10.32,5.24,20.15,11.66,28.23,19.94,4.27,4.38,8.03,9.23,11.73,14.1,10.9,14.32,21.5,28.86,31.8,43.61,5.37,7.7,10.79,15.58,18.22,21.32-28.09-12.59-49.49-37.04-72.41-57.57-10.56-9.46-22.66-18.59-36.79-19.78-7.65-.64-17.22-3.71-22.8-8.99" class="cls-33"></path>
          </g>
          <path d="M579.69,223.64c19-2.79,38.5.84,56.52,7.48,18.02,6.65,36.01,16.07,52.67,25.61-12.6-8.85-23.12-20.27-34.4-30.74-11.28-10.48-23.78-20.27-38.5-24.77-14.08-4.31-29.28-3.99-43.81-1.61-2.5.41-3.56.58-9.4,3.36l16.92,20.68Z" class="cls-25"></path>
          <g>
            <path d="M494.34,124.82c10.33,8.58,23.7,12.71,36.98,14.68,13.29,1.97,26.78,1.99,40.14,3.43,18.25,1.97,36.41,6.69,52.4,15.7,8.77,4.94,16.79,11.1,24.51,17.56,17.03,14.24,32.88,30.07,51.54,42.09-20.6-5.61-38.64-19.53-58.14-28.2-12.53-5.58-26-9.04-39.66-10.19-19.9-1.68-40.15,1.47-59.78-2.18-17.03-17.16-32.65-34.18-47.98-52.88Z" class="cls-41"></path>
            <g class="cls-52">
              <path d="M510.17,143.22c12.99,10.13,26.48,20.52,42.44,24.61,8.08,2.07,16.48,2.44,24.81,2.8,9.4.41,18.81.81,28.21,1.22,17.37.75,33.6,8.83,48.19,18.29,14.59,9.46,28.24,20.49,43.78,28.3,4.05,2.04,8.44,4.04,10.9,7.85-3.34,1.46-7.15-.23-10.41-1.87-19.76-9.94-40.01-18.9-60.66-26.83-16.41-6.3-33.34-12.01-50.89-12.89-7.71-.39-15.45.17-23.16-.26-7.71-.43-15.57-1.93-22.11-6.04-9.98-6.27-15.48-17.59-23.88-25.85" class="cls-13"></path>
            </g>
            <path d="M494.34,124.82c10.33,8.58,23.7,12.71,36.98,14.68,13.29,1.97,26.78,1.99,40.14,3.43,18.25,1.97,36.41,6.69,52.4,15.7,8.77,4.94,16.79,11.1,24.51,17.56,17.03,14.24,32.88,30.07,51.54,42.09-20.6-5.61-38.64-19.53-58.14-28.2-12.53-5.58-26-9.04-39.66-10.19-19.9-1.68-40.15,1.47-59.78-2.18-17.03-17.16-32.65-34.18-47.98-52.88Z" class="cls-33"></path>
          </g>
          <path d="M511.7,145.12c4.94,5.37,12.32,7.18,19.1,9.04,8.91,2.24,18.01,3.75,27.16,4.7,18.26,2.06,36.86,2.51,55.04,6.04,10.23,1.62,20.19,5.1,28.91,10.73,7.23,4.58,22.33,17.22,29.29,22.53,6.39,5.14,12.82,10.22,19.18,15.4-6.61-4.85-13.16-9.79-19.74-14.68-7.07-5.22-22.45-17.37-29.59-21.89-8.59-5.46-18.35-8.78-28.38-10.3-10.04-1.93-20.19-2.98-30.39-3.93-17.33-1.56-34.88-3-51.69-7.83-6.74-2.11-14.2-4.18-18.89-9.82h0Z" class="cls-9"></path>
          <path d="M447.93,67.43c6.92,4.68,14.52,8.24,22.09,11.78,15.62,7.3,31.44,14.67,48.37,17.9,19.17,3.66,39.56,1.97,57.59,9.44,16.38,6.78,29.28,20.57,46.03,26.36-18.6-2.66-36.86-10.06-55.02-14.9-18.2-4.85-36.96-7.59-55.78-8.16-10.01-.3-20.53-.11-29.35-4.87-5.84-3.15-10.37-8.21-14.79-13.16-6.69-7.51-14.16-15.67-19.16-24.39Z" class="cls-25"></path>
          <path d="M452.03,72.94c-2.78,19.8-7.38,41.86-9.71,61.7-2.81,27.63.79,55.42,5.29,82.7,0,0,3.42,20.56,3.42,20.56-1.53-6.78-2.93-13.58-4.32-20.39-4.02-20.48-7.13-41.23-7.21-62.15-.08-13.95,1.64-27.92,4.42-41.52,2.32-11.95,5.61-29.12,8.11-40.89h0Z" class="cls-9"></path>
          <path d="M423.13,25.46c11.33,11.81,27.52,17.78,43.62,20.72,16.1,2.94,32.57,3.22,48.76,5.65,34.57,5.19,66.85,20,98.6,34.65-11.61-10.01-17.21-26.82-28.51-37.17-10.15-9.3-23.82-13.7-37.28-16.57-27.26-5.82-55.44-6.47-82.65-12.53-7.55-1.68-15.1-3.79-22.83-3.8-7.73,0-14.72,3.13-19.69,9.05Z" class="cls-25"></path>
          <path d="M668.62,363.67c-9.62-16.91-29.9-53.75-39.34-69.81-16.35-26.44-34.94-51.63-55.1-75.29-23.23-26.73-55.36-64.1-78.53-91.02-25.29-28.12-49.37-57.75-67.98-90.79,0,0-3.1-5.92-3.1-5.92,0,0-1.55-2.96-1.55-2.96-1.3-2.8-2.97-6.49-4.18-9.11,1.73,3.56,4.01,8.6,5.93,11.96,19.31,35.13,45.29,66.11,72.08,95.74,23.29,26.87,55.55,64.05,78.65,90.97,20.17,23.78,38.7,49.09,54.79,75.81,9.49,16.26,29.12,53.6,38.33,70.42h0Z" class="cls-9"></path>
          <path d="M638.31,312.3c-21.92,44.94,6.97,92.56,29.38,131.28,7.97,13.5,16.46,26.68,25.25,39.67-18.78-25.17-35.46-51.95-49.35-80.14-13.51-27.75-21.35-62.48-5.29-90.81h0Z" class="cls-9"></path>
          <path d="M591.55,240.68c-5.14,5.45-7.53,12.73-9.2,19.88-10.55,43.52.62,88.75,5.36,132.39.88,7.37,1.83,14.73,2.66,22.11-2.15-12.57-4.97-31.17-6.93-44-5.32-36.46-12.04-74.49-1.96-110.74,1.95-7.1,4.63-14.48,10.08-19.65h0Z" class="cls-9"></path>
          <path d="M512.84,150.3c-5.9,4.17-7.04,11.76-8,18.43-.9,6.89-2.36,13.76-4.47,20.42-2.05,6.68-4.97,13.11-8.12,19.29-3.1,6.13-5.96,12.42-6.91,19.26-2.16,13.71,1.23,27.51,2.57,41.2.72,6.92,1.22,13.87,1.47,20.82.19,6.95.21,13.91-.12,20.85-.09-6.95-.3-13.89-.79-20.81-.44-6.92-1.1-13.83-1.99-20.7-1.69-13.78-5.04-27.66-2.99-41.65,1.02-6.99,4.03-13.53,7.24-19.73,3.21-6.15,6.04-12.41,8.28-18.97,2.25-6.53,3.85-13.27,4.93-20.12,1.23-6.63,2.71-14.44,8.9-18.28h0Z" class="cls-9"></path>
          <path d="M422.68,25.22c14.96,4.85,30.31,8.38,45.89,10.44,15.55,2.15,31.25,3.41,46.86,5.78,31.21,4.63,61.42,16.71,86.63,35.78-25.93-17.73-55.81-29.5-86.91-33.94-15.49-2.51-31.2-3.74-46.78-6.21-15.57-2.39-30.96-6.26-45.68-11.86h0Z" class="cls-9"></path>
          <path d="M455.62,75.21c10.28,7.07,18.54,17.09,29.6,22.98,11.16,5.9,23.96,6.4,36.28,7.81,12.48,1.49,24.98,3.16,37.26,5.99,12.25,2.83,24.35,6.7,35.55,12.45-11.5-5.02-23.58-8.55-35.86-11.05-12.26-2.52-24.69-4.2-37.16-5.54-12.41-1.57-25.57-2.09-36.76-8.41-11.12-6.3-19-16.45-28.92-24.23h0Z" class="cls-9"></path>
          <path d="M571.57,211.46c22.7-4.08,47.19.39,66.98,12.24-21.05-9.48-43.93-13.67-66.98-12.24h0Z" class="cls-9"></path>
          <path d="M536.95,176.48c-9.96,21.01-16.84,43.84-17.46,67.18-.3,16.17,1.77,36.25,2.46,52.49.27,5.85.6,11.69.81,17.54-.63-5.82-1.15-11.65-1.72-17.47-1.3-17.04-3.7-35.53-3.41-52.61.69-23.56,8-46.59,19.32-67.13h0Z" class="cls-9"></path>
          <path d="M594.27,242.41c10.94,7.71,24.06,11.02,36.78,14.61,35.31,8.75,56.92,31.18,77.64,59.68,3.86,5.42,7.67,10.87,11.35,16.4-4.03-5.29-7.98-10.63-12.08-15.86-16.08-20.71-34.31-41.25-58.66-52.17-17.99-8.19-39.14-10.07-55.03-22.67h0Z" class="cls-9"></path>
        </g>
        <g>
          <g>
            <path d="M256.87,122.99l2.83,1.72c-23.48,38.73-35.84,78.69-35.74,115.55.05,19.95,3.66,40.19,7.16,59.75,4.79,26.82,9.74,54.56,5.57,81.92l-3.27-.5c4.08-26.83-.82-54.29-5.56-80.84-3.52-19.71-7.15-40.08-7.21-60.33-.1-37.47,12.42-78.03,36.22-117.28Z" class="cls-31"></path>
            <g>
              <path d="M202.51,418.21s5.74-7.3,12.02-13.89c5.52-5.78,18.43-14.92,20.67-14.11,2.23.81,2.98,3.09,1.04,6.44-1.94,3.35-9.15,8.07-12.09,11.95-6.2,8.16-21.64,9.61-21.64,9.61Z" class="cls-27"></path>
              <path d="M245.2,392.47s11.37,17.28,13.69,21.7c2.75,5.24-2.12,15.88-2.12,15.88,0,0-8.83-10.06-10.95-13.78-2.12-3.73-4.63-21.52-4.22-24.32.41-2.8,3.61.52,3.61.52Z" class="cls-18"></path>
              <path d="M232.13,388.06s6.46,19.93,6.61,29.06c.18,11.04-14.2,18.35-14.2,18.35,0,0,.15-10.77.32-18.25.18-7.48,7.27-29.16,7.27-29.16Z" class="cls-20"></path>
              <path d="M253.48,389.91s9.07,3.24,17.25,1.98c9.79-1.51,18.29,3.47,18.29,3.47,0,0-20.03,14.15-26.62,9.68-6.58-4.47-13.44-7.59-13.44-7.59,0,0-3.17-5.55-2.79-7.61s7.3.07,7.3.07Z" class="cls-17"></path>
              <path d="M251.46,391.6c2.51,2.32,5.35,4.2,8.64,4.97,3.32.68,6.72.58,10.11.75,2.29.07,4.58.13,6.9.26-5.12,1.01-10.39,1.33-15.59.73-4.13-.55-7.91-3.22-10.06-6.71h0Z" class="cls-8"></path>
              <path d="M250.32,389.61c2.39,2.53,5.58,3.98,8.97,4.35,3.01.31,7.38.65,10.44.9-6.55,1.66-15.88,1.54-19.41-5.26h0Z" class="cls-8"></path>
              <path d="M252.91,393.18c5.39,5,12.49,7.17,19.68,7.87-7.18,1.33-15.99-1.19-19.68-7.87h0Z" class="cls-8"></path>
              <g class="cls-57">
                <path d="M247.5,394.58c.64,4.23,1.29,8.45,2.4,12.57,1.03,3.66,2.58,8.72,3.38,12.41-4.25-7.53-6.62-16.31-5.78-24.97h0Z" class="cls-8"></path>
              </g>
              <g class="cls-57">
                <path d="M235.23,392.08c-.03,5.37-.3,10.67-.22,16.03-.05,5.44-1.76,10.94-4.99,15.31,2.03-4.89,3.41-10.04,3.51-15.32,0-5.36.6-10.76,1.7-16.02h0Z" class="cls-8"></path>
              </g>
              <g class="cls-57">
                <path d="M234,393.89c-3.55,4.04-7.23,7.86-10.69,11.97-3.61,4.08-8.51,7.1-13.82,8.29,4.75-2.37,9.17-5.36,12.71-9.27,3.53-4.05,7.51-7.74,11.8-10.99h0Z" class="cls-8"></path>
              </g>
              <g class="cls-57">
                <path d="M231.73,392.78c-3.64,2.61-7.47,5.41-9.51,9.47-.54,1.05-.58,2.16-1.07,3.26-.52,1.16-1.3,2.2-2.28,2.97-1.94,1.56-4.34,2.32-6.69,2.31,3.17-1.16,6.23-2.79,7.59-5.88.45-1.02.6-2.29,1.16-3.29,2.34-4.27,6.51-6.94,10.79-8.85h0Z" class="cls-8"></path>
              </g>
              <g class="cls-57">
                <path d="M234.44,388.17c-.03,5.37-.3,10.67-.22,16.03-.05,5.44-1.76,10.94-4.99,15.31,2.03-4.89,3.41-10.04,3.51-15.32,0-5.36.6-10.76,1.7-16.02h0Z" class="cls-8"></path>
              </g>
              <path d="M230.43,390.32s-11.28,16.05-17.53,18.15c-9.61,3.22-19.06-6.41-19.06-6.41,0,0,8.02,1.3,17.9-4.83,3.88-2.41,18.69-6.91,18.69-6.91Z" class="cls-19"></path>
              <path d="M236.01,384.53s9.19,7.94,12.18,27.26c1.4,9.03-1.17,21.3-1.17,21.3,0,0-11.11-11.13-12.4-18.51-1.3-7.38,1.39-30.05,1.39-30.05Z" class="cls-26"></path>
              <path d="M242.12,383.24s16.58,13.25,21.17,21.18c4.59,7.94,13.43,17.9,13.43,17.9,0,0-19.47.93-25.06-10.46-3.31-6.75-9.54-28.63-9.54-28.63Z" class="cls-16"></path>
              <path d="M234.21,386.3s-1.41,17.21-3.59,26.06c-2.19,8.84-23.34,15.52-23.34,15.52,0,0,8.02-10.89,9.7-18.18,1.67-7.28,17.23-23.41,17.23-23.41Z" class="cls-15"></path>
              <path d="M237.89,390.18c2.75,8.78,4.51,17.86,5.23,27.02-2.75-8.77-4.5-17.86-5.23-27.02h0Z" class="cls-8"></path>
              <path d="M237.89,390.18c3.45,5.79,6.01,12.1,7.54,18.66-3.46-5.79-6-12.1-7.54-18.66h0Z" class="cls-8"></path>
              <path d="M237.89,390.18c.91,5.96.79,12.06-.37,17.97-.91-5.96-.78-12.06.37-17.97h0Z" class="cls-8"></path>
              <path d="M232.91,389.44c-1.03,4.18-3.26,8.04-5.27,11.83-2.16,3.75-4.46,7.44-7.39,10.66,3.81-7.74,8.23-15.13,12.66-22.49h0Z" class="cls-8"></path>
              <path d="M233.29,390.04c-.25,6.9-3.43,13.32-6.99,19.1,1.62-6.51,4.77-12.78,6.99-19.1h0Z" class="cls-8"></path>
              <path d="M232.77,389.84c-2.83,5.31-6.56,10.13-11.02,14.18,2.82-5.32,6.57-10.12,11.02-14.18h0Z" class="cls-8"></path>
              <path d="M241.97,387.53c.17-.26.57-.14.82-.07,1.86.69,3.42,1.99,4.93,3.24,4.98,4.42,9.51,9.78,11.7,16.14-3.68-5.51-7.97-10.49-12.5-15.3-1.35-1.35-2.63-2.81-4.22-3.88-.22-.12-.5-.32-.73-.13h0Z" class="cls-8"></path>
              <path d="M242.65,387.37c6.51,2.5,11.61,7.59,16,12.85-5.61-3.59-10.77-8.74-16-12.85h0Z" class="cls-8"></path>
              <path d="M242.31,387.8c5.93,3.2,9.36,8.31,10.04,15.03-1.47-2.69-2.61-5.5-4.26-8.04-1.57-2.61-3.95-4.52-5.78-6.99h0Z" class="cls-8"></path>
              <path d="M231.53,388c.92.3-.86,2.11-1.21,2.49-5.14,4.77-12.17,7.33-19.09,7.91,6.96-2.8,14.52-4.97,20.28-9.85.14-.16.31-.44.02-.55h0Z" class="cls-8"></path>
              <path d="M231.45,388.6c-3.85,5.75-10.08,9.94-16.79,11.56,5.77-3.47,11.54-7.32,16.79-11.56h0Z" class="cls-8"></path>
              <path d="M231.04,376.05c-1.18,15.06-9.72,17.59-10.59,18.67,0,0,5.33-4.53,8.22-1.66,1.18,1.17,1.76,12.97,1.76,12.97,0,0,4.66-14.76,6.8-13.97,2.13.78,4.02,10.18,4.02,10.18,0,0,2.35-11.1,4.51-11.23,2.16-.14,9.74,5.45,9.74,5.45,0,0-6.47-14.17-10.3-19.27-2.59-3.44-5.59-7.81-9.92-6.79-2.36.55-4.05,3.25-4.24,5.66Z" class="cls-31"></path>
            </g>
          </g>
          <g>
            <path d="M270.32,320.2c-5.75-8.86-13.08-16.68-21.56-22.98-2.04-1.52-4.18-2.96-6.58-3.82-2.4-.86-5.1-1.09-7.47-.18-1.49.57-3.06,1.59-4.54.99.07,7.99,3.17,15.36,9.62,20.24,8.56,6.47,20.2,8.66,30.53,5.76Z" class="cls-31"></path>
            <g>
              <path d="M230.47,294.04c.53,2.67,2.09,5.04,3.88,7.09,6.66,7.67,16.41,11.79,25.81,15.67" class="cls-6"></path>
              <path d="M230.47,294.04c3.08,8.59,13.37,14.33,21.07,18.39,2.86,1.45,5.75,2.87,8.62,4.36-10.6-3.19-27.5-10.59-29.69-22.76h0Z" class="cls-9"></path>
            </g>
          </g>
        </g>
        <g>
          <g>
            <g>
              <path d="M23.59,534.85c.01.06.03.1.03.1,0,0-.01-.04-.03-.1Z" class="cls-21"></path>
              <g>
                <path d="M20.48,294.6c-12.1,34.17-16.83,84.78-16.83,84.78l21,1.1s-8.98-.47-19.84,20c-12.73,24,17.73,130.75,18.77,134.37-.18-.86-.07-7.5,41.03-20.41,44.17-13.87,73.97-44.67,73.97-44.67l-1.67-13.03c7.86,6.88,19.65,5.88,19.65,5.88,61.3-49.38,75.1-124.16,75.1-124.16l-26.45-42.49,26.63,7.17c19.05-90.02-60.05-147.92-80.58-161.25-2.87-1.87-5.62-3.81-8.33-5.79-7.79-5.68-26.91-16.8-43.08-3.29-54.01,45.1-50.85,119.01-50.85,119.01l15.22.8c-2.39.76-5.55,2.29-8.95,4.14-17.38,9.49-29.48,22.84-34.8,37.85ZM62.65,382.19c1.67-1.08,3.38-2.18,5.5-2.79,2.12-.61,4.77-.64,6.68.33,3.68,1.87,2.46,5.73.85,8.58-3.68,6.49-7.44,13.09-13.73,18.49-5.34,4.59-28.47,16.12-34.45,5.36-1.29-2.32-.52-4.93,1.19-7.03,1.72-2.09,4.29-3.77,6.83-5.41,9.04-5.84,18.08-11.69,27.12-17.53Z" class="cls-37"></path>
                <g class="cls-51">
                  <path d="M185.08,158.41c22.68,40.2,35.94,82.7,39.1,125.28-10.56.21-21.12.42-31.68.63,26.82,55.62,10.98,119.06-40.77,163.24-7.69-3.85-14.42-8.21-22.12-12.06-4.25,38.5-45.67,72.74-99.49,82.27-28.54-44.89-24.62-100.64,4.08-143.9-5.66-.24-11.32-.47-16.98-.71,6.69-39.31,13.38-78.62,20.07-117.94-16.56,8.15-30.86,18.43-41.98,30.19-31.61,33.41-35.86,75.86-39.21,116.34-2.1,25.29-4.19,50.72-.45,76.08,2.4,16.26,7.31,32.66,18.28,47.38,10.97,14.72,28.53,27.69,50.7,33.88,21.45,5.98,45.63,5.19,67.06.35,21.44-4.84,40.47-13.47,58.18-22.93,69.68-37.23,122.42-89.11,149.84-147.4,17.51-37.22,24.75-77.87,11.12-116.7-13.64-38.83-50.21-75.49-102.65-93" class="cls-4"></path>
                </g>
                <path d="M20.48,294.6c-12.1,34.17-16.83,84.78-16.83,84.78l21,1.1s-8.98-.47-19.84,20c-12.73,24,17.73,130.75,18.77,134.37-.18-.86-.07-7.5,41.03-20.41,44.17-13.87,73.97-44.67,73.97-44.67l-1.67-13.03c7.86,6.88,19.65,5.88,19.65,5.88,61.3-49.38,75.1-124.16,75.1-124.16l-26.45-42.49,26.63,7.17c19.05-90.02-60.05-147.92-80.58-161.25-2.87-1.87-5.62-3.81-8.33-5.79-7.79-5.68-26.91-16.8-43.08-3.29-54.01,45.1-50.85,119.01-50.85,119.01l15.22.8c-2.39.76-5.55,2.29-8.95,4.14-17.38,9.49-29.48,22.84-34.8,37.85ZM62.65,382.19c1.67-1.08,3.38-2.18,5.5-2.79,2.12-.61,4.77-.64,6.68.33,3.68,1.87,2.46,5.73.85,8.58-3.68,6.49-7.44,13.09-13.73,18.49-5.34,4.59-28.47,16.12-34.45,5.36-1.29-2.32-.52-4.93,1.19-7.03,1.72-2.09,4.29-3.77,6.83-5.41,9.04-5.84,18.08-11.69,27.12-17.53Z" class="cls-22"></path>
              </g>
            </g>
            <path d="M121.74,126.73c7.58,68.62,3.98,139.71-12.04,206.88-2.21,10.29-5.71,22.45-8.4,32.63-2.05,6.66-5.15,16.81-7.19,23.43-1.81,5.25-5.19,15.05-7.03,20.26-2.76,7.73-6.97,18.06-9.89,25.72-2.16,5.09-6.24,14.65-8.4,19.72-6.69,15.46-16.23,34.46-23.98,49.57,11.22-23.27,22.62-48.78,31.87-72.77,2.37-6.52,6.22-16.38,8.42-22.93,2.93-8.9,6.93-20.03,9.49-29.02.67-2.22,3.81-12.65,4.41-14.61,1.41-5.33,4-15.24,5.44-20.66,1.75-6.73,3.84-16.95,5.45-23.8,1.52-6.84,3.27-17.02,4.66-23.97.7-3.58,1.3-8.44,1.9-12.06,1.94-11.62,3.32-24.67,4.63-36.33,0,0,1.91-24.35,1.91-24.35l1-24.41c.22-12.1-.12-36.76-.67-48.87,0,0-1.58-24.41-1.58-24.41h0Z" class="cls-5"></path>
            <path d="M105.29,343.04c19.6,13.44,35.46,33.87,40.32,57.45,2.25,10.63,2.04,21.95-.98,32.33,1.36-8.54,1.36-17.18,0-25.59-4.07-25.63-20.12-47.45-39.35-64.2h0Z" class="cls-5"></path>
            <path d="M118.36,287.41c26.36,13.24,49.89,34.67,61.43,62.23,3.82,9.17,6.18,18.99,6.46,28.85-1.5-11-5.03-21.49-9.87-31.35-12.81-25.22-34.38-44.7-58.02-59.74h0Z" class="cls-5"></path>
          </g>
          <g>
            <g>
              <path d="M610.66,233.97c.07.04.1.07.1.07,0,0-.04-.03-.1-.07Z" class="cls-34"></path>
              <g>
                <path d="M287.79,136.78c-3.41,2.28-6.36,4.5-8.16,6.35l5.13-14.36s-81.22-36.48-152.91-7.32c-21.47,8.73-16.63,31.36-13.37,41.1,1.14,3.39,2.23,6.8,3.17,10.29,6.76,24.93,40.1,123.94,148.09,147.32l2.53-27.74,36.95,43.62s88.92,21.28,168.25-12.63c0,0,5.78-10.39,1.21-20.74l13.88,7.45s46.15-13.4,79.09-47.7c30.65-31.92,38.1-29,38.99-28.44-3.63-2.6-110.71-79.09-142.53-78.29-27.13.68-30.16,9.15-30.16,9.15l7.08-19.81s-58.35-18.64-101.26-23.04c-18.85-1.93-38.53,3.12-55.99,14.79ZM455.14,183.57c2.83-1.59,5.72-3.19,8.73-3.82,3.02-.63,6.24-.14,8.31,2.09,9.65,10.38-12.37,26.41-19.6,29.23-8.52,3.32-17.36,3.79-26.06,4.22-3.81.19-8.6-.45-9.23-4.68-.33-2.2.75-4.62,2.27-6.29,1.52-1.67,3.42-2.75,5.29-3.79,10.1-5.65,20.19-11.31,30.29-16.96Z" class="cls-39"></path>
                <g class="cls-55">
                  <path d="M126.72,211.42c35.89,39.1,78.08,70.6,124.36,92.85,4.41-9.61,8.82-19.22,13.23-28.84,51.46,49.92,128.52,64.17,198.29,36.68-1.25-8.82-3.46-16.99-4.72-25.81,44.64,13.58,99.24-8.93,131.14-54.08-38.81-46.63-102.57-68.35-162.2-61.61,1.97-5.31,3.95-10.62,5.92-15.93-46.52-11.71-93.03-23.42-139.55-35.13,15.64-11.52,32.76-19.99,50.29-24.88,49.78-13.88,98.84,1.5,145.33,16.8,29.06,9.56,58.25,19.19,85.08,34.15,17.2,9.59,33.56,21.56,45.64,38.33,12.09,16.77,19.62,38.81,17.76,61.99-1.8,22.44-12.25,44.3-26.12,61.81-13.88,17.5-31.03,31.09-48.59,43.07-69.1,47.14-147.85,72.05-223.74,70.78-48.45-.81-96.69-12.62-134.63-42.79-37.94-30.17-64.39-80.45-63.2-136.6" class="cls-10"></path>
                </g>
                <path d="M287.79,136.78c-3.41,2.28-6.36,4.5-8.16,6.35l5.13-14.36s-81.22-36.48-152.91-7.32c-21.47,8.73-16.63,31.36-13.37,41.1,1.14,3.39,2.23,6.8,3.17,10.29,6.76,24.93,40.1,123.94,148.09,147.32l2.53-27.74,36.95,43.62s88.92,21.28,168.25-12.63c0,0,5.78-10.39,1.21-20.74l13.88,7.45s46.15-13.4,79.09-47.7c30.65-31.92,38.1-29,38.99-28.44-3.63-2.6-110.71-79.09-142.53-78.29-27.13.68-30.16,9.15-30.16,9.15l7.08-19.81s-58.35-18.64-101.26-23.04c-18.85-1.93-38.53,3.12-55.99,14.79ZM455.14,183.57c2.83-1.59,5.72-3.19,8.73-3.82,3.02-.63,6.24-.14,8.31,2.09,9.65,10.38-12.37,26.41-19.6,29.23-8.52,3.32-17.36,3.79-26.06,4.22-3.81.19-8.6-.45-9.23-4.68-.33-2.2.75-4.62,2.27-6.29,1.52-1.67,3.42-2.75,5.29-3.79,10.1-5.65,20.19-11.31,30.29-16.96Z" class="cls-22"></path>
              </g>
            </g>
            <path d="M116.41,138.8c69.24,33.65,144.99,60.78,220.25,77.01,57.06,12.45,115.42,19.62,173.73,22.5,14.48.71,43.97,1.5,58.49,1.58,0,0-29.27.3-29.27.3-147.76-.22-292.04-32.64-423.2-101.4h0Z" class="cls-5"></path>
            <path d="M364.3,221.94c11.69,27.2,31.15,51.37,57.19,65.84,8.6,4.81,17.83,8.53,27.46,11.11-19.27-2.73-37.33-12.22-51.78-25.13-15.26-13.94-26.89-32.05-32.86-51.82h0Z" class="cls-5"></path>
            <path d="M297.06,208.69c7.98,31.88,23.75,62.2,48.14,84.52,8.06,7.41,17.01,13.88,26.67,19.26-41.2-17.77-68.42-60.21-74.81-103.78h0Z" class="cls-5"></path>
          </g>
          <g>
            <path d="M202.72,51.89c11.97-5.64,25.6-7.67,38.69-5.77,8.65,1.26,18.22,4,25.57-.72-7.1,19.86-23.95,35.98-44.11,42.19-12.58,3.88-26.27,5.79-36.98,13.44,13.12-5.11,28.01-5.56,41.42-1.25,24.88,8.01,44.97,31.63,71.09,30.78-24.34,11.55-51.68,16.7-78.56,14.8-9.1-.64-18.25-2.11-26.66-5.67-13.46-5.71-28.88-14.67-39.15-25.08,3.24,24.66,4.66,49.56,4.23,74.44-14.29-5.74-23.78-19.85-28.22-34.59-4.44-14.74-4.63-30.37-5.57-45.73-.21,20.9-8.51,39.28-24.14,53.16-9.25-8.33-11.65-37.99-6.12-49.14" class="cls-12"></path>
            <path d="M202.72,51.89c9.91-4.78,20.99-7.15,32-6.74,8.2.08,16.26,2.98,24.46,2.23,3.33-.27,6.38-1.61,9.03-3.54,0,0-.62,1.78-.62,1.78-7.13,20.52-24.55,37.11-45.38,43.28-12.04,3.69-25.27,5.77-35.58,13.16,0,0-1.2-2.21-1.2-2.21,9.56-3.77,20.03-5.12,30.25-4.01,30.84,2.68,52.28,33.66,82.68,33.12,0,0,7.54-.19,7.54-.19-31.18,15.97-67.68,23.06-102.28,15.98-12.77-3.07-24.44-9.62-35.41-16.67-5.44-3.63-10.62-7.69-15.27-12.38l2.66-1.3c3.19,24.74,4.63,49.72,4.07,74.66,0,0-.05,2.01-.05,2.01-8.15-2.95-15.17-8.53-20.27-15.36-14.58-19.06-14.56-44.1-15.74-66.95,0,0,1.79-.05,1.79-.05-.06,20.46-9.43,40.51-25.04,53.68-8.38-8.14-9.71-26.04-9-37.18.36-4.27,1.02-8.6,2.89-12.49-4.56,10.88-3.01,26.77.28,37.89,1.29,3.98,3.03,8.07,6.11,10.96,0,0-.52,0-.52,0,11.14-9.99,19.12-23.41,22.01-38.1.98-4.86,1.46-9.82,1.49-14.78l1.79-.05c.51,7.69.83,15.37,1.59,22.99,1.76,21.85,9.97,47.13,31.82,56.1,0,0-1.9,1.26-1.9,1.26.34-26.33-1.31-52.69-4.99-78.76,11.95,12.72,27.38,21.9,43.44,28.52,20.07,7.28,45.26,6.1,66.06,2.25,12.53-2.47,24.77-6.47,36.34-11.92l.74,3.04c-10.39.35-20.51-3.33-29.5-8.18-13.39-7.12-25.2-16.49-39.33-21.84-13.8-5.21-29.48-5.22-43.28.06,0,0-9.79,3.74-9.79,3.74l8.59-5.96c10.8-7.57,24.09-9.5,36.44-13.13,20.36-5.82,37.42-21.78,44.79-41.68,0,0,.95.75.95.75-10.14,6.02-21.84.08-32.64-.09-10.93-.57-21.99,1.5-31.97,6.03h0Z" class="cls-9"></path>
          </g>
        </g>
      </g>
    </g>
  </g>
</svg>