<svg xmlns="http://www.w3.org/2000/svg" fill="none" viewBox="0 0 1920 1280" height="1280" width="1920">
<g clip-path="url(#clip0_4023_1359)">
<path fill="url(#paint0_linear_4023_1359)" d="M1333.95 32.439C1328.85 30.089 1272.71 19.299 1256.79 34.779C1256.77 34.859 1245.82 40.919 1245.05 51.259C1245.21 51.339 1233.91 70.459 1236.42 72.209C1239.15 74.779 1283.38 58.449 1320.01 64.909C1320.01 64.929 1328.97 66.399 1328.94 70.159C1328.94 72.419 1325.44 75.779 1321.35 75.999C1277.74 78.499 1244.5 79.119 1230.78 85.719C1230.73 86.139 1206.12 105.719 1204.56 131.479C1204.54 132.059 1246.39 123.429 1275.07 133.599C1293.97 140.679 1282.51 155.969 1263.57 155.629C1263.31 155.889 1229.02 146.609 1218.57 163.959C1206.55 183.079 1211.48 181.179 1211.43 193.009C1211.99 204.329 1205.74 256.709 1175.49 279.659C1207.76 264.229 1261.63 265.329 1275.11 264.609C1287.91 264.469 1305.47 272.529 1333.16 250.399C1361.07 227.309 1341.49 184.179 1341.29 184.659C1332.42 171.689 1342.84 149.559 1356.36 164.779C1369.63 179.559 1368.71 204.039 1363.02 224.429C1357.58 244.879 1347.38 261.249 1347.5 261.149C1404.79 230.909 1413.3 203.109 1413.37 203.929C1420.35 181.959 1390.92 123.059 1376.98 114.419C1371.78 110.669 1374.47 103.679 1379.13 101.009C1382.04 99.359 1387.31 101.209 1387.31 101.209C1399.86 108.259 1408.19 130.479 1412.07 151.869C1416.21 173.159 1415.89 193.629 1417.26 194.439C1420.16 196.449 1439.48 167.419 1439.24 167.259C1450.84 156.959 1454.38 147.209 1454.38 147.249C1464.74 113.289 1441.98 92.539 1417.64 78.969C1405.7 72.219 1405.39 64.389 1408.2 56.649C1412.01 46.039 1425.1 53.819 1425.12 53.849C1451.03 61.649 1466.15 116.179 1465.41 116.669C1472.1 113.659 1488.64 48.619 1487.58 48.479C1490.35 -16.971 1439.72 -34.971 1412.28 -26.021C1402.93 -22.991 1392.74 -6.31099 1392.67 -6.37099C1390.08 -3.06099 1395.45 -27.631 1384.66 -39.551C1364.4 -62.981 1350.77 -62.611 1292.68 -32.141C1293.28 -31.361 1263.97 8.29902 1265.18 12.139C1265.19 12.129 1280.52 11.369 1298.13 11.409C1315.7 11.659 1335.56 12.699 1343.72 21.079C1343.72 21.059 1349.54 26.129 1346.81 32.459C1343.9 39.109 1338.84 35.049 1333.98 32.419L1333.95 32.439ZM1397.21 76.849C1404.83 76.149 1431.38 103.719 1412.19 107.519C1412.21 107.499 1403.33 97.529 1394.94 92.069C1386.62 86.559 1389.76 77.259 1397.21 76.849ZM1321.31 187.259C1330.07 193.799 1308.73 236.649 1308.09 236.489C1311.6 228.029 1298.73 212.049 1300.26 204.189C1301.92 196.349 1313.32 180.819 1321.31 187.249V187.259ZM1346.85 0.579014C1327.41 -5.90099 1376.47 -28.871 1377.72 -15.291C1379.35 9.59901 1346.7 0.669014 1346.85 0.579014ZM1352.14 52.969C1349.1 66.349 1319.06 49.249 1319.07 49.289C1321.93 30.739 1354.86 39.629 1352.14 52.969Z"></path>
<mask height="337" width="313" y="-57" x="1175" maskUnits="userSpaceOnUse" style="mask-type:luminance" id="mask0_4023_1359">
<path fill="white" d="M1333.95 32.439C1328.85 30.089 1272.71 19.299 1256.79 34.779C1256.77 34.859 1245.82 40.919 1245.05 51.259C1245.21 51.339 1233.91 70.459 1236.42 72.209C1239.15 74.779 1283.38 58.449 1320.01 64.909C1320.01 64.929 1328.97 66.399 1328.94 70.159C1328.94 72.419 1325.44 75.779 1321.35 75.999C1277.74 78.499 1244.5 79.119 1230.78 85.719C1230.73 86.139 1206.12 105.719 1204.56 131.479C1204.54 132.059 1246.39 123.429 1275.07 133.599C1293.97 140.679 1282.51 155.969 1263.57 155.629C1263.31 155.889 1229.02 146.609 1218.57 163.959C1206.55 183.079 1211.48 181.179 1211.43 193.009C1211.99 204.329 1205.74 256.709 1175.49 279.659C1207.76 264.229 1261.63 265.329 1275.11 264.609C1287.91 264.469 1305.47 272.529 1333.16 250.399C1361.07 227.309 1341.49 184.179 1341.29 184.659C1332.42 171.689 1342.84 149.559 1356.36 164.779C1369.63 179.559 1368.71 204.039 1363.02 224.429C1357.58 244.879 1347.38 261.249 1347.5 261.149C1404.79 230.909 1413.3 203.109 1413.37 203.929C1420.35 181.959 1390.92 123.059 1376.98 114.419C1371.78 110.669 1374.47 103.679 1379.13 101.009C1382.04 99.359 1387.31 101.209 1387.31 101.209C1399.86 108.259 1408.19 130.479 1412.07 151.869C1416.21 173.159 1415.89 193.629 1417.26 194.439C1420.16 196.449 1439.48 167.419 1439.24 167.259C1450.84 156.959 1454.38 147.209 1454.38 147.249C1464.74 113.289 1441.98 92.539 1417.64 78.969C1405.7 72.219 1405.39 64.389 1408.2 56.649C1412.01 46.039 1425.1 53.819 1425.12 53.849C1451.03 61.649 1466.15 116.179 1465.41 116.669C1472.1 113.659 1488.64 48.619 1487.58 48.479C1490.35 -16.971 1439.72 -34.971 1412.28 -26.021C1402.93 -22.991 1392.74 -6.31099 1392.67 -6.37099C1390.08 -3.06099 1395.45 -27.631 1384.66 -39.551C1364.4 -62.981 1350.77 -62.611 1292.68 -32.141C1293.28 -31.361 1263.97 8.29902 1265.18 12.139C1265.19 12.129 1280.52 11.369 1298.13 11.409C1315.7 11.659 1335.56 12.699 1343.72 21.079C1343.72 21.059 1349.54 26.129 1346.81 32.459C1343.9 39.109 1338.84 35.049 1333.98 32.419L1333.95 32.439ZM1397.21 76.849C1404.83 76.149 1431.38 103.719 1412.19 107.519C1412.21 107.499 1403.33 97.529 1394.94 92.069C1386.62 86.559 1389.76 77.259 1397.21 76.849ZM1321.31 187.259C1330.07 193.799 1308.73 236.649 1308.09 236.489C1311.6 228.029 1298.73 212.049 1300.26 204.189C1301.92 196.349 1313.32 180.819 1321.31 187.249V187.259ZM1346.85 0.579014C1327.41 -5.90099 1376.47 -28.871 1377.72 -15.291C1379.35 9.59901 1346.7 0.669014 1346.85 0.579014ZM1352.14 52.969C1349.1 66.349 1319.06 49.249 1319.07 49.289C1321.93 30.739 1354.86 39.629 1352.14 52.969Z"></path>
</mask>
<g mask="url(#mask0_4023_1359)">
<path fill="url(#paint1_linear_4023_1359)" d="M1211.27 187.059C1211.15 179.119 1218.39 172.719 1226.04 170.589C1233.69 168.459 1241.8 169.429 1249.73 169.439C1262.14 169.459 1274.68 166.999 1285.66 161.219C1296.64 155.439 1305.97 146.189 1310.79 134.759C1306.32 138.819 1299.31 138.529 1294.63 134.709C1297.37 134.569 1299.31 131.509 1298.9 128.799C1298.49 126.089 1296.28 123.929 1293.78 122.809C1291.28 121.689 1288.49 121.429 1285.77 121.169C1275.37 120.169 1265 118.939 1254.62 117.719C1245.6 116.649 1236.82 113.569 1229.12 108.759C1230.73 106.809 1233.58 106.569 1236.1 106.469C1243.56 106.199 1251.02 105.919 1258.48 105.649C1257.57 105.909 1256.67 106.179 1255.76 106.439C1253.5 103.259 1254.26 99.7493 1250.46 98.8493C1255.43 94.6993 1262.39 93.7093 1268.83 94.3293C1275.28 94.9493 1281.5 96.9793 1287.86 98.1793C1297.46 99.9893 1307.42 99.8893 1316.98 97.8793C1323.35 96.5493 1329.38 93.6093 1334.36 89.4193C1332.13 88.4493 1329.89 87.4893 1327.66 86.5193C1330.39 86.2893 1333.25 86.0093 1335.51 84.4593C1337.77 82.9093 1339.09 79.6493 1337.6 77.3493C1339.9 75.8993 1342.82 73.3593 1344.23 71.0293C1345.17 69.4793 1345.77 67.2293 1344.4 66.0393C1344.15 65.8193 1343.85 65.6593 1343.55 65.5093C1333.08 59.9993 1321.85 55.9193 1310.27 53.4393C1303.56 51.9993 1295.97 50.6093 1292.15 44.9193C1293.22 43.7293 1294.99 43.5493 1296.54 43.1293C1298.09 42.6993 1299.78 41.5493 1299.61 39.9493C1299.4 37.9893 1297.75 36.2793 1295.81 35.9993C1297.8 35.7193 1298.31 32.7493 1297.03 31.1893C1295.75 29.6393 1293.58 29.2093 1291.59 28.9893C1289.59 28.7593 1287.45 28.5793 1285.9 27.2993C1274.8 18.0993 1258.44 20.3193 1245.96 27.5293C1233.48 34.7393 1224.29 46.3493 1214.61 57.0393C1204.09 68.6493 1192.65 79.4693 1183.08 91.8693C1177.15 99.5493 1171.8 108.279 1171.23 117.969C1170.53 129.749 1176.92 140.599 1182.05 151.219C1185.12 157.579 1187.82 164.149 1191.61 170.099C1195.4 176.059 1204.8 184.209 1211.27 187.039V187.059Z" opacity="0.34"></path>
<path fill="url(#paint2_linear_4023_1359)" d="M1191.35 273.96C1208.95 271.98 1225.97 265.08 1239.97 254.24C1245.95 249.61 1251.55 244.04 1254.2 236.97C1256.02 232.13 1256.47 226.59 1259.77 222.6C1264.56 216.82 1273.92 216.12 1278.04 209.84C1279.31 216.69 1278.42 224.17 1273.86 229.42C1278.15 227.29 1283.31 230.39 1286.18 234.22C1289.05 238.06 1290.83 242.77 1294.45 245.91C1299.27 250.09 1306.48 250.53 1312.59 248.68C1323.48 245.38 1331.89 235.1 1332.96 223.77C1333.48 218.25 1330.05 212.45 1330.98 206.98C1331.48 204.07 1332.72 201.22 1332.47 198.28C1332.3 196.31 1331.47 194.47 1330.76 192.62C1328.13 185.71 1327.25 178.03 1329.03 170.86C1330.81 163.69 1335.42 157.11 1341.95 153.65C1345.15 151.95 1348.81 151.02 1352.41 151.35C1353.46 148.24 1353.79 144.66 1354.56 141.47C1355.33 138.28 1358.92 135.25 1361.69 137.02C1361.18 142 1363.44 146.88 1366.41 150.9C1369.38 154.93 1373.08 158.37 1376.09 162.36C1383.25 171.87 1386.13 184.48 1383.81 196.15C1382.11 204.69 1377.78 213.3 1380.13 221.68C1385.17 219.35 1389.18 213.89 1388.77 208.35C1388.58 205.81 1387.88 202.73 1389.86 201.12C1390.59 200.53 1391.53 200.3 1392.35 199.85C1394.59 198.62 1395.59 195.84 1395.49 193.29C1395.4 190.74 1394.43 188.31 1393.6 185.89C1391.83 180.73 1390.69 175.05 1392.37 169.86C1394.05 164.67 1399.35 160.33 1404.7 161.39C1408.3 167.56 1413.34 173.79 1414.44 180.85C1420.61 176.45 1423.01 167.48 1419.86 160.58C1419.17 159.07 1418.24 157.37 1418.93 155.87C1420.29 152.94 1424.74 155.09 1427.92 154.55C1432.37 153.8 1433.4 147.95 1433.39 143.44C1433.38 140.2 1433.34 136.82 1431.86 133.94C1430.38 131.06 1426.99 128.87 1423.91 129.87C1426.76 125.19 1432.31 121.97 1437.76 121.47C1434.67 117.97 1431.68 113.33 1433.4 108.99C1434.12 107.17 1435.66 105.74 1436.26 103.87C1437.27 100.75 1435.44 97.5199 1434.3 94.4499C1433.16 91.3699 1433.21 87.0499 1436.23 85.7799C1439 84.6199 1441.92 86.9999 1443.84 89.3099C1447.08 93.2199 1449.85 97.5299 1452.05 102.11C1456.2 110.76 1458.86 121.01 1466.87 126.29C1471.19 129.14 1475.65 132.14 1478.27 136.6C1480.79 140.91 1481.29 146.06 1482.66 150.86C1484.1 155.93 1486.55 160.76 1486.97 166.01C1487.21 168.96 1486.79 171.91 1486.22 174.81C1484.32 184.54 1480.73 193.93 1475.65 202.45C1469.91 212.08 1462.36 220.48 1454.82 228.78C1442.44 242.4 1429.94 255.93 1416.6 268.6C1407.76 277 1398.54 285.04 1388.71 292.25C1379.84 298.76 1370.23 304.69 1359.5 307.11C1348.77 309.54 1336.67 307.99 1328.28 300.87C1323.12 296.48 1317.28 297.34 1310.53 296.7C1292.51 294.99 1274.45 293.57 1256.36 292.95C1246.38 292.61 1236.31 292.5 1226.53 290.45C1216.75 288.4 1207.13 284.22 1200.32 276.91" opacity="0.34"></path>
</g>
<path stroke-miterlimit="10" stroke-width="2.15" stroke="black" d="M1333.95 32.439C1328.85 30.089 1272.71 19.299 1256.79 34.779C1256.77 34.859 1245.82 40.919 1245.05 51.259C1245.21 51.339 1233.91 70.459 1236.42 72.209C1239.15 74.779 1283.38 58.449 1320.01 64.909C1320.01 64.929 1328.97 66.399 1328.94 70.159C1328.94 72.419 1325.44 75.779 1321.35 75.999C1277.74 78.499 1244.5 79.119 1230.78 85.719C1230.73 86.139 1206.12 105.719 1204.56 131.479C1204.54 132.059 1246.39 123.429 1275.07 133.599C1293.97 140.679 1282.51 155.969 1263.57 155.629C1263.31 155.889 1229.02 146.609 1218.57 163.959C1206.55 183.079 1211.48 181.179 1211.43 193.009C1211.99 204.329 1205.74 256.709 1175.49 279.659C1207.76 264.229 1261.63 265.329 1275.11 264.609C1287.91 264.469 1305.47 272.529 1333.16 250.399C1361.07 227.309 1341.49 184.179 1341.29 184.659C1332.42 171.689 1342.84 149.559 1356.36 164.779C1369.63 179.559 1368.71 204.039 1363.02 224.429C1357.58 244.879 1347.38 261.249 1347.5 261.149C1404.79 230.909 1413.3 203.109 1413.37 203.929C1420.35 181.959 1390.92 123.059 1376.98 114.419C1371.78 110.669 1374.47 103.679 1379.13 101.009C1382.04 99.359 1387.31 101.209 1387.31 101.209C1399.86 108.259 1408.19 130.479 1412.07 151.869C1416.21 173.159 1415.89 193.629 1417.26 194.439C1420.16 196.449 1439.48 167.419 1439.24 167.259C1450.84 156.959 1454.38 147.209 1454.38 147.249C1464.74 113.289 1441.98 92.539 1417.64 78.969C1405.7 72.219 1405.39 64.389 1408.2 56.649C1412.01 46.039 1425.1 53.819 1425.12 53.849C1451.03 61.649 1466.15 116.179 1465.41 116.669C1472.1 113.659 1488.64 48.619 1487.58 48.479C1490.35 -16.971 1439.72 -34.971 1412.28 -26.021C1402.93 -22.991 1392.74 -6.31099 1392.67 -6.37099C1390.08 -3.06099 1395.45 -27.631 1384.66 -39.551C1364.4 -62.981 1350.77 -62.611 1292.68 -32.141C1293.28 -31.361 1263.97 8.29902 1265.18 12.139C1265.19 12.129 1280.52 11.369 1298.13 11.409C1315.7 11.659 1335.56 12.699 1343.72 21.079C1343.72 21.059 1349.54 26.129 1346.81 32.459C1343.9 39.109 1338.84 35.049 1333.98 32.419L1333.95 32.439ZM1397.21 76.849C1404.83 76.149 1431.38 103.719 1412.19 107.519C1412.21 107.499 1403.33 97.529 1394.94 92.069C1386.62 86.559 1389.76 77.259 1397.21 76.849ZM1321.31 187.259C1330.07 193.799 1308.73 236.649 1308.09 236.489C1311.6 228.029 1298.73 212.049 1300.26 204.189C1301.92 196.349 1313.32 180.819 1321.31 187.249V187.259ZM1346.85 0.579014C1327.41 -5.90099 1376.47 -28.871 1377.72 -15.291C1379.35 9.59901 1346.7 0.669014 1346.85 0.579014ZM1352.14 52.969C1349.1 66.349 1319.06 49.249 1319.07 49.289C1321.93 30.739 1354.86 39.629 1352.14 52.969Z"></path>
<path fill="black" d="M1244.68 221.31C1328.52 157.39 1385.9 60.3098 1402.4 -43.7402C1404.82 -58.6002 1406.31 -73.6102 1407.04 -88.6602C1406.8 -73.5902 1405.51 -58.5302 1403.44 -43.5802C1388.46 60.9898 1330.5 159.37 1244.68 221.32V221.31Z"></path>
<path fill="#428222" d="M1245.18 148.689C1245.18 148.689 1243.6 160.459 1235 177.159C1226.4 193.859 1210.84 264.679 1210.84 264.679C1210.84 264.679 1198.5 179.909 1210.84 152.009C1223.18 124.109 1232.84 122.949 1232.84 122.949"></path>
<mask height="143" width="41" y="122" x="1205" maskUnits="userSpaceOnUse" style="mask-type:luminance" id="mask1_4023_1359">
<path fill="white" d="M1245.18 148.689C1245.18 148.689 1243.6 160.459 1235 177.159C1226.4 193.859 1210.84 264.679 1210.84 264.679C1210.84 264.679 1198.5 179.909 1210.84 152.009C1223.18 124.109 1232.84 122.949 1232.84 122.949"></path>
</mask>
<g mask="url(#mask1_4023_1359)">
<path fill="#579B30" d="M1243.81 159.748C1232.79 170.328 1225.86 184.528 1221.32 199.108C1216.78 213.688 1214.43 228.848 1211.21 243.778C1207.73 214.308 1204.25 184.708 1205.1 155.048C1205.24 150.078 1205.51 145.068 1206.79 140.258C1199.44 154.398 1196.31 170.278 1193.37 185.938C1190.53 201.058 1187.79 216.288 1187.7 231.668C1187.61 247.048 1190.31 262.738 1197.78 276.188C1199.77 279.768 1202.6 283.508 1206.67 283.958C1209.49 284.268 1212.26 282.868 1214.4 280.988C1221.53 274.738 1222.74 264.298 1223.75 254.868C1225.7 236.498 1228.65 218.238 1232.58 200.178C1234.81 189.938 1237.38 179.678 1241.97 170.248"></path>
</g>
<path stroke-miterlimit="10" stroke-width="2.15" stroke="black" d="M1245.18 148.689C1245.18 148.689 1243.6 160.459 1235 177.159C1226.4 193.859 1210.84 264.679 1210.84 264.679C1210.84 264.679 1198.5 179.909 1210.84 152.009C1223.18 124.109 1232.84 122.949 1232.84 122.949"></path>
<path stroke-miterlimit="10" stroke-width="2.15" stroke="black" fill="#1E4A1F" d="M1057.77 160.749C1063.08 161.879 1072.17 163.719 1079.13 164.619L1073.5 153.079C1073.5 153.079 1112.67 153.349 1132.52 147.449C1132.52 147.449 1144.26 178.499 1106.23 201.169C1076.99 218.599 1056.38 191.939 1046.73 176.479C1043.79 171.769 1045.08 165.579 1049.63 162.409C1052 160.759 1054.95 160.149 1057.78 160.759L1057.77 160.749Z"></path>
<path fill="#428222" d="M1256.71 178.047C1264.25 193.817 1263.04 210.917 1262.86 227.887C1262.7 243.347 1264.87 258.617 1267.49 273.817C1270.93 293.787 1275.15 313.677 1280.06 333.347C1280.06 333.347 1239.82 275.397 1235.53 237.847C1231.38 201.537 1253.24 170.777 1253.24 170.777C1253.24 170.777 1256.71 178.037 1256.72 178.047H1256.71Z"></path>
<mask height="164" width="46" y="170" x="1235" maskUnits="userSpaceOnUse" style="mask-type:luminance" id="mask2_4023_1359">
<path fill="white" d="M1256.71 178.047C1264.25 193.817 1263.04 210.917 1262.86 227.887C1262.7 243.347 1264.87 258.617 1267.49 273.817C1270.93 293.787 1275.15 313.677 1280.06 333.347C1280.06 333.347 1239.82 275.397 1235.53 237.847C1231.38 201.537 1253.24 170.777 1253.24 170.777C1253.24 170.777 1256.71 178.037 1256.72 178.047H1256.71Z"></path>
</mask>
<g mask="url(#mask2_4023_1359)">
<path fill="#579B30" d="M1265.2 216.259C1260.27 231.999 1257.97 248.669 1259.65 265.069C1260.47 273.079 1262.22 280.949 1263.97 288.809C1265.64 296.329 1267.32 303.839 1268.99 311.359C1256.09 281.169 1243 250.129 1241.69 217.319C1241.35 208.689 1241.83 200.019 1240.79 191.449C1239.32 191.209 1238.02 192.399 1237.13 193.599C1233.71 198.189 1232.49 204.029 1231.73 209.699C1226.77 246.529 1237.38 283.959 1253.68 317.369C1258.37 326.989 1263.61 336.479 1270.85 344.369C1273.08 346.799 1275.55 349.109 1278.56 350.439C1281.57 351.779 1285.22 352.019 1288.09 350.399C1292.44 347.929 1293.62 342.219 1293.73 337.209C1293.87 330.759 1292.99 324.329 1292 317.949C1287.39 288.019 1280.5 258.499 1273.42 229.059"></path>
</g>
<path stroke-miterlimit="10" stroke-width="2.15" stroke="black" d="M1256.71 178.047C1264.25 193.817 1263.04 210.917 1262.86 227.887C1262.7 243.347 1264.87 258.617 1267.49 273.817C1270.93 293.787 1275.15 313.677 1280.06 333.347C1280.06 333.347 1239.82 275.397 1235.53 237.847C1231.38 201.537 1253.24 170.777 1253.24 170.777C1253.24 170.777 1256.71 178.037 1256.72 178.047H1256.71Z"></path>
<path fill="#428222" d="M1203.34 68.1289L1210.31 79.5689C1210.31 79.5689 1206.55 93.5189 1199.04 109.619C1191.53 125.719 1177.58 170.779 1177.58 190.639C1177.58 207.599 1168.58 150.569 1179.66 111.839C1182.05 103.479 1186.16 95.7089 1191.37 88.7489C1195.66 83.0089 1201.95 73.8989 1203.33 68.1389L1203.34 68.1289Z"></path>
<mask height="126" width="37" y="68" x="1174" maskUnits="userSpaceOnUse" style="mask-type:luminance" id="mask3_4023_1359">
<path fill="white" d="M1203.34 68.1289L1210.31 79.5689C1210.31 79.5689 1206.55 93.5189 1199.04 109.619C1191.53 125.719 1177.58 170.779 1177.58 190.639C1177.58 207.599 1168.58 150.569 1179.66 111.839C1182.05 103.479 1186.16 95.7089 1191.37 88.7489C1195.66 83.0089 1201.95 73.8989 1203.33 68.1389L1203.34 68.1289Z"></path>
</mask>
<g mask="url(#mask3_4023_1359)">
<path fill="#579B30" d="M1202.48 105.52C1193.14 110.55 1188.67 121.31 1185.37 131.39C1178.31 152.98 1173.45 175.29 1170.88 197.86C1174.13 199.36 1177.04 200.19 1180.59 200.72C1181.59 200.87 1182.64 200.97 1183.59 200.62C1185.16 200.04 1186.04 198.39 1186.69 196.84C1188.99 191.3 1190.12 185.35 1191.2 179.45C1195.5 155.95 1199.45 129.23 1202.49 105.53L1202.48 105.52Z"></path>
</g>
<path stroke-miterlimit="10" stroke-width="2.15" stroke="black" d="M1203.34 68.1289L1210.31 79.5689C1210.31 79.5689 1206.55 93.5189 1199.04 109.619C1191.53 125.719 1177.58 170.779 1177.58 190.639C1177.58 207.599 1168.58 150.569 1179.66 111.839C1182.05 103.479 1186.16 95.7089 1191.37 88.7489C1195.66 83.0089 1201.95 73.8989 1203.33 68.1389L1203.34 68.1289Z"></path>
<path fill="#438222" d="M1197.43 58.1069C1197.43 58.1069 1199.04 68.8369 1185.09 86.0069C1171.14 103.177 1152.36 158.307 1152.36 177.157C1152.36 177.157 1140.02 108.347 1164.35 76.4769C1186.2 47.8469 1186.16 39.5469 1186.16 39.5469L1197.43 58.1069Z"></path>
<mask height="139" width="49" y="39" x="1149" maskUnits="userSpaceOnUse" style="mask-type:luminance" id="mask4_4023_1359">
<path fill="white" d="M1197.43 58.1069C1197.43 58.1069 1199.04 68.8369 1185.09 86.0069C1171.14 103.177 1152.36 158.307 1152.36 177.157C1152.36 177.157 1140.02 108.347 1164.35 76.4769C1186.2 47.8469 1186.16 39.5469 1186.16 39.5469L1197.43 58.1069Z"></path>
</mask>
<g mask="url(#mask4_4023_1359)">
<path fill="#579B30" d="M1198.97 65.0654C1199.26 63.6054 1197.47 62.4254 1196.01 62.7054C1194.55 62.9854 1193.45 64.1654 1192.46 65.2754C1185.51 73.0754 1178.57 80.8754 1171.62 88.6754C1170.13 90.3454 1168.64 92.0254 1167.36 93.8554C1158.7 106.255 1161.1 123.225 1155.64 137.325C1152.8 144.665 1147.91 151.015 1144.46 158.085C1141.01 165.155 1139.09 173.705 1142.5 180.795C1143.31 182.475 1144.49 184.095 1146.22 184.795C1148.57 185.755 1151.36 184.715 1153.15 182.915C1154.94 181.115 1155.92 178.675 1156.79 176.295C1166.95 148.405 1167.89 116.915 1183.72 91.8054C1186.24 87.8054 1189.12 84.0054 1191 79.6654"></path>
</g>
<path stroke-miterlimit="10" stroke-width="2.15" stroke="black" d="M1197.43 58.1069C1197.43 58.1069 1199.04 68.8369 1185.09 86.0069C1171.14 103.177 1152.36 158.307 1152.36 177.157C1152.36 177.157 1140.02 108.347 1164.35 76.4769C1186.2 47.8469 1186.16 39.5469 1186.16 39.5469L1197.43 58.1069Z"></path>
<path fill="#428222" d="M1159.34 -11.6316C1161.55 -8.04156 1160.58 -1.33156 1160.95 2.69844C1162.15 15.7084 1163.03 29.0184 1159.89 41.8484C1157.64 51.0284 1154.24 59.9984 1151.47 69.0384C1145.83 87.4384 1138.23 108.868 1141.09 128.408C1141.09 128.408 1122.31 113.918 1122.31 75.8284C1122.31 37.7384 1155.04 -18.6016 1155.04 -18.6016C1155.04 -18.6016 1159.32 -11.6416 1159.33 -11.6316H1159.34Z"></path>
<mask height="148" width="41" y="-19" x="1122" maskUnits="userSpaceOnUse" style="mask-type:luminance" id="mask5_4023_1359">
<path fill="white" d="M1159.34 -11.6316C1161.55 -8.04156 1160.58 -1.33156 1160.95 2.69844C1162.15 15.7084 1163.03 29.0184 1159.89 41.8484C1157.64 51.0284 1154.24 59.9984 1151.47 69.0384C1145.83 87.4384 1138.23 108.868 1141.09 128.408C1141.09 128.408 1122.31 113.918 1122.31 75.8284C1122.31 37.7384 1155.04 -18.6016 1155.04 -18.6016C1155.04 -18.6016 1159.32 -11.6416 1159.33 -11.6316H1159.34Z"></path>
</mask>
<g mask="url(#mask5_4023_1359)">
<path fill="#579B30" d="M1161.02 1.22656C1160.57 14.1166 1158.28 26.9466 1154.23 39.1966C1149.25 54.2366 1141.7 68.2566 1134.91 82.5666C1134.01 84.4666 1133.12 86.3866 1132.72 88.4566C1130.2 101.637 1132.37 115.677 1138.75 127.477C1139.78 129.377 1141.2 131.417 1143.35 131.677C1144.52 110.417 1148.9 89.4066 1155.11 69.0366C1157.32 61.7966 1159.52 54.5466 1161.73 47.3066C1162.79 43.8466 1163.84 40.3666 1164.54 36.8166C1166.35 27.6066 1165.69 18.1266 1165.55 8.74656"></path>
</g>
<path stroke-miterlimit="10" stroke-width="2.15" stroke="black" d="M1159.34 -11.6316C1161.55 -8.04156 1160.58 -1.33156 1160.95 2.69844C1162.15 15.7084 1163.03 29.0184 1159.89 41.8484C1157.64 51.0284 1154.24 59.9984 1151.47 69.0384C1145.83 87.4384 1138.23 108.868 1141.09 128.408C1141.09 128.408 1122.31 113.918 1122.31 75.8284C1122.31 37.7384 1155.04 -18.6016 1155.04 -18.6016C1155.04 -18.6016 1159.32 -11.6416 1159.33 -11.6316H1159.34Z"></path>
<path stroke-miterlimit="10" stroke-width="2.15" stroke="black" fill="#428222" d="M1143.8 -50.3415C1131.46 -33.6215 1119.07 -16.8315 1109.16 1.43848C1095.22 27.1485 1086.38 55.6085 1083.3 84.6885C1082.89 51.1785 1082.48 17.5385 1086.89 -15.6815C1088.33 -26.5115 1090.36 -37.5015 1095.72 -47.0115C1101.08 -56.5215 1110.37 -64.4215 1121.24 -65.5015C1130.15 -66.3915 1139.91 -61.8115 1143.8 -50.3415Z"></path>
<path fill="#428222" d="M1259.93 186.519C1260.74 192.559 1266.45 200.249 1271.84 203.109C1277.23 205.959 1283.22 207.989 1287.61 212.229C1292.11 216.579 1294.34 222.679 1297.15 228.269C1299.96 233.859 1304.78 241.129 1310.81 242.799C1300.64 231.649 1302.7 213.139 1292.81 201.749C1289.24 197.629 1284.42 194.849 1279.86 191.869C1270.49 185.759 1261.82 178.569 1254.1 170.469L1259.94 186.509L1259.93 186.519Z"></path>
<mask height="73" width="57" y="170" x="1254" maskUnits="userSpaceOnUse" style="mask-type:luminance" id="mask6_4023_1359">
<path fill="white" d="M1259.93 186.519C1260.74 192.559 1266.45 200.249 1271.84 203.109C1277.23 205.959 1283.22 207.989 1287.61 212.229C1292.11 216.579 1294.34 222.679 1297.15 228.269C1299.96 233.859 1304.78 241.129 1310.81 242.799C1300.64 231.649 1302.7 213.139 1292.81 201.749C1289.24 197.629 1284.42 194.849 1279.86 191.869C1270.49 185.759 1261.82 178.569 1254.1 170.469L1259.94 186.509L1259.93 186.519Z"></path>
</mask>
<g mask="url(#mask6_4023_1359)">
<path fill="#579B30" d="M1282.1 204.469C1285.29 206.409 1288.53 208.389 1291.01 211.169C1297.59 218.519 1297.96 230.359 1305.61 236.579C1308.41 238.859 1311.21 241.129 1314.01 243.409C1315.08 244.279 1316.18 245.199 1316.72 246.459C1317.26 247.729 1317 249.439 1315.8 250.109C1315.44 250.309 1315.03 250.399 1314.63 250.469C1308.2 251.529 1302.23 247.149 1297.46 242.709C1286.59 232.599 1277.3 220.799 1269.99 207.889C1269.09 206.299 1260.55 192.059 1264.45 191.309C1265.48 191.109 1271.24 197.249 1272.4 198.109C1275.51 200.409 1278.8 202.449 1282.09 204.459L1282.1 204.469Z"></path>
</g>
<path stroke-miterlimit="10" stroke-width="2.15" stroke="black" d="M1259.93 186.519C1260.74 192.559 1266.45 200.249 1271.84 203.109C1277.23 205.959 1283.22 207.989 1287.61 212.229C1292.11 216.579 1294.34 222.679 1297.15 228.269C1299.96 233.859 1304.78 241.129 1310.81 242.799C1300.64 231.649 1302.7 213.139 1292.81 201.749C1289.24 197.629 1284.42 194.849 1279.86 191.869C1270.49 185.759 1261.82 178.569 1254.1 170.469L1259.94 186.509L1259.93 186.519Z"></path>
<path fill="#428222" d="M1232.19 123.109C1248.86 127.249 1264.62 134.979 1278.09 145.629C1284.93 151.039 1291.23 157.239 1295.96 164.559C1298.46 168.429 1300.51 172.569 1302.52 176.719C1308.43 188.909 1314.09 201.229 1319.49 213.649C1322.31 220.129 1325.13 226.759 1329.77 232.099C1310.91 218.619 1298.75 197.379 1284.89 178.799C1278.5 170.239 1270.93 161.689 1260.67 158.709C1255.12 157.099 1248.51 153.399 1245.18 148.679"></path>
<mask height="110" width="98" y="123" x="1232" maskUnits="userSpaceOnUse" style="mask-type:luminance" id="mask7_4023_1359">
<path fill="white" d="M1232.19 123.109C1248.86 127.249 1264.62 134.979 1278.09 145.629C1284.93 151.039 1291.23 157.239 1295.96 164.559C1298.46 168.429 1300.51 172.569 1302.52 176.719C1308.43 188.909 1314.09 201.229 1319.49 213.649C1322.31 220.129 1325.13 226.759 1329.77 232.099C1310.91 218.619 1298.75 197.379 1284.89 178.799C1278.5 170.239 1270.93 161.689 1260.67 158.709C1255.12 157.099 1248.51 153.399 1245.18 148.679"></path>
</mask>
<g mask="url(#mask7_4023_1359)">
<path fill="#579B30" d="M1239.28 134.301C1241.39 139.151 1245.67 142.661 1249.79 145.981C1256.12 151.071 1262.47 156.171 1269.4 160.391C1272.79 162.451 1276.31 164.291 1279.56 166.571C1288.63 172.921 1294.85 182.531 1300.1 192.281C1305.35 202.031 1309.89 212.251 1316.65 221.031C1319.46 224.681 1322.66 228.091 1324.84 232.141C1325.61 233.571 1325.81 235.971 1324.21 236.231C1323.42 236.361 1322.71 235.791 1322.12 235.261C1306.18 220.651 1298.09 199.201 1283.04 183.671C1276.44 176.861 1268.64 171.341 1261.34 165.281C1254.04 159.221 1247.08 152.401 1242.88 143.901"></path>
</g>
<path stroke-miterlimit="10" stroke-width="2.15" stroke="black" d="M1232.19 123.109C1248.86 127.249 1264.62 134.979 1278.09 145.629C1284.93 151.039 1291.23 157.239 1295.96 164.559C1298.46 168.429 1300.51 172.569 1302.52 176.719C1308.43 188.909 1314.09 201.229 1319.49 213.649C1322.31 220.129 1325.13 226.759 1329.77 232.099C1310.91 218.619 1298.75 197.379 1284.89 178.799C1278.5 170.239 1270.93 161.689 1260.67 158.709C1255.12 157.099 1248.51 153.399 1245.18 148.679"></path>
<path stroke-miterlimit="10" stroke-width="2.15" stroke="black" fill="#428222" d="M1230.41 118.52C1244.85 119.29 1258.71 124.88 1271.02 132.47C1283.33 140.06 1295.21 149.7 1306.09 159.23C1298.11 150.82 1292.04 140.82 1285.27 131.4C1278.5 121.98 1270.74 112.89 1260.54 107.37C1250.79 102.09 1239.52 100.06 1228.44 99.6502C1226.53 99.5802 1225.73 99.5402 1221 100.73L1230.41 118.52Z"></path>
<path fill="#428222" d="M1182.13 32.8381C1188.48 40.7181 1197.73 45.7481 1207.24 49.1881C1216.75 52.6281 1226.72 54.6481 1236.36 57.7081C1249.54 61.8881 1262.24 68.0681 1272.71 77.1081C1278.45 82.0581 1283.45 87.8081 1288.19 93.7181C1298.64 106.768 1307.98 120.818 1319.97 132.478C1305.6 125.258 1294.36 112.298 1281.25 102.988C1272.83 97.0081 1263.4 92.4381 1253.49 89.5481C1239.05 85.3381 1223.63 84.6481 1209.68 79.0281C1199.66 63.8181 1190.67 48.9281 1182.14 32.8281L1182.13 32.8381Z"></path>
<mask height="101" width="138" y="32" x="1182" maskUnits="userSpaceOnUse" style="mask-type:luminance" id="mask8_4023_1359">
<path fill="white" d="M1182.13 32.8381C1188.48 40.7181 1197.73 45.7481 1207.24 49.1881C1216.75 52.6281 1226.72 54.6481 1236.36 57.7081C1249.54 61.8881 1262.24 68.0681 1272.71 77.1081C1278.45 82.0581 1283.45 87.8081 1288.19 93.7181C1298.64 106.768 1307.98 120.818 1319.97 132.478C1305.6 125.258 1294.36 112.298 1281.25 102.988C1272.83 97.0081 1263.4 92.4381 1253.49 89.5481C1239.05 85.3381 1223.63 84.6481 1209.68 79.0281C1199.66 63.8181 1190.67 48.9281 1182.14 32.8281L1182.13 32.8381Z"></path>
</mask>
<g mask="url(#mask8_4023_1359)">
<path fill="#579B30" d="M1191.07 48.7891C1199.15 58.2091 1207.56 67.8791 1218.74 73.2891C1224.39 76.0191 1230.54 77.5491 1236.64 79.0591C1243.52 80.7591 1250.41 82.4591 1257.29 84.1691C1270.01 87.3091 1280.78 95.6991 1290.14 104.859C1299.51 114.019 1307.94 124.199 1318.24 132.279C1320.93 134.389 1323.87 136.519 1325.12 139.699C1322.43 140.279 1319.88 138.459 1317.72 136.769C1304.61 126.489 1291 116.849 1276.94 107.919C1265.77 100.819 1254.12 94.0791 1241.29 90.8191C1235.65 89.3891 1229.86 88.6391 1224.23 87.1691C1218.6 85.6991 1213.02 83.4191 1208.81 79.4191C1202.38 73.3091 1200 64.1291 1195.03 56.7791"></path>
</g>
<path stroke-miterlimit="10" stroke-width="2.15" stroke="black" d="M1182.13 32.8381C1188.48 40.7181 1197.73 45.7481 1207.24 49.1881C1216.75 52.6281 1226.72 54.6481 1236.36 57.7081C1249.54 61.8881 1262.24 68.0681 1272.71 77.1081C1278.45 82.0581 1283.45 87.8081 1288.19 93.7181C1298.64 106.768 1307.98 120.818 1319.97 132.478C1305.6 125.258 1294.36 112.298 1281.25 102.988C1272.83 97.0081 1263.4 92.4381 1253.49 89.5481C1239.05 85.3381 1223.63 84.6481 1209.68 79.0281C1199.66 63.8181 1190.67 48.9281 1182.14 32.8281L1182.13 32.8381Z"></path>
<path fill="black" d="M1191.91 50.418C1195.28 55.698 1201.4 58.178 1206.84 60.748C1223.79 68.378 1242.09 71.618 1259.56 78.048C1265.36 80.328 1271.29 82.538 1276.44 86.148C1281.65 89.638 1286.07 94.228 1290.02 99.018C1298 108.448 1305.86 117.968 1313.63 127.578C1270.62 81.158 1285.15 88.188 1223.6 68.768C1217.01 66.538 1210.5 63.898 1204.33 60.628C1199.69 58.018 1194.48 55.318 1191.92 50.418H1191.91Z"></path>
<path stroke-miterlimit="10" stroke-width="2.15" stroke="black" fill="#428222" d="M1156.42 -16.4509C1160.83 -11.9609 1165.92 -8.20094 1170.98 -4.46094C1181.42 3.25906 1192 11.0591 1204.03 15.9591C1217.64 21.5191 1232.94 23.3091 1245.15 31.5091C1256.23 38.9591 1263.7 51.0591 1275.2 57.8291C1261.86 53.0991 1249.49 44.9091 1236.8 38.6291C1224.09 32.3391 1210.65 27.5091 1196.83 24.2891C1189.48 22.5691 1181.69 21.1491 1175.89 16.3191C1172.05 13.1191 1169.45 8.70906 1166.94 4.39906C1163.12 -2.14094 1158.82 -9.28094 1156.43 -16.4609L1156.42 -16.4509Z"></path>
<path fill="black" d="M1158.62 -11.7617C1155.15 -1.88172 1151.54 7.94828 1147.82 17.7283C1144.22 27.3683 1140.63 37.4283 1138.82 47.5683C1134.68 68.0683 1134.32 89.0383 1133.29 109.878C1133.09 104.648 1133.03 99.4083 1132.96 94.1683C1132.88 73.2183 1134.19 51.9283 1140.68 31.8483C1145.86 17.0783 1152.37 2.57828 1158.62 -11.7617Z"></path>
<path stroke-miterlimit="10" stroke-width="2.15" stroke="black" fill="#428222" d="M1144.36 -51.1302C1150.96 -40.7202 1162.02 -33.9002 1173.47 -29.3302C1184.92 -24.7602 1197.04 -22.1002 1208.63 -17.8902C1233.38 -8.9102 1255.01 6.8398 1276.26 22.3898C1269.18 13.2698 1267.55 0.0298023 1260.75 -9.3002C1254.64 -17.6802 1245.21 -22.9602 1235.7 -27.0902C1216.44 -35.4502 1195.73 -40.1302 1176.55 -48.6602C1171.23 -51.0302 1165.97 -53.7102 1160.26 -54.8702C1154.55 -56.0302 1148.93 -54.7502 1144.37 -51.1302H1144.36Z"></path>
<path fill="black" d="M1275.19 235.167C1268.76 216.127 1262.85 196.837 1256.33 177.837C1249.41 158.987 1240.79 140.777 1231.62 122.927C1220.66 102.957 1203.4 72.9869 1192.24 52.7769C1179.3 29.6369 1164.97 5.97688 1154.71 -18.4731C1149.52 -30.8531 1144.88 -43.5331 1142.19 -56.7031C1145.36 -43.6531 1150.18 -31.1031 1155.68 -18.8931C1166.29 5.31688 1180.99 28.7169 1193.94 51.7869C1205.33 72.0369 1222.5 101.837 1233.36 122.027C1242.53 139.977 1250.99 158.337 1257.61 177.387C1263.89 196.537 1269.38 215.877 1275.19 235.167Z"></path>
<path fill="black" d="M1260.47 192.719C1238.01 222.789 1252.28 261.969 1262.87 293.919C1266.72 305.069 1270.87 316.119 1275.32 327.069C1264.93 305.789 1256.51 283.569 1250.47 260.639C1244.58 238.099 1244.11 211.099 1260.47 192.719Z"></path>
<path fill="black" d="M1236.62 132.867C1226.03 140.527 1219.69 165.387 1217.46 178.077C1212.94 205.617 1212.85 233.697 1209.74 261.437C1209.98 250.247 1210.36 239.077 1210.88 227.907C1212.24 200.177 1212.99 170.987 1226.07 145.797C1228.62 140.867 1231.76 135.817 1236.61 132.877L1236.62 132.867Z"></path>
<path fill="black" d="M1191.98 54.4202C1187.04 56.6902 1185.15 62.1002 1183.5 66.8902C1181.86 71.8702 1179.8 76.7702 1177.25 81.3902C1174.75 86.0402 1171.65 90.4002 1168.42 94.5002C1156.57 108.21 1157.79 121.41 1156.21 138.28C1155.19 148.72 1153.37 159.09 1150.7 169.22C1152.54 158.91 1153.82 148.54 1154.54 138.14C1155.59 120.87 1154.54 107.18 1166.83 93.2502C1170.14 89.2102 1173.17 85.0502 1175.81 80.5602C1178.44 76.0902 1180.66 71.4002 1182.54 66.5202C1184.49 61.8202 1186.82 56.2502 1192.01 54.4102L1191.98 54.4202Z"></path>
<path fill="black" d="M1144.06 -51.3711C1164.81 -39.4811 1187.87 -33.8511 1210.25 -25.9211C1232.64 -17.8811 1253.2 -4.2711 1268.74 13.7589C1252.02 -3.0011 1231.77 -15.9511 1209.5 -23.9011C1187.31 -31.8211 1163.86 -38.0511 1144.06 -51.3711Z"></path>
<path fill="black" d="M1160.93 -9.5625C1179.34 11.3575 1176.26 14.1275 1205.1 22.6375C1223.03 28.4475 1241.26 35.3775 1255.99 47.4575C1236.33 33.9175 1213.19 27.9175 1190.94 20.1075C1174.69 14.1175 1170.77 2.8475 1160.92 -9.5625H1160.93Z"></path>
<path fill="black" d="M1226.23 108.318C1243.68 108.178 1261.31 115.208 1273.85 127.338C1259.49 117.658 1243.31 111.188 1226.23 108.318Z"></path>
<path fill="black" d="M1205.88 77.3281C1195.64 91.5481 1187.27 107.298 1183.34 124.408C1181.57 131.798 1180.28 142.768 1179.13 150.398C1177.87 159.118 1176.48 167.828 1174.95 176.518C1176.6 158.898 1177.72 141.338 1181.24 123.928C1185.28 106.598 1194.21 90.6181 1205.88 77.3381V77.3281Z"></path>
<path fill="black" d="M1238.37 134.557C1245.39 141.787 1254.61 146.037 1263.49 150.557C1287.98 161.797 1301.43 182.517 1311.94 206.377C1313.93 210.987 1315.89 215.587 1317.71 220.257C1313.25 211.287 1308.85 202.287 1303.9 193.637C1293.5 175.367 1281.69 161.647 1262.71 152.027C1254 147.247 1244.77 142.387 1238.38 134.547L1238.37 134.557Z"></path>
<path stroke-miterlimit="10" stroke-width="2.15" stroke="black" fill="#0A2810" d="M1093.87 -14.902C1093.87 -14.902 1149.24 -35.492 1167.54 -56.082L1196.73 -44.012C1197.1 -43.862 1197.21 -43.382 1196.95 -43.082C1191.52 -36.992 1146.49 11.998 1106.23 10.488C1063.31 8.87797 1093.88 -14.902 1093.88 -14.902H1093.87Z"></path>
<path fill="#1E4E22" d="M904.49 -47.9916C904.49 -47.9916 967.8 24.6384 1032.18 34.9984C1096.56 45.3584 1172.86 9.94844 1197.49 -43.7016C1197.49 -43.7016 1121.78 0.848437 1087.44 -5.60156L1103 -28.1516C1103 -28.1516 996.53 -32.8016 937.44 -52.5416C928.34 -55.5816 918.84 -57.2816 909.25 -57.3516C908.98 -57.3516 908.72 -57.3516 908.45 -57.3516C903.6 -57.3516 901.13 -51.5116 904.48 -48.0016L904.49 -47.9916Z"></path>
<mask height="95" width="296" y="-58" x="902" maskUnits="userSpaceOnUse" style="mask-type:luminance" id="mask9_4023_1359">
<path fill="white" d="M904.49 -47.9916C904.49 -47.9916 967.8 24.6384 1032.18 34.9984C1096.56 45.3584 1172.86 9.94844 1197.49 -43.7016C1197.49 -43.7016 1121.78 0.848437 1087.44 -5.60156L1103 -28.1516C1103 -28.1516 996.53 -32.8016 937.44 -52.5416C928.34 -55.5816 918.84 -57.2816 909.25 -57.3516C908.98 -57.3516 908.72 -57.3516 908.45 -57.3516C903.6 -57.3516 901.13 -51.5116 904.48 -48.0016L904.49 -47.9916Z"></path>
</mask>
<g mask="url(#mask9_4023_1359)">
<path fill="#27602A" d="M905.461 -49.922C932.231 -19.152 964.261 10.318 1004.23 18.418C1026.4 22.908 1049.42 20.418 1071.55 15.778C1126.69 4.20797 1178.95 -20.842 1222.51 -56.582C1210.63 -15.182 1181.29 19.688 1142.37 38.138C1103.45 56.598 1056.59 57.458 1017.01 40.458C971.381 20.848 936.521 -11.172 905.451 -49.922H905.461Z"></path>
</g>
<path stroke-miterlimit="10" stroke-width="2.15" stroke="black" d="M904.49 -47.9916C904.49 -47.9916 967.8 24.6384 1032.18 34.9984C1096.56 45.3584 1172.86 9.94844 1197.49 -43.7016C1197.49 -43.7016 1121.78 0.848437 1087.44 -5.60156L1103 -28.1516C1103 -28.1516 996.53 -32.8016 937.44 -52.5416C928.34 -55.5816 918.84 -57.2816 909.25 -57.3516C908.98 -57.3516 908.72 -57.3516 908.45 -57.3516C903.6 -57.3516 901.13 -51.5116 904.48 -48.0016L904.49 -47.9916Z"></path>
<path fill="#153817" d="M906.631 -55.8906C953.581 1.68938 1031 29.7594 1103.86 14.7094C1114.17 12.7294 1124.3 9.86937 1134.21 6.31937C1124.48 10.3294 1114.36 13.4094 1104.08 15.7394C1031.36 32.5594 951.541 3.80938 906.641 -55.8906H906.631Z"></path>
<path fill="#577721" d="M1321.84 16.9202C1320.46 17.9202 1318.64 18.9403 1316.45 18.3003C1314 17.5903 1312.71 15.2302 1312.67 13.4002C1312.63 11.1502 1313.74 9.23025 1314.85 7.36025C1318.14 1.78025 1321.44 -3.79975 1324.73 -9.37975C1327.29 -13.7197 1329.88 -18.0897 1333.53 -21.8197C1338.86 -27.2497 1345.81 -32.0798 1352.11 -36.8298C1356.96 -40.4898 1355.86 -36.3498 1355.1 -32.7898C1354.25 -28.7598 1353.08 -24.8298 1351.62 -21.0198C1345.95 -6.21975 1335.78 6.83025 1321.84 16.9202Z"></path>
<mask height="58" width="44" y="-39" x="1312" maskUnits="userSpaceOnUse" style="mask-type:luminance" id="mask10_4023_1359">
<path fill="white" d="M1321.84 16.9202C1320.46 17.9202 1318.64 18.9403 1316.45 18.3003C1314 17.5903 1312.71 15.2302 1312.67 13.4002C1312.63 11.1502 1313.74 9.23025 1314.85 7.36025C1318.14 1.78025 1321.44 -3.79975 1324.73 -9.37975C1327.29 -13.7197 1329.88 -18.0897 1333.53 -21.8197C1338.86 -27.2497 1345.81 -32.0798 1352.11 -36.8298C1356.96 -40.4898 1355.86 -36.3498 1355.1 -32.7898C1354.25 -28.7598 1353.08 -24.8298 1351.62 -21.0198C1345.95 -6.21975 1335.78 6.83025 1321.84 16.9202Z"></path>
</mask>
<g mask="url(#mask10_4023_1359)">
<path fill="black" d="M1357.05 -41.9102C1351.56 -22.3902 1332.14 -11.5402 1323.26 6.07984C1329.94 -12.8602 1349.3 -23.5602 1357.05 -41.9102Z"></path>
</g>
<path stroke-miterlimit="10" stroke-width="1.83" stroke="black" d="M1321.84 16.9202C1320.46 17.9202 1318.64 18.9403 1316.45 18.3003C1314 17.5903 1312.71 15.2302 1312.67 13.4002C1312.63 11.1502 1313.74 9.23025 1314.85 7.36025C1318.14 1.78025 1321.44 -3.79975 1324.73 -9.37975C1327.29 -13.7197 1329.88 -18.0897 1333.53 -21.8197C1338.86 -27.2497 1345.81 -32.0798 1352.11 -36.8298C1356.96 -40.4898 1355.86 -36.3498 1355.1 -32.7898C1354.25 -28.7598 1353.08 -24.8298 1351.62 -21.0198C1345.95 -6.21975 1335.78 6.83025 1321.84 16.9202Z"></path>
<path fill="#577721" d="M1366.85 53.7504C1367.76 55.8604 1369.07 58.2304 1371.34 58.5504C1373.88 58.9104 1375.96 56.4204 1376.67 53.9604C1377.55 50.9404 1377.23 47.7204 1376.9 44.5904C1375.92 35.2404 1374.94 25.8804 1373.96 16.5304C1373.2 9.25038 1372.43 1.92038 1370.42 -5.11962C1367.49 -15.3896 1362.84 -25.6996 1358.77 -35.5596C1355.63 -43.1596 1355.11 -36.9396 1354.49 -31.7096C1353.78 -25.7896 1353.4 -19.8296 1353.34 -13.8696C1353.09 9.28038 1357.67 32.4904 1366.85 53.7504Z"></path>
<mask height="99" width="25" y="-40" x="1353" maskUnits="userSpaceOnUse" style="mask-type:luminance" id="mask11_4023_1359">
<path fill="white" d="M1366.85 53.7504C1367.76 55.8604 1369.07 58.2304 1371.34 58.5504C1373.88 58.9104 1375.96 56.4204 1376.67 53.9604C1377.55 50.9404 1377.23 47.7204 1376.9 44.5904C1375.92 35.2404 1374.94 25.8804 1373.96 16.5304C1373.2 9.25038 1372.43 1.92038 1370.42 -5.11962C1367.49 -15.3896 1362.84 -25.6996 1358.77 -35.5596C1355.63 -43.1596 1355.11 -36.9396 1354.49 -31.7096C1353.78 -25.7896 1353.4 -19.8296 1353.34 -13.8696C1353.09 9.28038 1357.67 32.4904 1366.85 53.7504Z"></path>
</mask>
<g mask="url(#mask11_4023_1359)">
<path fill="black" d="M1356.28 -40.4883C1361.56 -14.1083 1365.62 12.4917 1368.42 39.2517C1363.13 12.8717 1359.09 -13.7283 1356.28 -40.4883Z"></path>
</g>
<path stroke-miterlimit="10" stroke-width="1.83" stroke="black" d="M1366.85 53.7504C1367.76 55.8604 1369.07 58.2304 1371.34 58.5504C1373.88 58.9104 1375.96 56.4204 1376.67 53.9604C1377.55 50.9404 1377.23 47.7204 1376.9 44.5904C1375.92 35.2404 1374.94 25.8804 1373.96 16.5304C1373.2 9.25038 1372.43 1.92038 1370.42 -5.11962C1367.49 -15.3896 1362.84 -25.6996 1358.77 -35.5596C1355.63 -43.1596 1355.11 -36.9396 1354.49 -31.7096C1353.78 -25.7896 1353.4 -19.8296 1353.34 -13.8696C1353.09 9.28038 1357.67 32.4904 1366.85 53.7504Z"></path>
<path fill="#577721" d="M1391.77 16.639C1393.15 17.639 1394.97 18.659 1397.16 18.019C1399.61 17.309 1400.9 14.949 1400.94 13.119C1400.98 10.869 1399.87 8.949 1398.76 7.079C1395.47 1.499 1392.17 -4.081 1388.88 -9.661C1386.32 -14.001 1383.73 -18.371 1380.08 -22.101C1374.75 -27.531 1367.8 -32.361 1361.5 -37.111C1356.65 -40.771 1357.75 -36.631 1358.51 -33.071C1359.36 -29.041 1360.53 -25.111 1361.99 -21.301C1367.66 -6.501 1377.83 6.549 1391.77 16.639Z"></path>
<mask height="58" width="44" y="-39" x="1357" maskUnits="userSpaceOnUse" style="mask-type:luminance" id="mask12_4023_1359">
<path fill="white" d="M1391.77 16.639C1393.15 17.639 1394.97 18.659 1397.16 18.019C1399.61 17.309 1400.9 14.949 1400.94 13.119C1400.98 10.869 1399.87 8.949 1398.76 7.079C1395.47 1.499 1392.17 -4.081 1388.88 -9.661C1386.32 -14.001 1383.73 -18.371 1380.08 -22.101C1374.75 -27.531 1367.8 -32.361 1361.5 -37.111C1356.65 -40.771 1357.75 -36.631 1358.51 -33.071C1359.36 -29.041 1360.53 -25.111 1361.99 -21.301C1367.66 -6.501 1377.83 6.549 1391.77 16.639Z"></path>
</mask>
<g mask="url(#mask12_4023_1359)">
<path fill="black" d="M1356.56 -42.1914C1364.31 -23.8414 1383.66 -13.1414 1390.35 5.79859C1381.47 -11.8214 1362.06 -22.6714 1356.56 -42.1914Z"></path>
</g>
<path stroke-miterlimit="10" stroke-width="1.83" stroke="black" d="M1391.77 16.639C1393.15 17.639 1394.97 18.659 1397.16 18.019C1399.61 17.309 1400.9 14.949 1400.94 13.119C1400.98 10.869 1399.87 8.949 1398.76 7.079C1395.47 1.499 1392.17 -4.081 1388.88 -9.661C1386.32 -14.001 1383.73 -18.371 1380.08 -22.101C1374.75 -27.531 1367.8 -32.361 1361.5 -37.111C1356.65 -40.771 1357.75 -36.631 1358.51 -33.071C1359.36 -29.041 1360.53 -25.111 1361.99 -21.301C1367.66 -6.501 1377.83 6.549 1391.77 16.639Z"></path>
</g>
<defs>
<linearGradient gradientUnits="userSpaceOnUse" y2="204.996" x2="1399.48" y1="51.2324" x1="1230.18" id="paint0_linear_4023_1359">
<stop stop-color="#162F33"></stop>
<stop stop-color="#0F2629" offset="0.3"></stop>
<stop stop-color="#031718" offset="0.99"></stop>
</linearGradient>
<linearGradient gradientUnits="userSpaceOnUse" y2="37.1976" x2="1227.05" y1="159.198" x1="1289.65" id="paint1_linear_4023_1359">
<stop stop-color="#1C3A3D"></stop>
<stop stop-color="#19636C" offset="0.82"></stop>
</linearGradient>
<linearGradient gradientUnits="userSpaceOnUse" y2="151.616" x2="1307.93" y1="297.248" x1="1382.65" id="paint2_linear_4023_1359">
<stop stop-color="#1C3A3D"></stop>
<stop stop-color="#19636C" offset="0.82"></stop>
</linearGradient>
<clipPath id="clip0_4023_1359">
<rect fill="white" height="1280" width="1920"></rect>
</clipPath>
</defs>
</svg>
